<?xml version="1.0" encoding="UTF-8"?><svg id="Calque_1" xmlns="http://www.w3.org/2000/svg" viewBox="0 0 332.61 192.41"><defs><style>.cls-1{fill:#f8e7ff;}.cls-2{fill:#66301a;}</style></defs><path class="cls-1" d="M306.58,162.9c0-74.6-60.47-135.07-135.07-135.07S36.43,88.3,36.43,162.9h270.15Z"/><path class="cls-2" d="M119.65,89.03c.12,0,.18.08.19.27,0,.14-.01.24-.07.29-.06.05-.19.11-.4.17-.35.09-.81.27-1.39.55-.58.27-1.18.59-1.82.96-.64.37-1.28.77-1.92,1.2s-1.21.86-1.73,1.29c-.29.23-.52.42-.68.56-.16.14-.27.27-.35.38-.08.11-.13.22-.16.33-.03.11-.06.25-.1.42-.08.55-.26,1.26-.51,2.13-.25.87-.54,1.78-.86,2.74-.32.96-.66,1.89-1,2.81-.35.92-.68,1.71-.99,2.37-.23.46-.54,1.05-.91,1.74-.37.7-.77,1.42-1.18,2.15-.42.74-.83,1.44-1.22,2.12-.4.67-.75,1.24-1.05,1.68-.41.64-.88,1.28-1.39,1.91-.52.64-1.04,1.24-1.58,1.8-.53.57-1.05,1.06-1.54,1.5-.5.43-.94.75-1.33.97-.64.35-1.3.54-1.99.58-.31.02-.57,0-.79-.06-.14-.04-.32-.14-.52-.31-.2-.17-.4-.36-.6-.58-.2-.22-.39-.47-.56-.73-.17-.26-.3-.5-.38-.71-.08-.23-.16-.49-.21-.79-.05-.29-.09-.58-.12-.86-.03-.28-.03-.53-.01-.73.02-.2.07-.34.14-.42.16-.13.15-.19-.01-.18-.14,0-.21-.03-.22-.13,0-.12.04-.34.14-.67s.22-.69.38-1.11c.15-.41.33-.85.54-1.31.21-.46.41-.9.59-1.32.11-.22.29-.55.54-.99.26-.44.52-.88.79-1.33.27-.44.51-.83.71-1.18.2-.34.32-.52.34-.52.07,0,.06.09-.02.28-.01.17.13.04.44-.38.24-.35.51-.71.82-1.1.31-.39.63-.78.97-1.2.34-.41.68-.81,1.03-1.2.34-.39.66-.75.95-1.07.36-.35.72-.74,1.1-1.15.38-.41.67-.73.86-.96.22-.23.45-.45.69-.67.24-.21.41-.35.53-.4.11-.08.31-.23.58-.45.27-.22.53-.44.78-.67.45-.43.9-.82,1.37-1.18.46-.36,1.04-.79,1.71-1.28.41-.33.64-.62.69-.86.02-.09.05-.26.09-.5.04-.24.08-.49.11-.75.09-.41.16-.77.2-1.1.04-.32.07-.66.08-1,.01-.34.02-.71,0-1.08-.01-.38-.03-.83-.06-1.35-.04-.71-.1-1.34-.17-1.91-.07-.56-.17-1.14-.3-1.72-.14-.68-.26-1.21-.37-1.61-.11-.4-.21-.7-.3-.9-.1-.21-.2-.34-.31-.41-.11-.06-.24-.09-.38-.08-.17,0-.37-.04-.61-.14.03.07.05.2.06.39.08.56.05,1.08-.08,1.55s-.42,1.12-.84,1.95c-.3.56-.53,1.04-.69,1.43-.17.39-.25.64-.24.76,0,.07-.06.27-.19.6-.13.33-.3.7-.5,1.12-.2.42-.41.83-.64,1.25-.22.42-.42.76-.59,1.03-.11.15-.25.39-.44.72s-.36.66-.53.97c-.3.54-.69,1.17-1.16,1.9s-.99,1.46-1.54,2.19c-.55.73-1.11,1.41-1.69,2.02-.58.62-1.13,1.09-1.65,1.43-.43.24-.84.37-1.22.39-.35.02-.75-.09-1.19-.35-.54-.32-.95-.69-1.24-1.11-.29-.42-.51-.97-.67-1.65-.1-.51-.14-1.09-.12-1.72.02-.63.13-1.48.32-2.56.05-.29.11-.56.16-.83.06-.26.13-.57.23-.92.1-.35.21-.77.33-1.26.12-.49.29-1.1.51-1.83.04-.14.15-.48.35-1.02.19-.53.4-1.09.63-1.67.22-.6.42-1.14.59-1.62s.26-.76.25-.85c0-.09.03-.27.11-.54.08-.26.19-.57.33-.91.14-.34.3-.71.47-1.09.17-.39.34-.75.54-1.1l1.5-2.72c.06-.15.14-.24.23-.28.09-.04.27-.07.53-.09.26-.02.42-.01.5,0,.07.02.14.09.19.2.03.19.18.24.44.15.28-.09.39-.05.33.12-.04.14-.02.21.05.21.12,0,.21.09.27.3.06.21.05.39-.04.53-.04.07-.1.21-.17.42-.07.21-.15.43-.22.67-.06.22-.17.53-.33.94-.16.41-.33.79-.5,1.13-.17.36-.38.82-.63,1.37-.25.55-.46,1.03-.62,1.44-.16.41-.34.84-.53,1.27s-.33.75-.44.95c-.12.27-.29.72-.49,1.34-.2.63-.41,1.31-.62,2.04-.22.74-.42,1.48-.61,2.22s-.34,1.37-.45,1.88c-.08.31-.15.7-.23,1.15-.08.46-.14.89-.19,1.31-.04.42-.08.78-.11,1.07-.03.3-.03.46,0,.48.09,0,.28-.14.56-.39.28-.25.6-.58.97-.96.37-.39.74-.81,1.13-1.28.39-.46.74-.89,1.08-1.29.33-.4.6-.75.81-1.04.21-.3.31-.47.31-.52,0-.02.05-.1.16-.24.11-.14.24-.3.39-.5.31-.37.73-.97,1.26-1.8.53-.83,1.07-1.73,1.63-2.71.43-.74.61-1.18.56-1.35-.08-.16-.07-.19.03-.07.08.11.23-.05.47-.49.32-.63.52-1.07.63-1.32.1-.24.15-.41.15-.51,0-.05.05-.19.17-.44.11-.24.25-.52.41-.84s.33-.64.51-.97c.18-.33.35-.62.5-.87-.05-.11-.07-.21-.04-.3.03-.09.11-.24.24-.46.26-.37.5-.56.71-.58.26-.06.42-.13.49-.21.11-.1.21-.05.29.16.09.23.2.34.34.33.05,0,.15.07.3.21.15.15.3.32.46.52.36.41.71,1.03,1.05,1.87.35.84.63,1.72.85,2.63.1.4.19.85.28,1.37.09.52.17,1.04.24,1.57.07.53.12,1.03.15,1.5.03.47.04.85.03,1.13,0,.69.03,1.02.1.99.05,0,.21-.09.48-.28.27-.18.59-.38.96-.59.87-.55,1.38-.83,1.55-.84.07,0,.02.08-.16.26-.16.13-.22.19-.18.19s.21-.07.54-.21c.32-.14.57-.26.74-.38.17-.12.22-.17.15-.17-.05,0-.15.03-.31.09-.16.06-.27.1-.31.13-.09.05-.14.03-.15-.06,0-.05.09-.12.29-.21.2-.09.43-.2.71-.31.23-.11.43-.19.59-.25.16-.06.32-.1.47-.13.15-.03.32-.05.49-.07.18-.01.38-.01.62,0,.54.01.93.06,1.14.13.22.07.31.19.27.36-.01.14.04.21.15.2ZM93.08,97.11c.13-2.14.6-4.35,1.41-6.62.08-.22.15-.41.2-.58.05-.17.07-.28.07-.32,0-.12-.06-.16-.17-.11-.1.04-.21.15-.32.32-.15.22-.27.26-.35.13-.08-.11-.2.08-.35.59-.43,1.54-.6,2.39-.52,2.55.05.11.02.2-.09.25-.04.03-.1.2-.17.51-.06.31-.12.68-.16,1.11-.04.43-.08.85-.1,1.27-.02.42-.01.74.02.98.08.85.17,1.27.29,1.26.09,0,.17-.45.24-1.33ZM94.05,89.17c-.06.19-.07.32-.05.38.03.06.08.03.17-.1.11-.17.16-.3.15-.4s-.04-.13-.11-.1c-.07.03-.12.1-.16.22ZM95.39,86.03c-.11.12-.23.32-.36.57-.13.26-.24.51-.34.77-.1.26-.18.49-.24.71-.06.22-.07.36-.05.43.08.21.13.21.14,0,0-.14.04-.22.13-.22.09,0,.14.04.15.13.05,0,.15-.24.31-.71.16-.47.36-1.12.59-1.94.02-.07-.09.02-.34.27ZM94.53,117.38c.03.09.14.13.33.12.4-.02.94-.28,1.62-.77.25-.2.54-.45.86-.75.33-.29.61-.56.86-.82.25-.25.54-.59.88-1.01.34-.42.69-.86,1.04-1.31.35-.45.67-.88.95-1.28.28-.41.5-.75.65-1.02.54-.89.92-1.47,1.14-1.76s.38-.46.47-.51c.05-.03.17-.2.38-.52.21-.32.42-.7.66-1.14.25-.49.52-1.04.8-1.67.28-.62.55-1.21.8-1.75.25-.55.46-1.01.63-1.39.17-.38.24-.58.21-.6-.02,0-.08.07-.17.21-.09.14-.18.3-.27.5-.09.2-.18.39-.27.58-.08.2-.15.35-.18.47-.01.14-.06.22-.13.22-.03-.04,0-.18.06-.39s.16-.46.26-.73c.1-.27.21-.51.31-.73.11-.22.18-.34.23-.37.04-.05.13-.21.25-.48.13-.27.25-.59.37-.98.22-.65.38-1.12.47-1.4.09-.28.09-.41,0-.41-.07,0-.37.24-.88.69-.68.56-1.42,1.25-2.22,2.07-.8.82-1.59,1.67-2.37,2.54-.78.88-1.5,1.74-2.19,2.6-.68.86-1.24,1.62-1.67,2.29-.5.76-.98,1.57-1.43,2.41-.46.85-.87,1.65-1.22,2.42-.36.77-.65,1.47-.87,2.11-.22.64-.34,1.14-.37,1.5,0,.24-.01.46-.01.66,0,.2.01.32.04.37ZM106.93,104.08c.09-.15.22-.47.4-.97.18-.5.37-1.02.56-1.56.19-.54.36-1.04.49-1.5.14-.46.2-.73.2-.83-.07,0-.24.35-.51,1.03-.12.34-.28.71-.48,1.1-.2.39-.38.71-.53.96-.18.22-.33.47-.47.74-.14.27-.24.49-.3.66-.04.14-.09.27-.16.38-.06.11-.11.17-.13.17-.07,0-.1.08-.09.22,0,.12-.04.18-.13.19-.12,0-.14.04-.06.11,0,.02-.02.11-.05.27-.04.16-.09.31-.17.47-.07.16-.14.31-.2.44-.06.13-.12.2-.17.21-.07,0-.1.08-.09.22.01.17-.02.21-.1.15-.07-.04-.11,0-.1.15.06.14.02.21-.09.22-.12,0-.15.07-.1.18.03.07.02.18-.03.34-.05.16-.13.32-.24.49-.11.17-.18.31-.22.42-.04.11-.04.16,0,.16.07,0,.11.07.12.21,0,.12-.04.27-.15.45-.11.18-.22.28-.34.29-.05,0-.05-.03-.02-.11.03-.07.09-.15.18-.22.15-.22.19-.37.12-.43-.07-.04-.19.08-.33.38-.19.41-.33.49-.41.24-.06-.14-.12-.08-.2.19-.13.25-.11.29.04.14.11-.13.17-.14.19-.03.02.11-.04.29-.16.56-.1.27-.23.34-.38.24-.13-.11-.22-.09-.28.05-.15.34-.46.84-.94,1.51-.48.67-1.01,1.36-1.58,2.07-.57.71-1.14,1.38-1.69,2-.55.63-.99,1.07-1.3,1.32-.2.18-.45.35-.73.52-.29.17-.52.29-.71.34-.39.14-.62.24-.67.29-.06.05-.03.13.07.25.13.13.32.19.58.18.26-.02.56-.11.89-.27.33-.16.66-.35.98-.56.32-.21.62-.43.9-.68.28-.24.51-.46.69-.66.25-.23.46-.42.64-.59.18-.17.29-.25.34-.25.1.07.17.05.21-.05.02-.1,0-.14-.08-.14-.05,0,0-.1.14-.31.14-.21.33-.46.57-.76.24-.3.53-.67.86-1.12.33-.45.61-.84.85-1.19.22-.34.41-.64.59-.87.17-.24.29-.36.33-.36.1.04.12.02.07-.08-.03-.05.07-.29.27-.73.21-.44.49-.97.83-1.58.32-.59.61-1.14.86-1.65.25-.51.4-.83.44-.95s.1-.27.19-.46.17-.33.26-.46c.09-.12.16-.24.21-.35.05-.11.08-.18.08-.2,0-.02.02-.09.08-.2.05-.11.11-.24.17-.38ZM99.04,105.21c.07,0,.14-.08.2-.23.11-.13.14-.19.1-.18-.07,0-.14.07-.2.19l-.09.22ZM99.8,104.31l.53-.63c.2-.23.32-.38.36-.45.07-.07.12-.14.17-.19,0-.12-.07-.11-.19.01-.12.13-.27.32-.45.6l-.42.67ZM108.65,94.96s-.09.04-.19.12c-.1.08-.27.21-.49.38-.23.18-.53.43-.91.75-.38.32-.87.74-1.45,1.24-.79.69-1.62,1.47-2.5,2.36-.88.88-1.68,1.72-2.39,2.52-.51.58-.73.86-.66.86.05,0,.14-.07.29-.21.14-.14.3-.3.47-.47.17-.18.33-.35.48-.51.16-.16.25-.26.27-.28.4-.45.67-.66.81-.62.17.04.28,0,.35-.13.11-.15.11-.22-.01-.21-.09,0-.06-.11.1-.34.16-.23.37-.46.62-.66.18-.15.31-.22.4-.2s.06.13-.07.32l-.1.18.17-.19c.16-.17.3-.27.45-.27.28-.02.3-.14.05-.36-.1-.11-.08-.26.06-.43.14-.17.52-.52,1.13-1.03.63-.54,1.15-.98,1.55-1.32.41-.34.73-.62.96-.82.24-.2.4-.36.49-.46.09-.1.13-.17.13-.22ZM101.42,114.54c.11-.17,0-.1-.31.23-.13.15-.25.29-.35.41-.1.12-.15.2-.15.22.02,0,.07-.03.14-.1s.14-.14.23-.24c.09-.1.18-.2.27-.28.09-.09.14-.17.16-.24ZM105.54,84.77c.23-.46.42-.85.55-1.15.14-.3.18-.46.13-.45-.07.08-.16.22-.28.44-.12.22-.25.46-.4.74-.15.27-.29.54-.43.82-.14.28-.25.52-.33.71-.08.22-.28.61-.58,1.19-.31.58-.64,1.15-.98,1.71-.86,1.5-1.26,2.24-1.21,2.24.07,0,.47-.57,1.21-1.71.22-.35.44-.71.66-1.09.22-.38.39-.68.5-.9.1-.22.27-.58.49-1.08.22-.5.44-.99.67-1.48ZM103.19,100.33c0,.09.05.12.15.06.07-.08.1-.12.1-.15,0-.05-.04-.07-.11-.06-.09,0-.14.06-.13.15ZM104.62,99.32c.09,0,.11-.05.06-.14-.1-.09-.17-.13-.22-.13-.07,0-.08.05-.03.14s.12.13.19.13ZM104.87,98.85c-.12-.04-.16-.01-.1.08.05.09.11.12.18.1.07-.03.18-.12.34-.27.13-.13.2-.2.2-.21s-.06-.01-.18,0c-.17-.01-.25.05-.24.19,0,.09-.06.13-.21.12ZM105.17,108.38c.08-.19.1-.28.05-.25-.04.03-.12.15-.23.37-.06.1-.11.18-.13.24-.02.06,0,.07.04.02.04-.03.09-.08.13-.15.04-.07.09-.15.13-.22ZM106.16,81.61c.06-.12.13-.25.19-.37.06-.12.13-.23.19-.33-.1-.09-.18-.17-.23-.23-.11.17-.21.38-.32.62-.1.24-.2.47-.28.67-.08.21-.14.38-.18.53s-.05.22-.02.21c.02,0,.09-.11.21-.33.12-.22.26-.48.43-.77ZM106.36,97.58c-.14.06-.21.1-.22.14,0,.04.04.05.16.04s.2-.06.24-.16c.07-.07,0-.08-.18-.02ZM106.83,97.2c0,.12.06.14.15.08s.2-.2.33-.39l.26-.44-.37.31c-.25.23-.37.38-.36.45Z"/><path class="cls-2" d="M125.46,83.56c-.21-.04-.4-.05-.55-.06-.15,0-.22,0-.19.03,0,.02.04.12.12.28.08.16.18.36.29.59.22.51.38,1,.48,1.46s.14,1.01.13,1.63c.02.66-.11,1.35-.39,2.07-.28.71-.64,1.39-1.1,2.02-.46.63-.99,1.2-1.6,1.7-.61.5-1.23.85-1.86,1.05-.23.06-.45.13-.66.22s-.35.14-.42.17c-.14.08-.31.13-.52.14-.24.01-.5-.02-.79-.09-.14-.04-.3-.11-.47-.2-.17-.1-.33-.21-.48-.34-.15-.13-.27-.26-.36-.39-.09-.12-.14-.23-.14-.33,0-.07-.12-.23-.35-.48-.18-.2-.33-.51-.46-.91-.13-.41-.22-.84-.28-1.32-.05-.47-.07-.96-.05-1.45.02-.5.09-.94.2-1.33.31-1.08.8-2.19,1.45-3.3.65-1.12,1.41-2.11,2.25-2.96l.64-.64-.27-.34c-.2-.2-.27-.34-.2-.41.04-.07.18-.1.41-.08.23.02.44.09.63.19.15.09.26.13.35.14s.18-.02.3-.07c.09-.05.26-.09.49-.1.26-.02.5.03.72.13.1.04.21.11.33.21s.25.21.38.33c.12.12.23.24.31.35.08.11.12.19.12.24,0,.12.23.19.67.22.44.03,1.01.03,1.72-.02,1.18-.07,2.35-.21,3.51-.43,1.16-.21,2.31-.47,3.45-.78l.71-.04s.12,0,.21,0c.09,0,.17.02.22.04l.15.06h.03s.08.06.08.06c-.05,0-.09.01-.12.03-.03.01-.08.02-.12.02-.19.06-.34.1-.45.13-.12.03-.16.06-.14.08.02.02.33-.04.91-.2.02.02.04.04.04.07h.04c0,.09.03.14.08.13,0,.05,0,.08.02.11s.02.05.02.07c-.03-.05-.03-.04-.02.02.02.06.02.1.03.12v.25s.01.08,0,.11c-.01.02-.01.05-.01.07l-.03.04s0,.04-.01.05c-.01.01-.02.03-.01.05-.02.03-.03.05-.03.07h-.04s-.02.06-.07.11h-.04s0,.04,0,.04c-1.28.36-2.57.65-3.85.88-1.29.22-2.48.36-3.56.43-.33.02-.65.04-.96.06-.31.02-.59.01-.85-.02ZM122.84,90.08c.4-.5.71-1.03.95-1.6.24-.57.4-1.14.48-1.72.08-.57.08-1.12-.01-1.63-.09-.52-.27-.98-.53-1.39-.13-.21-.23-.33-.31-.37-.07-.04-.19-.06-.36-.05-.21.01-.36-.01-.43-.08-.03-.04-.11-.09-.26-.13-.12,0-.21-.04-.28-.14-.06-.1-.08-.21-.04-.33,0-.09-.03-.13-.08-.1-.02,0-.12.09-.29.27-.17.18-.35.36-.53.57s-.35.39-.5.56c-.14.17-.21.27-.21.3-.02.05-.06.12-.11.2-.05.09-.14.19-.25.32-.11.12-.27.37-.47.72s-.42.75-.64,1.18c-.22.43-.43.85-.62,1.28-.19.43-.33.77-.43,1.04-.22.68-.36,1.39-.42,2.12-.06.74-.02,1.3.12,1.7.06.14.11.22.17.24.06.02.24.02.55,0,.42-.03.85-.13,1.28-.33.43-.19.84-.43,1.24-.72.4-.28.76-.6,1.1-.94.33-.34.62-.66.87-.96ZM132.93,81.33s-.04.04.02.04c.06,0,.15-.02.26-.05.26-.06.41-.12.45-.17.02-.02,0-.03-.05-.01-.06.02-.13.03-.23.05-.09.02-.19.04-.28.07-.09.03-.15.06-.17.08Z"/><path class="cls-2" d="M151.61,82.99s.06.03.12.17c.06.61.07,1.06.03,1.33-.04.27-.16.62-.34,1.03-.17.32-.42.76-.75,1.33-.33.57-.65,1.06-.96,1.48-.11.17-.23.36-.38.56-.14.2-.24.36-.31.48-.09.12-.25.33-.48.62-.23.29-.48.58-.75.88-.24.3-.48.59-.71.86-.23.27-.39.47-.48.6-.13.17-.4.42-.81.74-.41.32-.75.55-1.02.68-.19.08-.32.17-.41.27-.04.07-.24.15-.59.23-.35.08-.66.13-.92.14-.09,0-.22,0-.38-.05-.16-.04-.29-.08-.42-.12s-.23-.08-.33-.12c-.1-.04-.15-.09-.15-.13-.08-.07-.15-.1-.22-.09-.17,0-.39-.17-.69-.54-.3-.37-.51-.74-.65-1.12-.2-.49-.3-1.07-.3-1.76,0-.69.06-1.45.2-2.29.06-.21.1-.4.12-.56.03-.16.04-.24.04-.27-.02,0-.17.19-.43.56-.26.37-.57.82-.91,1.35-.35.53-.7,1.08-1.05,1.65-.36.57-.64,1.03-.86,1.4-.28.44-.5.76-.67.95-.17.19-.41.38-.73.56-.29.21-.58.32-.87.34-.24.01-.47,0-.7-.06-.23-.06-.41-.14-.53-.25-.1-.09-.2-.13-.29-.12-.12,0-.21-.05-.29-.16-.38-.47-.62-.86-.71-1.15-.09-.29-.11-.7-.07-1.22.1-1.12.32-2.29.66-3.52.34-1.23.84-2.68,1.49-4.35.23-.56.41-1.01.56-1.35s.27-.61.38-.8c.11-.2.2-.34.28-.43.08-.09.16-.16.25-.21.11-.08.25-.12.42-.11.17,0,.25.04.25.11,0,.09.08.14.22.13s.31.08.51.25c.17.13.27.23.3.3s.04.24.03.5c-.01.21-.05.42-.1.63-.06.21-.16.48-.31.82-.04.12-.08.24-.12.35-.04.11-.08.21-.12.31s-.07.19-.09.29c0,.02-.05.19-.17.49-.11.3-.25.66-.41,1.07-.16.41-.36.94-.58,1.58-.22.64-.41,1.2-.57,1.69-.12.39-.22.72-.29,1.01-.08.29-.14.57-.2.85-.05.28-.1.55-.14.83-.04.28-.09.59-.14.95l-.05.32.2-.26s.13-.14.25-.26c.12-.13.24-.24.35-.34.2-.2.44-.47.71-.81.28-.34.55-.71.84-1.13.07-.08.21-.27.43-.58.22-.31.46-.64.72-.98.26-.35.51-.67.74-.97.23-.3.38-.5.44-.6.04-.05.11-.12.18-.22.08-.1.14-.2.18-.29.07-.08.2-.25.39-.52.2-.27.41-.54.62-.82.31-.42.55-.75.74-1,.19-.25.34-.46.46-.65.12-.18.22-.35.29-.5.07-.15.15-.32.24-.51.31-.71.57-1.28.78-1.72.21-.44.4-.79.56-1.06.16-.27.3-.46.43-.56.12-.1.25-.16.36-.16.19-.01.3.02.33.09,0,.07.09.12.26.16.12.02.2.05.25.09.05.04.11.16.16.34.08.19.13.33.13.42,0,.09-.03.28-.11.54-.04.17-.09.34-.16.52-.07.18-.15.33-.24.46-.43.71-.85,1.61-1.26,2.69-.41,1.08-.78,2.22-1.1,3.42-.31,1.16-.5,2.12-.59,2.9-.08.77-.06,1.43.07,1.97.04.21.07.34.11.38.04.05.13.09.28.12.17.04.29.02.35-.06.09-.1.26-.18.52-.25.56-.17,1.3-.65,2.22-1.41.18-.15.46-.44.84-.85.38-.41.78-.86,1.21-1.35.43-.49.86-.99,1.28-1.52.42-.52.77-.97,1.06-1.34.28-.37.57-.78.87-1.22.29-.44.5-.8.63-1.07.15-.25.27-.46.37-.65.1-.18.17-.29.21-.31Z"/><path class="cls-2" d="M151.59,69.81c-.3.09-.5.12-.6.09s-.28-.19-.56-.48c-.23-.22-.42-.48-.58-.78-.16-.3-.22-.53-.18-.7,0-.09.15-.21.48-.35.14-.06.32-.16.53-.32.22-.16.44-.32.68-.5.24-.18.46-.37.68-.57s.4-.38.55-.53c.11-.1.22-.24.33-.41s.21-.34.31-.52c.1-.17.18-.34.25-.51.07-.17.11-.3.1-.4.05-.36-.55-.72-1.81-1.1-.19-.06-.4-.24-.6-.53-.21-.29-.36-.64-.45-1.04-.09-.37-.13-.62-.12-.74.02-.12.1-.22.27-.3.16-.08.4-.06.71.06.32.12.66.3,1.03.52.37.23.73.49,1.08.81.35.31.63.61.84.91.13.18.26.41.4.69.14.28.24.52.33.73.14.32.23.58.26.78.04.2.04.5.02.9,0,.29-.03.54-.06.75-.04.22-.1.41-.19.6-.09.18-.22.37-.38.56-.15.19-.35.41-.6.66-.38.4-.81.75-1.29,1.06-.48.3-.95.53-1.41.67Z"/><path class="cls-2" d="M175.31,81.94c.42-.5.67-.73.74-.7.07.03.05.32-.05.87-.04.14-.07.26-.1.36s-.07.2-.12.31c-.05.11-.12.23-.21.35-.09.12-.21.29-.36.48-.2.25-.37.46-.53.64s-.31.31-.45.42c-.15.1-.3.18-.47.22-.16.04-.35.09-.56.12-.47.05-.78.05-.92-.01-.05-.04-.12-.08-.22-.11s-.18-.07-.26-.11c-.15-.06-.33-.19-.56-.39-.23-.2-.45-.43-.67-.71-.22-.27-.41-.55-.58-.85-.17-.3-.3-.55-.38-.76-.06-.14-.11-.37-.17-.68-.06-.32-.1-.63-.15-.93-.04-.31-.08-.57-.12-.79-.04-.22-.07-.36-.1-.4-.08-.07-.2-.04-.39.09-.18.11-.26.19-.23.26.03.05.02.06-.03.04-.07-.04-.18.02-.33.18-.14.16-.18.27-.11.31.05.02.04.03-.03.04-.07-.02-.24.11-.49.39-.25.28-.48.55-.68.82-.11.17-.2.26-.27.27-.07.03-.15.1-.25.23-.1.12-.16.24-.17.33,0,.09-.05.18-.16.26-.12.05-.17.14-.16.26.03.07,0,.18-.09.33-.13.17-.28.41-.45.72-.17.31-.39.73-.67,1.27-.17.29-.32.56-.43.81-.12.24-.18.39-.21.44-.04.05-.08.12-.11.22-.03.1-.06.2-.1.33-.16.51-.3.91-.42,1.2-.12.29-.3.67-.53,1.13-.13.27-.26.53-.4.79-.14.26-.23.44-.27.53-.04.1-.12.26-.24.5s-.23.46-.33.68c-.13.25-.25.48-.37.71-.12.23-.19.41-.23.53-.1.27-.28.56-.52.87-.24.31-.42.47-.54.48-.05,0-.09,0-.14,0-.05,0-.1,0-.14-.03-.09,0-.17-.04-.22-.13-.03-.07-.13-.12-.29-.16-.14-.04-.24-.09-.29-.16-.06-.16-.16-.32-.31-.48l-.2-.34.13-.82c.1-.74.29-1.61.57-2.61.28-1,.66-2.13,1.12-3.39.08-.22.17-.48.27-.8.1-.31.19-.58.27-.8.08-.2.17-.46.27-.78.1-.33.2-.61.3-.85.1-.27.21-.57.32-.91.11-.34.22-.64.32-.91.18-.48.35-.92.51-1.29.15-.38.35-.81.58-1.3.08-.19.18-.43.29-.69.11-.27.22-.51.33-.73.08-.2.17-.39.27-.57.1-.18.17-.3.21-.35.08-.15.13-.24.12-.29,0-.07.05-.11.17-.12.47-.12.74-.19.82-.19.08,0,.16.05.24.16.12.11.22.16.29.16.09,0,.15.05.15.17,0,.12-.03.28-.11.47-.06.15-.09.28-.08.4,0,.05-.03.14-.09.29-.06.15-.15.32-.25.51-.3.56-.56,1.12-.79,1.67-.23.55-.39,1.02-.48,1.43-.06.19-.17.53-.33,1-.16.47-.32.95-.48,1.43-.28.85-.48,1.43-.59,1.74-.11.31-.14.47-.1.47.02,0,.06-.06.11-.17.05-.11.13-.25.24-.42.17-.27.3-.45.38-.54.08-.09.09-.04.03.16-.02.1-.06.18-.12.26-.02.02-.08.12-.16.29-.08.17-.19.37-.3.59-.12.22-.22.43-.32.62-.09.2-.16.34-.2.44-.14.34-.16.44-.05.31.11-.14.32-.52.64-1.16.19-.34.4-.72.62-1.14.22-.42.41-.74.56-.96.19-.32.45-.71.76-1.18.32-.47.64-.94.98-1.41.34-.47.66-.9.97-1.3.31-.4.54-.67.7-.82.16-.15.28-.28.37-.38.09-.1.12-.15.1-.15-.02,0-.09.04-.19.12s-.22.17-.36.29c-.13.12-.26.23-.39.36-.12.13-.22.23-.28.3-.15.17-.35.42-.59.75-.24.32-.49.67-.75,1.04s-.51.74-.75,1.09c-.24.36-.43.67-.58.94-.17.34-.32.58-.45.72-.13.14-.16.11-.08-.08.04-.07.16-.27.35-.59.19-.32.42-.68.68-1.09.26-.41.53-.81.81-1.22.28-.41.52-.74.72-.99.42-.55.77-.96,1.06-1.25.29-.29.56-.5.81-.64.11-.05.26-.09.44-.12.18-.02.35-.02.53,0,.18.02.34.07.49.13.15.06.25.14.3.23.05.04.09.1.13.15.04.06.08.1.13.12.15.09.3.24.47.47.17.23.3.47.38.72.05.12.13.35.22.7s.17.72.25,1.12c.32,1.31.6,2.02.84,2.15.07.04.27.03.6-.04.21-.04.39-.09.54-.16.15-.07.41-.24.77-.53.22-.18.47-.39.72-.63.26-.24.48-.45.65-.63ZM159.41,92.04c.08-.19.07-.22-.04-.07-.09.1-.13.19-.13.26l.04.03.13-.22ZM161.18,86.1c.04-.07.1-.2.17-.38.07-.18.14-.36.22-.55.07-.18.13-.35.16-.49.04-.15.06-.23.06-.25,0-.02-.06-.03-.18-.02-.09,0-.17.11-.23.3-.02.05-.03.08-.03.11,0,.02,0,.05-.03.07,0,.02,0,.05,0,.07.05,0,.03.07-.06.22-.02.05-.07.15-.14.31-.07.16-.14.33-.2.51-.06.18-.12.34-.17.49-.05.14-.07.24-.07.29.02.02.06,0,.1-.04.04-.03.07-.02.07.03-.04.1-.09.12-.14.08-.05,0-.09.04-.13.11-.02.05-.07.19-.13.43-.07.24-.15.5-.26.76-.4,1.14-.54,1.65-.4,1.55.02-.02.04-.03.05-.02.01.01,0,.04-.01.09-.04.07-.09.11-.13.12-.02-.02-.04-.03-.05-.03-.01,0,0,.02.06.07.05.04.06.13.03.26-.03.13-.07.18-.12.13-.05,0-.04.04,0,.11.05.09.02.14-.1.15-.07,0-.09.05-.06.15.05.09.04.25-.04.46-.16.41-.15.46.04.14.04-.07.12-.27.23-.6.11-.33.22-.69.34-1.1.12-.41.23-.76.33-1.05.1-.29.16-.46.18-.51.04-.05.08-.14.11-.27.03-.13.06-.26.1-.38.04-.14.07-.28.1-.4.03-.12.07-.18.11-.18.04-.1.06-.18.06-.25,0-.12.04-.27.15-.47ZM161.62,84.02c-.08.15-.12.23-.09.25v.04s.13-.22.13-.22l.06-.15-.1.08ZM161.81,83.68c0-.07-.03-.09-.08-.07-.04.05-.07.1-.06.15.03.12.08.09.14-.08Z"/><path class="cls-2" d="M195.48,80.6c-.09.12-.19.27-.31.45-.12.17-.23.32-.34.45-.11.17-.39.54-.86,1.1-.46.56-.97,1.15-1.53,1.78-.55.62-1.07,1.21-1.56,1.76s-.81.9-.97,1.05c-.87.81-1.79,1.56-2.74,2.23-.95.67-1.94,1.31-2.97,1.92-.18.13-.45.26-.81.41-.36.14-.75.26-1.18.37-.43.11-.86.21-1.3.29-.43.08-.82.14-1.15.16-.38.02-.64,0-.78-.06-.15-.11-.27-.14-.36-.08-.12,0-.31-.06-.56-.21-.26-.15-.54-.34-.83-.57-.3-.23-.59-.47-.86-.73-.28-.25-.48-.49-.61-.69-.18-.27-.38-.43-.6-.46-.31-.05-.33-.16-.05-.32.19-.08.25-.19.19-.33-.4-1.18-.26-2.7.43-4.54.43-1.09.94-2.13,1.53-3.11.59-.98,1.25-1.94,1.97-2.86.37-.5.71-.91,1.01-1.23.3-.33.53-.51.7-.54.09-.05.22-.08.39-.08s.33.02.5.06.35.07.56.09c.2.02.36.04.48.06.43.09.82.22,1.16.39.34.17.73.44,1.15.82.55.46.92.87,1.12,1.23.2.35.29.75.27,1.17-.01.95-.33,1.88-.95,2.79-.62.91-1.38,1.77-2.28,2.57-.9.8-1.84,1.52-2.83,2.16-.99.64-1.88,1.15-2.66,1.53-.18.11-.34.2-.46.28-.13.08-.19.13-.19.15.01.19.19.33.54.43.35.1.74.13,1.16.11.59-.04,1.2-.14,1.83-.32.63-.18,1.24-.41,1.84-.7.6-.29,1.18-.6,1.75-.94.57-.34,1.09-.68,1.57-1.02.23-.16.43-.29.62-.41.18-.12.3-.18.34-.18.12,0,.27-.09.45-.26.18-.17.27-.28.26-.35,0-.05.09-.16.27-.34.18-.18.39-.37.64-.57.18-.15.2-.14.07.03-.11.13-.13.19-.06.18.02,0,.35-.28.98-.84.24-.25.51-.51.79-.78.28-.27.51-.47.69-.63.34-.3.73-.69,1.17-1.16.44-.46.82-.87,1.13-1.22.11-.15.28-.36.51-.63.23-.27.46-.55.68-.82.24-.27.49-.56.75-.86s.45-.54.58-.71c.99-1.24,1.53-1.87,1.63-1.87.03.02-.02.12-.14.31-.12.19-.28.41-.47.69-.28.42-.44.64-.46.67-.02.02.09-.1.33-.38.33-.38.53-.57.6-.57.07,0,.04.1-.09.33-.11.12-.16.27-.15.43,0,.12.06.13.14.03.04-.05.08-.08.1-.08,0-.02,0-.04.03-.04.07,0-.09.25-.49.78-.13.17-.27.38-.41.61-.14.23-.25.44-.34.61-.06.17-.14.35-.25.55-.11.2-.22.36-.33.48ZM177.98,85.54c-.1.27-.21.54-.32.82-.11.28-.22.54-.31.8-.09.25-.16.47-.21.65-.05.18-.07.3-.06.38.05,0,.23-.13.56-.39.33-.26.69-.54,1.08-.85.4-.31.77-.61,1.12-.9.35-.29.56-.48.62-.55,0-.02.08-.11.23-.25.16-.14.34-.3.54-.48.2-.2.43-.45.7-.74.27-.29.53-.59.8-.9.27-.31.51-.6.73-.88s.38-.5.49-.67c.19-.32.36-.75.49-1.27.13-.53.17-.92.11-1.18-.07-.3-.22-.51-.46-.61-.24-.1-.51-.15-.79-.13-.28.02-.59.17-.93.46-.34.29-.69.66-1.05,1.11-.37.45-.72.94-1.06,1.49-.35.54-.67,1.08-.99,1.61-.31.53-.58,1.01-.8,1.45-.22.44-.38.78-.49,1.03ZM192.37,83.81c.2-.25.27-.37.23-.37s-.31.32-.79.94c-.53.67-.6.79-.23.37.16-.15.31-.31.45-.49.14-.17.26-.32.35-.45Z"/><path class="cls-2" d="M143.35,116.1c.21-.01.19.12-.08.4-.2.18-.32.39-.35.62.01.21-.03.32-.12.33-.07,0-.1.04-.1.11,0,.02-.08.16-.26.41-.17.25-.39.53-.66.86-.26.32-.49.61-.67.86-.19.25-.28.38-.28.41,0,.05-.08.17-.24.37-.17.2-.35.41-.55.62-.2.21-.39.41-.57.58-.18.18-.29.27-.34.27-.03-.02-.05-.02-.07,0-.02.02-.03.06-.03.11,0,.09-.12.28-.37.55-.26.28-.58.57-.96.89-.38.32-.8.63-1.24.93-.44.3-.85.54-1.22.73-.8.43-1.51.66-2.12.7-.17,0-.37,0-.62-.05-.25-.04-.5-.11-.74-.2-.24-.09-.46-.21-.64-.35-.19-.14-.3-.31-.33-.49,0-.05-.04-.1-.1-.17-.06-.07-.13-.13-.21-.2-.45-.33-.69-.9-.74-1.73-.02-.31,0-.68.04-1.12.04-.44.12-.76.23-.96.27-.96.56-1.92.87-2.88.31-.95.67-1.88,1.09-2.78l.44-.99-.34.27c-.11.08-.24.2-.37.36-.13.16-.25.32-.36.47-.13.25-.24.41-.33.5-.09.09-.2.15-.34.18-.14.06-.3.17-.5.33-.19.16-.47.46-.85.89-.27.3-.51.56-.73.77-.22.21-.36.32-.41.33-.09,0-.14.07-.13.19,0,.05,0,.11-.04.2-.03.09-.07.17-.13.24-.05.08-.1.13-.13.17-.03.04-.05.03-.05-.02,0-.02-.02,0-.07.04-.04.05-.09.12-.13.22-.04.1-.15.26-.32.5-.18.24-.35.49-.52.76-.2.27-.47.66-.82,1.15-.35.5-.68.98-.98,1.45-.35.52-.63.94-.85,1.26-.22.32-.41.59-.57.8-.16.21-.32.4-.48.56-.16.16-.34.35-.57.55-.56.55-.94.84-1.16.85-.07,0-.14,0-.2-.02-.06-.02-.13-.05-.2-.09-.24-.1-.41-.2-.51-.29-.08-.11-.15-.17-.22-.16-.07,0-.12-.06-.15-.19-.03-.13-.03-.22.02-.27.09-.05.08-.11-.05-.18-.67-.46-.73-1.33-.2-2.62.11-.2.19-.37.25-.53.06-.16.12-.24.16-.24.07,0,.1.02.09.08s-.1.28-.26.67c-.14.34-.25.71-.3,1.12-.06.41-.05.67.03.78.08.09.11.08.1-.04,0-.05.01-.14.05-.27.04-.13.08-.27.12-.42.15-.29.19-.53.13-.72-.05-.09-.05-.2,0-.32.05-.12.18-.33.37-.63.35-.54.47-.81.38-.8-.05,0-.1.04-.17.12-.11.08-.17.08-.18.01,0-.07.03-.11.1-.11.02,0,.06-.04.12-.13.05-.09.11-.19.17-.31.04-.12.1-.26.19-.42.09-.16.16-.29.22-.39.15-.2.32-.45.5-.76.18-.31.33-.56.43-.75.11-.2.24-.42.39-.68.15-.26.3-.5.45-.74.15-.23.29-.43.41-.59.12-.16.19-.25.21-.28.09-.1.13-.2.12-.29,0-.05.04-.16.14-.35s.22-.39.37-.61c.18-.2.31-.39.41-.56s.14-.27.14-.29c-.03-.05.14-.32.5-.81.36-.5.8-1.08,1.33-1.75.64-.75,1.04-1.17,1.2-1.25.07,0,.17-.05.29-.14s.24-.19.35-.29c.38-.4.78-.62,1.21-.64.12,0,.33,0,.64.05.31.04.5.12.58.23.05.04.12.1.2.16.09.07.19.12.31.16.12.09.24.2.36.33.12.13.23.29.33.48.1.16.2.29.29.41.09.11.16.19.21.24.05.02.11.06.19.13.08.07.14.12.19.17.18.15.31.23.4.22.12,0,.23.12.34.39.11.27.17.53.19.79.01.19,0,.42-.05.68-.04.26-.11.56-.21.9-.1.27-.21.6-.31,1.01-.11.41-.2.75-.28,1.01-.08.29-.19.69-.35,1.21-.16.52-.32,1.02-.48,1.5-.32.94-.55,1.72-.67,2.33-.13.61-.18,1.13-.15,1.55.02.28.04.46.07.53s.1.11.22.13c.43.09,1.01-.06,1.75-.46.41-.21.81-.45,1.2-.69.39-.25.77-.52,1.16-.82.38-.3.78-.62,1.18-.98.41-.35.84-.76,1.31-1.21.45-.45.74-.68.88-.69h.04c.14-.01.49-.33,1.04-.95.55-.62.88-.94.97-.95l.04.03c.05.04.05.11.01.2-.04.08-.08.15-.13.2-.13.15-.2.26-.19.33.02,0,.09-.06.2-.17.11-.11.26-.26.43-.43.33-.42.59-.66.77-.72.16-.06.25-.13.27-.23.04-.14.13-.3.29-.48.15-.17.27-.26.34-.27ZM130.1,112.64c.1-.29.18-.54.24-.74.06-.2.09-.32.09-.34-.02,0-.12.07-.29.21-.17.14-.35.3-.54.48-.19.18-.38.35-.55.53-.18.18-.3.3-.37.38-.11.13-.2.2-.25.21-.06.02-.07-.04-.03-.16.02-.09,0-.13-.08-.1-.05.03-.07.06-.08.11,0,.05-.01.1,0,.14,0,.12-.09.32-.3.6-.21.28-.6.78-1.17,1.47-.18.2-.38.46-.61.76-.23.31-.46.63-.69.97-.23.33-.44.66-.65.98-.21.32-.38.6-.53.85-.09.1-.23.33-.44.7-.2.37-.4.77-.6,1.19-.2.43-.38.82-.53,1.17-.16.35-.23.57-.23.64.05,0,.15-.1.3-.3.15-.2.42-.55.79-1.04.7-.94,1.2-1.61,1.49-1.99s.5-.58.62-.59c.05,0,.07.04.08.14s.03.07.07-.08c.09-.12.08-.23-.02-.32-.03-.04.04-.18.19-.4.15-.22.37-.51.66-.86.37-.47.63-.78.76-.92.13-.14.26-.21.38-.22h.07c.19,0,.23-.04.13-.16-.08-.07-.07-.17.02-.3.09-.13.34-.44.76-.92.22-.27.4-.49.53-.65s.25-.31.35-.45c.1-.14.18-.28.24-.44.06-.16.13-.34.21-.56ZM122.8,118.84s-.07.04-.06.11c0,.17.09.12.24-.12.09-.15.09-.23.02-.25-.07-.04-.11,0-.1.11,0,.09-.03.14-.1.15ZM128.99,115.51l-.9,1.01c-.24.28-.48.55-.71.83-.23.27-.44.52-.61.75-.18.22-.31.4-.41.54-.1.14-.13.2-.11.2.02,0,.14-.14.37-.41.22-.27.48-.6.79-.97.75-.92,1.18-1.39,1.3-1.39.14,0,.19-.05.13-.12,0-.09.04-.24.15-.43ZM127.34,118.14c.08.09.14.11.18.06.04-.05.04-.13-.01-.25-.03-.14-.09-.16-.18-.06-.07.05-.06.13.02.25Z"/><path class="cls-2" d="M175.18,109.22s-.03.17-.24.46c-.21.29-.49.64-.84,1.06-.33.42-.57.73-.71.93-.14.2-.14.23-.01.11.16-.15.33-.33.52-.55.19-.21.34-.41.44-.58.24-.35.41-.54.52-.57.11-.03.08.1-.06.39l-.19.37.26-.3.27-.3v.57c0,.4-.09.83-.26,1.28s-.42.86-.72,1.24c-.33.38-.67.79-1.03,1.25-.35.46-.68.9-1,1.32s-.6.81-.84,1.15c-.24.35-.41.61-.52.78-.13.22-.31.49-.54.8-.23.31-.44.58-.64.8-.22.2-.41.39-.57.57-.16.17-.23.29-.23.33-.04.07-.23.25-.55.53-.33.28-.66.53-1,.74-.59.39-1.12.61-1.59.67-.47.05-1.03-.03-1.68-.25-.34-.1-.73-.39-1.17-.87-.44-.48-.81-1-1.11-1.55-.05-.12-.1-.22-.14-.33-.04-.1-.07-.24-.09-.4-.02-.16-.04-.38-.06-.64s-.04-.61-.07-1.06c-.03-.54-.06-1.03-.07-1.47-.02-.44-.01-.71,0-.83,0-.26-.02-.39-.09-.38-.05,0-.09-.09-.12-.28-.04-.19-.06-.58-.07-1.17-.02-.4-.04-.74-.06-1.01s-.05-.41-.1-.4c-.05,0-.17.11-.37.31s-.44.45-.72.75c-.28.3-.56.63-.85.98-.29.35-.54.67-.76.97-.7.92-1.3,1.78-1.8,2.58-.5.8-.86,1.49-1.08,2.07-.06.19-.14.4-.23.62-.09.22-.17.39-.24.51-.06.15-.13.3-.2.47-.07.17-.13.3-.17.4-.12.34-.21.55-.26.64-.05.09-.13.16-.22.21-.04.05-.11.1-.19.14-.08.04-.15.09-.22.14-.18.15-.36.19-.54.1-.18-.08-.34-.25-.47-.5-.06-.14-.16-.3-.3-.48-.14-.18-.27-.33-.4-.44-.28-.27-.45-.52-.53-.77-.08-.24-.13-.66-.17-1.25-.01-.21-.01-.49,0-.83.01-.34.03-.71.06-1.09.02-.38.06-.77.11-1.18.05-.41.1-.76.15-1.07.08-.55.13-1.04.14-1.46,0-.43-.02-.66-.1-.71-.05-.02-.08-.13-.11-.33-.02-.2-.04-.44-.06-.72-.02-.28-.04-.52-.06-.72-.03-.2-.05-.3-.07-.3-.05,0-.17.13-.37.4-.2.26-.44.57-.73.92-.83,1.09-1.67,2.27-2.5,3.54s-1.62,2.55-2.36,3.84-1.41,2.56-2.02,3.8c-.61,1.24-1.11,2.39-1.5,3.43-.12.32-.25.61-.39.89-.14.28-.26.47-.37.57-.22.25-.33.43-.32.55,0,.05-.03.14-.09.27-.06.13-.14.27-.24.41-.1.14-.19.25-.28.36-.09.1-.15.14-.17.12-.02,0-.07,0-.13-.01-.06,0-.14,0-.23,0v-.03c-.19.01-.31-.04-.37-.16-.05-.11-.13-.17-.22-.16-.12,0-.23-.06-.35-.19-.12-.14-.23-.3-.33-.5-.11-.2-.2-.42-.27-.66-.08-.25-.12-.47-.13-.69-.02-.26.06-.75.23-1.49.17-.73.41-1.63.72-2.69.32-1.06.7-2.25,1.15-3.57.45-1.32.94-2.7,1.47-4.16.26-.73.5-1.4.73-2.03.22-.63.41-1.19.57-1.67s.29-.86.38-1.14c.09-.28.13-.43.13-.45-.07-.07-.19-.02-.35.13-.2.18-.31.2-.31.07s.09-.34.28-.64c.11-.15.26-.39.45-.74.19-.34.38-.69.58-1.03.23-.44.47-.88.72-1.32.25-.44.48-.84.71-1.18.23-.35.42-.63.59-.85.17-.22.28-.35.35-.38.16-.06.39-.06.69,0,.3.05.51.13.64.25.2.13.35.19.47.18.12.02.2.05.24.09.04.05.05.16.04.35.02.26.08.39.2.38.12,0,.19.05.22.16.03.12-.01.2-.13.26-.07.05-.14.19-.22.41-.04.1-.12.27-.25.53-.13.26-.28.52-.45.79-.17.27-.38.64-.61,1.1-.23.46-.43.89-.6,1.28-.19.44-.39.94-.62,1.51-.23.57-.44,1.11-.63,1.62-.19.51-.35.93-.45,1.27-.11.34-.14.47-.1.4.04-.05.2-.26.46-.63.26-.37.54-.79.85-1.26.33-.45.67-.91,1.03-1.4.36-.48.71-.93,1.05-1.34.34-.41.66-.79.94-1.12.29-.34.52-.58.7-.74.18-.13.35-.23.51-.3.16-.07.37-.12.63-.16.3-.04.51-.05.62-.02.11.03.26.1.46.2.27.2.47.29.59.29.12,0,.23.06.35.21.12.15.28.41.49.8.08.16.15.3.2.41.05.12.09.26.12.44.02.18.04.41.06.71.02.29.04.71.08,1.26.03.52.05.96.06,1.31,0,.35,0,.71,0,1.07-.01.36-.04.76-.09,1.21-.04.46-.1,1.04-.18,1.75v.39s.34-.59.34-.59c.45-.79.94-1.56,1.47-2.33.53-.77,1.06-1.48,1.59-2.14.53-.66,1.04-1.24,1.53-1.75s.92-.87,1.28-1.11c.11-.08.26-.13.45-.17.19-.03.39-.05.6-.05.21,0,.41.02.59.07.18.05.32.11.42.17.15.11.26.22.34.33,0,.05.06.14.16.27.1.11.19.25.26.41.07.16.13.4.17.72.04.32.09.74.13,1.27.04.53.09,1.23.15,2.1.04,1.11.1,2.04.17,2.79.07.75.14,1.3.21,1.62l.17.98h.39c.24.04.58-.06,1.03-.3.45-.24.88-.54,1.31-.9.31-.25.74-.65,1.28-1.2.54-.54,1.1-1.14,1.69-1.79.59-.65,1.17-1.32,1.76-2.01.58-.69,1.09-1.3,1.5-1.85.85-1.14,1.5-1.97,1.93-2.48.43-.51.67-.76.72-.74ZM138.65,127.71c.06-.19.05-.32-.02-.39-.1-.09-.14,0-.13.26.04.19.06.29.07.3.01.01.04-.04.08-.17ZM140.02,122.73c.1-.31.18-.58.25-.82.07-.23.1-.37.1-.41,0-.05-.03-.05-.07,0-.04.05-.09.12-.15.22-.05.1-.09.2-.12.29s-.04.17-.04.22c0,.14-.02.25-.09.32-.02.03-.05.11-.09.24-.04.13-.08.28-.11.45-.04.19-.09.37-.16.54-.07.17-.13.3-.17.4-.04.1-.1.25-.18.47-.08.22-.16.45-.24.71-.08.25-.15.48-.21.69-.06.21-.09.33-.08.38,0,.05.06-.06.18-.33s.24-.6.38-1c.14-.4.29-.82.44-1.25.15-.44.28-.81.38-1.12ZM143.03,114.34c.25-.63.46-1.17.63-1.62.17-.45.25-.67.23-.67-.02,0-.1.11-.23.33s-.28.49-.45.81c-.36.66-.64,1.23-.84,1.7-.2.47-.27.76-.21.85.03.02,0,.14-.07.34-.07.21-.15.42-.24.65-.09.23-.18.44-.26.64-.08.19-.15.3-.19.33-.05,0-.07.08-.06.22,0,.05-.03.16-.08.34-.06.18-.14.39-.25.64-.08.24-.16.47-.22.69-.07.22-.11.39-.13.51-.02.09-.04.18-.05.27-.02.08-.05.14-.1.17-.04.05-.08.2-.1.45-.02.25,0,.37.04.37.04-.12.09-.26.15-.43.04-.12.1-.27.17-.44.07-.17.14-.35.2-.54.16-.48.31-.92.45-1.31.14-.39.29-.79.44-1.2.15-.41.32-.86.5-1.34s.41-1.07.67-1.75ZM146.81,112.3l-.3.37c-.18.2-.28.33-.31.37-.03.05-.01.07.06.07.07,0,.18-.14.33-.41l.22-.41ZM147.56,111.29c.06-.12.08-.18.06-.18-.05,0-.1.07-.17.19-.04.05-.07.1-.06.14l-.03.04c.07,0,.14-.07.2-.19Z"/><path class="cls-2" d="M193,113.06c.21-.01.19.12-.08.4-.2.18-.32.39-.35.62.01.21-.03.32-.12.33-.07,0-.1.04-.1.11,0,.02-.08.16-.26.41s-.39.53-.66.86c-.26.32-.49.61-.67.86-.19.25-.28.39-.28.41,0,.05-.08.17-.24.37s-.35.41-.55.62c-.2.21-.39.41-.57.58-.18.18-.29.27-.34.27-.03-.02-.05-.02-.07,0-.02.03-.03.06-.03.11,0,.09-.12.28-.37.56-.26.28-.58.57-.96.89s-.8.63-1.24.93-.85.54-1.21.73c-.8.43-1.51.66-2.12.7-.17,0-.37,0-.63-.05-.25-.04-.5-.11-.74-.21-.24-.09-.46-.21-.64-.35-.19-.14-.3-.31-.33-.5,0-.05-.04-.1-.1-.17-.06-.07-.13-.13-.21-.2-.45-.33-.7-.9-.75-1.73-.02-.31,0-.68.04-1.12.04-.44.12-.76.23-.96.27-.96.56-1.92.87-2.88.31-.95.67-1.88,1.09-2.78l.44-.99-.34.27c-.11.08-.24.2-.37.36-.13.16-.25.32-.36.47-.13.24-.24.41-.32.5-.09.09-.21.15-.34.18-.14.06-.3.17-.5.33-.19.17-.47.46-.85.89-.27.3-.51.56-.73.77-.22.21-.36.32-.41.33-.09,0-.14.07-.13.19,0,.05-.01.11-.04.2-.03.08-.07.17-.13.24s-.1.13-.13.17c-.03.04-.05.03-.05-.01,0-.02-.02-.01-.07.04-.04.05-.09.12-.13.22-.04.1-.15.26-.33.5-.17.24-.35.49-.52.76-.2.27-.47.66-.82,1.15-.35.49-.67.98-.98,1.44-.35.52-.63.94-.85,1.26-.22.32-.41.59-.57.8-.16.21-.32.4-.48.56-.16.17-.34.35-.57.55-.56.55-.94.84-1.16.85-.07,0-.14,0-.2-.02-.06-.02-.13-.05-.2-.09-.24-.1-.41-.2-.51-.29-.08-.11-.15-.17-.22-.16-.07,0-.12-.06-.15-.19-.03-.13-.03-.22.02-.27.09-.05.08-.11-.05-.18-.67-.46-.73-1.33-.2-2.62.11-.2.19-.37.25-.53.06-.16.12-.24.16-.24.07,0,.1.02.09.08,0,.06-.1.28-.26.67-.14.34-.25.71-.3,1.12-.06.41-.05.67.03.78.08.09.11.08.1-.04,0-.05.01-.14.05-.27.04-.13.08-.27.12-.42.15-.29.19-.53.13-.72-.05-.09-.05-.2,0-.32.05-.12.18-.33.37-.63.35-.54.47-.81.38-.8-.05,0-.1.04-.17.12-.11.08-.17.08-.18.01,0-.07.03-.11.1-.11.02,0,.06-.04.12-.13.05-.09.11-.19.18-.31.04-.12.1-.26.19-.42.09-.16.16-.29.23-.39.15-.2.32-.45.5-.76.18-.31.33-.56.43-.75.11-.2.24-.42.39-.68.15-.26.3-.5.45-.74s.29-.43.41-.59c.12-.16.19-.25.21-.28.09-.1.13-.2.12-.29,0-.05.04-.16.14-.35.1-.18.22-.39.37-.61.18-.2.31-.39.41-.56.1-.17.14-.27.14-.29-.03-.05.14-.32.5-.81.36-.5.8-1.08,1.33-1.75.64-.75,1.04-1.16,1.2-1.25.07,0,.17-.05.29-.14.12-.09.24-.19.36-.29.38-.4.78-.61,1.2-.64.12,0,.33,0,.64.05.31.04.5.12.58.23.05.04.12.1.21.17.09.06.19.12.31.16.12.09.24.2.36.33.12.13.23.29.33.48.11.16.2.3.29.41.09.11.16.19.21.24.05.02.11.06.19.13.08.07.14.12.19.17.18.15.31.23.41.22.12,0,.23.12.34.39.11.27.17.53.19.79.01.19,0,.42-.05.68-.04.26-.11.56-.21.9-.1.27-.21.6-.31,1.01-.11.41-.2.75-.28,1.01-.08.29-.2.69-.35,1.21-.16.52-.32,1.02-.48,1.5-.32.94-.55,1.72-.67,2.33-.13.61-.18,1.13-.15,1.55.02.28.04.46.07.53.03.07.1.11.22.13.43.09,1.01-.06,1.75-.46.41-.21.81-.45,1.2-.7.39-.25.77-.52,1.16-.82.38-.3.78-.62,1.18-.98.41-.36.84-.76,1.31-1.22.45-.45.74-.68.88-.69h.04c.14-.01.49-.33,1.04-.95.55-.62.88-.94.97-.95l.04.03c.05.04.05.11.01.2-.04.09-.08.15-.13.2-.13.15-.2.26-.19.33.02,0,.09-.06.2-.17.11-.11.26-.26.44-.44.33-.42.59-.66.77-.72.16-.06.25-.13.27-.23.04-.14.13-.3.29-.48.16-.17.27-.26.34-.27ZM179.75,109.61c.1-.29.18-.54.24-.74.06-.2.09-.32.09-.34-.02,0-.12.07-.29.21-.17.14-.35.3-.54.48-.19.18-.38.35-.55.53-.18.18-.3.3-.37.38-.11.12-.2.2-.25.21-.06.02-.07-.04-.03-.16.02-.09,0-.13-.08-.1-.05.03-.07.06-.08.11,0,.05-.01.1,0,.14,0,.12-.09.32-.3.6-.21.28-.6.78-1.17,1.47-.18.2-.38.46-.61.77-.23.31-.46.63-.69.96-.23.33-.44.66-.65.98-.21.32-.38.61-.53.85-.09.1-.23.33-.44.7-.2.37-.4.77-.6,1.19-.2.43-.38.82-.53,1.17-.16.35-.23.57-.23.64.05,0,.15-.1.3-.3.15-.2.42-.55.79-1.04.7-.94,1.2-1.61,1.49-1.99s.5-.58.62-.59c.05,0,.07.04.08.14s.03.07.07-.07c.09-.12.08-.23-.02-.32-.03-.05.04-.18.19-.4.15-.22.37-.51.66-.86.37-.47.63-.78.76-.92.13-.14.26-.21.38-.22h.07c.19,0,.23-.04.13-.15-.08-.07-.07-.17.02-.3.09-.13.34-.44.76-.92.22-.27.4-.49.53-.65.13-.16.25-.31.34-.45s.18-.28.24-.44c.06-.16.13-.34.21-.56ZM172.46,115.81s-.07.04-.06.11c0,.17.09.12.24-.12.09-.15.09-.23.02-.25-.07-.04-.11,0-.1.11,0,.09-.03.14-.1.15ZM178.65,112.49l-.9,1.01c-.24.28-.48.55-.71.83-.23.27-.44.52-.61.75-.18.22-.31.4-.41.54-.1.14-.13.21-.11.2.02,0,.15-.14.37-.41.22-.27.48-.6.79-.97.75-.92,1.18-1.39,1.3-1.39.14,0,.19-.05.13-.11,0-.09.04-.24.15-.43ZM177,115.11c.08.09.14.11.18.06.04-.05.04-.13-.01-.25-.03-.14-.09-.16-.18-.06-.07.05-.06.14.02.25Z"/><path class="cls-2" d="M216.22,111.12c.03.12.01.19-.06.22-.07.03-.23.05-.49.06-.87.05-2,.45-3.39,1.2-1.39.75-2.89,1.76-4.52,3.05-.45.36-.7.59-.76.69-.05.1-.04.2.04.32.08.11.15.27.21.48.06.21.12.44.17.68.05.25.09.49.12.74.03.25.03.48.02.69-.07,1.19-.29,2.47-.67,3.84-.38,1.37-.88,2.73-1.51,4.07-.31.66-.7,1.38-1.16,2.17-.46.79-.97,1.59-1.54,2.4-.57.82-1.16,1.63-1.79,2.45s-1.27,1.59-1.94,2.32c-.95,1.08-1.95,2.07-2.98,2.97-1.04.9-2.02,1.66-2.97,2.28-.95.61-1.81,1.06-2.58,1.33-.78.27-1.38.32-1.82.13-.27-.1-.47-.23-.63-.37-.15-.14-.33-.4-.54-.77-.21-.39-.37-.79-.48-1.21-.11-.42-.13-.74-.08-.96.06-.24.08-.48.06-.71s-.05-.38-.1-.42c-.07-.02-.11-.1-.12-.24,0-.12.02-.11.07.03.08.11.14.14.18.08.04-.06.14-.33.3-.82.76-2.25,2.4-5.06,4.92-8.44.83-1.14,1.64-2.2,2.43-3.19s1.59-1.93,2.4-2.83c.81-.9,1.64-1.78,2.5-2.64.86-.86,1.78-1.73,2.77-2.62.52-.46.98-.87,1.38-1.24.4-.37.63-.58.67-.63.09-.1.09-.16,0-.18-.09-.02-.36-.01-.83.02-1.42.09-2.8.42-4.17,1-1.36.58-2.57,1.35-3.62,2.32-.18.13-.34.25-.47.37-.13.11-.23.17-.27.18-.12,0-.23.1-.34.27-.06.12-.11.19-.15.21s-.11-.01-.24-.08c-.05-.07-.11-.13-.17-.2-.06-.07-.1-.13-.1-.21-.06-.12-.1-.21-.14-.29-.04-.08-.18-.26-.41-.53-.18-.2-.27-.39-.28-.55,0-.16-.06-.24-.16-.24-.07,0-.16-.07-.26-.23-.06-.14-.07-.22-.03-.25s.17-.05.4-.06c.19-.01.35-.06.49-.14.14-.08.35-.26.64-.54.18-.18.39-.38.62-.62s.41-.43.51-.58c.16-.15.36-.37.6-.66.24-.29.46-.54.66-.77.38-.42.8-.94,1.26-1.55s.93-1.25,1.41-1.92.93-1.32,1.34-1.96c.41-.64.75-1.19,1-1.66.11-.2.23-.46.36-.79.13-.33.26-.65.37-.98.11-.33.2-.62.27-.89s.1-.44.09-.54c-.01-.19-.1-.27-.26-.23-.16.06-.25.05-.25-.02,0-.09-.11-.09-.3,0-.19.09-.55.31-1.08.65-.59.39-1.3.95-2.13,1.67-.83.73-1.73,1.58-2.69,2.56-.4.4-.86.92-1.38,1.56-.52.63-1.03,1.3-1.53,1.99-.5.69-.96,1.37-1.37,2.02s-.72,1.2-.93,1.64c-.17.32-.26.54-.28.66-.02.12,0,.25.06.39.11.23.16.43.14.61-.01.18-.1.44-.27.78-.12.32-.22.5-.29.57-.07.06-.17.08-.32.04-.43-.07-.79-.4-1.09-1-.14-.3-.23-.59-.27-.87-.04-.28-.02-.58.05-.91.08-.32.22-.7.43-1.13.21-.43.49-.92.83-1.49.54-.88,1.19-1.84,1.96-2.86.77-1.02,1.58-2.01,2.45-2.97s1.73-1.86,2.59-2.7c.86-.83,1.65-1.52,2.38-2.06.91-.67,1.65-1.06,2.22-1.17.57-.11,1.12.03,1.64.4.54.37.91.76,1.1,1.16.19.4.28.97.28,1.71-.01.21-.02.4-.04.55-.01.15-.06.33-.13.52-.07.19-.17.42-.29.69-.13.27-.29.62-.5,1.06-.17.34-.32.68-.45,1.02-.13.34-.2.57-.19.69,0,.05-.03.14-.09.29-.06.15-.15.31-.25.48-.11.17-.3.46-.59.85-.28.4-.58.81-.9,1.25-.32.43-.61.82-.89,1.17-.28.35-.44.56-.51.64l-.27.23.42-.1c.12-.03.37-.07.76-.12.39-.05.81-.1,1.25-.15l1.66-.17.87.34c.27.1.51.18.73.24.22.06.36.08.43.08.16-.03.2.02.12.17-.11.15-.1.19.03.12.12-.07.45-.31.97-.72,2.13-1.6,3.93-2.77,5.4-3.53,1.47-.75,2.52-1.03,3.15-.83.24.08.49.24.74.49s.38.46.4.65ZM206.06,120.51c.06-.24.09-.51.11-.82.02-.31.03-.61.03-.91,0-.3,0-.58-.02-.85-.02-.27-.04-.48-.07-.62l-.1-.38-.51.42c-.11.13-.31.31-.61.55-.29.24-.58.48-.84.71-1.08.94-2.08,1.85-3,2.72-.92.87-1.79,1.76-2.61,2.65-.82.89-1.62,1.82-2.41,2.77s-1.58,1.99-2.39,3.08c-1.64,2.23-2.95,4.28-3.94,6.14-.99,1.86-1.55,3.38-1.69,4.54-.03.29-.04.5-.03.64s.04.27.09.38c.06.16.13.25.21.27.08.02.33,0,.72-.08.3-.04.6-.11.88-.21.28-.1.65-.27,1.11-.51.48-.27.98-.58,1.5-.94.52-.37,1.04-.75,1.55-1.16.51-.41,1-.83,1.47-1.24.47-.42.88-.84,1.24-1.27.15-.2.34-.42.56-.66.22-.24.41-.45.57-.62.44-.48.92-1.04,1.44-1.69.52-.65,1.03-1.34,1.54-2.07.51-.73,1.01-1.47,1.48-2.22.48-.75.89-1.46,1.26-2.12,1.25-2.35,2.07-4.52,2.44-6.51ZM190.93,132.09c-.26.35-.39.53-.39.56,0,.02.14-.12.4-.42.11-.15.2-.28.26-.39s.1-.18.09-.2c0-.02-.04.01-.1.11-.06.1-.15.21-.26.34ZM193.97,127.78c-.3.42-.62.84-.93,1.27-.32.42-.6.81-.85,1.15-.25.35-.45.63-.61.85-.15.22-.22.33-.19.33.02,0,.13-.13.33-.39.2-.26.42-.56.65-.91.26-.37.61-.84,1.05-1.4.44-.56.91-1.14,1.4-1.76.5-.61.98-1.2,1.46-1.76.47-.56.87-1.02,1.18-1.37.44-.48.97-1.02,1.59-1.64.61-.62,1.25-1.24,1.91-1.88.66-.63,1.31-1.24,1.95-1.82.64-.58,1.2-1.07,1.67-1.45.25-.21.44-.38.59-.53.14-.15.21-.23.18-.22-.05-.02-.24.1-.58.37-.34.27-.75.62-1.23,1.05-.48.43-1.02.92-1.62,1.47-.59.55-1.16,1.08-1.7,1.61-.51.51-1.06,1.07-1.64,1.68-.58.62-1.15,1.24-1.72,1.86-.57.63-1.1,1.24-1.59,1.84-.5.6-.93,1.15-1.3,1.64ZM195.94,107.1c.06-.12.08-.18.06-.18-.02.03-.05.04-.07.04-.04.05-.08.1-.1.15-.09.15-.11.22-.06.22.02,0,.08-.08.16-.22ZM196.44,106.64c.18-.2.26-.31.26-.34,0-.05-.09.03-.27.23-.2.18-.3.29-.3.34,0,.02.1-.05.31-.23ZM197.11,105.99c.18-.15.27-.26.26-.33,0-.02-.09.04-.27.19-.2.23-.3.35-.3.37.02-.02.06-.05.1-.08.02-.02.05-.04.09-.06.03-.01.07-.05.12-.1ZM210.85,112.3c.25-.16.47-.29.65-.41.18-.12.26-.19.24-.21-.03-.04-.17,0-.43.15-.26.15-.55.33-.87.53-.32.21-.63.42-.92.62-.3.21-.5.37-.61.5-.07.05-.06.06.02.04s.2-.11.36-.24c.18-.11.42-.26.72-.45.29-.19.58-.37.86-.53ZM212.43,111.35c.09-.1.02-.1-.21.01-.21.11-.31.18-.3.23,0,.05.08.03.23-.05.15-.08.25-.15.29-.2Z"/><path class="cls-2" d="M220.14,118.94s-.13.23-.41.56c-.28.32-.64.7-1.09,1.13-.18.18-.41.38-.69.61-.28.23-.57.44-.87.62-.3.18-.57.34-.81.48s-.42.2-.54.21l-.53.03c-1.11.12-2.09-.32-2.96-1.31-.13-.16-.24-.29-.34-.4-.1-.11-.15-.19-.16-.24,0-.07,0-.27.04-.61.03-.33.07-.71.12-1.14.06-.43.11-.85.17-1.27.06-.42.1-.72.14-.91.04-.12.08-.28.11-.49.04-.2.07-.38.11-.52.04-.14.09-.33.14-.56.06-.23.1-.43.14-.59.06-.19.13-.43.22-.72.09-.29.17-.57.25-.83.08-.27.17-.54.27-.83.1-.29.18-.51.25-.65.06-.15.16-.38.29-.71.13-.33.26-.65.38-.96.23-.53.41-.97.54-1.29.13-.33.25-.6.34-.82.09-.22.18-.4.27-.55.08-.15.18-.31.29-.48.21-.34.36-.56.44-.63.08-.08.2-.13.36-.17.14-.03.28-.02.41.03.13.05.35.16.64.33l.7.38.06.42c0,.12,0,.25-.05.41-.04.16-.08.29-.12.42-.06.12-.14.29-.22.49-.08.21-.17.39-.25.57-.06.19-.14.4-.25.62-.11.22-.19.39-.25.51-.06.15-.15.35-.27.6-.12.25-.22.49-.33.71-.1.24-.21.48-.33.7-.12.22-.2.39-.24.51-.04.12-.1.27-.18.46-.08.18-.16.36-.22.53-.06.17-.12.34-.18.51-.06.17-.11.28-.16.33-.13.27-.26.62-.4,1.05-.14.43-.27.89-.4,1.36-.13.47-.24.93-.34,1.39-.1.46-.17.85-.19,1.18-.05.34-.11.5-.18.51-.12,0-.17.06-.17.15,0,.05.04.06.11.03.09-.05.15-.03.18.06.03.09.01.19-.05.29-.04.05-.03.24.03.57l.06.42.45-.13c.56-.13,1.44-.79,2.65-1.97.65-.61,1.34-1.35,2.07-2.22.73-.87,1.45-1.79,2.16-2.74.71-.95,1.39-1.91,2.03-2.86.64-.95,1.17-1.83,1.6-2.64.15-.27.28-.51.4-.72.12-.21.2-.31.25-.32.07,0,.18-.17.33-.48.15-.29.23-.43.26-.41.02.02.02.09,0,.19-.03.11-.08.23-.14.36-.06.13-.13.26-.21.39-.08.12-.14.19-.18.19-.12,0-.14.04-.06.11.05.02.03.12-.05.31-.08.18-.19.38-.32.61-.12.27-.24.49-.33.66-.1.17-.14.27-.14.29.03.05.08-.02.17-.19.04-.07.09-.15.13-.24.04-.08.08-.15.13-.2.02-.05.07-.14.14-.28.07-.13.15-.29.24-.46.19-.37.32-.61.4-.72s.14-.12.19-.03c.03.07,0,.17-.05.29-.04.05-.13.17-.25.35-.12.18-.23.39-.34.61-.08.17-.2.38-.35.64-.15.26-.3.52-.45.77-.15.26-.29.5-.43.74-.14.23-.25.42-.34.57-.09.15-.13.27-.12.36-.02.12.05.09.21-.08.11-.15.27-.38.47-.69.21-.31.4-.63.6-.96.19-.33.36-.62.5-.86.14-.25.2-.38.17-.4-.05-.04-.04-.07.03-.07.05.04.11-.02.18-.19.07-.17.08-.28.03-.32-.05-.07-.02-.16.09-.29l.12-.26.06.35c0,.14-.01.31-.06.5-.05.19-.15.46-.31.8-.16.34-.39.8-.7,1.38-.31.58-.72,1.33-1.23,2.26-.13.24-.25.47-.37.68-.12.21-.26.43-.42.67-.16.24-.37.52-.61.85-.24.33-.54.76-.92,1.28-.35.49-.66.91-.94,1.25-.28.34-.46.53-.55.58-.09.03-.14.1-.13.22ZM217.88,101.74c-.1-.04-.13-.11-.1-.21.03-.1.13-.35.29-.76.13-.27.31-.61.56-1.03.25-.42.52-.84.81-1.26.29-.42.58-.82.87-1.21s.54-.69.76-.92c.42-.43.71-.66.86-.69.15-.03.32.12.51.47.18.3.25.51.18.63-.02.05-.04.11-.06.2-.02.09-.03.16-.02.23,0,.07-.04.2-.14.38-.09.18-.2.36-.3.53-.35.52-.64,1-.87,1.46-.23.46-.46.92-.7,1.41-.29.68-.52,1.15-.69,1.41-.17.26-.31.33-.41.22-.03-.02-.08-.03-.16-.03s-.17.01-.26.02c-.24.01-.44-.07-.62-.25-.08-.09-.15-.17-.21-.24-.06-.07-.1-.12-.1-.17-.02-.02-.05-.05-.08-.08-.03-.03-.06-.07-.11-.12ZM223.32,112.81c-.12-.02-.18.01-.17.08,0,.07.09.1.25.09.05-.03.1-.04.17-.05,0-.02,0-.04.03-.04-.02,0-.06,0-.11-.03s-.11-.04-.18-.06Z"/><path class="cls-2" d="M246.49,108.95c.14.37.17.73.08,1.08-.09.35-.34.87-.78,1.56-.17.27-.32.52-.43.74-.12.22-.18.38-.2.47-.02.07-.06.16-.11.27-.05.11-.1.2-.14.27-.13.15-.2.27-.19.37,0,.07-.09.24-.29.5-.2.26-.43.56-.71.9-.28.34-.56.67-.86,1.01-.3.34-.55.61-.75.81-.18.2-.36.36-.54.48s-.31.18-.38.18c-.12,0-.24.06-.38.16-.11.1-.35.08-.71-.06-.36-.14-.73-.37-1.11-.68-.15-.11-.32-.27-.51-.48-.19-.21-.38-.44-.58-.69-.19-.25-.37-.51-.55-.8-.17-.29-.31-.54-.42-.77-.14-.32-.26-.62-.37-.88-.11-.26-.21-.56-.3-.89-.09-.33-.17-.71-.25-1.16-.08-.45-.17-.99-.28-1.62-.11-.68-.21-1.27-.3-1.76-.09-.49-.15-.75-.17-.77-.05.03-.09.05-.14.08-.09.05-.18.13-.27.23-.43.36-.93.86-1.49,1.49-.56.64-1.15,1.36-1.75,2.15-.6.79-1.21,1.63-1.84,2.51-.62.88-1.2,1.74-1.74,2.58s-1.01,1.63-1.42,2.38c-.4.75-.7,1.37-.88,1.88-.4,1.19-.75,1.76-1.03,1.73-.17,0-.37-.1-.62-.32-.12-.11-.23-.23-.3-.35-.08-.12-.13-.22-.16-.29-.06-.21-.16-.33-.31-.37-.29-.03-.45-.34-.48-.93-.04-.59.07-1.37.32-2.33.1-.36.31-1.1.63-2.21.32-1.11.76-2.44,1.32-3.99.56-1.55,1.22-3.23,2-5.04.78-1.81,1.67-3.58,2.68-5.3.05.09.15.18.3.27.17.06.26.19.27.38.01.19.05.32.13.38.07.07.09.13.05.18-.02.07.06.16.23.27.05.04.11.12.19.24.08.11.14.23.2.34.06.19.08.32.06.41s-.11.25-.29.5c-.17.27-.46.85-.87,1.74-.41.89-.84,1.88-1.29,2.97-.17.41-.36.91-.58,1.49-.23.58-.44,1.13-.63,1.65-.19.52-.35.97-.47,1.34-.12.37-.18.57-.18.6,0,.02.16-.17.46-.58s.67-.9,1.08-1.47c1.51-2.1,2.33-3.16,2.47-3.17.02,0,.09-.06.2-.19.11-.12.25-.29.41-.49.17-.2.34-.41.51-.63.18-.22.34-.42.5-.6.11-.17.26-.35.45-.52.19-.18.38-.34.56-.5.18-.15.36-.28.53-.37.17-.09.29-.14.36-.15.12,0,.25.01.41.06.16.05.31.11.45.17.15.06.28.13.4.21.12.08.19.14.19.18,0,.05.05.13.16.26.1.12.22.25.34.39.2.18.34.35.42.51.08.16.16.44.23.84.06.26.14.67.24,1.23.09.56.18,1.12.26,1.69.16,1.13.32,2.01.48,2.65.16.64.33,1.13.52,1.48.13.23.24.36.32.39s.29.05.63.05c.26-.02.47-.05.63-.11.16-.06.37-.16.62-.32.38-.28.88-.74,1.5-1.37.61-.63,1.28-1.4,2.01-2.32.33-.42.61-.78.86-1.07.24-.29.39-.42.44-.4.07,0,.08-.04.03-.11-.03-.04-.01-.12.04-.23.05-.11.13-.23.24-.35l.36-.48-.15.44-.19.4.26-.37.23-.33.12.31Z"/><path class="cls-2" d="M269.44,109.5c.42.23.24.38-.54.42-.31.02-.56.04-.78.07-.21.03-.42.06-.62.09-.2.04-.4.09-.61.16-.21.07-.45.16-.73.28-.67.3-1.42.68-2.26,1.13-.84.45-1.63.91-2.37,1.37-.74.46-1.37.88-1.89,1.25s-.8.63-.84.78c-.04.07-.09.25-.14.52-.05.28-.12.58-.19.92-.44,2.11-1,4.33-1.67,6.67-.67,2.34-1.48,4.66-2.42,6.95-.94,2.3-2,4.49-3.18,6.59-1.19,2.1-2.51,3.97-3.97,5.62-.33.38-.75.83-1.27,1.36-.51.53-1.08,1.08-1.71,1.67-.63.58-1.28,1.16-1.97,1.74s-1.37,1.09-2.05,1.55c-.68.46-1.35.83-2.01,1.14-.66.3-1.26.47-1.8.5-.47.03-.9-.05-1.29-.24-.17-.06-.33-.12-.47-.17-.14-.05-.24-.07-.29-.07-.12,0-.27-.08-.46-.25-.19-.18-.37-.39-.54-.64-.17-.25-.32-.51-.44-.77-.12-.27-.19-.48-.2-.65,0-.07-.03-.19-.08-.37-.05-.18-.11-.36-.19-.54-.19-.44-.26-.7-.19-.77.07-.08.06-.18-.02-.32-.08-.14-.08-.47,0-1s.25-1.2.48-2.02c.24-.7.39-1.05.43-1.06.02,0,.04,0,.04.03.05.04.07,0,.06-.14-.06-.19-.06-.26-.01-.21.05,0,.14-.14.28-.42.14-.28.3-.62.49-1.01.94-2.05,2.35-4.35,4.21-6.9,1.87-2.55,4.05-5.18,6.54-7.89.89-.96,1.85-1.94,2.89-2.96,1.04-1.02,2.08-2.02,3.14-2.98,1.05-.96,2.08-1.86,3.07-2.69.99-.83,1.87-1.52,2.64-2.06.32-.23.5-.4.55-.51.05-.11.12-.36.19-.74.22-1.36.32-2.75.3-4.16-.03-1.41-.18-2.85-.46-4.32l-.1-.49-.47.95c-.19.42-.39.85-.61,1.3-.22.45-.47.86-.76,1.24-.09.1-.26.33-.51.69-.25.36-.54.78-.88,1.26-.34.48-.69,1-1.06,1.54-.37.54-.72,1.06-1.06,1.56-.34.5-.62.93-.86,1.3s-.4.62-.49.74c-.24.42-.37.67-.4.77-.03.1.01.11.13.03.11-.08.14-.06.09.06-.05.12-.16.3-.32.54-.16.24-.37.51-.62.82-.25.31-.54.63-.85.96-.24.3-.46.54-.65.73-.19.19-.37.34-.54.46-.17.12-.35.22-.53.3s-.41.16-.66.22c-.68.14-1.07.07-1.18-.21-.03-.09-.14-.13-.33-.12h-.04c-.17.01-.33-.08-.5-.29-.17-.2-.32-.47-.47-.79-.15-.32-.27-.69-.35-1.1-.08-.41-.12-.8-.12-1.18,0-.36.05-.78.13-1.29s.21-1.04.38-1.62c.17-.58.37-1.18.6-1.8.23-.62.48-1.21.73-1.77.1-.24.29-.6.56-1.08.27-.48.57-1,.92-1.57.34-.57.72-1.14,1.14-1.74.41-.59.83-1.15,1.25-1.66.42-.51.83-.93,1.22-1.26.39-.33.74-.53,1.05-.6.12-.03.26-.06.42-.1s.33-.07.49-.1c.26-.06.45-.08.57-.05.12.03.35.11.69.26.56.27.98.51,1.27.72.29.21.49.45.63.73l.24.48.53-.67c.33-.47.51-.62.54-.46.03.09.08.11.14.04.07-.06.21-.22.43-.47.31-.42.51-.61.6-.57.05.07.01.18-.12.33-.16.17-.17.26-.06.25.19.01.37.08.53.2.16.12.25.25.25.39-.01.17.05.25.19.24.12.02.23.16.33.44s.22.78.36,1.51c.24,1.19.39,2.32.45,3.38.06,1.06.06,2.02,0,2.88-.03.31-.05.55-.06.71,0,.12,0,.23-.02.32.09-.05.19-.11.31-.16.09-.05.2-.11.31-.18.11-.07.24-.13.38-.18.25-.13.48-.25.69-.36.21-.11.35-.16.42-.17.09,0,.24-.05.45-.15s.68-.33,1.41-.71c.39-.19.81-.37,1.25-.54.44-.17.87-.31,1.29-.42.42-.11.81-.2,1.16-.27.35-.07.63-.08.85-.05.33.03.65.11.96.26.3.15.44.27.39.37,0,.07.09.16.26.27ZM256.09,117.85c.14-.44.24-.76.31-.98.07-.22.11-.37.12-.45,0-.08,0-.12-.03-.12-.02,0-.07.03-.14.08-.14.06-.21.14-.2.26-.02.05-.11.16-.28.33-.17.18-.37.37-.62.57-.36.33-.6.53-.73.6s-.22.07-.27,0c-.05-.07-.08-.1-.09-.08-.01.01,0,.05.02.12.06.16-.02.3-.22.4-.16.11-.3.22-.41.35-.04.05-.23.23-.55.53-.33.3-.71.65-1.16,1.03-.45.41-.86.78-1.23,1.12s-.61.58-.72.7c-.09.1-.38.4-.87.91-.49.5-1.05,1.06-1.67,1.67-.54.53-1.09,1.11-1.67,1.74-.58.63-1.15,1.27-1.71,1.92-.56.65-1.11,1.29-1.64,1.91s-1,1.2-1.42,1.72c-.22.27-.43.53-.63.77-.2.24-.32.38-.37.43-.04.05-.12.16-.25.32-.12.16-.25.34-.38.54-.26.44-.58.94-.98,1.48-.39.54-.74,1.03-1.05,1.45-.22.32-.47.76-.77,1.33-.3.56-.58,1.17-.87,1.81-.28.64-.54,1.27-.77,1.88s-.41,1.13-.53,1.56c-.08.29-.15.61-.21.95-.06.35-.11.68-.15,1-.04.32-.07.62-.09.89-.02.27-.01.49.02.66.04.33.14.54.29.62.15.09.47.14.97.15.47,0,.75.03.84.09.09.07-.02.16-.32.27-.12.03-.19.06-.21.08-.02.03,0,.04.04.03.07,0,.19-.03.35-.07.16-.04.34-.1.52-.17.18-.07.37-.15.55-.23.18-.08.31-.15.38-.2.18-.13.31-.18.38-.17.07.02.04.1-.09.25-.26.32-.73.61-1.4.87-.21.06-.34.1-.38.13-.04.03,0,.05.11.07.31-.02.65-.09,1.02-.22.37-.13.73-.29,1.09-.47.36-.19.71-.39,1.05-.6.34-.21.64-.39.89-.55,1-.68,1.94-1.38,2.8-2.11.87-.73,1.7-1.53,2.5-2.41l.7-.79c.07-.1.13-.18.2-.26-.05,0-.59.56-1.64,1.66-.47.48-.98.96-1.53,1.44-.55.48-1.06.9-1.54,1.25-.48.35-.86.6-1.14.76-.29.16-.4.15-.34-.01.04-.12.09-.18.17-.19.02,0,.13-.06.31-.18.18-.12.4-.27.66-.47.26-.19.53-.4.82-.62.28-.22.55-.43.79-.63.23-.18.54-.48.94-.89.4-.42.82-.86,1.25-1.32.43-.46.84-.92,1.23-1.35.39-.44.68-.79.88-1.07.5-.67.92-1.23,1.25-1.67.33-.45.48-.67.46-.67l-.1.11c-.13.15-.3.36-.51.63-.21.27-.4.52-.58.75-.2.27-.41.55-.64.84s-.46.56-.68.8c-.22.25-.41.45-.57.6-.16.15-.25.23-.27.23-.05-.02-.04-.09.02-.21.11-.08.14-.16.09-.25-.05,0-.15.08-.31.25-.16.16-.32.34-.5.54-.75.85-1.22,1.28-1.41,1.29h-.04s.11-.21.39-.55c.29-.35.65-.76,1.1-1.24.49-.53.9-.99,1.25-1.39.34-.4.65-.79.92-1.16.27-.37.54-.76.8-1.15.26-.39.55-.85.88-1.37.8-1.33,1.59-2.83,2.39-4.5.8-1.67,1.56-3.49,2.3-5.45.39-1.02.72-1.89.99-2.62s.5-1.36.68-1.89c.18-.53.33-.98.43-1.34.11-.36.2-.69.28-.98.04-.19.1-.46.18-.79.09-.34.17-.64.25-.9ZM256.53,115.09c.47-.43.61-.7.41-.81-.07,0-.17.05-.29.12-.12.08-.26.17-.39.27-.14.1-.27.21-.39.31-.12.1-.21.19-.25.26-.06.17-.17.26-.34.27-.07,0-.27.12-.58.36-.32.23-.67.51-1.07.83-.39.32-.79.66-1.18,1.01-.39.36-.7.66-.92.91-.11.12-.2.21-.25.26s-.06.05-.02,0c.04-.12.03-.16-.04-.1-.07.07-.1.14-.1.18.05.07.03.15-.07.25-.1.1-.2.13-.3.09-.12,0-.21.1-.27.26-.11.13-.18.19-.2.19-.05-.04-.17.02-.36.2-.19.18-.28.33-.28.44,0,.12-.06.23-.19.33-.14.1-.26.16-.38.17-.12,0-.17.03-.17.08.02.02-.07.17-.29.43-.22.26-.5.57-.83.92-.33.35-.7.74-1.1,1.15-.4.41-.78.8-1.14,1.15-.36.35-.67.64-.92.87-.26.23-.41.35-.46.35.05.09.04.21-.05.36-.08.15-.17.2-.24.16-.05,0-.15.08-.32.23-.17.15-.35.34-.55.57-.2.23-.4.46-.6.71-.2.25-.37.47-.53.67-.07.1-.21.3-.44.6-.23.3-.49.62-.78.97-.48.6-.96,1.21-1.43,1.85-.47.63-.89,1.21-1.26,1.75s-.67.98-.9,1.33c-.23.36-.33.56-.3.6.05.09-.02.28-.21.58-.09.12-.16.24-.21.35-.05.11-.08.19-.07.24v.04s.08-.06.15-.17c.08-.11.21-.34.4-.68.52-.79,1.05-1.57,1.6-2.35.54-.78,1.14-1.53,1.78-2.26.11-.12.33-.38.66-.77.33-.39.66-.79.99-1.22.46-.57,1.03-1.24,1.71-1.99.68-.75,1.39-1.54,2.15-2.35.75-.82,1.52-1.62,2.3-2.42.78-.79,1.51-1.52,2.18-2.17,1.01-.96,2.04-1.89,3.1-2.8,1.06-.9,2.14-1.77,3.25-2.6ZM239.9,148.18c0-.12-.02-.18-.05-.17-.02,0-.06.06-.1.18s-.02.18.05.17c.07,0,.1-.06.09-.18ZM240.62,147.78c.04-.1.03-.14-.04-.14-.07,0-.14.04-.21.12-.04.1-.03.14.04.14.09,0,.16-.05.21-.12ZM241.27,147.35c.14-.08.18-.14.13-.18-.07,0-.18.07-.34.2-.04.05-.08.09-.12.13s-.03.05.02.05c.09,0,.2-.07.31-.2ZM243.54,145.54c.04-.05.03-.06-.04-.03-.07.03-.18.1-.34.23-.34.26-.54.42-.61.5-.02,0-.09.04-.19.12-.1.08-.21.16-.32.25-.11.09-.22.18-.32.27-.1.09-.16.15-.18.17,0,.05.06.04.16,0,.1-.05.23-.14.39-.27.13-.13.29-.26.47-.4s.33-.25.44-.33c.12-.08.22-.16.32-.25.1-.09.17-.17.22-.25ZM244.38,144.78c.11-.12.21-.24.28-.36.08-.11.1-.17.08-.16-.02-.02-.09,0-.19.1-.1.09-.22.21-.35.36-.31.35-.44.54-.39.56.05,0,.12-.06.22-.16s.22-.21.35-.34ZM245.65,143.53c.11-.13.18-.22.2-.28.02-.06,0-.06-.07-.01-.18.13-.38.3-.59.5-.21.2-.32.33-.31.37,0,.02.01.04.04.03.05,0,.14-.06.27-.18.14-.12.29-.26.47-.44ZM251.86,108.44c.26-.35.5-.67.72-.97.22-.3.36-.48.43-.56.13-.15.24-.28.31-.39.08-.11.13-.24.15-.38.03-.14.03-.32,0-.53s-.06-.48-.1-.81c-.07-.33-.13-.62-.18-.88-.05-.26-.1-.4-.15-.42-.09,0-.3.18-.61.52-.31.34-.68.76-1.09,1.28-.42.51-.85,1.08-1.3,1.7-.45.62-.86,1.21-1.22,1.78-.32.52-.67,1.11-1.03,1.79-.36.67-.69,1.34-1,2.01-.3.67-.57,1.3-.79,1.89-.22.59-.39,1.07-.48,1.43-.04.17-.05.26-.04.27.01.01.08-.02.19-.1.07-.05.22-.2.45-.45s.47-.53.71-.83c.24-.3.51-.62.79-.97.29-.35.52-.62.7-.82.18-.2.39-.46.65-.79.25-.32.48-.62.67-.89.2-.27.39-.54.57-.8.19-.26.32-.44.41-.54.09-.08.26-.26.5-.56.24-.3.48-.62.72-.97ZM246.95,142.06c.24-.3.35-.46.33-.48-.03-.02-.16.1-.4.38-.25.25-.38.4-.42.45-.03.05-.01.07.06.07.03.02.08-.01.17-.1s.18-.19.27-.32ZM246.94,140.68c.07,0,.19-.13.37-.38l.26-.37-.37.34c-.18.2-.28.32-.32.36-.03.04-.01.05.06.05ZM248.39,139.52c.4-.5.53-.74.42-.74l-.03.04s-.06.03-.1.08c-.04.05-.15.19-.33.43s-.37.5-.59.8c-.15.2-.26.36-.33.48-.04.05-.08.1-.1.15.05,0,.4-.42,1.06-1.24ZM248.42,139.91v-.14s-.05-.01-.05-.03c-.05,0-.09.06-.13.18-.04.12-.02.18.05.18.05,0,.09-.07.13-.19ZM249.98,137.62c.11-.15.11-.18,0-.11-.09.05-.14.03-.15-.06s.04-.2.12-.33c.04-.05.03-.05-.04,0-.04.05-.12.15-.23.3-.11.15-.22.31-.33.48-.26.39-.35.62-.28.69.12.04.19.06.2.06.01,0,0-.04-.06-.1-.03-.09,0-.2.09-.33.09-.1.16-.12.21-.05.03.09.08.08.14-.04.04-.07.06-.12.05-.14-.01-.02-.04,0-.09.04-.09.05-.12.02-.08-.1.04-.1.1-.15.17-.15.07.02.16-.03.27-.16ZM249.45,136.48c-.08.19-.06.22.08.07.07-.07.1-.15.09-.22-.03-.02-.08.03-.17.15ZM251.84,133.77c.11-.08.13-.15.06-.22-.05-.04-.15.09-.3.41-.06.15-.17.37-.33.68-.16.31-.32.61-.5.9-.17.29-.31.56-.43.79-.12.23-.17.36-.17.38,0,.02.04,0,.1-.08.06-.12.14-.19.24-.19.09,0,.14-.08.13-.22,0-.12.04-.18.13-.18.05.02.09-.03.13-.15,0-.12.07-.27.22-.44.07-.1.12-.2.18-.3.05-.1.08-.19.07-.29-.01-.17.05-.28.19-.33.11-.05.17-.16.16-.33-.01-.19.03-.33.12-.43ZM250.8,134.08c-.06.15-.04.16.07.03.11-.05.13-.11.06-.18-.05-.04-.09,0-.13.15ZM252.16,133.18c.07,0,.1-.04.1-.11l-.11-.07c-.07,0-.1.05-.1.15s.04.1.11.03ZM252.37,131.36c.09-.15.13-.24.12-.29,0-.07-.04-.06-.1.04-.09.15-.13.24-.12.29,0,.05.04.03.1-.04ZM253.08,119.06s-.08.09-.1.13c-.02.04-.02.05,0,.05.02,0,.09-.06.2-.19l.06-.15.03-.04c-.07,0-.14.07-.2.19ZM253.68,107.44c.15-.2.26-.35.31-.46.05-.11.06-.13.01-.05-.07.05-.16.15-.27.28-.11.14-.21.28-.31.43-.1.15-.18.28-.24.39-.06.11-.08.17-.06.16.02,0,.09-.08.2-.23.11-.15.23-.32.36-.52ZM253.83,108.75c.11-.13.14-.19.1-.18-.02,0-.09.06-.2.19-.09.1-.11.15-.06.15.02,0,.08-.05.17-.15ZM253.98,129.17c.04-.12.08-.23.1-.33.03-.1.03-.14,0-.14-.08.17-.15.31-.21.42-.05.11-.09.22-.12.33-.03.11-.04.17-.04.2,0,.12.09-.04.25-.48ZM254.5,127.89c.13-.29.18-.49.18-.58-.02,0-.06.05-.1.15-.04.1-.09.2-.14.31s-.09.22-.12.33-.04.19-.04.23c0,.05.08-.1.22-.44ZM255.2,125.97c.08-.19.15-.36.2-.49.05-.13.06-.22.04-.27,0-.05-.03-.03-.07.04-.04.07-.08.18-.12.33-.18.56-.26.83-.23.83l.19-.44ZM255.69,124.69c.04-.1.07-.18.09-.25.02-.07.02-.11,0-.11-.03-.07-.08.03-.16.29-.08.22-.11.34-.08.36.03.02.08-.08.16-.29ZM261.97,111.1c.04-.1,0-.12-.11-.06-.12.05-.18.1-.19.14s.03.05.13.04c.02,0,.05-.01.07-.04.02-.03.06-.05.1-.08ZM262.55,110.77c.23-.08.34-.16.34-.23,0-.05-.12,0-.35.11-.23.12-.37.21-.41.26-.04.05-.02.06.07.03.09-.03.21-.08.35-.16ZM267.5,109.23c.85.02,1.23-.02,1.13-.1-.05-.07-.2-.11-.43-.12-.24,0-.51,0-.82.01-.28.02-.57.05-.87.09-.29.04-.54.09-.75.15-.23.08-.49.18-.78.3-.29.11-.56.22-.82.33-.25.11-.47.21-.66.29-.19.08-.3.15-.34.2-.07.08.05.06.35-.06.12-.05.33-.14.64-.27.31-.12.63-.26.95-.4.25-.09.47-.16.64-.22.17-.06.34-.1.51-.14.16-.03.34-.06.53-.07.19-.01.42-.01.71,0Z"/></svg>