<?xml version="1.0" encoding="UTF-8"?><svg id="Calque_1" xmlns="http://www.w3.org/2000/svg" viewBox="0 0 462.05 252.47"><defs><style>.cls-1{fill:#fff;}.cls-2{fill:#a972df;}</style></defs><path class="cls-2" d="M234.69,22.46C120.59,22.46,28.09,114.96,28.09,229.06h114.85c0-50.67,41.07-91.74,91.74-91.74s91.74,41.07,91.74,91.74h114.85c0-114.1-92.5-206.59-206.59-206.59Z"/><path class="cls-1" d="M101.32,197.67l-30.25-9.51,1.29-4.1,30.25,9.51-1.29,4.1ZM90.41,191.22l-3.57-1.12,2.59-8.24c.36-1.13.44-2.22.26-3.25-.19-1.03-.62-1.93-1.3-2.71-.68-.77-1.61-1.34-2.77-1.71-1.16-.37-2.24-.43-3.25-.18-1,.24-1.88.74-2.62,1.48-.74.74-1.29,1.68-1.65,2.81l-2.59,8.24-3.58-1.12,2.66-8.46c.58-1.86,1.49-3.41,2.71-4.66,1.22-1.24,2.66-2.08,4.31-2.5,1.65-.42,3.42-.34,5.31.26,1.86.58,3.35,1.53,4.48,2.82s1.83,2.8,2.12,4.52c.29,1.72.14,3.51-.44,5.37l-2.66,8.46Z"/><path class="cls-1" d="M87.24,160.31c-.32.69-.81,1.15-1.48,1.38-.66.23-1.34.18-2.03-.14-.66-.31-1.12-.79-1.37-1.45-.25-.65-.21-1.33.11-2.02.32-.69.81-1.15,1.48-1.38.66-.23,1.32-.19,1.99.12.69.32,1.16.81,1.41,1.46.25.65.21,1.33-.11,2.02ZM109.95,173.23l-19.67-9.18,1.76-3.77,19.67,9.18-1.76,3.77Z"/><path class="cls-1" d="M114.24,164.51l-28.51-15.87,2-3.59,28.51,15.87-2,3.59Z"/><path class="cls-1" d="M124.38,149.22c-1.19,1.62-2.66,2.78-4.41,3.48-1.75.7-3.58.92-5.51.65-1.92-.26-3.75-1.03-5.46-2.29-1.72-1.26-2.99-2.78-3.81-4.54-.82-1.76-1.16-3.58-1.02-5.47s.81-3.64,2-5.25c.98-1.32,2.12-2.3,3.44-2.94,1.32-.64,2.7-.92,4.14-.84,1.44.08,2.82.55,4.15,1.41l5.26,3.88c1.2,1,2.06,2.17,2.58,3.52.52,1.35.67,2.75.44,4.21-.22,1.46-.83,2.85-1.8,4.18ZM121.66,146.36c1.21-1.64,1.63-3.38,1.25-5.21s-1.43-3.38-3.17-4.67c-1.18-.87-2.39-1.4-3.64-1.6-1.25-.2-2.43-.08-3.54.37s-2.07,1.23-2.88,2.33-1.27,2.27-1.38,3.49.11,2.41.65,3.54,1.39,2.13,2.54,2.98c1.18.87,2.39,1.39,3.64,1.57,1.25.18,2.45.03,3.59-.45,1.15-.48,2.13-1.27,2.94-2.37ZM128.3,143.14l-4.71-3.47-3.81-3.77-4.69-2.49-4.27-3.14,2.47-3.35,17.47,12.88-2.47,3.35Z"/><path class="cls-1" d="M136.53,134.02l-21.8-21.75,2.91-2.91,21.8,21.75-2.91,2.91ZM120.04,125.12l-2.65-2.65,10.46-10.48,2.65,2.65-10.46,10.48Z"/><path class="cls-1" d="M153.15,120.01c-1.75,1.33-3.61,2.11-5.58,2.37s-3.87,0-5.7-.75-3.4-1.99-4.71-3.71c-1.29-1.7-2.05-3.53-2.3-5.49-.24-1.96.01-3.84.76-5.65.75-1.81,1.96-3.35,3.63-4.62,1.58-1.2,3.26-1.9,5.05-2.11,1.79-.21,3.52.06,5.19.83,1.67.76,3.13,1.97,4.38,3.62.18.24.37.51.56.81.19.3.37.64.56,1.04l-14.6,11.07-2.07-2.73,12.85-9.75-.4,1.97c-.88-1.17-1.84-2-2.87-2.5-1.03-.5-2.09-.69-3.18-.57-1.09.12-2.17.59-3.24,1.4-1.12.85-1.92,1.84-2.4,2.96-.48,1.13-.62,2.31-.42,3.53.2,1.22.75,2.43,1.66,3.62.92,1.21,1.97,2.09,3.14,2.63,1.18.54,2.4.72,3.68.54,1.27-.18,2.5-.72,3.66-1.6.97-.74,1.73-1.58,2.29-2.54.55-.96.87-2,.93-3.12l3.74.55c-.11,1.62-.57,3.13-1.37,4.54-.8,1.41-1.88,2.63-3.24,3.66Z"/><path class="cls-1" d="M170.07,109.19c-1.07.58-2.17.99-3.28,1.23-1.12.24-2.21.31-3.29.22-1.07-.09-2.1-.34-3.08-.75l1.07-3.59c1.16.48,2.31.68,3.44.6s2.27-.42,3.39-1.03,1.89-1.28,2.3-2c.41-.72.42-1.43.04-2.13-.38-.7-.92-1.1-1.62-1.22-.71-.12-1.52-.1-2.43.07s-1.87.36-2.87.59-2,.36-2.99.38c-1,.02-1.93-.19-2.81-.63-.88-.44-1.63-1.24-2.26-2.39-.62-1.15-.89-2.3-.8-3.44.09-1.14.52-2.21,1.29-3.22.77-1.01,1.87-1.89,3.29-2.66,1.5-.81,2.97-1.27,4.42-1.38,1.45-.11,2.83.16,4.15.79l-1.07,3.59c-.94-.39-1.9-.56-2.88-.52-.98.05-1.97.34-2.96.87-1.04.57-1.74,1.19-2.09,1.86-.35.67-.35,1.32-.02,1.93.35.64.86,1.01,1.53,1.09.67.09,1.47.04,2.39-.15.92-.19,1.88-.38,2.87-.59.99-.21,2-.31,3.01-.3,1.01,0,1.96.24,2.84.69.89.46,1.65,1.27,2.29,2.45.97,1.79,1.1,3.56.4,5.29-.71,1.73-2.13,3.18-4.27,4.34Z"/><path class="cls-1" d="M190.71,108.88l-8.21-29.69,3.96-1.1,1.52,5.5.65,5.27,2.16,4.9,3.87,14.01-3.96,1.1ZM199.42,97.51c-1.59.44-3.11.5-4.57.2s-2.73-.94-3.82-1.91c-1.09-.96-1.88-2.18-2.39-3.66l-1.74-6.3c-.33-1.55-.27-3.01.19-4.39.46-1.38,1.23-2.57,2.33-3.58s2.42-1.74,3.98-2.17c1.91-.53,3.77-.52,5.58.02s3.38,1.51,4.72,2.92c1.34,1.4,2.29,3.13,2.86,5.18.57,2.06.64,4.03.21,5.92-.43,1.89-1.28,3.52-2.56,4.9-1.28,1.38-2.87,2.33-4.78,2.86ZM197.73,93.95c1.32-.37,2.4-.99,3.22-1.89.83-.89,1.38-1.95,1.66-3.18.28-1.23.22-2.55-.17-3.96-.38-1.38-1.01-2.53-1.88-3.44-.87-.91-1.89-1.54-3.06-1.88-1.17-.34-2.41-.33-3.74.04-1.29.36-2.35.98-3.18,1.88-.83.89-1.37,1.95-1.63,3.18-.26,1.23-.2,2.54.19,3.95.38,1.38.99,2.53,1.83,3.45.84.92,1.85,1.55,3.03,1.89s2.42.33,3.71-.03Z"/><path class="cls-1" d="M222.62,93.43c-2.09.18-4.04-.15-5.82-1s-3.26-2.09-4.41-3.72c-1.15-1.63-1.82-3.5-2.01-5.63-.18-2.09.15-4.03,1.01-5.8s2.09-3.23,3.7-4.38c1.61-1.15,3.46-1.82,5.56-2,2.12-.19,4.09.14,5.89.98,1.8.84,3.28,2.06,4.43,3.67,1.15,1.61,1.82,3.46,2,5.56.19,2.12-.15,4.09-1,5.89-.85,1.8-2.09,3.28-3.72,4.43-1.63,1.15-3.5,1.82-5.63,2.01ZM222.28,89.47c1.4-.12,2.6-.55,3.6-1.28,1.01-.73,1.76-1.68,2.27-2.84.51-1.16.7-2.45.58-3.88-.12-1.4-.54-2.61-1.26-3.65-.72-1.04-1.63-1.82-2.73-2.35-1.1-.53-2.35-.73-3.75-.61-1.34.12-2.51.53-3.51,1.25-1.01.72-1.77,1.65-2.28,2.79-.51,1.15-.71,2.42-.58,3.81.12,1.43.54,2.67,1.24,3.72.7,1.05,1.61,1.85,2.73,2.4,1.12.54,2.34.76,3.68.64Z"/><path class="cls-1" d="M245.98,93.27c-1.79-.15-3.36-.67-4.71-1.56-1.35-.89-2.36-2.08-3.03-3.57-.67-1.49-.93-3.18-.78-5.06l1.03-12.57,4.1.34-1.02,12.39c-.1,1.18.02,2.23.36,3.12.34.9.88,1.61,1.64,2.13.75.52,1.66.82,2.72.91,1.61.13,2.91-.27,3.91-1.22.99-.94,1.56-2.31,1.71-4.1l1.02-12.39,4.1.34-1.03,12.57c-.15,1.88-.69,3.5-1.59,4.87-.91,1.36-2.09,2.37-3.55,3.03-1.46.66-3.09.92-4.88.77Z"/><path class="cls-1" d="M259.59,94.55l4.95-21.13,4,.94-4.95,21.13-4-.94ZM266.41,83.48l-1.35-1.07c.63-2.7,1.76-4.7,3.38-6.01s3.6-1.69,5.95-1.14c1.07.25,1.99.66,2.76,1.23.77.57,1.43,1.38,1.97,2.41l-3.26,2.1c-.33-.58-.74-1.04-1.23-1.37-.49-.33-1.08-.58-1.8-.75-1.48-.35-2.81-.16-3.98.57-1.17.73-1.99,2.07-2.45,4.03Z"/><path class="cls-1" d="M288.67,103.51l12.61-28.1,3.75,1.68-12.61,28.1-3.75-1.68ZM291.15,84.94l1.53-3.42,13.51,6.06-1.53,3.42-13.51-6.06Z"/><path class="cls-1" d="M307.49,113.98c-1.78-1.13-3.11-2.57-4.02-4.33s-1.32-3.64-1.24-5.63c.07-1.99.68-3.89,1.82-5.69,1.13-1.78,2.57-3.11,4.32-4,1.75-.89,3.62-1.3,5.6-1.24,1.98.06,3.86.66,5.63,1.79,1.8,1.14,3.16,2.59,4.09,4.35.92,1.76,1.35,3.63,1.29,5.61-.06,1.98-.66,3.86-1.79,5.63-1.14,1.8-2.6,3.16-4.37,4.07-1.77.92-3.65,1.34-5.64,1.26-1.99-.07-3.89-.68-5.69-1.82ZM309.62,110.63c1.18.75,2.4,1.14,3.64,1.17,1.24.03,2.42-.26,3.53-.87,1.11-.61,2.05-1.52,2.82-2.73.75-1.18,1.16-2.41,1.22-3.67.06-1.26-.19-2.44-.74-3.53-.55-1.09-1.42-2.01-2.6-2.76-1.13-.72-2.32-1.1-3.55-1.14-1.24-.04-2.4.23-3.51.83-1.1.6-2.03,1.49-2.78,2.67-.77,1.21-1.19,2.45-1.27,3.71-.08,1.27.16,2.45.72,3.57.56,1.11,1.4,2.03,2.53,2.74Z"/><path class="cls-1" d="M326.1,128.04c-1.33-1.21-2.26-2.57-2.79-4.1-.53-1.53-.61-3.09-.23-4.68.37-1.59,1.19-3.09,2.46-4.49l8.47-9.35,3.05,2.76-8.34,9.21c-.8.88-1.34,1.78-1.61,2.7-.28.92-.28,1.81,0,2.68.28.87.82,1.66,1.61,2.38,1.2,1.08,2.48,1.55,3.84,1.41,1.36-.14,2.65-.88,3.85-2.21l8.34-9.21,3.05,2.76-8.46,9.35c-1.27,1.4-2.68,2.37-4.22,2.89-1.55.53-3.1.61-4.66.25-1.56-.37-3.01-1.15-4.34-2.36Z"/><path class="cls-1" d="M340.16,142.95c-.77-.94-1.38-1.94-1.83-2.99-.45-1.05-.73-2.11-.84-3.18-.11-1.07-.06-2.13.15-3.17l3.73.37c-.25,1.23-.23,2.4.06,3.5s.84,2.15,1.65,3.13c.81.99,1.61,1.62,2.4,1.88.79.26,1.48.14,2.1-.36.61-.5.91-1.11.9-1.83-.02-.72-.19-1.51-.53-2.37-.34-.87-.71-1.77-1.13-2.71-.42-.94-.73-1.9-.93-2.87-.21-.97-.18-1.93.09-2.88.27-.95.91-1.84,1.92-2.67,1.01-.83,2.09-1.31,3.23-1.43s2.27.1,3.41.66c1.13.57,2.21,1.48,3.24,2.72,1.08,1.32,1.81,2.68,2.19,4.08.38,1.4.38,2.81,0,4.22l-3.73-.37c.21-1,.2-1.97-.03-2.93-.23-.95-.7-1.87-1.42-2.74-.75-.92-1.49-1.49-2.22-1.7-.73-.21-1.36-.1-1.9.35-.57.46-.83,1.03-.79,1.71.04.67.24,1.45.6,2.32.36.87.73,1.77,1.13,2.71s.68,1.9.87,2.89.13,1.97-.14,2.92c-.28.96-.94,1.86-1.97,2.71-1.58,1.29-3.29,1.76-5.12,1.39s-3.53-1.49-5.07-3.38Z"/><path class="cls-1" d="M358.88,144.52c-.5-.73-.66-1.49-.47-2.28s.61-1.41,1.29-1.88c.71-.48,1.44-.65,2.22-.52.77.14,1.41.57,1.91,1.3.48.7.65,1.45.5,2.23s-.57,1.42-1.28,1.9c-.68.46-1.42.63-2.23.5-.81-.13-1.45-.55-1.93-1.25Z"/><path class="cls-1" d="M352.33,159.54l26.73-15.29,2.04,3.57-26.73,15.29-2.04-3.57ZM365.26,145.98l3.25-1.86,7.35,12.85-3.25,1.86-7.35-12.85Z"/><path class="cls-1" d="M361.45,179.27c-.81-2.04-1.08-4.04-.8-6,.28-1.97,1.02-3.73,2.24-5.3s2.82-2.75,4.83-3.56c1.98-.79,3.95-1.04,5.9-.76,1.95.29,3.7,1.03,5.25,2.23,1.55,1.2,2.71,2.78,3.49,4.73.74,1.84.97,3.65.7,5.43s-1,3.38-2.17,4.78c-1.18,1.41-2.73,2.49-4.65,3.26-.28.11-.59.22-.93.32-.34.1-.72.19-1.15.26l-6.81-17.01,3.18-1.27,5.99,14.98-1.79-.91c1.36-.54,2.41-1.25,3.17-2.1.75-.86,1.22-1.83,1.39-2.92.17-1.09,0-2.25-.49-3.5-.52-1.3-1.26-2.33-2.22-3.1s-2.06-1.21-3.29-1.34c-1.23-.13-2.54.08-3.93.64-1.42.57-2.54,1.34-3.37,2.33-.83.99-1.33,2.12-1.49,3.4-.16,1.28.03,2.6.57,3.95.45,1.13,1.07,2.09,1.84,2.88.77.79,1.69,1.37,2.76,1.73l-1.52,3.46c-1.53-.54-2.87-1.38-4.01-2.53-1.15-1.15-2.04-2.51-2.67-4.1Z"/><path class="cls-1" d="M367.39,198.46c-.27-1.19-.38-2.35-.31-3.49.06-1.14.29-2.22.66-3.22s.89-1.93,1.54-2.77l3.18,1.99c-.77.99-1.27,2.04-1.5,3.16-.23,1.12-.2,2.3.09,3.54.29,1.25.73,2.16,1.31,2.75.59.58,1.27.79,2.04.61.77-.18,1.31-.59,1.61-1.24.3-.65.5-1.44.58-2.36.08-.93.15-1.9.19-2.93.04-1.03.19-2.02.44-2.98.25-.96.7-1.81,1.36-2.54.66-.73,1.63-1.24,2.9-1.54,1.28-.29,2.45-.25,3.53.15,1.08.39,2,1.09,2.76,2.11.76,1.01,1.33,2.3,1.69,3.88.38,1.66.44,3.21.15,4.63-.28,1.42-.9,2.69-1.87,3.79l-3.18-1.99c.63-.8,1.05-1.68,1.27-2.64.22-.96.2-1.98-.05-3.08-.27-1.16-.68-1.99-1.24-2.51-.56-.51-1.18-.69-1.86-.53-.71.16-1.2.56-1.46,1.18-.26.62-.43,1.4-.49,2.34-.07.94-.13,1.91-.19,2.93-.06,1.01-.23,2.01-.51,2.98-.28.97-.75,1.82-1.43,2.56s-1.67,1.25-2.97,1.55c-1.99.46-3.72.12-5.21-1.03-1.48-1.14-2.5-2.9-3.05-5.28Z"/></svg>