<?xml version="1.0" encoding="UTF-8"?><svg id="Calque_1" xmlns="http://www.w3.org/2000/svg" viewBox="0 0 307.19 292.86"><defs><style>.cls-1{fill:#0c6277;}.cls-2{fill:#ffd88a;}.cls-3{fill:#0a6176;}</style></defs><circle class="cls-2" cx="153.59" cy="146.43" r="141.77"/><path class="cls-1" d="M62.64,182.6l-2.84.94-2.17-6.55c-.3-.9-.75-1.64-1.35-2.23-.6-.58-1.31-.97-2.11-1.15-.8-.18-1.67-.12-2.59.18-.92.31-1.65.77-2.19,1.4-.54.63-.87,1.35-1.01,2.18-.14.83-.06,1.69.24,2.59l2.17,6.55-2.84.94-2.22-6.73c-.49-1.48-.63-2.91-.42-4.28.21-1.38.75-2.59,1.63-3.63.87-1.04,2.06-1.82,3.56-2.31,1.48-.49,2.89-.58,4.22-.26,1.33.31,2.5.96,3.49,1.94.99.98,1.73,2.21,2.22,3.69l2.22,6.73ZM72.72,181.69l-24.06,7.96-1.08-3.26,24.06-7.96,1.08,3.26Z"/><path class="cls-1" d="M46.3,163.54c.1.6-.03,1.13-.36,1.57-.34.45-.8.72-1.41.81-.58.09-1.09-.02-1.55-.35-.46-.32-.73-.78-.83-1.38-.1-.6.02-1.12.36-1.57.34-.45.79-.72,1.37-.81.6-.1,1.13.02,1.59.34.46.32.73.78.83,1.38ZM67.11,161.94l-17.13,2.71-.52-3.28,17.13-2.71.52,3.28Z"/><path class="cls-1" d="M66.1,154.37l-26.01,1.84-.23-3.28,26.01-1.84.23,3.28Z"/><path class="cls-1" d="M66.37,139.91c-.13,1.6-.65,3.01-1.54,4.21-.89,1.21-2.05,2.13-3.47,2.75-1.42.63-2.98.87-4.68.73-1.7-.14-3.2-.64-4.49-1.49s-2.29-1.95-2.99-3.29-.98-2.81-.84-4.41c.11-1.31.48-2.46,1.11-3.44s1.45-1.75,2.46-2.31c1.01-.55,2.15-.81,3.42-.78l5.2.43c1.23.18,2.31.61,3.23,1.31.92.7,1.61,1.59,2.07,2.68.46,1.09.63,2.29.52,3.6ZM66.48,134.13l-4.66-.39-4.17-.97-4.24.27-4.22-.35.28-3.31,17.28,1.44-.28,3.31ZM63.32,139.11c.14-1.62-.31-2.98-1.33-4.07-1.02-1.09-2.39-1.7-4.11-1.84-1.16-.1-2.21.05-3.15.43-.94.39-1.69.96-2.25,1.74-.56.77-.89,1.7-.98,2.79-.09,1.09.08,2.08.52,2.96s1.08,1.59,1.93,2.14c.85.55,1.84.87,2.98.96,1.16.1,2.21-.05,3.13-.45.93-.4,1.68-1,2.26-1.81.58-.81.92-1.76,1.01-2.85Z"/><path class="cls-1" d="M68.44,124.75l-23.74-6.5.87-3.17,23.74,6.5-.87,3.17ZM53.48,125.08l-2.89-.79,3.13-11.41,2.89.79-3.13,11.41Z"/><path class="cls-1" d="M74.62,108.77c-.74,1.59-1.76,2.84-3.06,3.75-1.3.91-2.74,1.44-4.31,1.59-1.57.15-3.15-.14-4.71-.88-1.54-.72-2.76-1.73-3.66-3.03-.9-1.29-1.42-2.72-1.56-4.28-.14-1.56.14-3.1.85-4.62.67-1.43,1.6-2.56,2.79-3.37s2.51-1.26,3.98-1.34c1.46-.08,2.94.23,4.44.93.22.1.45.23.7.37.24.14.5.32.78.53l-6.21,13.26-2.48-1.16,5.47-11.67.45,1.54c-1.06-.5-2.04-.73-2.96-.7-.91.03-1.73.29-2.46.78-.73.49-1.32,1.22-1.77,2.19-.48,1.01-.67,2.01-.59,2.99.08.98.42,1.86,1.02,2.65.6.79,1.44,1.44,2.52,1.94,1.1.52,2.17.75,3.2.69,1.03-.05,1.97-.38,2.8-.99.83-.6,1.5-1.44,1.99-2.49.41-.88.64-1.76.68-2.65.04-.88-.13-1.73-.5-2.55l2.85-1c.52,1.19.76,2.43.72,3.72s-.35,2.56-.93,3.8Z"/><path class="cls-1" d="M82.71,95.17c-.57.79-1.22,1.46-1.94,2.03s-1.48.99-2.29,1.3c-.81.3-1.63.48-2.48.53l-.48-2.96c1-.06,1.9-.31,2.69-.76.79-.45,1.48-1.09,2.08-1.92.6-.83.92-1.57.96-2.23.04-.66-.19-1.18-.71-1.55-.51-.37-1.04-.48-1.59-.32s-1.12.46-1.73.89c-.6.44-1.22.91-1.86,1.43-.64.51-1.32.95-2.02,1.31-.71.36-1.46.53-2.24.52-.79-.01-1.6-.32-2.45-.94-.85-.61-1.44-1.35-1.77-2.2-.33-.85-.39-1.78-.19-2.77.21-.99.69-2.01,1.44-3.06.8-1.11,1.7-1.95,2.7-2.53,1-.58,2.09-.87,3.26-.87l.48,2.96c-.81.04-1.56.25-2.25.63-.69.37-1.3.92-1.83,1.65-.56.77-.84,1.46-.86,2.06-.02.6.2,1.07.66,1.4.47.34.97.43,1.48.26.51-.17,1.07-.48,1.67-.94.6-.45,1.22-.93,1.86-1.43.64-.5,1.33-.92,2.06-1.26.73-.34,1.49-.51,2.29-.49.8.02,1.63.34,2.5.97,1.32.95,2.03,2.18,2.12,3.67.09,1.49-.43,3.03-1.57,4.61Z"/><path class="cls-1" d="M85.74,74.73c-.51.49-1.09.71-1.74.66-.64-.04-1.19-.3-1.64-.78-.47-.49-.7-1.06-.69-1.68,0-.63.27-1.19.78-1.67.49-.47,1.06-.69,1.7-.68.64.02,1.19.27,1.66.77.45.48.68,1.04.68,1.7,0,.65-.25,1.22-.74,1.68Z"/><path class="cls-1" d="M106.49,72.44l-15.59-10.92,3.11-1.92,11.95,8.71-.99.61-2.2-14.74,3.11-1.92,2.3,19.14-1.68,1.04ZM106.01,81.1l-1.19-11.58,3.35,1.88.95,7.78-3.11,1.92Z"/><path class="cls-1" d="M123.33,64.32c-1.58.58-3.14.73-4.7.45-1.56-.28-2.95-.93-4.18-1.94-1.23-1.01-2.14-2.32-2.73-3.92-.58-1.58-.73-3.14-.44-4.68s.93-2.93,1.93-4.16c1-1.23,2.29-2.13,3.87-2.71,1.6-.59,3.18-.75,4.74-.48,1.56.27,2.96.9,4.18,1.9,1.23,1,2.13,2.29,2.71,3.87.59,1.6.75,3.18.47,4.75s-.92,2.97-1.94,4.2c-1.01,1.23-2.32,2.14-3.92,2.73ZM122.23,61.34c1.05-.39,1.89-.97,2.51-1.74.62-.77,1.01-1.66,1.16-2.66.15-1,.03-2.04-.37-3.11-.39-1.05-.97-1.9-1.74-2.55-.77-.65-1.64-1.06-2.6-1.24-.96-.18-1.97-.07-3.02.31-1.01.37-1.82.94-2.45,1.7-.63.76-1.02,1.64-1.17,2.63s-.04,2.01.35,3.06c.4,1.07.98,1.94,1.74,2.61.76.67,1.63,1.09,2.61,1.28.98.18,1.97.09,2.97-.28Z"/><path class="cls-1" d="M141.11,59.16c-1.57.21-3.02.02-4.37-.57-1.34-.58-2.46-1.49-3.36-2.71-.9-1.22-1.45-2.65-1.67-4.29-.22-1.64-.05-3.15.49-4.54.54-1.38,1.39-2.54,2.55-3.46,1.16-.92,2.51-1.49,4.05-1.69,1.35-.18,2.59-.07,3.71.32,1.12.39,2.04,1.03,2.77,1.9.73.87,1.21,1.95,1.45,3.22l.6,4.56c.09,1.26-.11,2.41-.6,3.45-.49,1.03-1.22,1.89-2.19,2.55-.97.67-2.12,1.09-3.44,1.26ZM142.14,67.02c-1.79.23-3.4.11-4.83-.36-1.44-.47-2.66-1.25-3.66-2.32l1.86-2.42c.82.8,1.74,1.37,2.77,1.72,1.03.34,2.2.43,3.53.26,1.74-.23,3.06-.88,3.98-1.94.92-1.07,1.27-2.38,1.07-3.95l-.56-4.27.07-3.95-1.08-3.76-.59-4.53,3.26-.43,2.16,16.51c.22,1.64.02,3.13-.57,4.48-.6,1.34-1.53,2.45-2.81,3.31s-2.8,1.42-4.59,1.65ZM141.32,56c1.09-.14,2-.49,2.73-1.06.74-.56,1.27-1.29,1.61-2.18.34-.89.43-1.89.29-3-.15-1.11-.5-2.05-1.05-2.83-.56-.77-1.27-1.34-2.14-1.71-.87-.36-1.84-.48-2.9-.34-1.09.14-2.01.5-2.77,1.08-.76.58-1.32,1.31-1.68,2.21-.36.89-.47,1.88-.33,2.97.14,1.09.5,2.02,1.09,2.8s1.32,1.35,2.21,1.72c.89.36,1.87.47,2.93.33Z"/><path class="cls-1" d="M160.97,59.24c-1.6-.15-3-.68-4.2-1.58-1.2-.91-2.11-2.07-2.72-3.5-.61-1.43-.84-2.99-.68-4.68s.67-3.19,1.53-4.48c.86-1.29,1.97-2.27,3.32-2.96,1.35-.68,2.82-.95,4.42-.8,1.31.12,2.45.5,3.43,1.14.98.64,1.74,1.47,2.28,2.49.54,1.02.79,2.16.75,3.42l-.48,5.2c-.19,1.23-.64,2.3-1.34,3.21s-1.61,1.59-2.7,2.04c-1.09.45-2.29.61-3.6.49ZM161.8,56.2c1.62.15,2.98-.28,4.08-1.29,1.1-1.01,1.72-2.38,1.88-4.1.11-1.16-.03-2.21-.4-3.15-.38-.94-.95-1.7-1.71-2.27-.77-.57-1.69-.91-2.78-1.01-1.09-.1-2.08.06-2.96.5-.88.43-1.6,1.07-2.16,1.91-.55.84-.89,1.83-.99,2.97-.11,1.16.03,2.21.42,3.14.39.93.99,1.69,1.79,2.27.8.59,1.75.93,2.84,1.03ZM166.75,59.41l.43-4.65,1.01-4.16-.23-4.24.39-4.22,3.31.31-1.6,17.27-3.31-.31Z"/><path class="cls-1" d="M183.95,52.44c-.67-.22-1.14-.62-1.42-1.2-.27-.59-.31-1.19-.1-1.82.21-.65.59-1.12,1.15-1.41.56-.29,1.17-.33,1.84-.12.65.21,1.12.6,1.41,1.16.29.57.33,1.17.12,1.82-.2.63-.59,1.1-1.16,1.41-.57.31-1.19.37-1.83.16Z"/><path class="cls-1" d="M197.76,70.86c-1.48-.84-2.63-1.94-3.43-3.32-.8-1.38-1.21-2.86-1.23-4.44-.01-1.59.39-3.11,1.22-4.57.84-1.48,1.93-2.63,3.29-3.42,1.36-.8,2.83-1.21,4.42-1.22,1.59-.01,3.12.4,4.61,1.24,1.17.66,2.12,1.48,2.88,2.48.75,1,1.25,2.11,1.51,3.35l-2.98.83c-.16-.81-.49-1.56-1.01-2.23-.52-.67-1.17-1.22-1.95-1.67-.95-.54-1.92-.8-2.91-.78-.99.02-1.91.29-2.76.81-.85.52-1.56,1.28-2.12,2.28-.56,1-.85,2-.85,3s.24,1.94.73,2.8c.49.86,1.21,1.56,2.17,2.1.81.45,1.62.73,2.45.82.83.09,1.64,0,2.44-.28l.8,2.97c-1.15.41-2.36.56-3.62.43-1.26-.12-2.47-.51-3.64-1.17Z"/><path class="cls-1" d="M210.88,80.28c-1.27-1.1-2.16-2.4-2.66-3.9-.5-1.5-.61-3.03-.31-4.6.29-1.56,1-2.99,2.12-4.28,1.1-1.27,2.4-2.15,3.89-2.65,1.49-.49,3.02-.6,4.57-.31,1.56.29,2.97.98,4.24,2.08,1.29,1.12,2.19,2.42,2.71,3.92.52,1.5.64,3.03.35,4.58s-.98,2.97-2.08,4.24c-1.12,1.29-2.43,2.19-3.94,2.7-1.51.51-3.04.62-4.61.33-1.57-.29-2.99-1-4.28-2.12ZM212.96,77.88c.85.73,1.76,1.19,2.74,1.36.98.17,1.94.08,2.89-.27.95-.35,1.8-.96,2.55-1.83.73-.85,1.2-1.76,1.4-2.75.2-.99.14-1.95-.17-2.87-.31-.93-.88-1.76-1.73-2.49-.81-.7-1.7-1.14-2.67-1.32-.97-.18-1.93-.1-2.87.24s-1.78.94-2.51,1.78c-.75.86-1.23,1.79-1.45,2.78-.21.99-.17,1.96.14,2.9.31.94.87,1.77,1.68,2.47Z"/><path class="cls-1" d="M219.45,88.02l13.63-10.73,2.03,2.58-13.63,10.73-2.03-2.58ZM229.23,84.5l-.31-1.34c1.74-1.37,3.44-2.06,5.11-2.07,1.67,0,3.09.74,4.28,2.25.54.69.91,1.4,1.11,2.15.2.74.21,1.57.03,2.49l-3.08-.32c.08-.53.05-1.02-.09-1.47-.14-.45-.39-.9-.75-1.36-.75-.96-1.68-1.5-2.77-1.63-1.09-.13-2.27.3-3.53,1.29Z"/><path class="cls-1" d="M221.41,102.08l21.84-11.34,1.51,2.92-4.05,2.1-4.01,1.38-3.47,2.5-10.31,5.35-1.51-2.92ZM231.74,107c-.61-1.17-.91-2.35-.91-3.54,0-1.19.28-2.29.86-3.3.57-1.01,1.39-1.83,2.46-2.47l4.63-2.4c1.16-.52,2.31-.71,3.46-.58,1.15.13,2.21.54,3.19,1.23.97.69,1.76,1.6,2.35,2.75.73,1.4,1.03,2.86.91,4.36-.12,1.5-.62,2.89-1.5,4.17-.87,1.28-2.07,2.31-3.58,3.09-1.51.78-3.04,1.17-4.59,1.15-1.55-.02-2.97-.42-4.26-1.19-1.29-.77-2.3-1.86-3.03-3.26ZM234.25,105.08c.5.97,1.17,1.71,2.01,2.21.83.5,1.76.75,2.76.77,1.01.01,2.03-.25,3.07-.79,1.02-.53,1.81-1.21,2.38-2.04.57-.83.89-1.73.96-2.7.07-.97-.14-1.94-.65-2.91-.49-.95-1.16-1.68-1.99-2.17s-1.75-.75-2.75-.75c-1,0-2.02.27-3.06.81-1.02.53-1.81,1.19-2.4,2-.58.81-.91,1.7-.97,2.69s.15,1.95.64,2.9Z"/><path class="cls-1" d="M237.7,122.18c-.27-.94-.41-1.86-.4-2.77,0-.91.13-1.78.39-2.6.26-.82.63-1.58,1.11-2.28l2.62,1.45c-.57.82-.92,1.69-1.06,2.59-.13.9-.06,1.84.23,2.82s.67,1.69,1.17,2.13c.49.44,1.05.57,1.65.4.61-.18,1.02-.53,1.23-1.06.21-.53.33-1.17.36-1.91.03-.74.03-1.52.02-2.35,0-.82.06-1.62.22-2.4.15-.78.48-1.48.97-2.09.49-.61,1.24-1.06,2.25-1.35s1.95-.3,2.82-.04c.88.27,1.64.79,2.29,1.56.65.77,1.16,1.78,1.52,3.02.38,1.31.49,2.54.33,3.69-.16,1.15-.6,2.18-1.33,3.1l-2.62-1.45c.47-.67.76-1.39.9-2.16.13-.77.07-1.59-.18-2.46-.26-.91-.63-1.56-1.1-1.94-.47-.38-.97-.5-1.51-.34-.56.16-.93.5-1.11,1.01-.18.51-.28,1.14-.29,1.89-.01.75-.02,1.53-.02,2.34,0,.81-.1,1.61-.27,2.4-.18.79-.52,1.49-1.03,2.1-.51.61-1.27,1.07-2.3,1.37-1.57.45-2.97.26-4.2-.59-1.23-.85-2.12-2.21-2.66-4.08Z"/><path class="cls-1" d="M251.93,137.2c-.06-.7.12-1.29.55-1.77.43-.48.98-.75,1.63-.81.68-.06,1.26.1,1.75.5.49.39.77.94.83,1.65.06.68-.11,1.26-.52,1.75-.41.49-.95.77-1.63.83-.65.06-1.24-.11-1.75-.52-.51-.41-.8-.95-.87-1.62Z"/><path class="cls-1" d="M240.47,157.15c.18-1.69.74-3.18,1.68-4.47.94-1.28,2.14-2.25,3.59-2.89,1.45-.64,3.01-.87,4.68-.7,1.69.18,3.18.73,4.45,1.66,1.27.93,2.23,2.12,2.87,3.57.64,1.45.87,3.02.69,4.72-.14,1.33-.52,2.54-1.14,3.62-.62,1.08-1.44,1.99-2.47,2.71l-1.95-2.41c.69-.47,1.23-1.07,1.64-1.81.41-.74.66-1.56.76-2.45.12-1.09-.03-2.08-.44-2.98-.41-.9-1.02-1.64-1.84-2.21-.82-.58-1.8-.92-2.94-1.05-1.14-.12-2.17.01-3.09.41-.92.39-1.68.98-2.28,1.78-.6.79-.95,1.73-1.07,2.82-.1.92-.02,1.78.22,2.58.25.8.65,1.51,1.22,2.13l-2.41,1.91c-.84-.9-1.45-1.95-1.83-3.15s-.51-2.47-.37-3.8Z"/><path class="cls-1" d="M237.02,172.94c.51-1.6,1.35-2.93,2.53-3.98,1.18-1.06,2.54-1.76,4.1-2.11,1.55-.35,3.14-.27,4.77.25,1.6.51,2.92,1.35,3.97,2.53,1.04,1.17,1.74,2.53,2.1,4.08.35,1.54.27,3.11-.23,4.71-.52,1.62-1.36,2.97-2.53,4.04-1.17,1.07-2.53,1.78-4.07,2.14-1.54.35-3.11.27-4.71-.23-1.62-.52-2.97-1.37-4.04-2.55-1.07-1.18-1.78-2.55-2.12-4.1-.35-1.55-.27-3.14.25-4.77ZM240.05,173.9c-.34,1.07-.39,2.08-.17,3.05.23.97.69,1.82,1.39,2.55.7.73,1.59,1.27,2.68,1.62,1.07.34,2.09.4,3.08.19s1.84-.64,2.57-1.29c.73-.65,1.26-1.51,1.6-2.57.32-1.02.38-2.01.16-2.98-.22-.96-.67-1.81-1.36-2.54-.69-.73-1.57-1.26-2.63-1.6-1.09-.35-2.13-.42-3.13-.23-.99.19-1.86.62-2.61,1.28s-1.28,1.5-1.6,2.52Z"/><path class="cls-1" d="M227.38,194.4l8.75,5.07c1.14.66,2.28.85,3.43.57,1.15-.28,2.05-.99,2.71-2.12.44-.76.66-1.53.67-2.32,0-.79-.19-1.52-.59-2.2-.39-.68-.97-1.24-1.73-1.68l1.34-.78c1.14.66,2,1.5,2.59,2.51.59,1.02.88,2.13.88,3.33,0,1.2-.34,2.38-1,3.51-.66,1.14-1.53,1.98-2.6,2.52-1.07.54-2.22.8-3.43.78-1.21-.02-2.33-.34-3.36-.93l-9.32-5.4,1.67-2.88ZM233.51,183.82l15.01,8.69-1.65,2.84-15.01-8.69,1.65-2.84Z"/><path class="cls-1" d="M219.71,203.76c.64-.74,1.34-1.35,2.11-1.85.77-.5,1.56-.86,2.39-1.09.83-.23,1.67-.34,2.51-.31l.22,2.99c-1-.03-1.92.14-2.75.52-.83.38-1.58.96-2.24,1.73-.67.77-1.05,1.49-1.15,2.14s.09,1.19.57,1.6c.48.41,1,.57,1.56.46.56-.11,1.16-.36,1.8-.74.64-.38,1.3-.8,1.98-1.26.68-.45,1.39-.83,2.13-1.12.74-.3,1.5-.4,2.28-.32.78.08,1.57.46,2.36,1.15.79.69,1.31,1.47,1.57,2.35.25.88.23,1.8-.06,2.77-.29.97-.86,1.94-1.71,2.92-.89,1.03-1.86,1.79-2.92,2.28-1.05.49-2.16.68-3.32.58l-.22-2.99c.81.03,1.58-.11,2.3-.42.72-.31,1.37-.81,1.96-1.49.62-.72.97-1.38,1.04-1.98.07-.6-.11-1.08-.53-1.45-.44-.38-.93-.51-1.45-.39-.53.12-1.11.39-1.74.79-.64.4-1.3.82-1.98,1.26-.69.44-1.41.8-2.16,1.07-.76.28-1.53.37-2.32.28-.79-.09-1.59-.49-2.4-1.19-1.23-1.07-1.83-2.35-1.79-3.84.04-1.5.7-2.98,1.97-4.45Z"/><path class="cls-1" d="M207.51,215.36c1.33-1.07,2.77-1.73,4.35-1.97,1.57-.24,3.1-.08,4.58.5,1.48.57,2.75,1.51,3.81,2.82,1.07,1.32,1.73,2.77,1.97,4.32.24,1.56.08,3.08-.49,4.56-.57,1.48-1.52,2.76-2.84,3.83-1.04.84-2.16,1.43-3.37,1.76-1.2.33-2.42.39-3.67.17l.33-3.08c.81.16,1.63.12,2.44-.12.81-.23,1.57-.64,2.27-1.2.85-.69,1.45-1.5,1.8-2.42.35-.92.44-1.88.26-2.87-.17-.99-.62-1.93-1.34-2.82-.72-.89-1.54-1.52-2.47-1.9s-1.89-.49-2.87-.35c-.98.14-1.9.55-2.75,1.24-.72.58-1.27,1.24-1.66,1.98-.39.74-.6,1.53-.64,2.37l-3.05-.35c.04-1.22.35-2.4.93-3.52.58-1.12,1.39-2.11,2.43-2.95Z"/><path class="cls-1" d="M200.33,220.87l8.95,14.86-2.85,1.71-8.95-14.86,2.85-1.71ZM209.63,239.56c.52-.31,1.05-.4,1.59-.26.54.14.97.48,1.28,1,.3.5.39,1.02.26,1.57-.13.54-.45.97-.97,1.29-.52.31-1.05.4-1.59.26-.54-.14-.96-.46-1.26-.96-.31-.52-.41-1.05-.28-1.6.13-.54.45-.97.97-1.29Z"/><path class="cls-1" d="M186.6,227.49c1.62-.67,3.21-.91,4.79-.71,1.57.2,2.99.78,4.26,1.73,1.27.95,2.23,2.22,2.89,3.82.65,1.57.88,3.14.67,4.7-.21,1.56-.78,2.97-1.73,4.22-.94,1.25-2.19,2.2-3.74,2.84-1.46.61-2.9.81-4.33.62s-2.71-.76-3.84-1.68c-1.14-.92-2.02-2.15-2.66-3.68-.09-.23-.18-.47-.27-.74-.08-.27-.16-.57-.22-.92l13.52-5.63,1.05,2.53-11.9,4.95.71-1.44c.45,1.08,1.02,1.91,1.72,2.51.7.59,1.48.95,2.35,1.08.87.13,1.8-.02,2.79-.43,1.03-.43,1.85-1.03,2.45-1.81.6-.78.94-1.66,1.03-2.65.09-.99-.09-2.03-.55-3.13-.47-1.12-1.1-2.01-1.9-2.67-.8-.66-1.71-1.04-2.74-1.16-1.02-.11-2.07.05-3.15.5-.9.37-1.66.88-2.28,1.5-.62.63-1.07,1.37-1.35,2.22l-2.78-1.18c.41-1.23,1.07-2.3,1.98-3.23.9-.93,1.99-1.66,3.24-2.18Z"/><path class="cls-1" d="M165.12,233.66l1.84,9.95c.24,1.29.84,2.28,1.79,2.97.96.69,2.08.92,3.37.68.86-.16,1.59-.49,2.19-1,.6-.51,1.03-1.13,1.29-1.87.26-.74.31-1.54.15-2.4l1.47.51c.24,1.29.16,2.49-.23,3.61-.39,1.11-1.04,2.06-1.96,2.83-.92.78-2.03,1.28-3.32,1.52s-2.5.13-3.61-.34-2.05-1.16-2.82-2.1c-.77-.94-1.26-1.99-1.48-3.16l-1.96-10.59,3.27-.6ZM177.14,231.44l3.15,17.06-3.23.6-3.15-17.06,3.23-.6Z"/><path class="cls-1" d="M150.66,233.88c1.7.03,3.24.46,4.6,1.29,1.36.83,2.43,1.94,3.19,3.32.77,1.39,1.14,2.92,1.11,4.6-.03,1.7-.45,3.23-1.27,4.58-.81,1.35-1.92,2.41-3.31,3.17-1.39.77-2.94,1.14-4.64,1.11-1.34-.02-2.58-.29-3.71-.81-1.14-.52-2.11-1.26-2.92-2.22l2.23-2.15c.52.64,1.17,1.13,1.95,1.48.77.34,1.61.52,2.51.54,1.1.02,2.07-.21,2.93-.7.86-.48,1.54-1.16,2.04-2.03.5-.87.76-1.87.78-3.02.02-1.14-.21-2.16-.68-3.04-.47-.88-1.13-1.59-1.97-2.12-.84-.53-1.81-.8-2.91-.82-.92-.02-1.77.13-2.55.45-.77.32-1.44.78-2.01,1.41l-2.12-2.23c.82-.91,1.81-1.61,2.98-2.1,1.17-.49,2.42-.72,3.76-.7Z"/><path class="cls-1" d="M134.44,231.81c1.71.37,3.16,1.09,4.34,2.15,1.18,1.06,2.02,2.35,2.51,3.85.5,1.5.56,3.1.2,4.79-.36,1.67-1.07,3.08-2.13,4.25-1.06,1.17-2.33,1.99-3.82,2.48-1.49.49-3.05.56-4.69.2-1.55-.33-2.85-.99-3.91-1.96s-1.79-2.17-2.2-3.57c-.41-1.41-.43-2.92-.09-4.54.05-.24.12-.49.2-.76.08-.27.2-.56.34-.88l14.31,3.09-.58,2.68-12.6-2.72,1.4-.78c-.25,1.14-.25,2.16-.02,3.04.23.88.67,1.63,1.31,2.23.64.6,1.49,1.01,2.53,1.24,1.09.24,2.11.21,3.04-.09.94-.3,1.72-.82,2.36-1.58.64-.76,1.08-1.72,1.33-2.89.26-1.19.24-2.28-.04-3.28-.28-1-.81-1.83-1.59-2.51-.77-.68-1.73-1.14-2.88-1.39-.95-.21-1.86-.23-2.73-.07-.87.16-1.66.51-2.38,1.06l-1.62-2.55c1.04-.77,2.19-1.28,3.47-1.53,1.27-.25,2.58-.23,3.91.06Z"/><path class="cls-3" d="M157.15,154.08c-.88-1.49-2.16-4.04-3.75-3.89-.91.06-1.67,1.11-2.17,1.91-2.13,3.4-3.96,7.52-5.27,11.13-1.77,4.9-1.58,10.22.37,15.03,1.25,3.21,3.89,7.32,6.7,9.25,1.72.75,3.35-1.87,4.45-2.97,7.75-9.43,5.62-20.51-.19-30.23l-.13-.23Z"/><path class="cls-3" d="M182.82,162.89c-4.55-2.19-10.61-2.49-15.51-4.13-.36-.08-1.07-.39-1.42.05-.23.38.14,1.45.21,1.71,2.01,6.06,1.94,13.24,6.31,18.24,4.21,5.25,11.35.94,14.25-3.54,3.72-5.21,1.7-9.57-3.64-12.22l-.21-.11Z"/><path class="cls-3" d="M122.58,177.63c7.18,7.34,13.77,2.85,15.91-5.89.93-4.1,1.6-8.02,2.81-11.98.45-1.56-1.18-.91-1.88-.72-3.48,1.08-6.94,1.61-10.52,2.46-8.88,1.99-14.02,8.38-6.51,15.94l.19.2Z"/><path class="cls-3" d="M150.02,138.82c1.14,2.13,3.26,5.69,5.33,2.83,3.14-4.87,5.84-10.42,6.9-16.16,1.07-7.28-2.07-15.65-8.09-20.13-1.1-.57-2.22.63-3.03,1.45-1.12,1.14-2.1,2.4-2.94,3.75-5.96,8.86-3.39,19.4,1.7,28.02l.13.23Z"/><path class="cls-3" d="M149.72,147.17c1.71-3.03-10.85-7.45-13.05-8.37-8.39-3.06-19.35.05-24.32,7.57-.05.96,1.52,2.23,2.26,2.99,4.81,4.28,11.2,6.63,17.56,5.87,5.58-.86,11.05-3.63,15.93-6.58.64-.43,1.19-.86,1.52-1.33l.1-.16Z"/><path class="cls-3" d="M177.9,155.29c5.38-.07,11.33-2.74,15.2-6.5.61-.68,1.88-1.71,1.72-2.56-4.05-6.09-12.64-9.41-19.83-8.57-5.58.86-11.07,3.62-15.94,6.57-2.04,1.24-2.49,2.87-.28,4.2,5.53,3.35,12.15,6.86,18.86,6.86h.26Z"/><path class="cls-3" d="M140.57,130.71c-1.43-4.98-1.77-11.15-4.97-15.5-4.17-6.78-12.11-2.48-15.38,2.91-7.2,12.43,11.6,13.63,19.3,15.93.83.27,2.02.55,1.67-.78-.2-1.01-.34-1.4-.55-2.32l-.06-.24Z"/><path class="cls-3" d="M184.6,115.23c-4.71-4.96-10.97-5.22-14.19,1.41-2.67,5.13-2.76,11.25-4.55,16.52-.35,1.4,1.25.9,1.86.71,3.49-1.08,6.96-1.61,10.54-2.46,8.9-1.99,14.05-8.42,6.53-15.97l-.19-.19Z"/></svg>