<?xml version="1.0" encoding="UTF-8"?><svg id="Calque_1" xmlns="http://www.w3.org/2000/svg" viewBox="0 0 340.23 325.51"><defs><style>.cls-1{fill:#ffa187;}.cls-2{fill:#66301a;}</style></defs><path class="cls-1" d="M195.57,30.95h0c21.68-18.08,54.74-4.39,57.28,23.73h0c1.52,16.84,14.87,30.19,31.71,31.71h0c28.11,2.54,41.81,35.6,23.73,57.28h0c-10.83,12.98-10.83,31.86,0,44.84h0c18.08,21.68,4.39,54.74-23.73,57.28h0c-16.84,1.52-30.19,14.87-31.71,31.71h0c-2.54,28.11-35.6,41.81-57.28,23.73h0c-12.98-10.83-31.86-10.83-44.84,0h0c-21.68,18.08-54.74,4.39-57.28-23.73h0c-1.52-16.84-14.87-30.19-31.71-31.71h0c-28.11-2.54-41.81-35.6-23.73-57.28h0c10.83-12.98,10.83-31.86,0-44.84h0c-18.08-21.68-4.39-54.74,23.73-57.28h0c16.84-1.52,30.19-14.87,31.71-31.71h0c2.54-28.11,35.6-41.81,57.28-23.73h0c12.98,10.83,31.86,10.83,44.84,0Z"/><path class="cls-2" d="M133.02,143.99c.2.11.17.42-.09.94-.26.52-.72,1.2-1.37,2.02-.44.5-.81.92-1.12,1.27-.31.35-.63.64-.94.88-.32.23-.66.44-1.02.62-.36.18-.79.36-1.29.55l-1.49.5-1.19-.34c-1.03-.29-1.83-.67-2.38-1.14-.56-.47-1.14-1.24-1.75-2.3-.13-.23-.24-.44-.33-.65-.09-.21-.17-.43-.24-.66-.07-.23-.14-.5-.2-.81-.06-.31-.12-.71-.19-1.22-.07-.58-.13-1.08-.18-1.51-.05-.43-.07-.88-.08-1.37,0-.49.02-1.04.1-1.67s.17-1.44.26-2.42c.06-.32.11-.68.14-1.09.03-.41.06-.77.08-1.09.02-.31.05-.71.1-1.18s.1-.92.15-1.36c.14-.91.19-1.47.16-1.68-.03-.21-.15-.37-.35-.48-.12-.07-.25-.07-.38,0-.13.07-.37.27-.7.6-.22.21-.57.63-1.04,1.26-.47.63-.98,1.35-1.54,2.14-.56.79-1.13,1.63-1.72,2.51-.59.88-1.12,1.68-1.58,2.41-.32.53-.69,1.11-1.1,1.74s-.74,1.13-.99,1.5c-.29.37-.56.77-.8,1.19-.25.42-.42.76-.53,1-.14.24-.34.62-.61,1.12-.26.5-.53,1.02-.81,1.54-.21.4-.41.81-.6,1.21-.19.4-.41.85-.65,1.33-.25.48-.53,1.07-.86,1.75-.33.69-.74,1.51-1.23,2.48-.21.4-.4.79-.57,1.18-.17.38-.29.65-.36.81-.13.4-.37,1-.71,1.8-.24.56-.52,1.25-.84,2.07-.32.82-.62,1.61-.88,2.37-.27.76-.49,1.43-.67,2-.18.58-.27.91-.26.98.09.23.09.44,0,.64-.09.2-.29.54-.61,1.03-.4.57-.68.95-.87,1.14-.18.19-.39.27-.63.24-.2-.03-.48-.12-.87-.27-.38-.15-.65-.32-.82-.51-.21-.18-.32-.41-.33-.68-.06-.31-.18-.42-.37-.33-.12.04-.21,0-.27-.13-.07-.13-.16-.47-.27-1.01-.12-.73-.1-1.7.06-2.9.16-1.2.5-2.95,1.03-5.25.18-.83.37-1.66.55-2.49.18-.83.32-1.43.42-1.78.24-1.19.59-2.6,1.06-4.25.46-1.65.96-3.28,1.49-4.89.53-1.61,1.02-3.07,1.49-4.37s.83-2.15,1.07-2.56c.07-.08.16-.26.26-.54.1-.28.2-.58.3-.9.14-.32.29-.71.46-1.17.17-.46.32-.87.45-1.23.34-.8.51-1.28.5-1.44,0-.08.02-.19.07-.33.05-.14.13-.29.24-.45.07-.16.21-.5.44-1.02.22-.52.43-1.06.63-1.62.24-.56.52-1.23.84-2.01.32-.78.61-1.43.85-1.96.28-.56.55-1.14.8-1.72.26-.58.45-1.03.59-1.35.1-.32.43-1.09,1-2.32.57-1.23,1.21-2.62,1.91-4.19.7-1.57,1.41-3.12,2.12-4.67.71-1.55,1.29-2.78,1.74-3.71.28-.6.54-1.19.8-1.78s.42-.99.48-1.23c.06-.24.16-.49.28-.75.12-.26.22-.47.29-.63.14-.2.3-.49.48-.85.17-.36.31-.66.41-.9.03-.08-.08-.09-.35-.04-.19.09-.17-.07.06-.47.23-.4.78-1.2,1.64-2.38.61-.82,1.13-1.53,1.54-2.14.41-.61.62-.96.61-1.03,0-.08.08-.21.27-.4.18-.19.57-.51,1.17-.98.48-.38,1.04-.52,1.67-.42.63.1,1,.38,1.11.84,0,.08.11.21.32.39.16.07.25.15.28.25.03.1,0,.3-.05.62-.05.47-.14.82-.26,1.04-.12.22-.44.66-.95,1.32-.25.29-.51.62-.76.98-.25.37-.55.81-.89,1.31-.34.51-.71,1.13-1.12,1.86-.4.73-.89,1.6-1.45,2.61-.46.77-.85,1.43-1.17,1.97-.32.55-.52.82-.59.83-.04.04-.12.16-.24.37-.13.2-.26.46-.39.79-.18.32-.36.69-.55,1.09-.19.4-.36.72-.5.97-.32.57-.47.97-.45,1.2.09.23.06.35-.1.36-.12,0-.2.19-.26.54-.06.32-.13.48-.21.48-.04-.04-.12.04-.25.22-.13.18-.25.4-.37.64-.12.24-.23.48-.31.72-.08.24-.12.4-.12.48,0,.12-.05.18-.17.19-.07.08-.11.2-.1.36.04.08.02.2-.07.38-.09.18-.18.35-.29.52-.25.37-.37.61-.37.72,0,.08-.03.16-.1.24-.12,0-.24.29-.36.84-.07.2-.19.52-.38.96-.19.44-.39.85-.6,1.21-.17.4-.33.76-.49,1.08-.16.32-.23.52-.23.6-.03.08-.13.29-.28.63-.16.34-.34.73-.54,1.17-.17.44-.36.88-.56,1.32-.21.44-.34.78-.41,1.02-.07.2-.17.47-.3.81-.14.34-.25.63-.36.87-.1.24-.2.47-.28.69s-.1.37-.06.44c0,.08-.07.33-.22.75-.15.42-.35.91-.58,1.47-.24.56-.54,1.34-.91,2.34-.37,1-.69,1.9-.95,2.69-.3.84-.62,1.78-.97,2.81-.35,1.04-.62,1.85-.82,2.45-.23.64-.5,1.44-.79,2.39-.29.96-.55,1.81-.78,2.57-.23.76-.45,1.52-.68,2.3-.23.78-.39,1.32-.49,1.64-.27.76-.4,1.19-.39,1.28,0,.1.13-.13.37-.7.24-.56.42-.83.54-.79.08.03.22-.12.41-.46.19-.34.29-.55.28-.63-.08-.07-.01-.23.2-.48.14-.24.32-.53.53-.85.11-.16.21-.34.32-.55.11-.2.19-.38.26-.54.07-.16.2-.42.39-.79.19-.36.39-.73.61-1.09.25-.4.43-.75.55-1.03.12-.28.16-.44.12-.48-.08-.07-.12-.12-.1-.14.02-.02.05-.01.09.02.08.04.18-.03.31-.19.13-.16.26-.37.4-.61.42-.73.75-1.27.99-1.61.23-.35.49-.74.78-1.19.18-.21.33-.42.43-.64.1-.22.13-.37.09-.45-.01-.23.02-.27.11-.12.08.11.36-.2.82-.93.21-.32.37-.61.48-.85.1-.24.11-.38.03-.41-.12-.03-.12-.11-.01-.23.15-.09.27-.11.35-.08.04.04.13-.03.28-.19.15-.17.29-.36.43-.58.14-.22.26-.44.34-.64.08-.2.11-.32.07-.36-.04-.08,0-.12.11-.12.16,0,.23-.13.21-.36-.02-.31.05-.43.21-.37.12.03.27-.07.45-.32.18-.24.5-.75.96-1.52.1-.2.28-.44.51-.71.24-.27.48-.54.74-.81s.51-.52.78-.75c.26-.23.46-.41.61-.54.3-.21.66-.37,1.08-.48s.84-.17,1.25-.19c.41-.02.76,0,1.06.05.3.06.45.19.46.38,0,.08.13.22.38.42.25.2.49.33.73.39.28.1.43.31.45.62.05.15.11.34.18.58.07.23.15.44.24.63.09.23.16.56.21.98.04.43.08.93.09,1.52.02.58.01,1.2,0,1.84-.02.65-.05,1.28-.09,1.91-.17,1.77-.3,3.22-.41,4.36-.11,1.14-.16,2.09-.15,2.85,0,.76.06,1.39.15,1.9.09.5.21,1.04.36,1.62.1.38.22.72.35,1,.13.28.24.44.32.48.2.06.68.02,1.46-.15.54-.11,1.03-.28,1.46-.5.44-.22.89-.52,1.35-.9.46-.38.95-.86,1.46-1.44.51-.58,1.09-1.3,1.74-2.16.29-.37.54-.68.76-.92.22-.25.35-.35.39-.32.12.03.15.15.08.35-.03.12-.04.28-.03.47.01.2.03.39.07.58.03.19.08.37.15.52.07.15.12.25.16.28ZM98.76,156.69c.19-.75.34-1.39.47-1.9.12-.51.25-1,.38-1.46.13-.46.26-.9.39-1.31.13-.42.27-.9.44-1.46.27-.68.49-1.31.65-1.88.16-.58.25-.92.29-1.04,0-.12.04-.38.16-.8.11-.42.25-.84.42-1.29.55-1.91.94-3.24,1.19-4,.25-.76.4-1.24.47-1.44.17-.44.35-1.04.54-1.79.07-.16.14-.37.22-.63.08-.26.17-.51.28-.75.17-.48.36-1.01.58-1.59l.66-1.74c.22-.58.41-1.12.57-1.62.17-.5.28-.87.34-1.1.1-.28.26-.71.48-1.29.22-.58.47-1.13.75-1.66.31-.72.62-1.46.95-2.23.32-.76.61-1.47.87-2.13.25-.66.44-1.21.57-1.65.13-.44.15-.67.07-.71-.04,0-.08.03-.11.07-.03.12-.12.35-.28.69s-.3.7-.43,1.08c-.13.38-.32.87-.55,1.47,0,.08-.07.29-.23.63-.16.34-.34.73-.54,1.18-.17.36-.41.9-.72,1.63-.31.72-.62,1.45-.92,2.19-.31.74-.56,1.41-.76,2.01-.2.6-.29.94-.29,1.01,0,.04-.04.17-.12.39-.08.22-.19.49-.33.81-.14.32-.31.8-.53,1.44-.21.64-.42,1.24-.62,1.8-.2.56-.38,1.06-.52,1.5-.15.44-.26.68-.34.72-.22.21-.21-.18.04-1.18.09-.36.15-.59.16-.71s-.04-.19-.16-.22c-.12,0-.19-.04-.21-.13-.03-.09.02-.19.13-.27.11-.12.21-.11.3.04.08.07.23-.09.44-.5.17-.44.17-.73,0-.88-.12-.11-.09-.19.1-.24.15,0,.3-.17.44-.47.14-.3.2-.61.18-.92,0-.08.03-.19.1-.33.07-.14.14-.29.21-.45.11-.16.19-.33.26-.51.07-.18.12-.33.15-.45.03-.08.08-.2.12-.36.05-.16.11-.3.18-.42.18-.25.19-.42.03-.53-.2-.07-.31,0-.34.19.02.27-.08.38-.28.31-.2-.07-.33.04-.39.32-.14.32-.11.38.07.17.15-.17.26-.19.35-.08.17.15.17.19,0,.12-.04-.04-.1,0-.17.1-.07.1-.13.23-.18.39-.05.16-.09.33-.12.51-.03.18-.04.32-.03.44,0,.16-.07.16-.23.01-.17-.22-.32-.14-.45.26-.06.24-.09.39-.09.45,0,.06.04.08.12.08.16.03.2.14.14.34-.11.16-.18.19-.23.07-.09-.15-.19-.12-.32.08-.12.2-.21.48-.27.84-.02.28.02.39.14.34.15-.09.23-.07.24.04.04.11,0,.25-.15.39-.15.15-.28.2-.4.17-.16,0-.55,1-1.2,2.97-.64,1.97-1.49,4.87-2.55,8.68-.22.83-.5,1.9-.83,3.19-.33,1.29-.65,2.54-.94,3.75-.3,1.21-.54,2.27-.71,3.18-.18.91-.26,1.42-.26,1.54,0,.12.09.13.24.04.07-.08.11-.05.12.11-.07.16-.16.24-.28.25-.19.01-.32.47-.39,1.37-.14.87-.18,1.44-.13,1.71s.16.13.33-.43c.07-.12.14-.37.22-.75.07-.38.16-.78.25-1.22.05-.39.13-.76.23-1.1.1-.34.18-.55.26-.63.14-.21.26-.52.35-.96.09-.43.08-.63-.04-.58-.12,0-.19-.17-.21-.51-.06-.35-.03-.49.09-.42.16.07.18.05.06-.06-.09-.11-.09-.43,0-.97.08-.53.2-.86.35-.99.19-.17.28-.21.29-.13s-.06.28-.2.6c-.21.44-.31.72-.3.84,0,.12.11-.03.32-.43.07-.2.19-.56.37-1.08.18-.52.36-1.06.52-1.61.16-.56.36-1.29.6-2.21.24-.91.49-1.73.76-2.45.23-.72.42-1.35.56-1.91.14-.56.21-.87.21-.95s.02-.27.08-.56c.06-.3.17-.65.35-1.05.33-1,.35-1.27.07-.83-.21.41-.32.49-.34.26-.04-.08-.05-.19-.02-.35s.08-.28.15-.36c.11-.16.11-.4.02-.7-.09-.23-.08-.39.03-.47.11-.12.17-.09.18.1.01.23.09.27.24.1.08-.04.12.09.14.4-.06.32-.05.4.01.23.03-.12.1-.19.19-.22.09-.02.17.02.21.13,0,.04-.08.36-.24.95-.16.6-.37,1.29-.63,2.09-.26.8-.48,1.49-.64,2.06-.16.58-.24.88-.24.92,0,.04-.06.29-.19.74-.13.46-.27,1-.43,1.64-.2.64-.36,1.22-.51,1.76-.14.54-.25.9-.31,1.1-.03.2-.09.48-.18.86-.09.38-.19.78-.28,1.22-.09.44-.17.79-.23,1.07-.06.28-.09.44-.09.47.08,0,.16-.2.26-.6ZM98.42,157.82c.03-.16.03-.23.02-.21-.02.02-.06.13-.13.33-.03.16-.06.33-.09.5-.03.18-.06.33-.09.44.01.2.02.28.02.26,0-.02.03-.13.1-.33.13-.4.19-.73.17-1.01ZM99.55,150.37c.02.31-.05.49-.2.54-.15.09-.18.19-.1.3.08.11.06.29-.08.53-.07.2-.11.28-.13.24-.02-.04-.04-.21-.06-.52-.01-.19,0-.39.05-.59.05-.2.11-.34.18-.42l.27-.43.08.35ZM99.85,155.27c.06-.24.09-.4.09-.47-.04-.04-.1,0-.17.13-.06.24-.09.4-.09.47,0,.04.06,0,.17-.13ZM100.57,145.91c.15-.17.22-.21.23-.13,0,.08-.02.31-.07.71-.06.32-.16.52-.29.6-.13.09-.22.01-.28-.22,0-.16.02-.24.1-.24.12,0,.17-.09.16-.24-.05-.15,0-.31.15-.48ZM101.51,148.96c.06-.28.05-.38-.02-.29-.04.04-.11.25-.22.63-.11.38-.23.78-.34,1.19-.11.42-.21.8-.28,1.16-.08.36-.11.55-.11.59,0,.04.04-.07.13-.33.08-.26.18-.58.29-.96.11-.38.23-.76.34-1.13s.18-.67.21-.86ZM101.79,147.65c0,.12.08.02.22-.31.03-.12.06-.24.09-.36.03-.12.05-.2.04-.24,0-.16-.08-.07-.22.25-.1.24-.15.46-.14.65ZM102.88,144.48c.43-1.32.7-2.21.83-2.69.13-.48.12-.59-.02-.35-.03.08-.13.34-.28.78-.15.44-.32.92-.5,1.44-.18.52-.34,1.01-.47,1.46-.13.46-.23.78-.29.98-.09.47-.06.55.07.23.14-.32.35-.94.65-1.86ZM102.67,140.1c-.14.28-.22.19-.25-.28-.05-.82.06-.96.33-.43.1.31.07.54-.07.71ZM109.31,126.87c.07-.2.15-.44.25-.72.1-.28.18-.56.24-.83s.14-.59.23-.95c-.04,0-.11.12-.21.34-.1.22-.21.47-.3.75-.1.28-.19.54-.28.78-.08.24-.12.38-.12.42,0,.12-.04.28-.15.48-.07.12-.16.28-.26.48-.1.2-.21.4-.31.6-.1.2-.2.38-.29.54-.09.16-.11.28-.07.36,0,.16-.06.32-.21.48-.07.08-.17.27-.29.57-.12.3-.22.61-.32.93-.1.32-.2.63-.29.93-.1.3-.19.49-.26.57s-.15.26-.23.54c-.08.28-.17.58-.27.9-.1.32-.22.68-.37,1.08-.15.4-.26.74-.32,1.02-.1.24-.23.59-.38,1.05-.15.46-.3.91-.45,1.34-.15.44-.28.82-.4,1.14-.12.32-.17.5-.17.54.05.11.12.05.22-.19.1-.24.29-.76.55-1.56.16-.52.38-1.14.65-1.86.27-.72.5-1.36.7-1.92.24-.56.45-1.08.64-1.56.18-.48.31-.8.38-.96.07-.12.17-.33.28-.63.12-.3.27-.61.44-.93.14-.28.29-.61.44-.99.15-.38.28-.71.38-.99.06-.28.15-.58.27-.93.12-.34.21-.61.27-.81ZM105.81,129.19c-.31.68-.42,1.16-.32,1.43.09.19.15.27.19.25.04-.02.11-.13.21-.34.14-.28.19-.44.15-.48-.04-.04-.14.03-.28.19-.14.24-.22.27-.23.07,0-.12.06-.26.21-.42.07-.08.18-.3.34-.66.15-.36.31-.76.48-1.2.17-.44.34-.87.51-1.29.17-.42.29-.69.36-.81.25-.37.31-.61.19-.71-.04-.08-.03-.1.06-.06.12.03.23-.07.33-.31.06-.24.04-.37-.08-.4-.12-.03-.23.09-.33.37-.14.24-.21.46-.19.66-.03.08-.07.16-.1.24-.03.08-.09.16-.16.24-.07.08-.16.23-.26.46-.1.22-.19.47-.25.75-.1.24-.22.56-.35.96-.13.4-.28.76-.46,1.08ZM108.02,124.07c-.16-.07-.18-.05-.05.06.09.15.17.19.24.1.07-.08.23-.38.47-.91.24-.56.37-.9.41-1.02.03-.12-.03-.15-.18-.11-.12,0-.22.17-.32.49-.03.12-.07.25-.12.39-.05.14-.09.25-.13.33-.11.12-.16.28-.15.48,0,.16-.05.22-.16.18ZM108.62,128.08c.08,0,.05.17-.09.53-.13.36-.22.54-.26.54-.08,0-.05-.15.09-.47.13-.4.22-.6.26-.6ZM110.66,123.15c.25-.44.33-.7.25-.78-.08-.03-.21.15-.38.55-.17.4-.23.66-.19.77,0,.08.04.06.11-.07.07-.12.14-.28.2-.48ZM111.3,119.19c-.21.44-.38.84-.51,1.2-.13.36-.2.56-.2.6.02.27.27-.09.75-1.1.41-.96.68-1.62.82-1.98.13-.36.16-.56.08-.59-.04-.08-.08-.1-.12-.08-.04.02-.05.07-.05.15-.04.04-.12.24-.26.6-.13.36-.31.76-.51,1.2ZM112.19,119.37l-.38.55c-.07.16-.14.31-.21.45-.07.14-.1.25-.1.33.09.15.05.23-.1.24-.12,0-.17.13-.15.36-.03.24.02.27.12.11.07-.08.15-.24.24-.45.08-.22.16-.45.22-.69l.36-.9ZM113.14,114.85c-.28.56-.49,1.05-.64,1.47-.15.42-.22.65-.22.69.06.35.52-.44,1.38-2.37.48-1.08.84-1.92,1.08-2.5.24-.58.41-1,.51-1.26.1-.26.15-.41.15-.45,0-.04-.04-.06-.12-.05-.04,0-.12.12-.24.37-.12.24-.27.52-.45.85-.17.36-.39.85-.64,1.47-.25.62-.52,1.21-.8,1.78Z"/><path class="cls-2" d="M167.55,129.81c.35-.02.31.2-.14.65-.33.29-.53.64-.58,1.03.02.35-.05.53-.2.54-.12,0-.17.07-.16.19,0,.04-.14.26-.43.67-.29.41-.65.88-1.08,1.41s-.81,1.01-1.12,1.42c-.31.41-.46.63-.46.67,0,.08-.13.28-.4.61-.27.33-.57.67-.91,1.02-.33.35-.64.67-.94.97-.29.29-.48.44-.56.44-.04-.04-.08-.03-.12,0-.04.04-.05.1-.05.18,0,.16-.2.46-.62.92-.42.46-.95.95-1.58,1.47-.63.53-1.31,1.04-2.04,1.53-.73.49-1.4.9-2.01,1.21-1.33.71-2.49,1.09-3.5,1.15-.27.02-.62-.01-1.03-.08-.41-.07-.82-.18-1.22-.33-.4-.15-.75-.34-1.06-.58-.31-.23-.49-.51-.55-.82,0-.08-.06-.17-.16-.28-.1-.11-.22-.22-.34-.33-.74-.54-1.15-1.49-1.23-2.86-.03-.5,0-1.12.06-1.85.07-.73.2-1.25.37-1.58.45-1.59.93-3.17,1.44-4.75.51-1.57,1.11-3.1,1.8-4.59l.72-1.63-.56.45c-.19.13-.39.33-.61.59-.22.27-.42.52-.6.77-.21.4-.39.68-.54.82-.15.15-.34.25-.57.3-.23.09-.5.28-.82.55-.32.27-.78.76-1.4,1.46-.44.5-.84.92-1.21,1.28-.37.36-.59.53-.67.54-.16,0-.23.11-.22.31,0,.08-.02.19-.07.33-.05.14-.12.27-.21.39-.09.12-.16.21-.22.28-.05.06-.08.05-.09-.02,0-.04-.04-.02-.11.07-.07.08-.14.21-.21.37-.07.16-.25.43-.54.82-.29.39-.58.81-.86,1.25-.32.45-.77,1.08-1.35,1.9-.58.82-1.11,1.61-1.61,2.38-.57.86-1.04,1.55-1.4,2.08-.36.53-.67.97-.95,1.32-.27.35-.54.66-.79.93s-.57.57-.94.91c-.92.92-1.56,1.38-1.91,1.41-.12,0-.22,0-.32-.04-.1-.03-.21-.08-.33-.16-.4-.17-.68-.33-.85-.47-.13-.19-.25-.28-.37-.27-.12,0-.2-.09-.25-.31-.05-.21-.04-.36.03-.44.15-.09.13-.18-.08-.29-1.1-.75-1.21-2.19-.32-4.32.18-.32.31-.61.42-.88s.19-.39.27-.4c.12,0,.17.04.15.14-.01.1-.16.47-.43,1.11-.24.56-.41,1.18-.5,1.85-.1.67-.08,1.1.05,1.29.13.15.18.13.17-.07,0-.08.03-.22.09-.44.07-.22.13-.45.19-.69.24-.48.32-.88.22-1.19-.09-.15-.09-.33,0-.53.09-.2.29-.54.61-1.03.57-.89.78-1.33.62-1.33-.08,0-.17.07-.28.19-.19.13-.28.13-.29.02,0-.12.05-.18.17-.19.04,0,.1-.07.19-.22.09-.14.19-.31.29-.52.07-.2.17-.43.31-.69.14-.26.26-.47.37-.64.25-.33.53-.75.83-1.25.3-.5.54-.92.71-1.24.18-.32.39-.7.63-1.12.25-.42.5-.83.75-1.22.25-.39.47-.71.67-.98.2-.27.32-.42.35-.46.15-.17.21-.33.21-.48,0-.08.07-.27.23-.57.16-.3.36-.64.61-1,.29-.33.52-.64.67-.92.16-.28.24-.44.24-.48-.04-.08.23-.52.83-1.34.59-.82,1.33-1.78,2.2-2.89,1.06-1.24,1.72-1.92,1.98-2.06.12,0,.28-.08.48-.23.21-.15.4-.31.59-.47.62-.66,1.29-1.02,1.99-1.06.19-.01.55.02,1.06.08.51.07.83.19.96.38.08.07.19.16.34.27.14.11.31.2.51.26.2.14.4.33.59.55.19.22.37.49.55.79.17.26.33.49.48.67.15.19.26.32.35.39.08.03.18.11.31.22.12.11.23.2.31.27.29.26.51.38.67.37.2-.01.38.2.57.64.18.44.29.87.31,1.3.02.31,0,.68-.08,1.12-.07.43-.19.93-.35,1.49-.17.44-.34,1-.51,1.67-.17.67-.33,1.23-.46,1.67-.13.48-.32,1.14-.58,2-.26.86-.52,1.68-.79,2.48-.53,1.56-.9,2.84-1.11,3.85-.21,1.01-.3,1.86-.25,2.56.03.47.06.76.11.87.04.11.17.19.36.21.71.15,1.67-.1,2.88-.76.68-.35,1.34-.74,1.98-1.15.64-.41,1.28-.86,1.91-1.35.63-.49,1.28-1.03,1.95-1.61.67-.59,1.39-1.26,2.16-2.01.74-.75,1.22-1.13,1.46-1.14h.06c.23-.02.81-.54,1.72-1.57.91-1.03,1.45-1.55,1.6-1.56l.06.06c.08.07.09.18.02.32-.07.14-.14.25-.21.33-.22.25-.33.43-.32.55.04,0,.15-.1.33-.28.18-.19.42-.43.72-.72.54-.7.97-1.09,1.27-1.19.27-.09.42-.22.45-.38.06-.24.22-.5.48-.79.26-.29.44-.44.56-.44ZM145.7,124.12c.17-.48.3-.89.39-1.23.1-.34.14-.53.14-.56-.04,0-.2.12-.48.35-.28.23-.58.5-.89.79-.31.29-.62.59-.91.88-.29.29-.5.5-.61.62-.18.21-.32.32-.42.35-.1.03-.11-.06-.05-.26.03-.16-.01-.21-.13-.17-.08.04-.12.1-.14.18-.01.08-.02.16-.01.24.01.2-.15.53-.5,1-.34.47-.99,1.28-1.93,2.43-.29.33-.63.75-1.01,1.26-.38.51-.76,1.04-1.13,1.59-.38.55-.73,1.09-1.07,1.62-.34.53-.63,1-.88,1.4-.15.17-.39.55-.72,1.16s-.67,1.26-.99,1.96c-.33.7-.62,1.35-.88,1.93-.26.58-.38.93-.38,1.05.08,0,.24-.17.5-.5.25-.33.69-.9,1.3-1.72,1.16-1.55,1.98-2.65,2.47-3.29.49-.63.83-.96,1.03-.97.08,0,.12.07.13.23,0,.16.05.12.11-.12.14-.2.13-.38-.03-.53-.04-.08.06-.3.31-.66.25-.37.61-.84,1.08-1.41.62-.78,1.04-1.28,1.26-1.51.22-.23.43-.35.62-.36h.12c.31.01.39-.07.22-.25-.12-.11-.12-.28.03-.5.14-.22.56-.73,1.26-1.51.36-.45.65-.81.87-1.08.22-.27.41-.51.57-.74.16-.22.29-.47.39-.73.1-.26.22-.57.35-.93ZM133.67,134.34c-.08,0-.11.07-.11.18.02.27.15.21.4-.2.14-.24.15-.38.03-.41-.12-.07-.18,0-.16.19,0,.16-.04.24-.16.24ZM143.88,128.86l-1.48,1.67c-.4.46-.79.91-1.18,1.36-.38.45-.72.86-1.01,1.23s-.52.67-.68.89c-.16.22-.22.34-.19.33.04,0,.24-.23.6-.68.36-.45.8-.99,1.31-1.6,1.24-1.52,1.95-2.29,2.14-2.3.23-.01.31-.08.22-.19,0-.16.07-.4.25-.72ZM141.15,133.18c.13.15.22.18.3.1.07-.08.06-.22-.02-.41-.05-.23-.15-.26-.3-.1-.11.09-.1.22.03.41Z"/><path class="cls-2" d="M213.17,113.26c.08,0,.23.06.45.21.22.14.47.3.73.48.26.18.51.38.74.6.23.22.38.39.47.5.13.19.24.53.33,1.03.09.5.14,1.08.16,1.72.02.64.01,1.33-.02,2.05-.04.72-.11,1.4-.23,2.04-.35,1.9-1.4,4.12-3.14,6.67-1.74,2.55-4.06,5.32-6.96,8.3-1.99,2.04-3.64,3.59-4.96,4.67s-2.48,1.84-3.46,2.29c-.42.18-.76.3-1.03.36-.27.06-.66.06-1.17.01-.55,0-1.09-.07-1.62-.19-.54-.12-.87-.26-.99-.41-.17-.18-.31-.17-.44.06-.12.22-.35.79-.69,1.71-.16.56-.36,1.16-.59,1.79-.24.64-.44,1.16-.61,1.56-.33.92-.74,2.15-1.21,3.68-.47,1.53-.93,3.08-1.36,4.65s-.81,3.04-1.14,4.4c-.33,1.37-.53,2.35-.61,2.94-.03.12-.08.36-.16.71-.08.36-.18.73-.31,1.13-.2.64-.36,1.34-.49,2.11-.13.77-.22,1.41-.26,1.92-.03.24.09.46.33.68.45.33.5,1.14.15,2.45-.07.2-.11.41-.14.62-.03.22-.06.37-.09.45-.03.24-.19.36-.5.38-.31.02-.61-.06-.89-.24-.33-.21-.48-.24-.47-.09-.07.16-.16.24-.28.25-.2.01-.53-.15-1-.5-.47-.34-.81-.68-1.03-1.02-.26-.38-.43-.9-.51-1.58-.08-.68-.08-1.54.02-2.58.09-1.04.28-2.31.56-3.81s.65-3.26,1.11-5.28c.53-2.14,1.16-4.43,1.86-6.88.71-2.44,1.49-4.93,2.33-7.47.84-2.53,1.74-5.06,2.7-7.58.96-2.52,1.93-4.92,2.93-7.21.27-.68.52-1.27.74-1.77.22-.5.35-.79.39-.87.03-.08-.02-.05-.17.1-.15.15-.35.35-.61.62-.26.27-.55.58-.88.93-.33.35-.68.74-1.04,1.15-1.02,1.16-2.22,2.41-3.58,3.76-1.36,1.35-2.73,2.66-4.1,3.91-1.37,1.25-2.68,2.38-3.92,3.37-1.25,1-2.25,1.73-3,2.2-.64.39-1.35.75-2.13,1.07-.78.32-1.56.56-2.33.73s-1.51.26-2.21.28c-.7.02-1.29-.03-1.77-.16-.28-.06-.55-.12-.83-.18-.28-.06-.5-.09-.65-.08-.16-.03-.32-.05-.47-.06-.16,0-.28-.03-.36-.07-.08-.03-.18.06-.3.28-.12.22-.32.64-.6,1.24-.17.44-.35.88-.53,1.32-.19.44-.33.76-.44.96-.07.16-.22.56-.45,1.2-.23.64-.51,1.42-.82,2.33-.31.92-.66,1.93-1.04,3.02s-.74,2.16-1.06,3.2c-.23.68-.48,1.6-.74,2.77-.26,1.17-.5,2.33-.72,3.5-.22,1.17-.4,2.19-.54,3.08-.14.89-.17,1.39-.08,1.5,0,.12-.02.25-.09.42-.15.17-.1.34.15.52.21.18.31.41.31.68,0,.27-.12.77-.35,1.49-.25,1.03-.79,1.43-1.62,1.21-.4-.09-.71-.09-.94,0-.23.05-.65-.14-1.26-.57l-.98-.7-.09-1.4c-.09-.85-.06-1.83.08-2.93.15-1.1.47-2.67.97-4.69.89-3.92,1.96-7.98,3.21-12.18,1.25-4.2,2.66-8.47,4.23-12.83.33-.92.66-1.84.97-2.75.32-.92.56-1.6.73-2.04.36-1.08.88-2.42,1.54-4.02.67-1.6,1.36-3.27,2.1-4.99.73-1.72,1.46-3.37,2.16-4.94.71-1.57,1.32-2.85,1.84-3.86.35-.68.68-1.35.99-1.99.31-.64.5-1.06.57-1.27.21-.44.37-.67.49-.67.23-.01.38-.06.46-.14.15-.13.42-.17.81-.14.39.04.57.13.54.29-.03.12.11.17.42.15.23-.05.49,0,.77.16s.47.37.57.64c.09.27-.09.77-.55,1.5-.42.73-.82,1.42-1.19,2.07-.37.65-.74,1.33-1.11,2.06s-.75,1.53-1.14,2.41c-.4.88-.85,1.91-1.37,3.07-.21.48-.46,1.12-.76,1.92-.3.8-.61,1.59-.91,2.37-.3.78-.58,1.51-.83,2.19-.25.68-.43,1.14-.53,1.38l-.2.54.44-.55c.11-.16.22-.34.35-.55.12-.2.22-.37.29-.49.39-.69.85-1.47,1.38-2.34.53-.87,1.08-1.74,1.66-2.59.65-.9,1.19-1.65,1.62-2.27.43-.61.84-1.17,1.24-1.69.4-.51.82-1.02,1.25-1.54.44-.51.97-1.1,1.59-1.77.25-.33.66-.71,1.22-1.16.56-.44,1.05-.78,1.46-1,.49-.3,1.09-.51,1.81-.64.71-.12,1.37-.12,1.96,0,.51.09,1.09.31,1.74.66.64.35,1.05.66,1.23.92.21.3.37.89.46,1.76s.1,1.68.03,2.43c-.02.39-.05.74-.11,1.03s-.15.62-.26.95c-.12.34-.26.7-.43,1.08-.17.38-.4.87-.67,1.48-.34.76-.93,1.75-1.75,2.95-.83,1.2-1.76,2.47-2.81,3.8-1.05,1.33-2.16,2.67-3.33,4.01-1.17,1.34-2.31,2.55-3.41,3.64-.59.58-.71.8-.37.64.34-.16,1.07-.66,2.19-1.51,1.12-.85,2.18-1.71,3.18-2.57s2.05-1.8,3.14-2.83c1.09-1.02,2.27-2.2,3.53-3.53s2.74-2.88,4.43-4.67c.48-.5.9-.95,1.26-1.37.36-.41.58-.66.66-.74.07-.08.21-.24.41-.46.2-.23.42-.47.66-.74.24-.27.46-.52.66-.74.2-.23.32-.36.36-.4.07-.08.24-.27.49-.56.26-.29.55-.64.87-1.05.26-.29.48-.56.68-.8.2-.25.39-.52.57-.83.18-.3.37-.64.58-1,.21-.37.44-.81.68-1.33,1.04-2.09,2.05-4.02,3.02-5.78.97-1.76,1.86-3.29,2.68-4.59.43-.69.81-1.29,1.15-1.8.34-.51.53-.8.56-.88.39-.65,1.1-1.12,2.14-1.42l.98-.24.92.65c.45.32.7.53.74.63.04.1.03.24-.03.44-.07.12-.16.3-.26.54-.1.24-.21.48-.31.72-.51,1.28-1.29,2.79-2.36,4.54-1.07,1.75-2.29,3.54-3.66,5.38-.79,1.06-1.45,1.93-1.98,2.61-.53.68-.93,1.23-1.22,1.66-.29.43-.5.74-.65.95-.14.21-.23.37-.26.48,0,.12-.08.36-.25.72-.17.36-.34.76-.51,1.2-.17.4-.33.76-.49,1.08-.16.32-.21.5-.17.54,0,.08.24-.2.71-.83s1.05-1.42,1.73-2.36c1.37-1.84,2.51-3.26,3.4-4.25.9-.99,1.81-1.81,2.75-2.45.86-.6,1.58-1,2.15-1.21.57-.21,1.25-.3,2.03-.27.35.02.68.04.97.06.29.02.48.07.57.14.24.14.4.21.48.21ZM154.71,172.96c.15-.05.23-.11.22-.19s-.09-.15-.25-.22c-.16-.03-.23.03-.22.19s.09.23.25.22ZM159.64,150.04c.17-.36.22-.54.14-.54-.04,0-.12.18-.26.54-.07.16-.1.28-.1.36-.03.08-.05.14-.05.18.12,0,.2-.19.26-.54ZM163.91,139.29c.26-.84.58-1.81.96-2.93.38-1.12.7-2.05.97-2.81.27-.72.48-1.35.65-1.89.16-.54.24-.84.24-.92-.01-.19-.14-.06-.38.41-.25.46-.52,1.11-.82,1.95-.2.52-.39,1-.56,1.44-.17.44-.29.74-.36.9-.2.48-.52,1.28-.94,2.4-.42,1.12-.81,2.22-1.18,3.29-.2.56-.42,1.22-.67,1.97-.25.76-.45,1.36-.62,1.8-.16.52-.34,1.05-.52,1.58s-.33,1.02-.44,1.43c-.11.42-.19.74-.23.98-.04.24-.03.29.04.17.07-.12.23-.46.46-1.02s.49-1.18.76-1.86c.27-.68.51-1.29.71-1.83.2-.54.3-.87.29-.98-.02-.27.08-.49.31-.66.07-.08.25-.46.52-1.14.27-.68.54-1.44.8-2.27ZM169.27,141.78c.49-.34.73-.57.72-.69s.07-.18.22-.19c.08,0,.17-.07.28-.19,0-.04.07-.13.22-.28.15-.15.31-.32.49-.53.44-.42.66-.69.65-.8,0-.04.07-.1.22-.19.16,0,.25-.07.28-.19,0-.04.06-.14.19-.31.12-.16.28-.35.46-.56,1.72-1.9,3.3-3.76,4.76-5.59,1.45-1.83,2.59-3.37,3.41-4.63,1.07-1.67,1.85-3.24,2.35-4.71s.63-2.71.42-3.72l-.17-.93-.58.15c-.42.1-1.05.45-1.87,1.02-.83.58-1.55,1.18-2.18,1.8-.33.37-.79.94-1.39,1.7-.6.76-1.23,1.59-1.9,2.49-.67.9-1.32,1.81-1.94,2.73-.63.92-1.16,1.72-1.58,2.41-.74,1.26-1.54,2.64-2.38,4.16-.84,1.52-1.61,2.94-2.29,4.27-.68,1.33-1.23,2.47-1.64,3.41-.41.94-.59,1.47-.55,1.59.08.07.18.11.3.1.12,0,.36-.12.74-.34.23-.09.48-.24.76-.43s.51-.37.7-.54c.19-.13.4-.29.64-.48s.46-.37.64-.54ZM170.83,143.32c.15-.09.37-.26.64-.54.28-.27.53-.51.75-.72.26-.25.53-.51.8-.78.28-.27.51-.49.69-.66.33-.33.74-.76,1.24-1.28.5-.52.99-1.07,1.48-1.64.49-.58.96-1.14,1.42-1.7.46-.55.83-1.04,1.11-1.45.36-.49.66-.9.89-1.23.23-.33.33-.49.29-.49-.08,0-.25.15-.5.44-.26.29-.55.64-.87,1.05-1.97,2.31-3.66,4.22-5.07,5.73-1.41,1.51-2.56,2.67-3.45,3.46-.22.21-.27.28-.13.21.13-.07.37-.21.71-.42ZM182.59,171.72c-.03-.43-.08-.66-.16-.69-.08-.03-.14-.12-.19-.25-.05-.13-.08-.3-.09-.49-.03-.55-.09-.78-.16-.69-.07.08-.11.42-.11,1-.04.67-.04,1.11,0,1.32.03.21.13.41.3.6.22.34.36.08.42-.79ZM182.16,167.65s-.05.08-.04.24c.01.23.06.27.12.11-.01-.19-.04-.31-.08-.35ZM182.24,167c-.12-.11-.14-.03-.04.24,0,.08.02.12.04.14.02.02.03-.01.02-.09.07-.12.06-.22-.02-.29ZM182.68,165.63c.03-.12.04-.23.04-.32,0-.1-.01-.18-.02-.26l.04-.3c-.08-.03-.15.11-.21.42-.06.32-.11.71-.16,1.18-.05.43-.04.53.05.29.08-.24.17-.58.26-1.01ZM187.19,149.18c.39-1.23.78-2.41,1.16-3.53.38-1.12.78-2.22,1.21-3.3s.85-2.17,1.29-3.27c.44-1.1.92-2.25,1.43-3.46.31-.72.66-1.56,1.05-2.53.39-.96.7-1.76.94-2.4.28-.6.59-1.34.95-2.23.36-.88.67-1.62.95-2.22.27-.68.48-1.2.64-1.56.15-.36.26-.63.33-.81.07-.18.1-.28.1-.3,0-.02-.02-.03-.06-.03-.08,0-.31.36-.7,1.07-.39.71-.81,1.54-1.28,2.48-.47.95-.94,1.91-1.41,2.9-.47.99-.8,1.76-1,2.32-.1.28-.23.6-.38.96-.15.36-.3.68-.44.96-.14.32-.26.62-.38.9s-.2.48-.23.6c-.1.32-.22.66-.38,1.02-.15.36-.27.6-.34.72-.04.08-.12.31-.25.69-.13.38-.28.79-.45,1.23-.17.48-.35,1.02-.55,1.62-.2.6-.38,1.1-.55,1.5-.2.6-.46,1.38-.79,2.33-.33.96-.64,1.92-.94,2.9-.29.98-.55,1.84-.78,2.6-.23.76-.36,1.21-.38,1.37.02.27-.05.41-.21.42-.08,0-.11.08-.1.24.04.08-.02.45-.19,1.12-.17.68-.41,1.47-.7,2.39-.06.24-.13.46-.19.66-.07.2-.08.34-.03.41.01.2-.1.61-.33,1.25-.1.28-.21.63-.32,1.04-.11.42-.2.78-.26,1.1-.06.32-.13.68-.23,1.1-.09.42-.17.78-.23,1.1-.06.28-.13.57-.21.86-.08.3-.13.53-.16.68-.03.24-.03.36,0,.38.02.02.08-.07.19-.28.11-.2.18-.52.24-.95.07-.16.2-.66.41-1.49.2-.83.43-1.75.68-2.74.25-1.03.48-1.97.71-2.83.22-.85.37-1.38.43-1.58.07-.2.27-.84.62-1.91.34-1.08.73-2.25,1.16-3.53ZM212.25,122.17c.5-1.4.8-2.76.89-4.1.1-1.33-.07-2.3-.5-2.9-.21-.26-.37-.41-.47-.44-.1-.03-.32,0-.67.1-.96.22-2.16.98-3.58,2.3-1.42,1.32-2.95,3.04-4.58,5.17-.68.94-1.4,1.97-2.15,3.09-.75,1.12-1.47,2.26-2.17,3.41-.69,1.16-1.34,2.3-1.96,3.43-.61,1.13-1.13,2.16-1.54,3.08-.14.32-.29.67-.46,1.05-.17.38-.33.69-.47.94-.21.4-.45.9-.73,1.48-.28.58-.53,1.16-.74,1.71-.22.56-.4,1.04-.53,1.44-.13.4-.18.62-.14.65.17.19.62.14,1.37-.14.74-.28,1.51-.7,2.29-1.25.41-.3.93-.69,1.57-1.18.63-.49,1.19-.96,1.67-1.42.48-.42.91-.78,1.28-1.07.37-.3.58-.45.62-.45.11-.09.17-.15.16-.19,0-.12.14-.3.44-.55.15-.13.29-.27.44-.44.14-.16.25-.29.33-.37.07-.08.24-.26.49-.53.26-.27.53-.55.83-.84.4-.45.88-1,1.42-1.64.55-.64,1.09-1.29,1.64-1.95.55-.66,1.04-1.28,1.5-1.88.45-.59.8-1.07,1.05-1.44.57-.93,1.09-1.84,1.56-2.73.47-.89.84-1.67,1.12-2.35ZM211.22,128.2c.07-.16-.04-.06-.33.31-.29.37-.69.9-1.19,1.6-1.66,2.21-3.47,4.33-5.41,6.36-1.95,2.03-3.92,3.85-5.94,5.46-.3.25-.57.47-.81.67-.24.19-.38.29-.42.29-.12,0-.13.05-.05.12.09.11.49.07,1.22-.13.15-.05.17-.11.05-.18-.16-.03.02-.25.54-.68.22-.17.45-.35.67-.54.22-.19.39-.33.5-.41.3-.25.46-.38.5-.38.08,0,.29-.17.64-.48.35-.31.74-.68,1.16-1.1s.86-.86,1.29-1.34.79-.88,1.04-1.21c.18-.21.47-.54.85-.99.38-.45.77-.91,1.18-1.36.99-1.08,1.86-2.11,2.62-3.09.76-.98,1.21-1.63,1.34-1.96.07-.16.16-.33.26-.51s.19-.33.27-.46Z"/><path class="cls-2" d="M261.11,127.85c.19-.01.3.14.32.45.01.23-.03.39-.12.48-.09.08-.31.17-.66.27-.58.15-1.34.45-2.29.9-.95.45-1.95.98-3.01,1.59-1.06.61-2.11,1.27-3.16,1.98-1.05.71-2,1.42-2.86,2.14-.48.38-.86.69-1.12.92-.26.23-.45.44-.58.62-.13.18-.21.36-.26.54-.05.18-.1.41-.16.68-.14.91-.42,2.08-.84,3.51-.42,1.43-.9,2.94-1.42,4.51s-1.08,3.12-1.65,4.64c-.57,1.52-1.12,2.82-1.64,3.91-.38.77-.88,1.72-1.5,2.88s-1.26,2.33-1.95,3.55-1.36,2.38-2.01,3.49c-.66,1.11-1.23,2.04-1.74,2.77-.68,1.06-1.44,2.11-2.3,3.16-.85,1.05-1.72,2.04-2.6,2.97-.88.93-1.73,1.75-2.54,2.47-.82.71-1.54,1.25-2.19,1.6-1.06.57-2.15.89-3.28.96-.51.03-.94,0-1.29-.1-.24-.06-.52-.23-.85-.5-.33-.27-.66-.59-1-.96-.33-.37-.64-.77-.92-1.2-.28-.43-.49-.82-.63-1.16-.14-.38-.26-.81-.34-1.3-.09-.48-.16-.96-.2-1.42-.05-.46-.05-.87-.02-1.2.04-.33.11-.56.22-.69.26-.21.25-.31-.02-.29-.23.01-.36-.06-.37-.21-.01-.2.06-.56.23-1.1s.37-1.15.62-1.83c.25-.68.55-1.4.89-2.16.35-.76.67-1.49.98-2.17.17-.36.47-.91.9-1.64.42-.73.86-1.46,1.3-2.19.44-.73.83-1.38,1.17-1.95s.52-.85.56-.86c.12,0,.11.15-.03.47-.02.27.22.06.72-.63.39-.57.85-1.17,1.35-1.81.51-.64,1.04-1.29,1.61-1.97.56-.68,1.13-1.34,1.69-1.98.57-.64,1.09-1.23,1.56-1.77.59-.58,1.2-1.22,1.82-1.9.62-.68,1.1-1.21,1.43-1.58.37-.38.75-.74,1.13-1.09s.68-.58.87-.67c.19-.13.5-.37.95-.73.45-.36.87-.73,1.28-1.1.74-.71,1.49-1.36,2.25-1.95.76-.59,1.71-1.3,2.83-2.11.67-.55,1.05-1.02,1.14-1.42.03-.16.08-.43.15-.83s.14-.81.19-1.24c.15-.67.26-1.28.33-1.81.07-.53.11-1.08.13-1.65.02-.57.03-1.16,0-1.79-.02-.62-.05-1.36-.11-2.22-.07-1.17-.17-2.22-.28-3.15-.12-.93-.28-1.88-.5-2.84-.23-1.12-.43-2-.6-2.66-.18-.65-.34-1.15-.5-1.49-.16-.34-.33-.57-.51-.67-.18-.11-.39-.15-.62-.14-.27.02-.61-.06-1.01-.23.05.12.08.33.1.64.14.93.09,1.78-.14,2.56-.23.78-.69,1.85-1.39,3.22-.49.93-.87,1.71-1.15,2.36-.27.64-.4,1.06-.39,1.25,0,.12-.1.45-.32.99-.22.54-.5,1.15-.83,1.84-.33.68-.68,1.37-1.05,2.06-.37.69-.69,1.25-.98,1.7-.18.25-.42.64-.72,1.19-.3.54-.59,1.08-.87,1.61-.49.89-1.13,1.94-1.92,3.13-.79,1.2-1.63,2.4-2.53,3.61-.9,1.21-1.83,2.32-2.79,3.33-.95,1.02-1.86,1.8-2.73,2.36-.72.4-1.39.61-2.01.65-.58.04-1.24-.16-1.97-.58-.89-.53-1.57-1.14-2.04-1.84-.47-.69-.84-1.6-1.1-2.72-.17-.85-.24-1.79-.2-2.83.04-1.04.21-2.45.53-4.22.09-.47.18-.93.27-1.36.09-.43.21-.94.38-1.52.16-.58.34-1.27.54-2.08.21-.81.49-1.82.84-3.01.06-.24.25-.8.57-1.67.32-.88.66-1.8,1.03-2.76.37-1,.7-1.89.98-2.67.28-.78.42-1.25.41-1.4,0-.15.05-.45.18-.89.13-.44.31-.94.55-1.5.24-.56.5-1.16.77-1.8s.57-1.25.89-1.81l2.48-4.49c.1-.24.23-.4.38-.46.15-.07.44-.11.87-.14.43-.03.7-.02.82,0,.12.03.22.14.31.33.06.31.3.39.72.25.46-.14.64-.08.54.2-.06.24-.04.35.08.35.19-.01.34.16.44.5.1.35.08.64-.06.88-.07.12-.17.35-.28.69-.12.34-.24.71-.37,1.11-.1.36-.28.88-.55,1.56-.27.68-.54,1.3-.82,1.87-.28.6-.62,1.36-1.03,2.26-.42.9-.76,1.7-1.03,2.38-.27.68-.56,1.38-.87,2.1-.31.72-.55,1.25-.73,1.57-.21.44-.47,1.18-.8,2.22-.33,1.04-.67,2.16-1.02,3.37-.36,1.21-.69,2.43-1.01,3.67-.32,1.23-.57,2.26-.75,3.09-.12.52-.25,1.15-.38,1.9-.13.75-.23,1.47-.31,2.16-.08.69-.14,1.28-.18,1.77-.05.49-.05.76-.01.79.16,0,.46-.22.93-.64.46-.42,1-.95,1.6-1.59.61-.64,1.23-1.34,1.86-2.11.64-.76,1.23-1.47,1.78-2.13.54-.66.99-1.23,1.33-1.72.34-.49.51-.77.5-.85,0-.04.09-.17.27-.4.18-.23.4-.5.65-.83.51-.62,1.2-1.61,2.07-2.97.87-1.36,1.77-2.85,2.69-4.47.71-1.22,1.01-1.96.92-2.22-.13-.26-.12-.3.05-.12.13.19.38-.08.77-.81.52-1.05.87-1.77,1.04-2.17.17-.4.25-.68.24-.84,0-.08.09-.32.28-.72.19-.4.42-.87.68-1.39.26-.52.54-1.06.84-1.6.3-.55.57-1.02.82-1.43-.09-.19-.11-.35-.06-.49.05-.14.18-.39.39-.76.43-.61.82-.93,1.17-.95.42-.1.69-.22.8-.34.18-.17.35-.08.48.26.14.38.33.57.56.55.08,0,.24.11.49.35s.5.53.76.86c.59.67,1.17,1.7,1.74,3.09.57,1.39,1.04,2.84,1.41,4.34.16.66.31,1.41.46,2.26.15.85.28,1.71.39,2.58.11.87.19,1.7.24,2.48.05.78.07,1.4.06,1.87,0,1.13.04,1.68.16,1.63.08,0,.34-.16.79-.46s.98-.62,1.58-.97c1.43-.91,2.28-1.37,2.55-1.39.12,0,.03.14-.27.43-.26.21-.36.32-.3.31s.35-.12.89-.35.94-.44,1.22-.63c.28-.19.36-.29.25-.28-.08,0-.25.05-.52.15-.27.1-.44.16-.51.21-.15.09-.23.05-.24-.1,0-.08.15-.19.48-.35.32-.16.71-.33,1.17-.51.38-.18.7-.32.97-.41.27-.09.53-.17.78-.22.25-.05.52-.09.81-.11.29-.02.63-.02,1.03,0,.9.02,1.53.09,1.89.21.36.12.51.31.45.59-.03.24.06.35.25.34ZM217.28,141.19c.21-3.53.99-7.17,2.32-10.92.13-.36.24-.68.32-.96.08-.28.12-.46.11-.53-.01-.19-.1-.26-.27-.19-.17.07-.35.25-.52.53-.25.37-.44.44-.57.21-.13-.19-.33.14-.59.97-.7,2.54-.99,3.95-.86,4.21.09.19.04.33-.15.42-.08.04-.17.32-.27.84-.11.51-.19,1.12-.27,1.83-.08.71-.13,1.41-.17,2.09-.03.69-.02,1.22.04,1.61.12,1.4.28,2.09.48,2.08.16,0,.29-.74.39-2.19ZM218.88,128.09c-.1.32-.12.53-.08.62.04.09.14.04.28-.16.18-.28.26-.5.25-.66,0-.16-.07-.21-.18-.17s-.21.17-.27.37ZM221.09,122.91c-.18.21-.38.52-.59.95-.21.42-.4.84-.57,1.26-.17.42-.3.81-.4,1.17-.1.36-.12.59-.08.71.14.34.22.34.23-.01-.01-.23.06-.36.21-.36.15,0,.24.06.25.22.08,0,.25-.4.51-1.17.26-.78.59-1.84.98-3.19.03-.12-.15.03-.56.44ZM219.67,174.62c.05.15.23.22.54.2.66-.04,1.55-.47,2.68-1.28.41-.34.88-.75,1.42-1.23.54-.48,1.01-.93,1.41-1.35.4-.41.89-.97,1.45-1.67.56-.7,1.13-1.42,1.71-2.16.58-.74,1.1-1.44,1.57-2.12.46-.67.82-1.23,1.07-1.68.89-1.46,1.51-2.43,1.87-2.9.36-.47.62-.75.77-.84.07-.04.28-.33.62-.86.34-.53.7-1.16,1.09-1.88.42-.81.86-1.72,1.33-2.75.46-1.02.9-1.99,1.32-2.89.41-.9.76-1.67,1.03-2.29.27-.62.39-.95.35-.99-.04,0-.13.12-.27.34-.14.22-.29.5-.45.82-.16.32-.3.64-.44.96-.14.32-.24.58-.3.78-.03.24-.1.36-.21.37-.04-.08,0-.29.11-.65.12-.36.25-.76.42-1.2.17-.44.34-.84.51-1.2.17-.36.3-.56.37-.61.07-.08.21-.34.42-.79.21-.44.41-.98.6-1.62.36-1.08.62-1.84.77-2.3.15-.46.14-.68-.01-.67-.12,0-.6.39-1.45,1.14-1.12.93-2.33,2.07-3.66,3.42-1.32,1.35-2.62,2.75-3.9,4.19s-2.48,2.88-3.6,4.29c-1.12,1.42-2.04,2.67-2.76,3.77-.82,1.26-1.61,2.59-2.36,3.98s-1.42,2.72-2.01,3.99c-.59,1.27-1.06,2.43-1.43,3.49-.37,1.06-.57,1.88-.61,2.47-.01.39-.02.75-.02,1.08,0,.33.02.54.07.61ZM240.13,152.69c.14-.24.36-.77.66-1.59.3-.82.61-1.68.93-2.58.32-.9.59-1.72.81-2.48.23-.76.34-1.21.33-1.37-.12,0-.39.57-.83,1.69-.2.56-.47,1.16-.8,1.81-.33.65-.62,1.17-.87,1.58-.29.37-.55.78-.77,1.22-.23.44-.39.8-.49,1.08-.06.24-.15.45-.25.63-.11.18-.18.27-.22.28-.12,0-.17.13-.15.36.01.19-.06.29-.22.3-.2.01-.23.07-.11.18,0,.04-.03.19-.09.45-.06.26-.16.52-.28.78-.12.26-.23.5-.34.72-.1.22-.19.33-.27.34-.12,0-.17.13-.15.36.02.27-.04.35-.16.24-.12-.07-.17.01-.16.25.09.23.04.35-.15.36-.2.01-.25.11-.16.3.04.11.03.3-.05.56-.08.26-.21.53-.39.81s-.3.52-.37.7c-.07.18-.06.27.02.26.12,0,.18.11.2.34.01.19-.07.44-.25.75-.18.3-.36.46-.56.47-.08,0-.09-.05-.04-.17.05-.12.15-.24.3-.37.25-.37.31-.61.19-.71-.12-.07-.31.13-.55.62-.31.68-.54.81-.68.39-.09-.23-.21-.13-.33.31-.21.4-.19.48.07.23.18-.21.29-.22.32-.05.03.17-.06.48-.27.92-.17.44-.38.57-.62.39-.21-.18-.36-.15-.46.09-.24.56-.76,1.39-1.55,2.5-.79,1.1-1.66,2.24-2.61,3.41s-1.87,2.27-2.79,3.3c-.91,1.03-1.63,1.76-2.15,2.18-.33.29-.74.58-1.21.86-.47.28-.86.47-1.17.57-.65.23-1.02.39-1.11.48-.09.08-.05.22.11.4.21.22.53.32.96.29.43-.03.92-.17,1.47-.44s1.09-.57,1.61-.92c.53-.34,1.02-.72,1.48-1.12.46-.4.84-.76,1.13-1.09.41-.38.76-.7,1.05-.97.29-.27.48-.41.56-.42.16.11.28.08.35-.08.03-.16-.01-.23-.13-.23-.08,0,0-.17.23-.51.23-.35.55-.77.95-1.26.4-.49.87-1.11,1.41-1.84.54-.74,1.01-1.39,1.4-1.96.35-.57.68-1.05.97-1.44.29-.39.47-.59.55-.59.16.07.2.03.11-.12-.04-.08.11-.48.45-1.2.35-.72.8-1.59,1.36-2.6.53-.97,1-1.88,1.42-2.72.42-.84.66-1.37.72-1.57.07-.2.17-.45.31-.75.14-.3.28-.55.42-.76.14-.2.26-.4.35-.58.09-.18.13-.29.13-.33,0-.04.04-.15.12-.33s.18-.39.28-.63ZM227.12,154.54c.12,0,.23-.13.33-.37.18-.21.24-.31.16-.3-.12,0-.23.11-.33.31l-.15.36ZM228.37,153.05l.87-1.05c.33-.37.53-.62.6-.74.11-.12.2-.23.27-.31-.01-.2-.12-.19-.32.02-.2.21-.45.54-.73.98l-.7,1.1ZM242.96,137.63s-.14.07-.31.19c-.17.13-.44.34-.81.64-.37.3-.88.71-1.51,1.24-.63.53-1.43,1.21-2.39,2.05-1.3,1.13-2.67,2.43-4.13,3.88-1.46,1.46-2.77,2.84-3.94,4.17-.84.95-1.2,1.42-1.09,1.41.08,0,.24-.12.48-.35.24-.23.5-.49.77-.78.27-.29.54-.57.8-.84.26-.27.4-.42.44-.47.66-.74,1.11-1.08,1.34-1.02.28.06.47,0,.57-.21.18-.25.17-.36-.02-.35-.16,0-.1-.18.17-.57.27-.39.61-.75,1.02-1.09.3-.25.52-.36.65-.33.14.03.1.21-.11.53l-.16.3.27-.31c.25-.29.5-.44.73-.46.47-.03.49-.22.08-.59-.17-.18-.13-.42.1-.71.24-.29.86-.85,1.86-1.7,1.04-.88,1.89-1.61,2.56-2.18.67-.57,1.2-1.02,1.59-1.36.39-.34.66-.59.8-.75.15-.17.22-.29.21-.37ZM231.05,169.94c.18-.29,0-.16-.5.38-.22.25-.41.47-.57.68-.16.21-.24.33-.24.37.04,0,.11-.06.22-.16.11-.1.24-.24.39-.4.15-.16.29-.32.44-.47.15-.15.24-.28.27-.4ZM237.83,120.84c.38-.76.68-1.4.91-1.9.22-.5.3-.75.22-.75-.11.12-.26.37-.45.73-.19.36-.41.77-.66,1.21-.25.45-.48.9-.71,1.36-.23.46-.41.86-.54,1.18-.13.36-.46,1.01-.96,1.96-.51.95-1.05,1.89-1.62,2.82-1.41,2.47-2.08,3.7-2,3.7.12,0,.78-.95,2-2.82.36-.57.72-1.17,1.09-1.8.37-.63.64-1.12.82-1.48.17-.36.44-.96.8-1.78.36-.82.73-1.64,1.11-2.44ZM233.95,146.5c0,.16.09.19.24.1.11-.12.16-.21.16-.25,0-.08-.07-.11-.18-.11-.16,0-.23.09-.22.25ZM236.31,144.84c.16,0,.19-.09.1-.24-.17-.14-.29-.22-.36-.21-.12,0-.13.09-.04.24.09.15.19.22.31.22ZM236.73,144.05c-.2-.06-.26-.02-.17.13.09.15.19.2.3.16.11-.04.3-.19.56-.44.22-.21.33-.32.33-.34,0-.02-.1-.02-.29-.01-.28-.02-.4.08-.39.32,0,.16-.1.22-.34.19ZM237.22,159.78c.14-.32.17-.46.09-.42-.08.04-.2.25-.37.61-.11.16-.18.29-.21.39-.03.1-.01.11.06.03.08-.04.15-.13.22-.25.07-.12.14-.24.21-.36ZM238.86,115.62c.11-.2.21-.4.31-.61.11-.2.21-.38.32-.55-.17-.14-.29-.28-.38-.39-.18.28-.35.63-.52,1.03-.17.4-.32.77-.46,1.11-.13.34-.23.63-.3.87-.06.24-.08.36-.04.35.04,0,.16-.19.35-.55.19-.36.43-.79.71-1.27ZM239.18,141.97c-.23.09-.35.17-.37.23-.02.06.07.08.27.07.19-.01.32-.1.39-.26.11-.12,0-.14-.3-.04ZM239.96,141.33c.01.2.09.24.24.13.15-.11.33-.32.55-.65l.42-.73-.61.51c-.41.38-.61.62-.6.74Z"/><path class="cls-2" d="M140.11,211.61c.61.39,1.02.75,1.24,1.07.21.32.26.74.13,1.25-.06.32-.13.54-.22.66-.09.12-.29.27-.59.45-.19.09-.37.17-.54.24-.17.07-.3.09-.38.05-.08-.03-.14-.18-.17-.43s-.06-.55-.08-.9c-.03-.54-.07-.89-.12-1.05-.05-.15-.15-.26-.31-.33-.24-.1-.59-.13-1.06-.08s-1,.15-1.59.3c-.6.15-1.22.36-1.87.61-.65.26-1.29.56-1.94.91-.57.31-1.12.66-1.67,1.04s-.81.64-.8.75-.04.39-.15.83c-.11.44-.26.95-.46,1.55-.2.6-.42,1.24-.67,1.92-.25.68-.52,1.32-.79,1.92-.27.68-.62,1.48-1.05,2.41-.43.92-.88,1.84-1.36,2.75-.47.91-.92,1.75-1.34,2.51-.42.77-.78,1.37-1.06,1.82-.18.29-.48.74-.91,1.37-.43.63-.88,1.26-1.35,1.87-1.26,1.76-2.38,3.11-3.35,4.07-.98.96-1.98,1.68-3,2.18-1.44.75-2.85.96-4.24.61-1.31-.27-2.15-.73-2.54-1.37-.08-.07-.22-.22-.41-.45s-.39-.42-.59-.61c-.33-.29-.54-.51-.63-.67-.09-.15-.1-.34-.04-.58.06-.35,0-.6-.16-.75-.17-.19-.18-.34-.03-.47.1-.2.07-.4-.09-.58-.21-.18-.32-.42-.34-.71-.02-.29.07-.54.25-.75.11-.16.17-.22.19-.19.02.04,0,.23-.05.59-.02.31-.02.5,0,.56s.09.02.2-.1c.15-.17.21-.38.2-.66-.01-.23.04-.35.15-.36.2-.01.27.32.24.98,0,.47.05.7.19.69.14,0,.36-.28.68-.8.64-1.05,1.47-2.25,2.51-3.58,1.03-1.33,2.24-2.8,3.63-4.41,2.19-2.51,4.17-4.64,5.94-6.37,1.77-1.73,3.49-3.23,5.17-4.5.52-.38.92-.68,1.17-.89.26-.21.46-.46.6-.74.14-.28.25-.65.34-1.11.09-.45.21-1.12.35-1.98.24-1.19.36-2.27.36-3.24,0-.98-.1-1.56-.31-1.74-.17-.15-.25-.3-.26-.45-.03-.51-.22-.98-.56-1.43-.34-.45-.67-.66-.98-.64-.43.03-1.08.32-1.97.88-.88.56-1.75,1.22-2.6,1.98-.41.38-.85.82-1.32,1.34-.48.52-.91,1.02-1.31,1.52-.4.49-.73.93-1,1.32-.27.39-.4.64-.39.76,0,.04-.04.14-.13.3s-.18.32-.29.49c-.11.16-.22.31-.33.43-.11.12-.18.17-.23.13,0-.04-.01-.05-.03-.03-.02.02-.03.07-.02.15,0,.08-.12.34-.36.78-.25.45-.55.95-.9,1.52-3.8,6.25-5.68,10.87-5.66,13.88-.04,1.21-.26,1.75-.66,1.62-.16,0-.27.07-.34.2-.25.33-.87.11-1.85-.65l-.87-.71-.23-1.86c-.08-.74-.13-1.36-.14-1.87-.01-.51.02-1.07.1-1.71.07-.75.18-1.65.33-2.71.15-1.06.33-2.19.53-3.37.2-1.18.41-2.37.63-3.55.22-1.19.44-2.27.65-3.26.13-.48.22-.95.27-1.42.05-.47.07-.8.06-1-.02-.39.05-.72.23-1.01.07-.08.17-.28.28-.6.12-.32.22-.66.32-1.01.18-.83.43-1.77.74-2.83.3-1.05.62-2.09.95-3.1.33-1.02.65-1.96.97-2.84.32-.88.58-1.54.79-1.98.07-.2.25-.61.54-1.23.29-.62.59-1.3.9-2.02.38-.8.68-1.47.9-1.99.22-.52.44-.99.65-1.42.21-.42.44-.85.68-1.27.25-.42.57-.96.96-1.61.28-.49.63-1.05,1.04-1.7.41-.65.82-1.29,1.23-1.92.41-.63.79-1.22,1.15-1.77.36-.55.63-.95.81-1.19.07-.12.22-.34.46-.64.24-.31.48-.62.73-.95.9-1.23,1.8-2.41,2.68-3.56.89-1.15,1.71-2.17,2.48-3.05.77-.89,1.42-1.6,1.95-2.14.53-.54.88-.81,1.03-.82.19-.01.38-.06.55-.15.17-.09.25-.17.25-.25,0-.12-.09-.17-.24-.16-.31.02-.38-.08-.2-.31.18-.23.55-.51,1.12-.86.64-.43,1.21-.73,1.7-.89.5-.17,1.04-.27,1.62-.3.31-.06.56-.05.76.01.2.07.46.23.79.48.57.4.96.77,1.15,1.13.2.36.28.87.24,1.54-.02.94-.26,2.07-.73,3.38s-1.24,3.06-2.32,5.24c-.52,1.05-1.09,2.12-1.71,3.21-.62,1.09-1.31,2.28-2.07,3.55-.76,1.28-1.65,2.71-2.67,4.29-1.02,1.59-2.21,3.4-3.57,5.43-2.39,3.7-4.6,6.86-6.63,9.48-2.03,2.63-3.75,4.57-5.15,5.82-.3.21-.55.45-.75.72-.2.27-.3.44-.29.52-.03.12-.1.4-.21.83s-.23.91-.35,1.43c-.06.28-.11.53-.16.74-.05.22-.08.42-.11.62-.07.2-.11.38-.14.54.04,0,.13-.12.27-.34.14-.22.3-.5.48-.82.32-.53.63-1,.94-1.43.31-.43.68-.91,1.11-1.45.07-.12.18-.29.32-.52.14-.22.3-.44.49-.64,1.11-1.67,2.39-3.12,3.83-4.37,1.45-1.24,2.84-2.06,4.19-2.45.27-.09.61-.15,1.01-.18.41-.03.83-.02,1.26.01s.83.08,1.18.13c.35.06.61.14.78.25.33.21.69.41,1.09.58.44.17.89.49,1.35.97.46.48.82,1,1.09,1.57.09.19.17.37.24.54.07.17.12.38.16.63.04.25.07.55.11.9.04.35.08.8.11,1.34l.15,2.51,1.03-.47c3.27-1.41,5.96-1.52,8.07-.32ZM109.16,211.33c.06-.28,0-.39-.2-.34-.23.05-.33.27-.31.66-.03.16-.05.32-.06.5,0,.18-.05.32-.12.45-.06.24-.18.56-.35.96-.1.28-.23.86-.39,1.75s-.4,2.22-.72,4c-.06.28-.12.68-.19,1.21s-.13,1.05-.2,1.56c-.07.51-.13.96-.18,1.36-.05.39-.08.61-.08.65,0,.04.04-.02.11-.18.07-.16.15-.37.25-.63s.19-.51.28-.75.14-.42.17-.54c.02-.27.08-.73.18-1.36.1-.63.21-1.28.32-1.95.12-.67.22-1.28.33-1.84.1-.55.17-.89.2-1.01.07-.16.15-.47.24-.92.09-.45.18-.92.27-1.39.12-.51.22-.99.29-1.42.07-.43.12-.69.16-.77ZM107.9,220.49c.14-.32.2-.6.18-.83-.02-.35-.08-.37-.18-.05-.04.08-.07.2-.1.36-.03.16-.06.32-.09.47l-.08.53.26-.49ZM108.21,218.77c.06-.32.08-.55.07-.71,0-.12-.02-.17-.04-.17-.02,0-.04.1-.07.3-.06.28-.09.49-.08.65,0,.16.05.13.11-.07ZM108.5,216.88c.07-.2.06-.32-.02-.35-.04-.04-.06.04-.04.24,0,.16.03.19.07.11ZM108.87,215.28c.07-.2.09-.32.07-.36-.02-.04-.07-.01-.14.07-.07.2-.13.48-.18.83-.02.31,0,.43.08.35.03-.08.07-.2.09-.36.03-.16.06-.33.08-.53ZM108.92,239.18c0,.08.1.12.3.13.2,0,.43-.02.7-.07.27-.05.56-.13.87-.23.31-.1.59-.21.86-.34.3-.14.63-.33.99-.59.35-.26.72-.52,1.09-.8.37-.28.73-.55,1.06-.83.33-.27.61-.51.83-.73.26-.29.59-.7,1.01-1.23.42-.53.85-1.12,1.3-1.75.45-.63.88-1.26,1.29-1.89.41-.63.75-1.19,1.04-1.67.32-.53.6-.98.85-1.37.25-.39.41-.62.48-.7.11-.08.19-.06.24.07.05.13.02.26-.09.39-.19.09-.24.21-.15.36,0,.12.18-.14.51-.76.33-.63.71-1.39,1.12-2.29s.82-1.81,1.21-2.71.66-1.55.79-1.95c.07-.2.07-.34,0-.41s-.15-.01-.25.19c-.03.08-.25.3-.63.65-.39.36-.84.76-1.36,1.23-.59.54-1.43,1.39-2.51,2.53-1.08,1.14-2.19,2.36-3.32,3.66-1.13,1.3-2.21,2.56-3.23,3.77-1.02,1.22-1.78,2.17-2.29,2.87-.79,1.1-1.45,2.08-1.96,2.93-.51.85-.77,1.38-.75,1.57ZM109.14,213.97c.14-.32.2-.62.18-.89l-.02-.29-.1.24c-.06.24-.13.52-.18.83l-.09.53.21-.42ZM109.66,208.02c-.15.05-.29.28-.4.7-.11.42-.13.68-.04.79.08.11.21-.01.39-.38.17-.36.35-.94.54-1.73.13-.4.27-.87.41-1.4s.28-1,.41-1.4c.13-.36.27-.76.4-1.2.13-.44.23-.78.29-1.01.1-.28.19-.55.27-.81.08-.26.2-.59.35-.99.15-.4.35-.87.59-1.41.24-.54.53-1.23.87-2.07.31-.76.57-1.42.79-1.98.22-.56.33-.86.33-.9.52-1.05.95-1.91,1.28-2.6.33-.68.68-1.38,1.04-2.08.37-.71.66-1.24.87-1.61.07-.16.21-.46.41-.9.21-.44.39-.88.56-1.32.21-.48.5-1.07.89-1.78.39-.71.76-1.34,1.11-1.91.93-1.42,1.28-2.02,1.06-1.79-.22.23-.89,1.18-1.99,2.85-.43.61-.81,1.17-1.13,1.68-.32.51-.64,1.04-.96,1.58-.32.55-.67,1.15-1.06,1.82-.39.67-.85,1.49-1.37,2.46-.18.32-.44.87-.78,1.63-.34.76-.7,1.61-1.08,2.53-.37.92-.76,1.85-1.15,2.79-.39.94-.72,1.75-.99,2.43-.51,1.24-.72,2.02-.62,2.32.09.23.08.35-.04.35-.16,0-.19.11-.1.3.04.08.03.22-.03.44-.07.22-.17.47-.31.75-.14.28-.26.59-.35.93-.1.34-.18.68-.26,1.01-.08.34-.13.64-.15.92-.02.28-.01.47.04.58.01.2-.02.33-.09.42ZM109.47,212.6c.16,0,.19-.07.11-.18l-.19-.16c-.08,0-.11.07-.11.18,0,.12.07.17.19.17ZM126.24,219.55c.17-.44.13-.43-.12.04-.24.46-.66,1.34-1.25,2.62-.52,1.16-1.02,2.23-1.5,3.2-.49.97-.83,1.54-1.01,1.7-.04.04-.08.11-.13.21-.05.1-.1.21-.13.33-.07.12-.15.24-.24.37-.09.12-.19.21-.31.25-.27.09-.32.17-.16.24.12.07.09.27-.08.59-.17.32-.63,1.13-1.38,2.43-.29.45-.57.89-.86,1.34-.29.45-.48.75-.59.91-.33.41-.6.76-.81,1.05-.22.29-.32.45-.32.49,0,.08-.15.28-.46.61-.31.33-.69.7-1.13,1.09-.44.4-.91.79-1.39,1.17-.48.38-.88.68-1.18.89-.6.35-1.25.66-1.94.94-.69.28-1.09.38-1.21.31-.09-.11-.16-.07-.23.13-.06.28.14.48.59.61s.94.14,1.44.03c.11-.05.26-.08.43-.09.17-.01.32-.02.44-.03l.41-.03-.42-.15c-.2-.07-.26-.13-.19-.19s.37-.27.9-.61c.3-.17.58-.32.82-.43.25-.11.39-.17.43-.17.08,0,.24-.15.5-.44.07-.08.24-.26.5-.53.26-.27.51-.55.77-.84.84-.95,1.67-2,2.5-3.17.83-1.16,1.63-2.39,2.41-3.69.18-.32.33-.61.48-.85.14-.24.23-.38.27-.43h.06c.08,0,.12.01.12.05.16.07,0,.47-.45,1.2-.18.32-.34.6-.48.82-.14.22-.21.36-.21.39,0,.08.1,0,.28-.25.18-.25.39-.56.64-.95.25-.39.49-.79.72-1.21.23-.42.41-.78.55-1.06.17-.32.32-.61.45-.88.12-.26.2-.41.24-.45.1-.2.17-.38.2-.54.03-.16,0-.23-.07-.23-.12,0-.21.13-.27.37-.14.32-.21.39-.22.19-.02-.39-.28-.18-.78.63-.39.61-.57.82-.55.62.03-.2.27-.7.73-1.51.21-.4.48-.96.81-1.66.33-.7.67-1.43,1.01-2.17.34-.74.65-1.43.9-2.05.26-.62.42-1.03.48-1.23ZM112.65,195.59s-.2.35-.49,1.06c-.29.7-.59,1.48-.91,2.34-.32.86-.6,1.67-.85,2.42-.25.76-.37,1.2-.36,1.31,0,.16.07.11.17-.13.1-.24.22-.54.35-.9.08-.55.2-.93.34-1.13.03-.08.13-.34.3-.78.17-.44.35-.92.56-1.44.2-.52.39-1.01.56-1.47.17-.46.27-.75.3-.87.14-.28.15-.42.03-.41ZM110.26,208.34c-.1.28-.04.3.18.05.07-.08.18-.27.32-.58s.25-.63.35-.99c.16-.52.32-1.02.47-1.49s.31-.96.5-1.46.38-1.06.57-1.68c.2-.62.45-1.32.75-2.13,1.03-2.99,1.4-4.32,1.11-3.99-.07.08-.21.38-.41.9-.2.52-.44,1.14-.71,1.86-.27.68-.52,1.34-.76,1.98-.24.64-.38,1.06-.45,1.26-.07.2-.16.46-.27.78-.12.32-.21.62-.27.89-.1.28-.18.55-.24.81-.06.26-.13.45-.2.57-.07.08-.15.28-.23.6-.08.32-.17.65-.26,1.01-.1.32-.18.64-.24.95-.06.32-.12.54-.19.66ZM113.31,193.91c-.07.2-.12.36-.15.48-.03.12-.03.16,0,.12.08-.04.15-.13.22-.25.07-.12.14-.26.21-.42.07-.12.12-.24.15-.36.03-.12.03-.18-.01-.17-.04-.04-.19.17-.43.61ZM129.11,174.38c-.4.57-.85,1.17-1.35,1.81-.51.64-.91,1.14-1.2,1.51-1.39,1.65-3.31,4.4-5.77,8.26-.71,1.14-1.15,1.84-1.31,2.1-.16.26-.16.35-.01.26.19-.13.25-.09.18.11-.07.2-.24.52-.53.97-.18.29-.42.73-.71,1.33s-.58,1.22-.85,1.84c-.28.62-.51,1.19-.71,1.71-.2.52-.3.84-.29.96.01.2-.05.41-.2.66-.11.16-.29.61-.56,1.35-.27.74-.53,1.57-.79,2.48-.1.32-.23.75-.39,1.28-.16.54-.33,1.07-.49,1.58-.16.52-.31,1-.44,1.43-.13.44-.23.74-.3.9-.1.32,0,.34.27.07.28-.27.83-.94,1.67-2.01.47-.61.98-1.3,1.54-2.06.56-.76,1-1.36,1.33-1.81.32-.45.63-.87.92-1.26.29-.39.47-.62.54-.71l.44-.5c.03-.08.24-.4.61-.97.38-.57.79-1.21,1.26-1.92.46-.71.93-1.41,1.39-2.11.46-.69.81-1.18,1.02-1.47.14-.21.31-.47.51-.79.19-.32.38-.63.56-.91.18-.25.45-.65.8-1.22.36-.57.71-1.12,1.07-1.65.39-.57.84-1.29,1.33-2.16.49-.87,1-1.75,1.51-2.64.51-.89.99-1.74,1.43-2.55.44-.81.76-1.45.97-1.93.07-.2.21-.49.42-.87.21-.38.4-.78.57-1.18.55-1.24.96-2.31,1.24-3.21.28-.9.42-1.62.42-2.16,0-.51,0-.79-.05-.85-.04-.05-.16-.02-.34.11-.64.39-1.42,1.08-2.33,2.08s-2.04,2.37-3.38,4.13ZM114.04,240.39c.27-.09.34-.2.22-.31-.08-.07-.23-.04-.43.09-.21.13-.31.23-.3.31,0,.16.18.13.52-.09ZM115.06,239.86c.11-.12.05-.14-.18-.05-.38.18-.41.26-.1.24.16,0,.25-.07.28-.19ZM115.68,239.47c.26-.17.39-.3.39-.37s-.14-.01-.4.2c-.26.17-.39.28-.39.32,0,.04.14,0,.4-.14ZM124.25,228.16c.14-.24.34-.62.6-1.15.26-.52.51-1.04.75-1.54.24-.5.43-.94.56-1.32.13-.38.14-.53.03-.44-.04.04-.16.25-.37.64-.21.38-.42.81-.62,1.27-.21.46-.4.87-.57,1.24-.17.36-.26.58-.25.66s-.09.16-.28.25c-.16,0-.23.11-.21.31.01.2-.04.29-.16.3-.12,0-.15.07-.11.18.01.19-.13.46-.42.79-.36.42-.54.72-.53.91,0,.16-.15.46-.47.91-.41.38-.61.62-.6.74,0,.16-.12.32-.38.49-.11.09-.21.15-.28.19-.08.04-.08.02,0-.06.11-.12.11-.18-.01-.18-.08,0-.19.17-.35.49-.16.32-.23.56-.22.72-.06.28-.18.54-.36.78-.11.12-.2.25-.27.37-.07.12-.12.22-.16.3.01.2-.11.44-.37.73s-.48.44-.67.45c-.2.01-.29.06-.29.14,0,.04-.03.13-.1.27-.07.14-.16.27-.27.4-.11.12-.22.23-.33.31-.11.08-.19.13-.23.13-.12,0-.17.07-.17.18,0,.16-.15.42-.48.79l-.49.62.45-.38c.15-.12.38-.33.69-.63.31-.29.62-.6.91-.94.51-.54,1.08-1.23,1.69-2.07.61-.84,1.2-1.65,1.75-2.45.56-.8,1.01-1.51,1.36-2.13.35-.63.5-1,.46-1.11,0-.12.07-.2.22-.25.15-.09.22-.19.21-.31,0-.08.02-.18.07-.3s.13-.22.25-.31ZM118.49,188.5s.1-.07.3-.34c.2-.27.44-.62.73-1.07.28-.45.54-.82.75-1.13.22-.31.36-.5.43-.58.07-.16.08-.24.04-.24-.04,0-.17.18-.41.52-.23.35-.48.72-.75,1.13-.27.41-.52.78-.75,1.13s-.35.54-.34.58ZM121.7,183.62c0,.12.03.17.07.14.04-.02.07-.11.1-.27.14-.2.12-.26-.07-.17-.07.08-.11.18-.1.3ZM121.97,229.18c0-.12.15-.33.46-.64.31-.31.53-.47.65-.48.12,0,.11.17-.03.53-.21.33-.34.49-.38.49-.12,0-.25.05-.4.14-.19.09-.29.08-.29-.04ZM122.98,231.46c.07-.08.11-.14.11-.18,0-.04,0-.08,0-.12-.12-.03-.19.03-.22.19-.07.2-.02.24.12.11ZM124.17,226c.08.07.19-.01.33-.26.14-.24.21-.46.2-.66,0-.12-.12-.01-.33.31-.21.33-.28.52-.2.6ZM124.94,224.2c-.17.4-.24.6-.2.6s.14-.19.32-.55c.11-.12.16-.25.15-.36.03-.08.05-.14.05-.18-.04-.04-.15.13-.32.49Z"/><path class="cls-2" d="M150.71,203.82c-.36-.06-.66-.09-.91-.09-.26,0-.36.01-.32.05,0,.04.07.19.21.46.13.27.29.59.47.97.36.84.63,1.64.79,2.41.16.77.24,1.67.22,2.68.03,1.09-.19,2.23-.64,3.41-.46,1.18-1.06,2.29-1.82,3.33-.76,1.04-1.64,1.98-2.64,2.8-1,.82-2.02,1.4-3.06,1.74-.38.1-.75.22-1.09.36-.34.14-.57.23-.69.28-.23.13-.51.21-.86.23-.39.02-.82-.03-1.3-.16-.24-.06-.5-.17-.78-.33-.28-.16-.55-.35-.8-.57-.25-.22-.45-.43-.6-.64-.15-.2-.23-.39-.24-.54,0-.12-.2-.38-.58-.79-.29-.33-.55-.84-.77-1.51s-.37-1.39-.45-2.17c-.09-.78-.12-1.58-.09-2.4.03-.82.14-1.55.33-2.19.52-1.79,1.31-3.61,2.39-5.45,1.08-1.84,2.32-3.47,3.71-4.88l1.05-1.06-.44-.56c-.33-.33-.44-.56-.33-.68.07-.12.29-.16.67-.13.37.04.72.14,1.04.32.24.14.43.22.57.23.14.01.3-.03.49-.12.15-.09.42-.14.81-.17.43-.03.82.05,1.19.22.16.07.34.18.55.35.2.16.41.35.62.55.21.2.38.4.51.58.13.19.19.32.2.4.01.19.38.32,1.11.37.73.05,1.67.04,2.84-.03,1.95-.12,3.87-.35,5.79-.71,1.91-.35,3.81-.78,5.69-1.28l1.17-.07c.08,0,.2,0,.35,0,.16.01.27.03.36.07l.24.1h.06s.12.11.12.11c-.08,0-.14.02-.2.04-.06.02-.12.04-.2.04-.31.1-.56.17-.75.22-.19.05-.27.1-.23.13.04.04.54-.07,1.5-.33.04.04.06.08.07.11h.06c0,.15.05.23.13.22,0,.08.02.13.04.17.02.04.03.08.04.12-.04-.07-.05-.06-.03.03.03.1.04.16.04.2l.03.41c0,.08,0,.14-.02.18-.02.04-.02.08-.02.12l-.05.06s0,.07-.02.09c-.02.02-.03.05-.02.09-.04.04-.05.08-.05.12h-.06s-.03.1-.11.19h-.06s0,.06,0,.06c-2.11.6-4.23,1.08-6.36,1.44-2.13.36-4.08.6-5.87.71-.55.03-1.07.07-1.58.1-.51.03-.97.02-1.41-.03ZM146.39,214.57c.65-.82,1.17-1.7,1.57-2.64.39-.94.66-1.89.79-2.83.14-.95.13-1.84-.02-2.69-.15-.85-.44-1.61-.87-2.29-.22-.34-.38-.54-.51-.61-.12-.07-.32-.1-.59-.08-.35.02-.59-.02-.71-.13-.04-.07-.18-.14-.42-.21-.19.01-.35-.07-.45-.24-.11-.17-.13-.35-.06-.55,0-.15-.05-.21-.13-.17-.04,0-.2.15-.47.44-.27.29-.57.6-.88.93-.31.33-.59.64-.82.93-.24.29-.35.45-.35.49-.03.08-.09.19-.18.33s-.23.32-.41.52c-.18.21-.44.6-.78,1.19-.33.59-.68,1.23-1.05,1.94-.37.71-.71,1.41-1.01,2.11-.31.7-.55,1.27-.72,1.71-.36,1.12-.59,2.28-.7,3.5s-.03,2.15.2,2.8c.09.23.19.36.29.39.1.03.4.03.91,0,.7-.04,1.4-.22,2.11-.54.7-.32,1.38-.71,2.04-1.18.65-.47,1.26-.98,1.81-1.54.55-.56,1.03-1.09,1.43-1.58ZM163.02,200.14c-.08.04-.06.06.03.06.1,0,.24-.03.43-.09.42-.1.67-.2.74-.28.04-.04,0-.05-.09-.02-.1.03-.22.05-.38.08-.15.03-.31.07-.46.11-.15.05-.25.09-.28.13Z"/><path class="cls-2" d="M201.52,175.29c-.21.4-.39.76-.55,1.06-.16.3-.34.67-.55,1.09-.21.42-.47.96-.78,1.6-.31.64-.73,1.55-1.24,2.71-.42.85-.89,1.88-1.42,3.1-.53,1.22-1.06,2.47-1.59,3.73-.53,1.26-1.04,2.49-1.53,3.67s-.89,2.19-1.19,3.03c-.28.6-.57,1.32-.89,2.16-.32.84-.6,1.56-.83,2.16-.28.56-.5,1.07-.67,1.5-.17.44-.23.7-.19.77,0,.12-.05.18-.17.18-.04.04-.11.24-.23.6-.11.36-.23.8-.36,1.31-.17.48-.35,1.06-.57,1.73-.21.68-.4,1.25-.57,1.73-.63,1.8-1.3,3.79-2.01,5.98-.71,2.19-1.37,4.36-1.98,6.51s-1.16,4.16-1.65,6.05c-.49,1.88-.86,3.42-1.1,4.61-.2,1.18-.37,2.19-.52,3.02-.15.83-.24,1.56-.28,2.18-.04.63-.04,1.18-.01,1.67.03.49.08.96.15,1.43l.27,1.57.92.59c.53.36.85.62.96.79.11.17,0,.32-.3.46-.26.13-.46.2-.57.21-.12,0-.32-.04-.59-.14-.28-.1-.52-.14-.71-.13-.23.05-.53-.03-.89-.24-.37-.21-.75-.48-1.16-.81-.41-.33-.81-.69-1.18-1.1-.38-.41-.67-.8-.89-1.18-.4-.72-.63-1.77-.69-3.15-.07-1.38.06-2.96.38-4.74.15-.79.38-1.81.69-3.06.31-1.25.67-2.63,1.07-4.14.4-1.51.83-3.07,1.3-4.68.47-1.61.94-3.19,1.41-4.74.47-1.55.93-3.01,1.37-4.39.44-1.37.85-2.54,1.22-3.5.2-.52.44-1.17.7-1.95.27-.78.5-1.45.7-2,.27-.72.52-1.43.75-2.13.23-.7.45-1.33.65-1.91.2-.58.37-1.08.52-1.5.15-.42.26-.71.33-.87.07-.12.13-.25.18-.39.05-.14.11-.25.18-.33.1-.32-1.38,1.96-4.45,6.83-.78,1.3-1.42,2.34-1.92,3.13-.5.79-.93,1.47-1.28,2.04-.36.57-.67,1.09-.93,1.55-.27.46-.58,1-.93,1.61-.35.61-.78,1.32-1.28,2.13-.5.81-.9,1.5-1.22,2.07-.42.73-.83,1.42-1.22,2.07-.39.65-.73,1.23-1.01,1.73-.28.51-.5.92-.66,1.24s-.23.52-.23.6c0,.08-.09.29-.28.63s-.43.74-.72,1.19c-.29.45-.52.84-.72,1.19-.19.34-.29.54-.29.57,0,.12-.07.31-.23.57s-.36.55-.59.86c-.24.31-.51.63-.82.96-.31.33-.6.6-.86.81-.67.59-1.3,1.03-1.91,1.32-.61.29-1.26.5-1.95.62-.46.11-.82.15-1.08.12-.25-.02-.6-.12-1.04-.29-.96-.33-1.84-.87-2.65-1.62-.81-.75-1.27-1.49-1.39-2.23-.18-.96.15-2.7.97-5.21.23-.79.42-1.43.59-1.91.17-.48.3-.86.4-1.14.1-.28.19-.49.25-.63s.16-.27.27-.4c.07-.12.17-.34.31-.66.14-.32.27-.66.41-1.02.09-.4.27-.9.52-1.5.26-.6.51-1.14.75-1.63s.48-.99.7-1.51c.22-.52.36-.92.42-1.2.1-.24.37-.73.79-1.45.43-.73.91-1.52,1.47-2.38.55-.85,1.1-1.66,1.64-2.41.54-.75.94-1.28,1.19-1.57.14-.17.39-.37.72-.6.34-.23.68-.44,1.02-.62.65-.27,1.08-.44,1.29-.49.21-.05.57-.05,1.08,0,.71.04,1.33.17,1.87.41s1.3.72,2.29,1.44c.98.76,1.58,1.35,1.81,1.76l.33.68.64-.98c.18-.28.44-.72.8-1.31.35-.59.73-1.17,1.12-1.74.36-.57.67-1.06.94-1.46.27-.41.42-.61.46-.61.04.04.13-.05.28-.25.14-.2.3-.47.48-.79.71-1.17,1.5-2.47,2.37-3.89.87-1.42,1.71-2.74,2.51-3.96.8-1.22,1.5-2.24,2.07-3.06.57-.82.92-1.23,1.04-1.24.15-.05.23-.04.24.02,0,.06-.07.21-.21.45-.07.16-.45.8-1.14,1.92-.69,1.12-1.5,2.39-2.43,3.81-.42.73-.87,1.46-1.33,2.19-.46.73-.9,1.42-1.31,2.07-.41.65-.77,1.24-1.09,1.77-.32.53-.57.93-.75,1.22-.36.57-.69,1.11-1.01,1.61-.32.51-.53.86-.64,1.06-.72.98-1.31,1.9-1.77,2.74-.46.85-.67,1.43-.66,1.74l.04.58.59-.92c.18-.28.44-.72.8-1.31.35-.59.71-1.17,1.07-1.74.18-.28.41-.66.69-1.13.28-.47.59-.98.93-1.55.34-.57.69-1.16,1.06-1.76s.74-1.18,1.1-1.71c1.21-1.95,1.99-3.24,2.34-3.86.35-.63.34-.75-.02-.38-.11.16-.17.25-.19.25-.02,0,0-.08.07-.24.18-.21.29-.31.33-.31.08,0,.22-.15.44-.44.21-.29.47-.63.75-1.04.25-.33.48-.66.67-1.01.19-.34.41-.75.66-1.21.25-.46.5-1.02.78-1.66.27-.64.6-1.4.97-2.29.17-.4.36-.84.56-1.32.21-.48.4-.86.58-1.15.14-.32.24-.59.3-.81.06-.22.07-.37.03-.44-.09-.15.04-.37.37-.67.11-.16.31-.51.61-1.03.3-.53.61-1.07.93-1.64.28-.6.6-1.25.97-1.93.37-.69.64-1.21.81-1.57.21-.36.47-.82.77-1.37.3-.54.57-1.02.82-1.43.25-.45.46-.82.64-1.12.18-.3.3-.46.38-.46.08,0,.24-.19.49-.56.25-.37.54-.81.85-1.34.07-.08.13-.16.16-.25.03-.08.07-.16.1-.24.67.04,1.3.23,1.91.59.44.25.76.6.94,1.06.18.46.29.94.32,1.45-.11.16-.21.31-.3.43-.09.12-.17.25-.24.37-.03.08-.17.33-.42.76-.25.42-.51.9-.79,1.42-.28.53-.53.99-.74,1.39-.21.4-.29.64-.25.72,0,.08-.07.28-.23.6-.15.32-.36.71-.6,1.15ZM175.09,211.59c.96-1.58,1.55-2.58,1.78-3.01.23-.42.3-.61.23-.57-.08,0-.35.33-.82.99-.47.65-1,1.51-1.6,2.56-.18.29-.33.5-.46.64-.13.15-.21.18-.26.1,0-.16.08-.32.26-.48.22-.25.36-.49.42-.73.03-.12.07-.27.12-.45.05-.18.1-.37.17-.57.07-.16.14-.31.21-.45.07-.14.1-.25.1-.33.07-.12.16-.22.27-.31.12,0,.14.07.07.23-.07.12.08-.04.44-.5.29-.41.44-.64.46-.7.02-.06-.09-.04-.32.05-.15.09-.26.09-.32.02-.06-.08-.02-.18.13-.3.11-.12.14-.26.09-.42-.05-.15-.15-.19-.3-.1-.15.09-.23.1-.23.04,0-.06.04-.27.14-.62.13-.44.17-1.07.12-1.88-.05-.82-.17-1.53-.36-2.15-.15-.54-.26-.84-.32-.92-.06-.08-.21-.11-.44-.09-.42.1-.92.46-1.49,1.06s-1.34,1.61-2.3,3.04c-.43.61-.82,1.18-1.16,1.71-.34.53-.69,1.1-1.04,1.7-.35.61-.74,1.31-1.16,2.12-.42.81-.93,1.79-1.52,2.96-.45.89-.92,1.89-1.4,3.02s-.91,2.23-1.29,3.33c-.38,1.1-.7,2.11-.96,3.05-.26.93-.4,1.69-.45,2.28l-.06.94.75-.22c.19-.09.41-.2.65-.33.25-.13.41-.24.48-.32.11-.12.28-.3.52-.53.24-.23.47-.45.69-.66.52-.5,1.13-1.2,1.83-2.1.71-.9,1.63-2.21,2.78-3.92.5-.69.94-1.3,1.3-1.81.36-.51.58-.79.65-.83.08,0,.11-.1.1-.3-.02-.27.07-.51.25-.72.14-.2.24-.29.28-.25s.01.21-.08.53l-.1.3.22-.19c.15-.17.22-.24.22-.22,0,.02-.03.13-.1.33-.1.32-.2.54-.31.66-.15.17-.14.2,0,.12.08,0,.22-.15.41-.43.2-.28.42-.63.67-1.04.21-.4.51-.93.9-1.58.39-.65.76-1.24,1.12-1.77ZM173.53,212.91c.14-.28.25-.37.34-.26,0,.04-.06.19-.18.45-.12.26-.26.54-.42.85-.16.3-.31.57-.45.79-.14.22-.25.34-.33.34-.08,0-.09-.19-.04-.58.11-.71.3-1.09.57-1.15.23-.01.4-.16.5-.44ZM177.82,233.39c.06-.32.13-.64.23-.98.1-.34.18-.57.25-.69.07-.12.2-.52.4-1.2.19-.68.4-1.47.62-2.38.18-.87.42-1.88.72-3.03.3-1.15.56-2.12.79-2.92.22-.79.4-1.47.52-2.02.12-.55.16-.85.12-.89-.12-.03-.16-.14-.11-.32.05-.18.15-.29.3-.34.08,0,.22-.33.44-.96.21-.64.45-1.42.71-2.33.26-.91.47-1.66.65-2.24s.23-.82.16-.74c-.07.16-.2.25-.39.26-.2-.07-.23,0-.11.18,0,.08,0,.18-.04.29-.03.12-.08.22-.16.3-.07.12-.14.28-.21.48-.07.2-.12.38-.14.54-.09.36-.21.64-.36.84-.15.13-.22.29-.21.48.01.2-.03.51-.12.95-.06.32-.11.5-.14.54-.04.04-.1-.01-.19-.17-.09-.11-.22.09-.4.61-.18.52-.5,1.57-.95,3.16-.32,1.15-.58,2.13-.79,2.92-.21.79-.3,1.23-.3,1.31.04.04.11-.1.21-.42.13-.36.22-.52.26-.49.04.04.03.21-.03.53-.06.32-.15.69-.28,1.13-.57,2.26-1.02,4.32-1.35,6.17-.33,1.86-.48,3.16-.44,3.89l.05.82.06-1c.02-.27.05-.64.08-1.09s.07-.85.13-1.21ZM178.04,229.22c-.03.12-.07.24-.1.36-.03.12-.05.22-.04.29.04.04.11-.07.22-.31.1-.32.14-.54.13-.65-.01-.2-.08-.09-.21.31ZM178.28,228.38c-.03.2.01.23.12.11.07-.2.08-.32.04-.35-.12-.11-.18-.03-.16.24ZM178.7,226.6c-.07.16-.1.32-.09.47.04.04.1,0,.17-.13.06-.24.09-.4.09-.47,0-.12-.06-.07-.17.13ZM196.47,183.68c.35-.69.67-1.37.96-2.05.29-.68.47-1.14.53-1.38.11-.2.2-.43.28-.69.08-.26.16-.47.23-.63.07-.2.08-.28.04-.24-.04.04-.11.15-.21.33-.1.18-.22.41-.34.67-.12.26-.23.51-.33.75-.07.2-.2.49-.39.87-.19.38-.38.74-.55,1.06-.18.33-.44.88-.78,1.66-.34.78-.69,1.56-1.03,2.32-.34.8-.65,1.51-.92,2.14-.28.62-.45.97-.52,1.06-.07.12-.17.35-.28.69-.12.34-.24.69-.38,1.05-.1.32-.22.67-.38,1.05s-.28.65-.39.81c-.11.2-.2.41-.28.63-.08.22-.16.41-.23.57-.23.79-.45,1.24-.68,1.33-.08,0,.02-.33.29-1.01.1-.24.22-.55.35-.93.13-.38.25-.71.35-.99.1-.28.19-.55.27-.81.08-.26.16-.45.23-.57.07-.08.14-.21.21-.39.07-.18.13-.33.21-.45.13-.4.25-.72.35-.96.14-.32.13-.44-.02-.35-.16,0-.23.13-.21.37-.06.28-.13.42-.21.42-.04,0-.11.11-.21.31-.11.2-.21.46-.31.78-.1.32-.26.77-.47,1.35-.22.58-.43,1.15-.63,1.71-.85,2.08-.98,2.75-.4,2.02.22-.29.32-.35.31-.2,0,.16-.14.46-.38.9-.11.2-.23.47-.36.81-.14.34-.25.67-.35.99-.1.28-.19.52-.28.72-.08.2-.15.3-.19.3-.08,0-.09-.1-.05-.32.05-.22.19-.61.43-1.17.24-.52.39-.95.45-1.29.06-.33,0-.38-.18-.13-.04.08-.19.49-.45,1.23-.27.74-.59,1.64-.98,2.7-.38,1.06-.78,2.2-1.2,3.41-.41,1.22-.81,2.35-1.2,3.41-.38,1.06-.7,1.96-.95,2.69-.25.74-.37,1.17-.36,1.28-.06.32-.04.43.05.35.09-.08.2-.34.33-.78.12-.52.23-.74.31-.66.04.04.06.13.05.29-.01.16-.04.34-.08.56-.05.22-.1.43-.17.62-.07.2-.13.36-.21.48-.11.12-.16.26-.15.42.01.2-.09.47-.3.84-.07.16-.14.32-.21.48-.07.16-.08.28-.04.35,0,.08-.03.19-.1.33-.07.14-.14.31-.2.51-.21.36-.31.66-.3.9,0,.08-.03.27-.11.56-.08.3-.17.6-.27.9-.1.3-.2.56-.3.78-.1.22-.18.31-.22.28-.04-.08,0-.35.12-.83.13-.48.29-1.03.48-1.67.2-.64.38-1.21.54-1.73.16-.52.24-.83.24-.95.02-.31,0-.39-.07-.23s-.22.6-.45,1.32c-.23.72-.55,1.77-.95,3.16-.4,1.39-.93,3.18-1.58,5.37-.42,1.47-.8,2.94-1.14,4.41-.34,1.47-.62,2.83-.83,4.09-.22,1.26-.35,2.39-.41,3.36-.06.98-.05,1.7.01,2.17.06.42.12.58.17.46.05-.12.06-.43.03-.94-.02-.39-.02-.9.02-1.52.04-.63.1-1.26.18-1.89.08-.63.17-1.17.28-1.63s.2-.69.28-.69c.16,0,.2.07.13.22-.23,1.3-.4,2.39-.5,3.25-.1.87-.1,1.28.02,1.23.04,0,.12-.32.23-.95.02-.24.05-.44.08-.62.03-.18.07-.38.11-.59.05-.22.1-.47.16-.77.06-.3.15-.68.28-1.16.06-.28.13-.61.2-1.01.07-.39.12-.75.14-1.06.03-.16.13-.59.3-1.31.17-.71.4-1.58.69-2.59.29-1.01.59-2.1.92-3.25.32-1.15.63-2.25.94-3.28.31-1.03.58-1.95.83-2.75.24-.8.42-1.33.52-1.61.07-.2.13-.38.2-.54.07-.16.1-.26.1-.3,0-.04.09-.37.29-.99.2-.62.42-1.3.66-2.06.25-.76.48-1.46.69-2.12.21-.66.34-1.03.37-1.11.03-.08.14-.4.32-.96.18-.56.4-1.22.67-1.97.27-.76.5-1.44.7-2.04.2-.6.31-.94.35-1.02.03-.08.13-.32.28-.72.15-.4.33-.86.53-1.38.67-1.8,1.24-3.33,1.71-4.59.47-1.26.83-2.15,1.07-2.67.14-.32.34-.83.61-1.53.27-.7.54-1.39.81-2.07.27-.68.62-1.51,1.05-2.5.43-.98.8-1.82,1.11-2.5ZM178.89,225.94c-.03.2.01.23.12.11.07-.2.08-.32.04-.35-.12-.11-.18-.03-.16.24ZM181.21,201.49c.21-.36.41-.68.59-.94.18-.26.29-.38.33-.34.04.04-.02.19-.18.45-.16.26-.37.56-.62.89l-.86,1.28.74-1.33ZM180.75,219.97s.06-.37.28-1.13c.22-.79.4-1.12.53-.97.04.08.09.14.13.2.04.06.07.12.07.2,0,.08-.05.06-.18-.05-.09-.15-.25.09-.48.73-.06.28-.12.52-.19.71-.07.2-.12.3-.16.3ZM182.09,221.71c.07-.04.12,0,.15.11.03.12-.02.22-.13.3-.07.08-.1.24-.09.47.09.23.06.35-.09.36h-.12s-.06.01-.06.01c-.05-.15-.02-.4.07-.74.1-.34.18-.51.26-.51ZM182.2,198.61l.32-.6c.21-.36.31-.62.3-.78,0-.08-.03-.1-.06-.05-.04.04-.14.28-.31.72l-.25.72ZM182.72,219.62c.23-.09.24.12.04.64-.18.32-.3.48-.38.46-.08-.01-.07-.18.03-.5.09-.4.2-.6.32-.61ZM182.49,199.42c.06-.24.18-.46.34-.66.16-.21.25-.25.26-.13s-.1.34-.31.66c-.29.41-.38.45-.29.13ZM183.22,211.33c-.14.2-.19.35-.15.45.04.09.16.1.35,0,.23-.09.35-.1.35-.02.05.19.11.21.18.05.07-.16.2-.54.4-1.14.42-1.35.38-1.86-.15-1.51-.15.05-.21.01-.18-.11.07-.16.18-.25.34-.25.16,0,.19-.17.09-.47-.01-.19-.04-.26-.1-.2-.05.06-.17.31-.33.75-.24.56-.37.92-.4,1.08-.03.16.05.19.24.1.11-.08.06-.02-.16.19-.18.28-.26.48-.26.6,0,.16-.06.32-.2.48ZM183.35,208.74c-.07.08-.11.18-.1.3.1.31.17.24.22-.19,0-.15-.05-.19-.12-.11ZM184,210.81s.02-.24.19-.72c.07-.12.11-.22.13-.3.02-.08.04-.16.07-.24.04-.04.07-.1.11-.18.04,0,.03.08-.02.24s-.1.33-.15.51c-.05.18-.11.34-.17.48-.07.14-.12.21-.16.22ZM184.75,212.46c0-.12-.07-.13-.18-.05-.07.08-.11.18-.1.3,0,.16.07.17.18.05.07-.16.1-.26.1-.3ZM185.09,202.72c-.12.05-.17.15-.16.3.09.31.17.24.22-.19.03-.08.04-.14.02-.18s-.05-.02-.08.06ZM185.53,206.03c-.12-.07-.25.08-.38.46-.13.38-.17.72-.11,1.03.01.19.03.33.05.41.02.08.07.05.14-.1.07-.14.18-.43.33-.87.15-.44.37-1.08.67-1.92.36-1.08.65-1.9.87-2.48.22-.58.37-1.01.45-1.29.08-.28.12-.44.12-.48,0-.04-.02-.04-.06,0-.29.29-.26-.08.11-1.12.2-.6.28-.92.26-.98-.02-.06-.16.18-.4.7-.17.44-.3.85-.39,1.23-.09.38-.07.52.09.43.03-.08.07-.11.11-.09.04.02.06.04.06.08,0,.04-.06.25-.2.63-.13.38-.29.77-.46,1.17-.17.4-.33.75-.49,1.05-.16.3-.24.44-.24.4-.01-.2.04-.32.15-.36.07-.16.1-.28.1-.36-.01-.2-.09-.13-.22.19-.14.24-.17.46-.08.65.13.23.12.47-.04.74-.16.26-.32.34-.48.23-.2-.11-.28-.1-.23.01,0,.08.07.17.19.28.08,0,.16.07.25.22,0,.08-.05.12-.17.13ZM189.05,200.42s0,.14-.09.44c-.1.3-.22.68-.37,1.14-.15.46-.32.97-.52,1.53-.2.56-.4,1.08-.61,1.56-.16.52-.33,1-.5,1.44-.17.44-.25.72-.24.83s-.02.27-.09.45c-.07.18-.14.35-.23.51-.09.16-.17.29-.24.39-.07.1-.11.12-.12.04,0-.04.01-.13.04-.27.03-.14.1-.39.22-.75.11-.36.29-.86.52-1.5.23-.64.55-1.5.96-2.58.34-.88.62-1.64.86-2.28.23-.64.37-.96.41-.96ZM186.41,199.35c-.12,0-.17.07-.16.19.05.11.1.13.18.05l.11-.12s.06-.02.05-.06c0-.12-.07-.13-.18-.05ZM188.33,197.3c-.11.12-.14.26-.09.42.01.23.07.23.17-.01.07-.16.1-.3.09-.42,0-.04-.02-.07-.06-.08-.04-.02-.08.01-.11.1ZM188.95,195.8c-.06.24-.09.37-.06.38.02.02.08-.07.19-.27s.15-.38.14-.54c-.05-.19-.14-.05-.27.43ZM189.9,193.11c-.16-.11-.2-.07-.11.12.13.15.23.2.3.16,0-.08-.07-.17-.19-.28ZM191.35,190.09c-.16-.03-.24,0-.26.1s.04.2.17.31c.2.14.39-.02.56-.5.12-.51.05-.74-.22-.69-.08,0-.11.14-.09.42.05.27,0,.39-.15.36ZM193.17,189.1l.26-.49c.07-.16.14-.32.21-.48.07-.16.14-.3.21-.42.1-.28.08-.32-.07-.11-.07.08-.14.19-.21.34-.07.14-.14.31-.2.51l-.19.66ZM194.8,185.13s-.1.09-.19.28c-.09.18-.17.38-.26.6-.08.22-.16.43-.23.63-.07.2-.1.32-.1.36.01.19.19-.11.53-.91.23-.64.31-.96.24-.95ZM195.56,180.4s-.12.09-.25.28c-.13.18-.24.39-.34.64-.1.24-.19.48-.25.72-.06.24-.09.42-.08.53.01.2.07.27.16.23s.19-.19.3-.43c.07-.12.17-.32.31-.61.14-.28.28-.58.41-.9.27-.64.34-.88.19-.72-.22.25-.37.34-.45.26ZM196.94,180.9c.31-.6.5-1,.54-1.18.05-.18.03-.27-.04-.26-.04,0-.2.28-.48.82-.28.54-.57,1.15-.88,1.81-.31.66-.59,1.28-.83,1.84-.24.56-.36.88-.35.96,0,.08.06.02.17-.16.11-.18.35-.67.73-1.48.17-.36.37-.77.6-1.24.23-.46.41-.84.55-1.12ZM195.84,179.15c-.22.21-.29.39-.2.54.08.07.2,0,.34-.2.22-.25.33-.31.34-.2.09.11.18.03.28-.25.13-.36.11-.4-.07-.11-.15.17-.22.19-.23.07-.05-.11-.2-.06-.46.15ZM196.69,177.81c-.07.12-.1.18-.08.18.02,0,.07-.04.14-.12.18-.21.22-.31.1-.3-.12-.11-.18-.03-.16.25ZM198.58,174.12c-.14.24-.31.54-.5.88s-.37.67-.53.97c-.16.3-.29.57-.39.82-.1.24-.15.38-.15.42,0,.08.03.06.08-.06.05-.12.32-.64.81-1.57.53-.97.84-1.57.94-1.82.1-.24.01-.12-.27.37Z"/><path class="cls-2" d="M237.73,206.94c.19-.01.3.14.32.45.01.23-.03.39-.12.48s-.31.18-.66.27c-.58.15-1.34.45-2.29.9-.95.45-1.95.98-3.01,1.59-1.06.61-2.11,1.27-3.16,1.98-1.05.71-2,1.42-2.86,2.14-.48.38-.86.69-1.12.92-.26.23-.45.44-.58.62s-.21.37-.26.54c-.05.18-.1.41-.16.68-.14.91-.42,2.08-.84,3.51-.42,1.43-.9,2.94-1.42,4.51-.53,1.58-1.08,3.12-1.65,4.64-.57,1.52-1.12,2.82-1.64,3.91-.38.77-.88,1.72-1.5,2.88-.61,1.15-1.26,2.33-1.95,3.55-.69,1.21-1.36,2.38-2.01,3.49s-1.23,2.04-1.73,2.77c-.68,1.06-1.44,2.11-2.3,3.16-.86,1.05-1.72,2.04-2.6,2.97-.88.93-1.73,1.75-2.54,2.47-.82.71-1.54,1.25-2.19,1.6-1.06.57-2.15.89-3.28.96-.51.03-.94,0-1.3-.1-.24-.06-.52-.23-.85-.5-.33-.27-.66-.6-1-.96-.33-.37-.64-.77-.92-1.2-.28-.43-.49-.82-.63-1.16-.14-.38-.25-.81-.34-1.3s-.16-.96-.2-1.42c-.05-.47-.05-.87-.02-1.2.04-.33.11-.56.22-.69.26-.21.26-.31-.02-.29-.23.01-.35-.06-.36-.21-.01-.19.06-.56.23-1.1.16-.54.37-1.15.62-1.82.25-.68.55-1.4.89-2.16.34-.76.67-1.49.98-2.17.17-.36.47-.91.9-1.64.42-.73.86-1.46,1.3-2.19.44-.73.83-1.38,1.17-1.95.34-.57.52-.85.56-.85.12,0,.11.15-.03.47-.02.27.22.07.72-.63.4-.57.85-1.17,1.35-1.81.51-.64,1.04-1.29,1.61-1.97.56-.68,1.13-1.34,1.7-1.98.57-.64,1.09-1.23,1.56-1.76.59-.58,1.19-1.22,1.82-1.9.62-.68,1.1-1.21,1.43-1.58.37-.38.75-.74,1.13-1.09.39-.36.68-.58.87-.67.19-.13.5-.37.95-.73.45-.36.87-.73,1.28-1.1.74-.71,1.49-1.36,2.25-1.95.76-.59,1.71-1.3,2.83-2.11.67-.55,1.05-1.02,1.14-1.42.03-.16.08-.43.16-.83.07-.39.13-.81.19-1.24.15-.67.26-1.28.33-1.81.07-.53.11-1.08.13-1.65.02-.57.03-1.16,0-1.79-.02-.62-.05-1.36-.11-2.22-.07-1.17-.16-2.22-.28-3.15-.12-.93-.28-1.88-.5-2.84-.22-1.12-.42-2-.6-2.66-.18-.65-.34-1.15-.5-1.49-.16-.34-.33-.57-.51-.67-.18-.11-.39-.15-.62-.14-.27.02-.61-.06-1.01-.23.05.11.08.33.1.64.14.93.09,1.78-.14,2.56-.23.77-.69,1.85-1.39,3.22-.49.93-.87,1.71-1.15,2.35-.27.64-.4,1.06-.39,1.25,0,.12-.1.45-.32.99-.22.54-.5,1.15-.83,1.84-.33.68-.68,1.37-1.05,2.06-.37.69-.69,1.25-.98,1.7-.18.24-.42.64-.72,1.19-.3.55-.59,1.08-.87,1.61-.49.89-1.13,1.93-1.92,3.13-.79,1.2-1.63,2.41-2.53,3.61-.9,1.21-1.83,2.32-2.78,3.33-.95,1.02-1.86,1.8-2.73,2.36-.72.39-1.39.61-2.01.65-.58.04-1.24-.16-1.97-.58-.89-.53-1.57-1.14-2.04-1.84-.47-.69-.84-1.6-1.1-2.72-.17-.85-.24-1.79-.2-2.83.03-1.04.21-2.44.53-4.22.09-.47.18-.93.27-1.36.09-.43.22-.94.38-1.52.16-.58.34-1.27.55-2.08.21-.81.49-1.82.84-3.01.06-.24.25-.8.57-1.68.32-.88.66-1.8,1.03-2.76.37-1,.69-1.89.98-2.67.29-.78.42-1.25.41-1.4,0-.16.05-.45.18-.89.13-.44.31-.94.55-1.5.24-.56.5-1.16.77-1.8.27-.64.57-1.24.89-1.81l2.48-4.49c.1-.24.23-.39.38-.46.15-.07.44-.12.87-.14.43-.03.7-.02.82,0,.12.03.22.14.31.33.06.31.3.39.72.25.46-.15.64-.08.54.2-.06.24-.04.35.08.35.19-.01.34.15.44.5s.08.64-.06.88c-.07.12-.16.35-.28.69-.12.34-.24.71-.37,1.11-.1.36-.28.88-.55,1.56-.27.68-.55,1.3-.82,1.87-.28.6-.62,1.36-1.03,2.26-.42.9-.76,1.7-1.03,2.38-.27.68-.56,1.38-.87,2.1-.31.72-.55,1.24-.72,1.57-.21.44-.47,1.18-.8,2.22s-.67,2.16-1.02,3.37c-.36,1.21-.69,2.44-1.01,3.67-.32,1.23-.56,2.26-.75,3.09-.12.52-.25,1.15-.38,1.9-.13.75-.23,1.47-.31,2.16-.08.69-.14,1.28-.18,1.77-.05.49-.05.75-.01.79.16,0,.46-.22.93-.64.46-.42,1-.95,1.6-1.59.61-.64,1.23-1.34,1.86-2.11.64-.76,1.23-1.47,1.77-2.13s.99-1.23,1.33-1.72c.34-.49.51-.77.5-.85,0-.04.09-.17.27-.4.18-.22.4-.5.65-.83.51-.62,1.2-1.61,2.07-2.97.87-1.36,1.77-2.85,2.69-4.47.71-1.21,1.01-1.96.92-2.22-.13-.26-.12-.3.05-.12.13.19.39-.08.77-.81.52-1.05.87-1.77,1.04-2.17.17-.4.25-.68.24-.83,0-.08.09-.32.28-.72.19-.4.42-.87.68-1.39.26-.52.54-1.06.84-1.6.3-.55.57-1.02.82-1.43-.09-.19-.11-.35-.06-.49.05-.14.18-.39.39-.76.43-.61.82-.93,1.17-.95.42-.1.69-.22.8-.34.18-.17.35-.08.48.26.14.38.33.57.56.55.08,0,.24.11.49.35.25.24.5.53.76.86.59.67,1.17,1.7,1.74,3.09.57,1.39,1.04,2.83,1.41,4.34.16.66.31,1.41.46,2.26.15.85.28,1.71.39,2.58.11.87.19,1.7.24,2.47.05.78.07,1.4.06,1.87,0,1.13.04,1.68.16,1.63.08,0,.34-.16.79-.46.45-.3.98-.62,1.58-.97,1.43-.91,2.28-1.37,2.55-1.39.12,0,.03.14-.27.43-.26.21-.36.32-.3.31.06,0,.35-.12.89-.35.53-.23.94-.44,1.22-.63.28-.19.36-.28.25-.28-.08,0-.25.05-.52.15s-.44.16-.51.21c-.15.09-.23.05-.24-.1,0-.08.15-.19.48-.35.32-.15.71-.33,1.17-.51.38-.18.7-.32.97-.41s.53-.17.78-.22c.25-.05.52-.09.81-.11.29-.02.63-.02,1.03,0,.9.02,1.53.09,1.89.21.36.12.51.31.45.59-.03.24.06.35.25.34ZM193.9,220.28c.22-3.53.99-7.17,2.32-10.92.13-.36.24-.68.32-.96.08-.28.12-.46.11-.53-.01-.19-.1-.26-.28-.19-.17.07-.35.25-.52.53-.25.37-.44.44-.57.21-.13-.19-.32.14-.58.97-.7,2.54-.99,3.95-.86,4.21.09.19.04.33-.15.42-.08.04-.17.32-.27.84-.1.51-.19,1.12-.27,1.83-.07.71-.13,1.41-.17,2.09-.04.69-.02,1.22.04,1.61.12,1.4.29,2.09.48,2.08.16,0,.29-.74.39-2.19ZM195.5,207.18c-.1.32-.12.53-.08.62s.14.04.28-.17c.18-.28.26-.5.25-.66,0-.15-.07-.21-.19-.16-.11.05-.2.17-.27.37ZM197.7,202c-.18.21-.38.52-.59.95-.21.42-.4.84-.57,1.26-.17.42-.3.81-.4,1.17-.1.36-.12.59-.07.71.14.34.21.34.23-.01-.01-.23.06-.35.21-.36.15,0,.24.06.25.22.08,0,.25-.4.51-1.17.27-.78.59-1.84.98-3.2.03-.12-.16.03-.56.44ZM196.29,253.71c.05.15.23.22.54.2.66-.04,1.55-.47,2.68-1.28.41-.34.88-.75,1.42-1.23.54-.48,1.01-.93,1.41-1.35.4-.42.89-.97,1.45-1.67.56-.7,1.13-1.42,1.71-2.16.58-.74,1.1-1.44,1.57-2.12.46-.67.82-1.23,1.07-1.68.89-1.46,1.51-2.43,1.87-2.9.36-.47.62-.75.77-.84.07-.04.28-.33.62-.86.34-.53.7-1.16,1.09-1.88.42-.81.86-1.72,1.33-2.75.46-1.02.9-1.99,1.32-2.89.41-.9.76-1.67,1.03-2.29.27-.62.39-.95.35-.99-.04,0-.13.12-.27.34-.14.22-.29.5-.45.82-.16.32-.3.64-.44.96-.14.32-.24.58-.3.78-.03.24-.09.36-.21.36-.04-.08,0-.29.11-.65.11-.36.25-.76.42-1.2.17-.44.34-.84.51-1.2s.3-.56.37-.61c.07-.08.21-.35.42-.79.21-.44.41-.98.6-1.62.37-1.08.62-1.84.77-2.3.15-.46.14-.68-.01-.67-.12,0-.6.39-1.45,1.14-1.12.93-2.34,2.07-3.66,3.42-1.32,1.35-2.62,2.75-3.9,4.19-1.28,1.45-2.48,2.88-3.61,4.29-1.12,1.42-2.04,2.67-2.76,3.77-.82,1.26-1.61,2.59-2.36,3.98-.76,1.4-1.43,2.72-2.01,3.99-.59,1.27-1.06,2.43-1.43,3.48-.37,1.06-.57,1.88-.61,2.47-.01.39-.02.75-.02,1.09,0,.33.02.53.07.61ZM216.74,231.78c.14-.24.36-.77.67-1.59s.61-1.68.93-2.58c.32-.9.59-1.72.81-2.48.23-.75.34-1.21.33-1.37-.12,0-.39.57-.83,1.69-.2.56-.47,1.16-.8,1.81-.33.65-.62,1.17-.87,1.58-.29.37-.55.78-.78,1.22-.23.44-.39.81-.49,1.08-.06.24-.15.45-.25.63-.11.18-.18.28-.22.28-.12,0-.17.13-.15.36.01.2-.06.3-.22.3-.2.01-.23.07-.11.18,0,.04-.03.19-.09.44-.06.26-.15.52-.27.78-.12.26-.23.5-.34.72-.1.22-.2.33-.27.34-.12,0-.17.13-.15.36.02.27-.04.35-.16.24-.12-.07-.18.01-.16.24.09.23.04.35-.15.36-.2.01-.25.11-.16.3.04.11.03.3-.05.56-.08.26-.21.53-.39.82-.18.28-.3.52-.37.7-.07.18-.06.27.02.26.12,0,.18.11.2.34.01.2-.07.44-.25.75-.18.3-.36.46-.56.47-.08,0-.09-.05-.04-.17s.15-.24.3-.37c.25-.37.31-.61.19-.72-.12-.07-.3.14-.55.62-.31.68-.54.81-.68.39-.09-.23-.21-.12-.33.31-.21.4-.19.48.07.23.18-.21.29-.22.32-.05.03.17-.06.48-.27.92-.17.44-.38.57-.62.39-.21-.18-.36-.16-.46.09-.24.56-.75,1.39-1.55,2.5-.79,1.1-1.66,2.24-2.6,3.41-.94,1.17-1.87,2.27-2.79,3.3-.91,1.03-1.63,1.76-2.15,2.18-.33.29-.74.58-1.21.87-.47.28-.86.47-1.17.57-.65.23-1.02.39-1.11.48-.09.08-.05.22.11.4.21.22.53.32.96.29.43-.03.92-.17,1.47-.44.55-.27,1.09-.57,1.61-.92.52-.35,1.02-.72,1.48-1.12.46-.4.84-.76,1.13-1.09.41-.38.76-.7,1.05-.97.3-.27.48-.41.56-.42.16.11.28.08.35-.08.03-.16-.01-.23-.13-.23-.08,0,0-.17.23-.51.23-.35.55-.77.95-1.26.4-.49.87-1.11,1.41-1.84.54-.74,1.01-1.39,1.4-1.96.35-.57.68-1.05.97-1.44.29-.39.47-.58.55-.59.16.07.2.03.11-.12-.04-.08.11-.47.45-1.2.35-.72.8-1.59,1.36-2.6.53-.97,1-1.88,1.42-2.72s.66-1.37.72-1.57c.07-.2.17-.45.31-.75.14-.3.28-.55.42-.76.14-.2.26-.4.35-.58.08-.18.13-.29.13-.33,0-.04.04-.15.12-.33.09-.18.18-.39.28-.63ZM203.73,233.63c.12,0,.23-.13.33-.37.18-.21.23-.31.16-.3-.12,0-.23.11-.33.31l-.15.36ZM204.99,232.14l.87-1.05c.33-.37.53-.62.6-.74.11-.12.2-.23.27-.31-.01-.19-.12-.19-.32.02-.2.21-.45.53-.73.98l-.7,1.1ZM219.58,216.72s-.14.07-.31.2c-.17.13-.44.34-.81.63-.37.3-.88.71-1.51,1.24-.63.53-1.43,1.21-2.39,2.05-1.3,1.13-2.67,2.43-4.13,3.88-1.46,1.46-2.77,2.84-3.94,4.17-.84.95-1.2,1.42-1.09,1.41.08,0,.24-.12.48-.35.24-.23.5-.49.77-.78.28-.29.54-.57.8-.84.26-.27.4-.42.44-.47.66-.74,1.11-1.08,1.34-1.02.28.06.47,0,.57-.21.18-.25.17-.36-.02-.35-.16,0-.1-.18.17-.57.27-.39.61-.75,1.02-1.09.3-.25.51-.36.65-.33.14.03.1.21-.11.53l-.16.3.27-.31c.26-.29.5-.44.73-.46.47-.03.49-.22.08-.59-.17-.18-.13-.42.1-.71.24-.29.86-.85,1.86-1.7,1.04-.88,1.89-1.61,2.56-2.18s1.2-1.02,1.59-1.36c.39-.33.66-.59.8-.75.14-.16.22-.29.21-.37ZM207.66,249.03c.18-.28,0-.16-.5.38-.22.25-.41.47-.57.68-.16.21-.24.33-.24.37.04,0,.11-.06.22-.16.11-.1.24-.24.39-.4.15-.17.29-.32.44-.47.15-.14.24-.28.27-.4ZM214.45,199.93c.38-.76.68-1.4.91-1.9.22-.5.3-.75.22-.74-.11.12-.26.37-.45.73-.19.36-.41.77-.66,1.21-.25.45-.48.9-.71,1.36s-.41.85-.54,1.17c-.13.36-.46,1.01-.96,1.96-.51.95-1.05,1.89-1.62,2.82-1.41,2.47-2.08,3.7-2,3.7.12,0,.78-.95,2-2.82.36-.57.72-1.17,1.09-1.8.37-.63.64-1.12.82-1.48.17-.36.44-.95.8-1.78.36-.82.73-1.63,1.11-2.44ZM210.57,225.59c0,.16.09.19.24.1.11-.12.16-.21.16-.24,0-.08-.07-.11-.18-.11-.16,0-.23.09-.22.25ZM212.93,223.93c.16,0,.19-.09.1-.24-.17-.15-.29-.22-.36-.21-.12,0-.13.09-.04.24.09.15.19.22.31.22ZM213.35,223.14c-.2-.07-.26-.02-.17.13.09.15.19.2.3.16.11-.04.3-.19.56-.44.22-.21.33-.32.33-.34,0-.02-.1-.02-.29-.01-.27-.02-.4.08-.39.32,0,.16-.1.22-.34.2ZM213.84,238.87c.14-.32.17-.46.09-.42-.08.04-.2.25-.37.61-.11.16-.18.29-.21.39-.03.1-.01.11.06.03.08-.04.15-.13.22-.25.07-.12.14-.24.21-.36ZM215.48,194.71c.1-.2.21-.4.31-.6s.21-.38.32-.55c-.17-.15-.29-.28-.37-.39-.18.28-.35.63-.52,1.03s-.32.77-.46,1.11c-.14.34-.23.63-.3.87-.06.24-.08.36-.04.35.04,0,.15-.18.35-.55.19-.36.43-.79.71-1.27ZM215.8,221.05c-.23.09-.35.17-.37.23s.07.08.27.07c.19-.01.33-.1.39-.26.11-.12,0-.14-.3-.04ZM216.58,220.42c.01.2.09.24.24.13.15-.11.33-.32.55-.65l.42-.73-.61.51c-.41.38-.61.62-.6.74Z"/></svg>