<?xml version="1.0" encoding="UTF-8"?><svg id="Calque_1" xmlns="http://www.w3.org/2000/svg" viewBox="0 0 325.34 280.53"><defs><style>.cls-1{fill:#f8e7ff;}.cls-2{fill:#ffa187;}</style></defs><circle class="cls-2" cx="172.07" cy="139.29" r="135.07"/><path class="cls-1" d="M253.62,179.23c-3.42-5.65-8.42-10.04-14.54-11.7-6.38-2.55-12.53.3-13.34,7.03-.3,4.03,2.82,7.27,5.85,9.7,6.41,5.46,17.12,6.99,25.24,4.28.52-.36.5-.94.37-1.54-.63-2.5-2.09-5.2-3.39-7.47l-.18-.3Z"/><path class="cls-1" d="M265.22,156.44c-6.65-4.15-15.73-1.1-22.12,1.79-.14.98,1.64,2.31,2.89,3.89,3.61,3.96,7.95,8.12,13.45,8.72,6.98,1.42,10.57-10.17,6.01-14.21l-.23-.18Z"/><path class="cls-1" d="M240.05,196.11c-3.61-2.79-11.54-4.6-15.69-5.09-.22.05-.45.1-.45.4.64,6.85,5.02,24.32,15.11,19.15,6.13-3.88,7.68-9.81,1.29-14.27l-.25-.19Z"/><path class="cls-1" d="M179.51,206.59c-3.57-6.72-14.23-4.98-15.68,2.52-2.63,8.31-.7,16.5,4.21,23.67,1.15,1.49,2.57,4.02,4.21,4.47,1.59-.49,3.82-4.13,4.98-5.9,4.49-6.98,6.25-16.59,2.44-24.47l-.16-.29Z"/><path class="cls-1" d="M218.27,200.14c-4.32-6.45-11.36-11.04-17.51-3.44-1.77,2.5-1.5,5.69-.73,8.51,1.85,7.92,7.78,13.74,14.96,17.17,1.32.65,2.55,1.15,3.92,1.58,1.1.32,2.11.62,2.58-.57.4-1.08.58-2.3.7-3.23.87-6.43,0-14.63-3.74-19.75l-.18-.26Z"/><path class="cls-1" d="M201.44,220.12c-2.35-3.41-6.7-7.95-10.18-10.06-.14,0-.26.04-.37.17-2.33,5.63-4.82,13.18-2.86,19.25,1.14,5.03,6.09,6.07,10.47,4.33,6.81-2.04,6.07-8.5,3.12-13.4l-.17-.28Z"/><path class="cls-1" d="M155.36,215.76c-.54-1.79-1.05-3.3-1.63-4.8-.39-.94-.5-1.08-1.2-.57-1.34,1.02-2.72,2.22-4.19,3.59-8.33,6.86-12.94,20.37,2.48,20.48,8.18-1.14,6.67-12.51,4.65-18.37l-.1-.33Z"/><path class="cls-1" d="M117.59,179.39c3.93-6.11-2.93-14.54-9.86-12.33-8.44,1.48-14.92,7.52-18.54,15.07-.77,1.75-2.09,4.04-1.91,5.9.4.99,2.02,1.04,2.98,1.29,3.2.5,6.61.6,9.83.2,6.9-.76,13.32-4.26,17.33-9.85l.17-.28Z"/><path class="cls-1" d="M144.77,201.3c.4-5.31-5.86-9.99-10.82-8.3-9.93,4.51-13.42,16.94-11.95,27.1.55,4.73,1.33,4.7,5.52,2.97,8.86-3.54,16.57-11.68,17.24-21.44v-.33Z"/><path class="cls-1" d="M114.05,192.26c-5.67,1.26-15.24,4.85-13.96,12.19.5,2.1,2.57,4.58,4.65,6,7.24,5.04,13.04-5.1,14.31-11.21.58-2.47,1.36-5.01,1.44-7.3-.03-.78-.54-.76-1.69-.63-1.32.16-3.03.54-4.39.87l-.34.08Z"/><path class="cls-1" d="M96.61,164.07c1.06-1.09,2.33-2.41,3.37-3.61,1.04-1.24,1.8-2.01,1.04-2.41-6.3-2.32-13.5-5.07-20.18-2.47-7.53,2.47-3.62,16.79,4.15,15.35,4.46-.54,8.18-3.36,11.41-6.63l.22-.23Z"/><path class="cls-1" d="M90.68,99.42c3.42,5.64,8.42,10.03,14.54,11.7,6.38,2.55,12.53-.3,13.34-7.02.31-3.9-2.72-7.16-5.56-9.47-6.77-5.84-17.35-7.19-25.62-4.51-.52.36-.5.94-.37,1.53.66,2.5,2.19,5.2,3.48,7.47l.18.3Z"/><path class="cls-1" d="M89.06,148.32c7.48,1.85,20.75.23,19.84-9.82-.55-8.88-13.66-9.72-20.37-8.01-5.11,1.33-11.01,4.82-14.3,8.25-.6.68-.03,1.11,1.42,2.42,3.59,2.98,8.51,5.82,13.08,7.08l.33.09Z"/><path class="cls-1" d="M79.1,122.21c4.93,3.23,11.07,1.99,16.42.37,1.85-.55,2.83-.88,4.43-1.46,1.08-.42,1.56-.57,1.41-.97-.84-1.44-2.78-3.37-4.02-4.73-4.21-4.78-14.02-12.05-18.79-4.4-1.79,3.14-2.68,8.62.32,11l.23.18Z"/><path class="cls-1" d="M104.26,82.56c3.21,2.54,9.36,3.84,13.18,4.56.75.03,2.71.78,2.77-.35-.77-6.94-4.98-24.12-15.11-19.01-6.46,4.09-7.45,10.08-1.08,14.62l.24.18Z"/><path class="cls-1" d="M164.79,72.04c2.48,5.11,10.89,5.66,14.01,1.01,6.21-10.01,1.46-23.86-6.1-31.43-1.34-1.9-5.71,5.78-6.48,7.07-3.98,6.81-5.06,15.79-1.58,23.05l.16.29Z"/><path class="cls-1" d="M126.03,78.5c3.83,5.7,10.36,10.72,16.55,4.56,2.95-2.81,2.61-6.83,1.37-10.7-1.69-6.49-6.83-11.91-12.91-15.19-2.32-1.13-4.96-2.79-7.49-2.7-.62.21-.84.99-1.01,1.63-.55,2.35-.69,4.58-.73,7.27-.11,4.98,1.32,11.17,4.04,14.87l.18.26Z"/><path class="cls-1" d="M148.36,64.7c1.37,1.28,2.58,2.32,3.86,3.32.81.61.96.62,1.31-.19.63-1.58,1.2-3.29,1.78-5.23,3.76-10.08,1.14-24.28-12.32-16.54-6.5,5.25.44,14.17,5.12,18.39l.25.24Z"/><path class="cls-1" d="M188.94,62.88c.43,1.4.92,2.77,1.49,4.21.4.98.67,1.61,1.11,1.4,1.58-1.01,2.91-2.34,4.52-3.79,8.32-6.87,12.95-20.43-2.48-20.53-8.23,1.06-6.56,12.91-4.74,18.41l.09.31Z"/><path class="cls-1" d="M226.7,99.26c-3.59,5.43,1.91,13.66,8.41,12.53,10.83-1.13,20-10.74,21.99-21.39-.2-.69-1.21-.9-1.93-1.07-1.8-.39-3.51-.54-5.39-.62-8.75-.56-17.88,3.02-22.9,10.27l-.18.28Z"/><path class="cls-1" d="M199.53,77.35c-.4,5.31,5.86,9.99,10.82,8.3,9.93-4.51,13.42-16.94,11.95-27.1-.55-4.73-1.33-4.7-5.52-2.97-8.86,3.54-16.57,11.68-17.24,21.44v.33Z"/><path class="cls-1" d="M262.6,133.38c-5.69-3.18-12.86-4.67-19.22-2.81-6.01,1.07-9.76,6.29-7.5,12.36,3.04,6.31,13.58,6.9,19.79,5.34,5.15-1.36,10.71-4.66,14.17-8.11,1.85-1.52-5.54-5.76-6.93-6.6l-.32-.18Z"/><path class="cls-1" d="M230.25,86.38c5.66-1.26,15.24-4.85,13.96-12.19-.5-2.1-2.57-4.58-4.65-6-5.07-3.95-10.59,1.42-12.54,6.19-1.54,3.83-2.72,8.47-3.17,12.37.01.75.5.77,1.66.6,1.32-.18,3.03-.56,4.39-.89l.34-.08Z"/><path class="cls-1" d="M246.75,115.61c-5.05,5.76-5.42,4.66,1.99,7.06,10.1,3.78,24.39,1.36,16.61-12.22-5.06-6.39-14.22.19-18.37,4.91l-.23.25Z"/><path class="cls-1" d="M176.94,149.57c-1.18-2-2.9-5.43-5.04-5.23-1.23.09-2.24,1.49-2.92,2.57-2.86,4.56-5.32,10.1-7.07,14.94-2.37,6.57-2.12,13.71.49,20.18,1.68,4.31,5.22,9.82,8.99,12.42,2.31,1.01,4.5-2.51,5.97-3.99,10.4-12.66,7.55-27.52-.25-40.58l-.17-.31Z"/><path class="cls-1" d="M211.39,161.4c-6.11-2.94-14.23-3.34-20.82-5.54-.48-.1-1.44-.53-1.9.07-.31.51.19,1.94.29,2.3,2.7,8.13,2.6,17.77,8.47,24.48,5.65,7.05,15.24,1.27,19.13-4.75,4.99-7,2.28-12.84-4.88-16.4l-.28-.15Z"/><path class="cls-1" d="M130.54,181.19c9.64,9.85,18.48,3.82,21.36-7.9,1.25-5.51,2.15-10.77,3.77-16.08.61-2.09-1.58-1.22-2.52-.96-4.67,1.45-9.32,2.16-14.12,3.3-11.92,2.68-18.82,11.25-8.74,21.39l.26.26Z"/><path class="cls-1" d="M167.36,129.09c1.53,2.86,4.38,7.64,7.16,3.8,4.22-6.53,7.84-13.98,9.26-21.69,1.43-9.77-2.77-21.01-10.85-27.01-1.47-.77-2.98.85-4.07,1.94-1.5,1.53-2.82,3.22-3.95,5.04-8,11.89-4.55,26.05,2.29,37.61l.17.31Z"/><path class="cls-1" d="M166.96,140.3c2.29-4.07-14.57-10-17.51-11.23-11.26-4.1-25.98.07-32.64,10.16-.07,1.29,2.04,3,3.04,4.02,6.46,5.74,15.04,8.91,23.57,7.87,7.49-1.16,14.83-4.87,21.38-8.83.86-.57,1.59-1.15,2.04-1.78l.14-.21Z"/><path class="cls-1" d="M204.79,151.2c7.22-.09,15.21-3.68,20.4-8.73.82-.91,2.52-2.29,2.31-3.44-5.43-8.18-16.96-12.64-26.62-11.5-7.49,1.16-14.86,4.86-21.39,8.82-2.73,1.67-3.34,3.85-.37,5.64,7.42,4.49,16.31,9.2,25.32,9.21h.35Z"/><path class="cls-1" d="M154.68,118.22c-1.92-6.69-2.37-14.97-6.67-20.81-5.6-9.09-16.25-3.32-20.65,3.9-9.66,16.69,15.57,18.29,25.9,21.38,1.11.36,2.71.74,2.24-1.04-.27-1.36-.46-1.88-.74-3.11l-.08-.32Z"/><path class="cls-1" d="M213.78,97.43c-6.32-6.66-14.73-7.01-19.05,1.89-3.58,6.89-3.71,15.11-6.11,22.17-.47,1.88,1.68,1.21,2.5.95,4.68-1.45,9.34-2.16,14.15-3.31,11.95-2.67,18.86-11.3,8.76-21.44l-.26-.26Z"/><path class="cls-1" d="M223.65,160.03c4.9,2.97,11.04.83,15.95-1.07.3-.16.38-.33.21-.62-3.42-4.1-8.85-10.58-14.66-8.25-2.57,1.44-4.46,7.6-1.72,9.77l.22.17Z"/><path class="cls-1" d="M222.61,128.28c4.01.66,7.42-1.48,10.39-4.01,1.21-.94,2.99-2.63,3.6-3.29.1-.15.18-.31.06-.48-3.31-1.86-8.06-3.99-11.9-3.84-3.26.09-6.17,1.52-6,5.3-.02,2.4,1.22,5.75,3.58,6.25l.27.06Z"/><path class="cls-1" d="M193.15,89.09c2.35-4.76.08-10.01-1.95-14.55-.51-1.01-.81-1.66-1.22-1.44-.47.27-1.62,1.55-2.21,2.18-2.63,2.81-5.24,6.1-5.5,9.91-.45,3.33,1.65,5.14,4.9,5.71,2,.42,4.84.04,5.84-1.59l.14-.22Z"/><path class="cls-1" d="M160.13,87.49c.7-5.08-2.85-9.23-6.12-12.79-.88-.8-1.2-1.61-1.76-1.36-2.92,4.57-7.47,17.66,1.56,17.9,2.38.03,5.73-1.13,6.25-3.48l.07-.27Z"/><path class="cls-1" d="M122.91,119.19c-4.58-2.71-9.99-.65-14.83,1.09-.58.31-1.59.4-1.2,1.1.65.87,1.95,2.19,2.81,3.06,3.51,4.03,11.93,8.95,14.38,1.58.77-2.1.97-5.37-.93-6.67l-.22-.16Z"/><path class="cls-1" d="M121.01,150.94c-5.07-.93-9.39,2.47-13.02,5.69-.93.97-1.81,1.3-1.21,1.82,3.17,1.72,7.96,4.09,11.67,3.92,3.34-.04,6.3-1.42,6.16-5.24.1-2.36-1.06-5.5-3.34-6.12l-.27-.08Z"/><path class="cls-1" d="M150.68,188.19c-2.09,4.74.23,9.59,2.43,13.99,1.19,2.43,1.19,2.2,2.68.49,2.72-3.12,5.69-6.66,5.95-10.88.45-3.41-1.74-5.32-5.18-5.72-2.04-.34-4.8.17-5.74,1.89l-.13.23Z"/><path class="cls-1" d="M182.9,187.42c-1.01,5.28,2.31,9.4,5.59,13.52.5.46.96,1.64,1.53,1.01.38-.52,1.05-1.83,1.43-2.59,1.71-3.44,3.45-7.25,2.74-10.96-.47-3.33-2.94-4.5-6.25-4.21-2,.07-4.37,1.14-4.95,2.97l-.09.27Z"/></svg>