<?xml version="1.0" encoding="UTF-8" standalone="no"?>
<!DOCTYPE svg PUBLIC "-//W3C//DTD SVG 1.1//EN" "http://www.w3.org/Graphics/SVG/1.1/DTD/svg11.dtd">
<svg width="100%" height="100%" viewBox="0 0 500 500" version="1.1" xmlns="http://www.w3.org/2000/svg" xmlns:xlink="http://www.w3.org/1999/xlink" xml:space="preserve" xmlns:serif="http://www.serif.com/" style="fill-rule:evenodd;clip-rule:evenodd;stroke-linejoin:round;stroke-miterlimit:2;">
    <g transform="matrix(1,0,0,1,69.953761,0.001)">
        <path d="M80.5,0L120.5,0C120.95,0.161 121.073,0.844 121.523,1.006C124.192,1.962 124.419,0.083 140.55,3.101C154.2,5.656 154.167,5.548 167.501,9.496C181.945,13.773 193.27,27.743 193.765,41.486C196.072,105.507 170.103,131.799 161.907,172.554C157.872,192.617 164.143,218.364 168.783,213.869C188.526,194.743 177.172,182.914 197.8,142.654C212.87,113.241 235.295,91.504 236.301,90.326C246.862,77.964 247.39,78.446 248.139,77.25C250.768,73.053 260.288,66.193 261.346,65.31C281.267,48.688 300.61,54.231 307.548,55.254C311.864,55.89 327.049,63.045 331.589,67.403C334.356,70.058 341.088,75.865 345.846,84.313C353.474,97.855 353.732,107.738 354.204,109.598C358.018,124.623 354.839,191.658 350.886,207.563C348.781,216.033 349.126,216.124 344.933,223.733C343.639,226.079 336.34,239.325 315.504,239.728C304.102,239.949 304.204,238.998 301.489,238.942C269.87,238.297 265.683,240.896 260.537,241.733C228.917,246.874 186.03,271.857 186.817,321.494C187.39,357.584 209.749,373.609 210.585,374.41C232.503,395.423 271.399,396.767 272.592,395.602C273.779,394.443 272.952,336.192 273.172,305.487C273.182,304.034 273.367,303.112 275.47,303.09C293.032,302.907 302.454,305.907 318.327,317.761C320.774,319.589 331.335,327.476 343.119,346.796C362.046,377.829 362.102,419.928 349.124,440.201C336.043,460.633 281.646,476.592 280.564,476.869C242.57,486.584 242.668,486.937 232.533,488.712C230.694,489.035 210.89,492.505 209.531,492.707C160.911,499.948 160.748,498.226 156.543,498.96C156.06,499.044 155.984,499.915 155.5,499.999L122.5,499.999C121.209,499.37 121.53,498.814 119.498,498.535C108.22,496.988 108.367,496.718 97.436,493.863C71.831,487.176 40.332,462.576 31.113,447.746C29.024,444.386 26.722,444.908 16.796,425.349C-0.037,392.184 1.972,374.635 1.973,323.499C1.975,225.946 1.742,225.104 3.506,224.512C48.676,209.33 81.67,244.904 87.776,222.578C87.993,221.786 87.04,212.659 86.053,209.643C85.263,207.228 82.201,197.87 69.325,182.649C50.106,159.93 49.869,160.232 47.106,155.741C43.486,149.857 28.172,134.778 18.465,100.513C13.737,83.824 11.043,45.324 36.812,19.814C39.301,17.35 51.385,5.387 76.462,1.25C77.448,1.087 78.501,1.375 79.456,1.079C79.934,0.931 80.022,0.148 80.5,0Z" style="fill:none;"/>
    </g>
</svg>
