<?xml version="1.0" encoding="UTF-8" standalone="no"?>
<!DOCTYPE svg PUBLIC "-//W3C//DTD SVG 1.1//EN" "http://www.w3.org/Graphics/SVG/1.1/DTD/svg11.dtd">
<svg width="100%" height="100%" viewBox="0 0 500 500" version="1.1" xmlns="http://www.w3.org/2000/svg" xmlns:xlink="http://www.w3.org/1999/xlink" xml:space="preserve" xmlns:serif="http://www.serif.com/" style="fill-rule:evenodd;clip-rule:evenodd;stroke-linejoin:round;stroke-miterlimit:2;">
    <g transform="matrix(1.020653,0,0,1.013916,59.087736,-0.28097)">
        <path d="M215.554,493.415L0.292,493.415L0.292,404.845C9.197,404.845 18.094,405.283 26.966,406.028C37.176,406.889 47.367,408.15 57.549,409.624L57.549,409.622C91.165,414.479 124.644,421.578 158.218,423.666C158.328,423.673 158.438,423.68 158.548,423.687C164.618,424.061 170.691,424.268 176.768,424.268C178.303,424.268 179.837,424.251 181.376,424.225C183.218,424.194 185.065,424.139 186.911,424.066C187.021,424.062 187.13,424.057 187.24,424.053C191.407,423.883 195.579,423.6 199.759,423.194C214.893,421.73 229.994,419.091 244.334,413.999L244.457,413.954L244.457,413.952C249.524,412.142 254.787,409.575 259.051,406.183L259.051,406.185C264.065,402.202 267.695,397.093 268.002,390.75C268.01,390.485 268.019,390.22 268.019,389.955C268.019,386.819 267.149,383.768 265.689,380.975C265.63,380.863 265.571,380.752 265.511,380.641C263.953,377.771 261.781,375.184 259.314,373.066C256.02,370.229 252.274,368.121 248.264,366.618C247.093,366.181 245.901,365.794 244.69,365.457C239.936,364.131 234.915,363.559 229.89,363.559C226.875,363.559 223.865,363.765 220.918,364.139C216.507,364.699 212.157,365.585 207.832,366.618C207.373,366.727 206.915,366.839 206.456,366.951C198.095,369.006 189.818,371.539 181.38,373.243C177.521,374.017 173.641,374.623 169.753,375.052C169.715,375.061 169.682,375.065 169.64,375.069C169.577,375.078 169.519,375.078 169.456,375.086C169.373,375.094 169.289,375.107 169.205,375.111L169.113,375.124C163.904,375.684 158.67,375.944 153.427,375.944C145.362,375.944 137.281,375.322 129.245,374.173C118.396,372.627 107.64,370.13 97.136,366.951C96.772,366.841 96.409,366.73 96.045,366.618C94.225,366.058 92.411,365.476 90.606,364.876C80.913,361.651 71.32,357.841 62.474,352.761L62.469,352.761C58.975,350.75 55.595,348.545 52.377,346.101C49.258,343.728 46.319,341.152 43.551,338.404L43.554,338.404C39.339,334.21 35.53,329.61 32.109,324.713L32.108,324.713C32.031,324.603 31.955,324.492 31.878,324.381C25.873,315.71 21.07,306.11 17.371,296.166C16.666,294.272 16.005,292.363 15.377,290.447C8.349,268.907 5.251,246.029 3.461,223.434L237.754,223.434C249.665,223.434 261.572,222.798 273.479,222.264L273.479,222.265C278.289,222.048 283.096,221.853 287.907,221.717L287.928,221.716C289.868,221.666 291.925,221.578 293.564,220.53C295.365,219.376 296.327,217.297 297.151,215.311C298.953,210.973 300.572,206.552 302.004,202.071C302.117,201.72 302.227,201.368 302.337,201.017C305.257,191.655 307.357,182.03 308.594,172.295C308.932,169.631 309.175,166.853 309.17,164.101C309.17,161.003 308.857,157.94 308.025,155.095L308.027,155.095C307.233,152.381 305.961,149.868 304.036,147.725C301.233,144.608 297.35,142.68 293.374,141.404C293.329,141.39 293.285,141.375 293.242,141.362C293.229,141.358 293.217,141.354 293.204,141.35C292.899,141.253 292.59,141.16 292.284,141.071L292.291,141.071C287.875,139.777 283.353,139.199 278.805,139.199C276.924,139.199 275.034,139.3 273.149,139.489L273.149,139.487C263.953,140.408 254.79,143.469 246.325,147.561C245.012,148.197 243.716,148.857 242.441,149.539C239.177,151.279 235.988,153.151 232.843,155.095L232.846,155.095C227.129,158.632 221.558,162.417 215.93,166.103L215.93,166.104C209.885,170.069 203.776,173.924 197.363,177.244C191.858,180.095 186.035,182.568 179.966,183.643L179.949,183.643C178.546,183.89 177.128,184.062 175.702,184.146C175.09,184.183 174.475,184.201 173.86,184.201L173.848,184.201C171.902,184.201 169.946,184.018 168.034,183.643L168.025,183.643C164.624,182.974 161.363,181.7 158.548,179.776L158.548,179.778C158.437,179.701 158.327,179.623 158.216,179.544C157.009,178.682 155.885,177.698 154.878,176.583C150.128,171.337 148.494,164.099 148.485,156.885L148.485,156.774C148.489,154.838 148.606,152.898 148.811,151.004C150.153,138.656 154.568,126.842 158.548,114.995L158.548,114.999C162.31,103.801 165.681,92.57 165.693,80.83C165.697,77.505 165.315,74.016 164.379,70.784L164.377,70.784C163.055,66.226 160.626,62.169 156.621,59.787C155.45,59.092 154.217,58.579 152.946,58.225C152.934,58.221 152.925,58.217 152.913,58.217C152.896,58.208 152.875,58.204 152.858,58.196C152.829,58.196 152.804,58.187 152.779,58.179L152.745,58.166C151.144,57.741 149.48,57.56 147.787,57.56C146.98,57.56 146.165,57.602 145.35,57.682C142.239,57.973 139.095,58.785 136.156,59.757C128.33,62.345 120.85,65.959 113.926,70.451C113.756,70.562 113.586,70.673 113.417,70.784C109.031,73.667 104.875,76.903 100.999,80.451C100.889,80.551 100.779,80.653 100.669,80.754C95.384,85.631 90.634,91.091 86.551,97.024C86.178,97.567 85.808,98.116 85.439,98.666C85.365,98.777 85.291,98.887 85.217,98.998C81.861,104.054 78.61,109.365 74.112,113.191L74.109,113.191C72.967,114.163 71.743,115.038 70.417,115.79C65.906,118.345 60.638,119.178 55.466,119.422C54.404,119.473 53.334,119.498 52.268,119.498C43.486,119.498 34.573,117.724 27.151,113.191L27.145,113.191C27.063,113.141 26.985,113.092 26.903,113.038C26.807,112.979 26.711,112.919 26.614,112.857C25.891,112.4 25.181,111.913 24.487,111.397C19.946,108.023 16.464,103.794 13.834,98.998C13.774,98.888 13.713,98.777 13.654,98.666C8.417,88.927 6.639,76.92 6.635,65.106C6.635,61.31 6.814,57.539 7.124,53.865C8.043,42.893 9.687,31.985 12.024,21.227C13.357,15.125 15.197,8.614 20.08,4.751C23.968,1.683 29.111,0.854 34.023,0.277L373.446,0.277L373.521,70.452L373.597,141.071L373.597,141.405L373.613,155.095L373.614,155.427L373.806,333.943L373.806,334.295C373.777,361.238 367.103,386.617 355.34,408.856L355.343,408.856C352.365,414.488 349.061,419.917 345.456,425.122C345.346,425.281 345.236,425.439 345.125,425.597C338.602,434.938 331.111,443.544 322.792,451.261L322.796,451.261C317.332,456.331 311.511,461.021 305.378,465.284C305.219,465.396 305.058,465.507 304.898,465.617C304.051,466.202 303.196,466.779 302.337,467.347L302.337,467.348C297.588,470.487 292.664,473.378 287.577,476L287.577,475.998C283.002,478.359 278.302,480.497 273.479,482.405C273.369,482.449 273.259,482.492 273.149,482.535C268.442,484.388 263.635,486.019 258.721,487.417L258.721,487.415C254.154,488.715 249.509,489.816 244.786,490.702L244.786,490.704C235.312,492.485 225.542,493.415 215.554,493.415Z" style="fill:rgb(248,231,255);"/>
    </g>
</svg>
