<?xml version="1.0" encoding="UTF-8" standalone="no"?>
<!DOCTYPE svg PUBLIC "-//W3C//DTD SVG 1.1//EN" "http://www.w3.org/Graphics/SVG/1.1/DTD/svg11.dtd">
<svg width="100%" height="100%" viewBox="0 0 500 500" version="1.1" xmlns="http://www.w3.org/2000/svg" xmlns:xlink="http://www.w3.org/1999/xlink" xml:space="preserve" xmlns:serif="http://www.serif.com/" style="fill-rule:evenodd;clip-rule:evenodd;stroke-linejoin:round;stroke-miterlimit:2;">
    <g transform="matrix(0.991527,0,0,0.999849,128.155856,-2.182555)">
        <path d="M-57.75,220.905C-60.093,212.607 -61.892,204.126 -63.389,195.77C-67.923,170.541 -70.608,144.988 -71.424,119.375C-71.52,116.292 -71.592,113.195 -71.592,110.095L-71.592,109.943C-71.587,98.4 -70.625,86.844 -66.717,76.031C-64.848,70.872 -61.828,65.633 -57.75,62.048L-57.75,62.047C-54.855,59.502 -51.432,57.795 -47.513,57.545C-47.164,57.52 -46.815,57.512 -46.47,57.512C-45.412,57.512 -44.388,57.616 -43.394,57.816C-36.868,59.108 -31.641,64.4 -27.346,70.422C-27.321,70.451 -27.3,70.489 -27.274,70.518L-27.262,70.539C-27.258,70.547 -27.249,70.556 -27.245,70.564C-27.22,70.601 -27.19,70.639 -27.157,70.681C-25.442,73.114 -23.866,75.66 -22.429,78.102C-19.77,82.602 -17.023,87.051 -14.187,91.446L-14.187,91.45C-9.67,98.45 -4.94,105.313 0.002,112.024C0.113,112.174 0.223,112.324 0.334,112.474C4.886,118.645 9.617,124.685 14.521,130.585C14.632,130.719 14.743,130.853 14.854,130.986C16.23,132.639 17.622,134.284 19.022,135.915C21.669,138.991 24.733,142.233 28.775,142.737C28.809,142.742 28.842,142.746 28.876,142.75C28.987,142.763 29.099,142.773 29.208,142.779L29.208,142.781C29.299,142.787 29.39,142.792 29.481,142.796C30.965,142.854 32.381,142.5 33.675,141.85C37.428,139.949 40.126,135.503 40.37,131.135C40.395,130.723 40.403,130.302 40.403,129.881C40.416,120.593 34.936,110.105 29.895,100.798L29.893,100.798C27.838,97.001 25.851,93.396 24.342,90.154C21.559,84.177 18.943,78.12 16.501,71.997C16.457,71.888 16.414,71.778 16.37,71.669C12.037,60.772 8.244,49.66 5.02,38.388C3.774,34.046 2.696,29.289 2.683,24.764L2.683,24.607C2.7,20.31 3.696,16.235 6.449,12.922C9.5,9.25 14.164,7.329 18.719,5.837C26.355,3.337 34.259,1.712 42.248,0.933C44.853,0.678 47.463,0.512 50.077,0.437L56.796,0.437C77.55,1.033 98.179,7.143 115.666,18.212L115.666,18.21C119.221,20.46 122.646,22.911 125.915,25.565C127.328,26.713 128.72,27.903 130.021,29.178C130.132,29.288 130.243,29.397 130.353,29.508C132.11,31.269 133.68,33.19 134.874,35.363C137.572,40.259 138.127,46.002 138.593,51.565C139.438,61.6 140.157,71.706 140.152,81.774C140.148,90.659 139.577,99.514 138.026,108.261C136.356,117.697 133.563,126.903 130.353,136.007C130.243,136.32 130.132,136.632 130.021,136.945C125.367,150.008 119.893,162.882 115.666,175.946L115.666,175.943C111.743,188.064 108.892,200.349 108.766,213.11L108.766,213.352C108.761,215.019 108.896,216.798 110.01,218.036C110.094,218.128 110.173,218.211 110.262,218.294C111.828,219.769 113.809,219.407 115.666,218.153C115.777,218.078 115.888,218 115.998,217.919C117.648,216.701 119.165,214.81 120.162,212.919C120.351,212.56 120.524,212.202 120.671,211.848C123.795,204.425 126.923,196.998 130.02,189.557C130.131,189.29 130.242,189.023 130.353,188.757C135.186,177.134 139.956,165.477 144.543,153.764C144.654,153.48 144.765,153.197 144.876,152.914C149.928,139.975 154.765,126.956 159.227,113.825L159.227,113.83C164.576,98.095 169.391,82.198 173.416,66.067C173.427,66.025 173.437,65.984 173.447,65.942C173.542,65.536 173.649,65.132 173.75,64.725C176.874,52.154 180.129,38.814 187.937,28.891C188.004,28.805 188.072,28.72 188.141,28.634C189.796,26.566 191.654,24.648 193.752,22.923C193.866,22.827 193.979,22.736 194.097,22.64L194.282,22.494C196.785,20.509 199.468,18.906 202.291,17.633L202.291,17.631C209.431,14.401 217.457,13.259 225.728,13.259C232.335,13.259 239.093,13.989 245.686,14.968C245.798,14.985 245.909,15.001 246.02,15.018L246.516,15.093C246.777,15.135 247.041,15.172 247.306,15.214C247.432,15.239 247.563,15.256 247.693,15.276L248.256,15.364C248.319,15.376 248.386,15.385 248.449,15.393C249.962,15.635 251.466,15.885 252.95,16.139C265.691,18.32 280.12,21.896 289.082,30.149C289.194,30.252 289.305,30.356 289.415,30.461C292.628,33.509 295.105,37.183 296.502,41.643C297.355,44.372 297.704,47.173 297.704,50.007C297.7,55.795 296.229,61.704 294.62,67.338C293.013,72.982 291.28,78.584 289.416,84.149C289.305,84.481 289.193,84.813 289.081,85.145C284.013,100.139 278.023,114.828 271.157,129.106L271.158,129.106C266.444,138.91 261.314,148.526 255.791,157.906C255.726,158.016 255.662,158.125 255.597,158.235C252.528,163.435 249.331,168.571 246.02,173.625L246.02,173.629C244.961,175.242 243.894,176.851 242.81,178.447C237.975,185.597 232.809,192.771 230.174,200.938C230.138,201.048 230.104,201.159 230.069,201.269L230.068,201.269C229.907,201.78 229.757,202.291 229.619,202.809C228.925,205.397 228.556,208.135 228.56,210.852C228.564,214.9 229.387,218.921 231.165,222.404C231.272,222.614 231.383,222.822 231.498,223.028C232.62,225.049 234.083,226.867 235.91,228.379C238.783,230.756 242.115,232.101 245.686,232.944L245.686,232.943C253.506,234.788 262.469,234.21 270.259,236.751C278.402,239.408 284.463,245.075 289.082,252.174C289.194,252.347 289.305,252.52 289.416,252.694C294.773,261.128 298.154,271.486 300.604,281.196C301.712,285.585 302.766,289.986 303.77,294.4L303.77,294.416C310.715,325.059 315.057,356.277 316.723,387.637C317.116,394.998 317.358,402.384 317.362,409.762L317.362,410.144C317.35,424.984 316.358,439.803 313.635,454.376C311.881,463.76 309.027,473.539 303.77,481.35L303.77,481.354C301.009,485.453 297.585,489.015 293.308,491.69C291.951,492.54 290.536,493.282 289.082,493.928L289.082,493.925C282.841,496.7 275.83,497.764 268.981,498.616C261.348,499.569 253.694,500.332 246.02,500.908C245.909,500.916 245.798,500.925 245.686,500.933C240.962,501.288 236.23,501.571 231.497,501.781L231.497,501.783C226.717,501.995 221.933,502.139 217.145,502.208C217.034,502.209 216.922,502.211 216.811,502.213C214.585,502.243 212.358,502.258 210.132,502.258C207.518,502.258 204.904,502.237 202.291,502.196L202.291,502.195C197.618,502.12 192.944,501.976 188.27,501.761L188.27,501.762C178.001,501.291 167.748,500.495 157.533,499.366C140.615,497.499 123.793,494.728 107.173,491.061C100.033,489.485 92.268,487.206 86.792,482.763L86.792,482.762C84.306,480.747 82.29,478.287 81.018,475.242C80.128,473.109 79.72,470.96 79.715,468.835L79.715,468.77C79.728,463.065 82.674,457.543 87.124,453.017L87.124,453.021C91.707,448.361 97.886,444.764 104.11,443.12C107.635,442.191 111.199,441.599 114.8,441.249C117.973,440.945 121.171,440.824 124.381,440.824C128.495,440.824 132.635,441.02 136.778,441.266C138.228,441.349 139.673,441.445 141.115,441.532C142.136,441.599 143.157,441.666 144.174,441.724C153.638,442.307 163.084,442.699 172.325,441.195C173.325,441.036 174.317,440.853 175.313,440.64C179.667,439.724 183.898,438.314 187.937,436.477L187.937,436.473C193.227,434.064 198.177,430.914 202.623,427.172L202.623,427.173C208.476,422.247 213.446,416.291 217.146,409.636L217.146,409.641C218.435,407.324 219.566,404.923 220.533,402.451C221.937,398.851 222.941,394.838 222.937,390.987C222.933,389.909 222.854,388.845 222.681,387.807C222.662,387.697 222.643,387.588 222.622,387.478C222.208,385.254 221.364,383.153 219.958,381.298C217.004,377.414 212.15,375.447 207.389,374.28C205.691,373.86 203.989,373.522 202.291,373.259L202.291,373.257C199.082,372.76 195.873,372.526 192.668,372.526C191.204,372.526 189.736,372.576 188.27,372.671L188.27,372.672C183.409,372.982 178.563,373.797 173.75,374.993C173.638,375.02 173.527,375.048 173.416,375.076C169.204,376.14 165.013,377.497 160.865,379.069C160.21,379.319 159.55,379.573 158.895,379.831L158.895,379.829C154.163,381.703 149.481,383.841 144.875,386.122L144.875,386.124C139.943,388.567 135.096,391.178 130.353,393.812C130.242,393.874 130.131,393.935 130.021,393.996C128.914,394.611 127.815,395.229 126.722,395.846C126.583,395.925 126.44,396.005 126.298,396.084C122.755,398.084 119.209,400.08 115.666,402.08L115.666,402.076C110.938,404.746 106.21,407.409 101.479,410.076L101.479,410.078L64.649,430.842L64.643,430.842C56.287,435.553 47.931,440.267 39.571,444.979C36.117,446.925 32.541,448.883 28.876,450.704C24.309,452.981 19.606,455.046 14.855,456.613L14.855,456.615C5.163,459.81 -4.742,460.949 -14.187,457.614C-14.2,457.609 -14.212,457.605 -14.225,457.601C-14.323,457.566 -14.422,457.53 -14.521,457.494L-14.521,457.493C-14.724,457.419 -14.926,457.342 -15.13,457.264C-20.394,455.228 -24.814,452.018 -28.544,448.033C-28.655,447.914 -28.765,447.795 -28.875,447.675C-35.545,440.385 -39.979,430.595 -43.062,420.687C-43.175,420.325 -43.286,419.962 -43.395,419.6C-44.018,417.526 -44.586,415.448 -45.105,413.395C-46.76,406.827 -48.143,399.943 -48.143,393.208C-48.143,388.449 -47.45,383.765 -45.685,379.31C-45.042,377.695 -44.27,376.148 -43.394,374.668C-43.285,374.484 -43.175,374.3 -43.062,374.118C-39.524,368.373 -34.386,363.619 -28.875,359.414L-28.875,359.412C-27.274,358.191 -25.64,357.015 -24.005,355.874C-20.887,353.703 -17.726,351.603 -14.521,349.565L-14.521,349.562C-5.086,343.551 4.681,338.054 14.521,332.695C14.632,332.634 14.744,332.574 14.855,332.513C18.207,330.691 21.566,328.88 24.926,327.073C26.244,326.366 27.562,325.659 28.876,324.948C28.987,324.888 29.098,324.829 29.208,324.769L62.637,306.783C51.764,303.515 40.413,301.108 29.208,298.436C29.098,298.409 28.987,298.383 28.876,298.357C24.16,297.232 19.471,296.057 14.855,294.747C14.744,294.715 14.632,294.684 14.521,294.652C9.693,293.276 4.944,291.754 0.334,289.987L0.334,289.989C-4.808,288.022 -9.782,285.756 -14.521,283.048L-14.521,283.046C-18.601,280.717 -22.505,278.065 -26.186,275.007C-27.001,274.332 -27.797,273.64 -28.575,272.938C-28.675,272.847 -28.775,272.756 -28.875,272.665C-34.423,267.588 -39.098,261.791 -43.062,255.494L-43.062,255.496C-49.653,245.031 -54.292,233.172 -57.75,220.916L-57.75,220.905Z" style="fill:rgb(255,216,138);"/>
    </g>
</svg>
