<?xml version="1.0" encoding="UTF-8" standalone="no"?>
<!DOCTYPE svg PUBLIC "-//W3C//DTD SVG 1.1//EN" "http://www.w3.org/Graphics/SVG/1.1/DTD/svg11.dtd">
<svg width="100%" height="100%" viewBox="0 0 500 500" version="1.1" xmlns="http://www.w3.org/2000/svg" xmlns:xlink="http://www.w3.org/1999/xlink" xml:space="preserve" xmlns:serif="http://www.serif.com/" style="fill-rule:evenodd;clip-rule:evenodd;stroke-linejoin:round;stroke-miterlimit:2;">
    <g transform="matrix(5.426908,0,0,5.426908,32.750303,233.789827)">
        <path d="M0,-12.688C0.622,-12.688 1.177,-12.56 1.664,-12.305C2.15,-12.05 2.533,-11.69 2.813,-11.228C3.092,-10.765 3.232,-10.214 3.232,-9.576C3.232,-8.937 3.092,-8.387 2.813,-7.924C2.533,-7.461 2.15,-7.102 1.664,-6.847C1.177,-6.591 0.622,-6.464 0,-6.464L-3.783,-6.464L-3.783,-12.688L0,-12.688ZM-3.783,-4.501L0.12,-4.501C1.141,-4.501 2.059,-4.708 2.873,-5.123C3.687,-5.538 4.329,-6.129 4.8,-6.895C5.27,-7.661 5.506,-8.555 5.506,-9.576C5.506,-10.613 5.27,-11.511 4.8,-12.269C4.329,-13.027 3.687,-13.614 2.873,-14.029C2.059,-14.444 1.141,-14.651 0.12,-14.651L-6.033,-14.651L-6.033,1.963L-3.783,1.963L-3.783,-4.501Z" style="fill-rule:nonzero;"/>
    </g>
    <g transform="matrix(-5.426908,0,0,5.426908,741.509874,-1822.254934)">
        <rect x="120.331" y="369.453" width="2.179" height="11.371"/>
    </g>
    <g transform="matrix(5.426908,0,0,5.426908,82.639865,155.449158)">
        <path d="M0,2.753C0.399,2.753 0.726,2.622 0.981,2.358C1.237,2.094 1.365,1.763 1.365,1.364C1.365,0.981 1.237,0.658 0.981,0.395C0.726,0.132 0.399,0 0,0C-0.399,0 -0.727,0.132 -0.982,0.395C-1.237,0.658 -1.365,0.981 -1.365,1.364C-1.365,1.763 -1.237,2.094 -0.982,2.358C-0.727,2.622 -0.399,2.753 0,2.753" style="fill-rule:nonzero;"/>
    </g>
    <g transform="matrix(5.426908,0,0,5.426908,145.326076,202.674651)">
        <path d="M0,4.022C-0.311,3.439 -0.467,2.765 -0.467,1.999C-0.467,1.249 -0.311,0.583 0,0C0.311,-0.583 0.742,-1.042 1.293,-1.377C1.843,-1.712 2.478,-1.88 3.196,-1.88C3.914,-1.88 4.54,-1.715 5.075,-1.389C5.61,-1.061 6.029,-0.602 6.332,-0.012C6.635,0.578 6.787,1.257 6.787,2.023C6.787,3.156 6.46,4.086 5.805,4.812C5.151,5.538 4.289,5.901 3.22,5.901C2.502,5.901 1.863,5.734 1.305,5.398C0.746,5.064 0.311,4.605 0,4.022M5.183,7.398C5.776,7.087 6.259,6.666 6.643,6.146L6.643,7.697L8.822,7.697L8.822,-3.675L6.643,-3.675L6.643,-2.114C6.251,-2.637 5.765,-3.061 5.171,-3.375C4.492,-3.735 3.723,-3.914 2.861,-3.914C1.807,-3.914 0.862,-3.651 0.024,-3.124C-0.814,-2.598 -1.476,-1.887 -1.963,-0.994C-2.45,-0.099 -2.693,0.906 -2.693,2.023C-2.693,3.14 -2.45,4.146 -1.963,5.039C-1.476,5.933 -0.814,6.639 0.024,7.158C0.862,7.676 1.807,7.936 2.861,7.936C3.723,7.936 4.497,7.756 5.183,7.398" style="fill-rule:nonzero;"/>
    </g>
    <g transform="matrix(5.426908,0,0,5.426908,219.444068,156.875349)">
        <path d="M0,16.136L2.155,16.136L2.155,6.727L4.956,6.727L4.956,4.765L2.155,4.765L2.155,0L0,0L0,4.765L-2.801,4.765L-2.801,6.727L0,6.727L0,16.136Z" style="fill-rule:nonzero;"/>
    </g>
    <g transform="matrix(5.426908,0,0,5.426908,263.798727,220.822773)">
        <path d="M0,-2.778C0.177,-3.403 0.507,-3.929 0.987,-4.357C1.467,-4.786 2.066,-5.076 2.785,-5.228C3.472,-5.373 4.088,-5.353 4.633,-5.167C5.178,-4.98 5.639,-4.654 6.015,-4.187C6.271,-3.869 6.473,-3.481 6.628,-3.032L-0.13,-1.6C-0.143,-2.016 -0.104,-2.411 0,-2.778M5.016,4.381C5.89,4.196 6.675,3.858 7.371,3.369C8.067,2.879 8.621,2.264 9.035,1.523L7.385,0.429C7.102,0.946 6.723,1.369 6.246,1.698C5.77,2.028 5.219,2.259 4.595,2.391C3.845,2.55 3.148,2.53 2.502,2.332C1.856,2.135 1.316,1.776 0.879,1.257C0.613,0.941 0.404,0.57 0.239,0.157L8.943,-1.687C8.943,-1.916 8.932,-2.121 8.91,-2.305C8.887,-2.487 8.86,-2.657 8.827,-2.813C8.602,-3.875 8.179,-4.772 7.559,-5.505C6.938,-6.239 6.181,-6.755 5.285,-7.055C4.39,-7.354 3.434,-7.397 2.419,-7.182C1.342,-6.954 0.424,-6.494 -0.335,-5.803C-1.094,-5.112 -1.635,-4.276 -1.957,-3.293C-2.279,-2.311 -2.324,-1.274 -2.093,-0.182C-1.857,0.927 -1.39,1.864 -0.69,2.629C0.011,3.395 0.855,3.937 1.846,4.257C2.835,4.578 3.892,4.619 5.016,4.381" style="fill-rule:nonzero;"/>
    </g>
    <g transform="matrix(5.426908,0,0,5.426908,361.637732,186.503009)">
        <path d="M0,9.982C0.758,9.36 1.137,8.514 1.137,7.445C1.137,6.742 0.99,6.176 0.695,5.745C0.399,5.314 0.02,4.971 -0.443,4.716C-0.906,4.461 -1.393,4.257 -1.903,4.105C-2.414,3.954 -2.905,3.806 -3.376,3.662C-3.846,3.519 -4.225,3.343 -4.512,3.136C-4.8,2.928 -4.943,2.633 -4.943,2.25C-4.943,1.883 -4.78,1.587 -4.452,1.364C-4.126,1.141 -3.651,1.029 -3.028,1.029C-2.438,1.029 -1.911,1.141 -1.448,1.364C-0.985,1.587 -0.586,1.907 -0.251,2.321L1.137,0.933C0.69,0.311 0.12,-0.156 -0.575,-0.468C-1.268,-0.779 -2.063,-0.934 -2.956,-0.934C-3.802,-0.934 -4.528,-0.799 -5.135,-0.528C-5.742,-0.256 -6.208,0.131 -6.535,0.634C-6.863,1.136 -7.026,1.731 -7.026,2.417C-7.026,3.104 -6.879,3.658 -6.583,4.081C-6.288,4.504 -5.909,4.835 -5.446,5.075C-4.983,5.314 -4.493,5.506 -3.974,5.649C-3.455,5.793 -2.965,5.94 -2.502,6.092C-2.039,6.244 -1.659,6.436 -1.364,6.667C-1.069,6.898 -0.921,7.222 -0.921,7.636C-0.921,8.052 -1.105,8.374 -1.472,8.606C-1.839,8.837 -2.358,8.953 -3.028,8.953C-3.698,8.953 -4.305,8.829 -4.848,8.582C-5.391,8.334 -5.869,7.955 -6.284,7.445L-7.673,8.833C-7.321,9.264 -6.91,9.635 -6.439,9.947C-5.969,10.258 -5.446,10.497 -4.872,10.664C-4.297,10.832 -3.691,10.916 -3.052,10.916C-1.775,10.916 -0.758,10.604 0,9.982" style="fill-rule:nonzero;"/>
    </g>
    <g transform="matrix(5.426908,0,0,5.426908,56.065383,334.997314)">
        <path d="M0,-10.318C-0.662,-10.749 -1.425,-10.965 -2.286,-10.965C-3.148,-10.965 -3.923,-10.769 -4.609,-10.378C-5.295,-9.987 -5.83,-9.456 -6.212,-8.786C-6.232,-8.752 -6.245,-8.715 -6.263,-8.681C-6.449,-9.159 -6.726,-9.619 -7.161,-10C-7.921,-10.671 -8.984,-10.962 -10.331,-10.867L-10.331,-8.709C-9.716,-8.77 -8.989,-8.742 -8.587,-8.39C-8.141,-7.995 -8.088,-7.277 -8.067,-6.723C-8.043,-6.114 -8.056,-5.504 -8.056,-4.895L-8.056,0.647L-5.901,0.647L-5.901,-5.985C-5.901,-6.56 -5.774,-7.071 -5.518,-7.517C-5.263,-7.964 -4.912,-8.315 -4.465,-8.57C-4.018,-8.825 -3.507,-8.953 -2.933,-8.953C-2.071,-8.953 -1.373,-8.674 -0.838,-8.116C-0.304,-7.557 -0.036,-6.847 -0.036,-5.985L-0.036,0.647L2.142,0.647L2.142,-6.416C2.142,-7.197 1.951,-7.936 1.568,-8.63C1.185,-9.325 0.662,-9.887 0,-10.318" style="fill-rule:nonzero;"/>
    </g>
    <g transform="matrix(5.426908,0,0,5.426908,129.272197,296.997021)">
        <path d="M0,3.926C-0.32,4.509 -0.758,4.968 -1.317,5.303C-1.875,5.638 -2.522,5.805 -3.256,5.805C-3.958,5.805 -4.588,5.638 -5.147,5.303C-5.706,4.968 -6.145,4.509 -6.463,3.926C-6.783,3.343 -6.943,2.677 -6.943,1.927C-6.943,1.193 -6.783,0.539 -6.463,-0.036C-6.145,-0.61 -5.706,-1.062 -5.147,-1.389C-4.588,-1.716 -3.958,-1.88 -3.256,-1.88C-2.522,-1.88 -1.879,-1.716 -1.328,-1.389C-0.778,-1.062 -0.339,-0.61 -0.012,-0.036C0.315,0.539 0.479,1.193 0.479,1.927C0.479,2.677 0.319,3.343 0,3.926M-0.227,-3.184C-1.129,-3.703 -2.139,-3.962 -3.256,-3.962C-4.357,-3.962 -5.355,-3.699 -6.248,-3.172C-7.142,-2.646 -7.852,-1.939 -8.379,-1.053C-8.906,-0.167 -9.169,0.826 -9.169,1.927C-9.169,3.044 -8.906,4.054 -8.379,4.955C-7.852,5.857 -7.142,6.571 -6.248,7.098C-5.355,7.625 -4.357,7.888 -3.256,7.888C-2.139,7.888 -1.129,7.625 -0.227,7.098C0.674,6.571 1.389,5.857 1.915,4.955C2.442,4.054 2.705,3.044 2.705,1.927C2.705,0.826 2.442,-0.171 1.915,-1.065C1.389,-1.959 0.674,-2.665 -0.227,-3.184" style="fill-rule:nonzero;"/>
    </g>
    <g transform="matrix(5.426908,0,0,5.426908,240.484189,335.645286)">
        <path d="M0,-10.557C-0.655,-10.908 -1.397,-11.084 -2.226,-11.084C-3.025,-11.084 -3.759,-10.904 -4.429,-10.545C-5.1,-10.186 -5.646,-9.691 -6.069,-9.061C-6.077,-9.048 -6.083,-9.034 -6.091,-9.021C-6.101,-9.038 -6.107,-9.056 -6.117,-9.073C-6.492,-9.711 -7.003,-10.206 -7.649,-10.557C-8.295,-10.908 -9.018,-11.084 -9.815,-11.084C-10.629,-11.084 -11.364,-10.904 -12.018,-10.545C-12.501,-10.28 -12.907,-9.937 -13.238,-9.519L-13.238,-10.844L-15.393,-10.844L-15.393,0.527L-13.238,0.527L-13.238,-6.344C-13.238,-6.919 -13.111,-7.405 -12.856,-7.804C-12.6,-8.203 -12.265,-8.514 -11.85,-8.738C-11.435,-8.961 -10.965,-9.073 -10.437,-9.073C-9.656,-9.073 -9.006,-8.829 -8.487,-8.343C-7.968,-7.856 -7.709,-7.19 -7.709,-6.344L-7.709,0.527L-5.554,0.527L-5.554,-6.344C-5.554,-6.919 -5.426,-7.405 -5.171,-7.804C-4.916,-8.203 -4.577,-8.514 -4.154,-8.738C-3.731,-8.961 -3.256,-9.073 -2.73,-9.073C-1.963,-9.073 -1.321,-8.829 -0.802,-8.343C-0.283,-7.856 -0.024,-7.19 -0.024,-6.344L-0.024,0.527L2.154,0.527L2.154,-6.775C2.154,-7.668 1.959,-8.434 1.568,-9.073C1.177,-9.711 0.654,-10.206 0,-10.557" style="fill-rule:nonzero;"/>
    </g>
    <g transform="matrix(5.426908,0,0,5.426908,310.250343,292.447644)">
        <path d="M0,5.602C-0.655,6.328 -1.517,6.691 -2.586,6.691C-3.304,6.691 -3.942,6.524 -4.501,6.188C-5.06,5.854 -5.494,5.395 -5.806,4.812C-6.117,4.23 -6.272,3.555 -6.272,2.789C-6.272,2.039 -6.117,1.373 -5.806,0.79C-5.494,0.208 -5.063,-0.251 -4.513,-0.586C-3.962,-0.921 -3.328,-1.089 -2.609,-1.089C-1.891,-1.089 -1.265,-0.925 -0.73,-0.598C-0.195,-0.271 0.223,0.188 0.526,0.778C0.83,1.369 0.981,2.047 0.981,2.813C0.981,3.947 0.654,4.876 0,5.602M0.838,-1.324C0.446,-1.846 -0.041,-2.271 -0.635,-2.585C-1.313,-2.944 -2.083,-3.124 -2.945,-3.124C-3.998,-3.124 -4.944,-2.861 -5.781,-2.334C-6.619,-1.807 -7.282,-1.097 -7.769,-0.204C-8.255,0.691 -8.499,1.696 -8.499,2.813C-8.499,3.93 -8.255,4.936 -7.769,5.83C-7.282,6.724 -6.619,7.43 -5.781,7.948C-4.944,8.467 -3.998,8.726 -2.945,8.726C-2.083,8.726 -1.309,8.547 -0.622,8.188C-0.03,7.877 0.453,7.456 0.838,6.937L0.838,8.487L3.016,8.487L3.016,-2.884L0.838,-2.884L0.838,-1.324Z" style="fill-rule:nonzero;"/>
    </g>
    <g transform="matrix(5.426908,0,0,5.426908,381.833426,284.499938)">
        <path d="M0,7.653C-0.542,7.988 -1.173,8.156 -1.891,8.156C-2.594,8.156 -3.22,7.993 -3.77,7.665C-4.321,7.338 -4.752,6.879 -5.063,6.289C-5.374,5.699 -5.53,5.02 -5.53,4.254C-5.53,3.487 -5.374,2.814 -5.063,2.231C-4.752,1.648 -4.325,1.194 -3.782,0.866C-3.24,0.539 -2.609,0.375 -1.891,0.375C-1.173,0.375 -0.542,0.543 0,0.878C0.543,1.214 0.966,1.672 1.269,2.255C1.572,2.838 1.724,3.511 1.724,4.277C1.724,5.028 1.572,5.694 1.269,6.277C0.966,6.86 0.543,7.318 0,7.653M3.752,9.477C3.756,9.345 3.759,9.216 3.759,9.093C3.76,8.63 3.759,8.168 3.759,7.705L3.759,-7.142L1.58,-7.142L1.58,0.16C1.179,-0.371 0.68,-0.803 0.072,-1.12C-0.614,-1.48 -1.388,-1.66 -2.25,-1.66C-3.287,-1.66 -4.221,-1.396 -5.051,-0.869C-5.881,-0.343 -6.539,0.368 -7.026,1.261C-7.513,2.156 -7.756,3.161 -7.756,4.277C-7.756,5.395 -7.513,6.4 -7.026,7.294C-6.539,8.188 -5.881,8.894 -5.051,9.412C-4.221,9.931 -3.287,10.191 -2.25,10.191C-1.372,10.191 -0.59,10.011 0.096,9.652C0.697,9.338 1.187,8.91 1.58,8.381C1.58,9.769 1.471,11.255 2.058,12.554C2.262,13.007 2.55,13.42 2.918,13.754C3.673,14.448 4.713,14.795 6.021,14.795L6.122,14.795L6.122,12.608C5.328,12.631 4.747,12.474 4.389,12.144C3.683,11.505 3.728,10.399 3.752,9.477" style="fill-rule:nonzero;"/>
    </g>
    <g transform="matrix(5.426908,0,0,5.426908,427.051507,314.383205)">
        <path d="M0,-2.605C0.162,-3.234 0.479,-3.768 0.949,-4.207C1.419,-4.647 2.011,-4.951 2.726,-5.12C3.409,-5.281 4.025,-5.276 4.575,-5.102C5.124,-4.929 5.593,-4.613 5.98,-4.156C6.243,-3.844 6.454,-3.46 6.62,-3.015L-0.102,-1.425C-0.125,-1.84 -0.096,-2.235 0,-2.605M10.493,0.904C9.371,0.581 8.26,0.847 7.217,1.295C6.365,1.661 5.63,2.237 4.715,2.454C3.969,2.63 3.271,2.628 2.622,2.445C1.972,2.263 1.423,1.917 0.974,1.408C0.701,1.098 0.483,0.733 0.308,0.323L8.966,-1.726C8.961,-1.954 8.945,-2.16 8.918,-2.342C8.891,-2.524 8.86,-2.693 8.823,-2.848C8.573,-3.904 8.13,-4.791 7.492,-5.51C6.855,-6.228 6.085,-6.727 5.183,-7.005C4.28,-7.284 3.324,-7.304 2.315,-7.065C1.243,-6.811 0.336,-6.329 -0.406,-5.621C-1.149,-4.912 -1.67,-4.063 -1.968,-3.074C-2.267,-2.085 -2.288,-1.047 -2.031,0.04C-1.77,1.143 -1.281,2.069 -0.562,2.817C0.156,3.566 1.014,4.088 2.011,4.385C3.007,4.682 4.065,4.699 5.183,4.434C5.695,4.313 6.197,4.143 6.659,3.888C7.141,3.622 7.611,3.334 8.115,3.109C8.623,2.882 9.194,2.709 9.755,2.808C9.815,2.818 9.875,2.832 9.934,2.849C10.569,3.032 11.145,3.611 11.648,4.573L13.442,3.635C12.673,2.164 11.68,1.245 10.493,0.904" style="fill-rule:nonzero;"/>
    </g>
    <g transform="matrix(5.426908,0,0,5.426908,105.779657,215.250425)">
        <path d="M0,-9.369C-0.001,-9.164 -0.003,-8.959 -0.003,-8.754L-0.003,5.38L2.152,5.38L2.152,2.473C2.152,2.252 2.152,2.031 2.151,1.811L2.151,-9C2.15,-9.365 2.157,-9.731 2.145,-10.095C2.136,-10.412 2.112,-10.728 2.063,-11.041C2.011,-11.381 1.93,-11.718 1.811,-12.041C1.685,-12.385 1.515,-12.713 1.299,-13.009C1.192,-13.155 1.074,-13.294 0.947,-13.423C0.085,-14.29 -1.206,-14.732 -2.901,-14.749L-2.901,-12.596C-1.805,-12.585 -1.022,-12.35 -0.586,-11.908C-0.344,-11.663 -0.201,-11.342 -0.12,-11.011C-0.033,-10.659 -0.009,-10.294 -0.003,-9.932C0.001,-9.744 0.001,-9.557 0,-9.369" style="fill-rule:nonzero;"/>
    </g>
</svg>
