<?xml version="1.0" encoding="UTF-8" standalone="no"?>
<!DOCTYPE svg PUBLIC "-//W3C//DTD SVG 1.1//EN" "http://www.w3.org/Graphics/SVG/1.1/DTD/svg11.dtd">
<svg width="100%" height="100%" viewBox="0 0 500 500" version="1.1" xmlns="http://www.w3.org/2000/svg" xmlns:xlink="http://www.w3.org/1999/xlink" xml:space="preserve" xmlns:serif="http://www.serif.com/" style="fill-rule:evenodd;clip-rule:evenodd;stroke-linejoin:round;stroke-miterlimit:2;">
    <g transform="matrix(5.392086,0,0,5.392086,77.304174,328.499009)">
        <path d="M0,1.191L-10.216,4.838L-10.71,3.454L-0.494,-0.193L0,1.191ZM-4.305,1.682L-5.513,2.113L-6.506,-0.669C-6.643,-1.052 -6.842,-1.365 -7.106,-1.608C-7.37,-1.851 -7.675,-2.008 -8.021,-2.078C-8.367,-2.148 -8.736,-2.113 -9.128,-1.973C-9.521,-1.833 -9.829,-1.626 -10.052,-1.353C-10.276,-1.079 -10.412,-0.765 -10.463,-0.41C-10.513,-0.055 -10.47,0.315 -10.333,0.697L-9.34,3.48L-10.547,3.91L-11.566,1.055C-11.79,0.427 -11.864,-0.183 -11.788,-0.775C-11.711,-1.366 -11.491,-1.89 -11.129,-2.346C-10.766,-2.802 -10.266,-3.144 -9.628,-3.371C-9,-3.596 -8.399,-3.647 -7.824,-3.526C-7.25,-3.404 -6.746,-3.139 -6.312,-2.729C-5.878,-2.32 -5.549,-1.802 -5.325,-1.173L-4.305,1.682Z" style="fill-rule:nonzero;"/>
    </g>
    <g transform="matrix(5.392086,0,0,5.392086,63.317644,292.717129)">
        <path d="M0,-0.562L-7.306,0.761L-7.559,-0.639L-0.253,-1.962L0,-0.562ZM-8.894,0.318C-8.848,0.574 -8.894,0.8 -9.034,0.994C-9.173,1.189 -9.371,1.31 -9.628,1.356C-9.874,1.4 -10.096,1.356 -10.295,1.222C-10.494,1.089 -10.616,0.894 -10.663,0.638C-10.709,0.382 -10.663,0.156 -10.524,-0.039C-10.384,-0.233 -10.191,-0.353 -9.945,-0.397C-9.689,-0.444 -9.461,-0.4 -9.262,-0.267C-9.064,-0.133 -8.941,0.061 -8.894,0.318" style="fill-rule:nonzero;"/>
    </g>
    <g transform="matrix(-5.369207,0.496191,0.496191,5.369207,0.035814,273.127952)">
        <rect x="-11.201" y="-0.516" width="11.16" height="1.407"/>
    </g>
    <g transform="matrix(5.392086,0,0,5.392086,53.465764,235.601462)">
        <path d="M0,0.306C0.044,-0.39 -0.156,-0.967 -0.603,-1.423C-1.049,-1.88 -1.641,-2.132 -2.38,-2.178C-2.879,-2.21 -3.327,-2.139 -3.724,-1.966C-4.121,-1.792 -4.438,-1.539 -4.673,-1.204C-4.908,-0.869 -5.041,-0.468 -5.071,0.001C-5.1,0.468 -5.017,0.889 -4.821,1.261C-4.626,1.634 -4.344,1.933 -3.978,2.16C-3.611,2.387 -3.183,2.516 -2.695,2.547C-2.196,2.579 -1.75,2.505 -1.358,2.327C-0.965,2.148 -0.648,1.883 -0.406,1.533C-0.165,1.183 -0.03,0.774 0,0.306M1.311,-1.851L-0.685,-1.977L-2.478,-2.357L-4.288,-2.205L-6.098,-2.32L-6.008,-3.739L1.401,-3.27L1.311,-1.851ZM1.311,0.624C1.267,1.31 1.06,1.916 0.687,2.44C0.315,2.965 -0.173,3.367 -0.776,3.647C-1.378,3.928 -2.043,4.045 -2.771,3.999C-3.499,3.952 -4.144,3.753 -4.707,3.398C-5.268,3.044 -5.704,2.583 -6.012,2.016C-6.321,1.448 -6.454,0.821 -6.41,0.135C-6.375,-0.427 -6.226,-0.921 -5.964,-1.349C-5.702,-1.775 -5.357,-2.111 -4.929,-2.355C-4.501,-2.6 -4.016,-2.721 -3.473,-2.718L-1.242,-2.576C-0.714,-2.511 -0.25,-2.333 0.149,-2.042C0.548,-1.75 0.85,-1.373 1.056,-0.911C1.262,-0.449 1.346,0.062 1.311,0.624" style="fill-rule:nonzero;"/>
    </g>
    <g transform="matrix(5.392086,0,0,5.392086,30.129357,177.124294)">
        <path d="M0,5.224L-1.242,4.908L0.006,0L1.248,0.316L0,5.224ZM6.404,4.966L-3.806,2.369L-3.459,1.006L6.751,3.602L6.404,4.966Z" style="fill-rule:nonzero;"/>
    </g>
    <g transform="matrix(5.392086,0,0,5.392086,78.250485,151.863991)">
        <path d="M0,2.777C-0.307,3.462 -0.735,4.004 -1.285,4.402C-1.834,4.801 -2.446,5.038 -3.119,5.114C-3.792,5.189 -4.466,5.075 -5.141,4.772C-5.807,4.474 -6.337,4.052 -6.731,3.504C-7.125,2.956 -7.358,2.35 -7.431,1.683C-7.503,1.017 -7.393,0.356 -7.099,-0.301C-6.822,-0.918 -6.432,-1.406 -5.93,-1.763C-5.427,-2.12 -4.863,-2.322 -4.238,-2.367C-3.612,-2.412 -2.976,-2.29 -2.33,-2C-2.235,-1.957 -2.135,-1.907 -2.03,-1.848C-1.924,-1.79 -1.812,-1.717 -1.692,-1.629L-4.254,4.091L-5.323,3.612L-3.068,-1.423L-2.865,-0.767C-3.322,-0.972 -3.745,-1.064 -4.136,-1.046C-4.527,-1.026 -4.876,-0.909 -5.185,-0.693C-5.493,-0.477 -5.741,-0.16 -5.928,0.259C-6.124,0.696 -6.201,1.124 -6.16,1.542C-6.119,1.96 -5.968,2.336 -5.706,2.67C-5.445,3.004 -5.081,3.275 -4.615,3.484C-4.14,3.697 -3.682,3.789 -3.239,3.758C-2.798,3.728 -2.4,3.58 -2.048,3.315C-1.695,3.051 -1.417,2.69 -1.212,2.234C-1.042,1.854 -0.952,1.475 -0.942,1.096C-0.933,0.718 -1.01,0.355 -1.174,0.008L0.038,-0.443C0.269,0.061 0.38,0.59 0.372,1.145C0.363,1.701 0.239,2.244 0,2.777" style="fill-rule:nonzero;"/>
    </g>
    <g transform="matrix(5.392086,0,0,5.392086,96.393775,112.092506)">
        <path d="M0,4.284C-0.239,4.626 -0.511,4.919 -0.815,5.163C-1.12,5.408 -1.444,5.598 -1.786,5.734C-2.129,5.869 -2.481,5.95 -2.843,5.977L-3.066,4.714C-2.637,4.684 -2.256,4.569 -1.921,4.372C-1.585,4.173 -1.292,3.895 -1.041,3.537C-0.79,3.178 -0.658,2.857 -0.645,2.574C-0.631,2.292 -0.735,2.072 -0.957,1.917C-1.179,1.761 -1.407,1.72 -1.642,1.791C-1.876,1.862 -2.12,1.994 -2.375,2.184C-2.629,2.376 -2.892,2.583 -3.162,2.806C-3.434,3.03 -3.719,3.221 -4.021,3.379C-4.322,3.537 -4.641,3.616 -4.978,3.616C-5.315,3.616 -5.666,3.487 -6.034,3.23C-6.401,2.973 -6.658,2.664 -6.805,2.3C-6.951,1.937 -6.983,1.543 -6.902,1.117C-6.82,0.691 -6.621,0.251 -6.304,-0.201C-5.97,-0.679 -5.589,-1.046 -5.163,-1.301C-4.737,-1.556 -4.273,-1.686 -3.773,-1.693L-3.55,-0.431C-3.897,-0.406 -4.217,-0.312 -4.51,-0.148C-4.803,0.016 -5.06,0.256 -5.281,0.572C-5.514,0.905 -5.632,1.201 -5.634,1.459C-5.637,1.718 -5.541,1.916 -5.344,2.053C-5.139,2.197 -4.928,2.23 -4.709,2.154C-4.49,2.078 -4.255,1.941 -4.002,1.743C-3.749,1.545 -3.486,1.337 -3.214,1.121C-2.942,0.904 -2.651,0.72 -2.341,0.568C-2.031,0.416 -1.706,0.342 -1.365,0.345C-1.024,0.348 -0.665,0.481 -0.289,0.744C0.283,1.144 0.593,1.663 0.643,2.301C0.692,2.94 0.478,3.601 0,4.284" style="fill-rule:nonzero;"/>
    </g>
    <g transform="matrix(5.392086,0,0,5.392086,102.74026,80.01445)">
        <path d="M0,1.462C-0.217,1.673 -0.463,1.771 -0.739,1.756C-1.015,1.74 -1.251,1.632 -1.447,1.431C-1.651,1.222 -1.752,0.982 -1.752,0.713C-1.752,0.445 -1.644,0.205 -1.427,-0.006C-1.218,-0.209 -0.977,-0.309 -0.704,-0.305C-0.432,-0.301 -0.194,-0.195 0.01,0.015C0.206,0.216 0.305,0.457 0.309,0.737C0.312,1.017 0.209,1.259 0,1.462" style="fill-rule:nonzero;"/>
    </g>
    <g transform="matrix(5.392086,0,0,5.392086,149.655718,35.490921)">
        <path d="M0,12.345L-0.566,7.393L0.877,8.181L1.32,11.509L0,12.345ZM0.165,8.633L-6.563,4.033L-5.243,3.196L-0.085,6.867L-0.508,7.134L-1.52,0.837L-0.199,0L0.877,8.181L0.165,8.633Z" style="fill-rule:nonzero;"/>
    </g>
    <g transform="matrix(5.392086,0,0,5.392086,186.494986,30.767454)">
        <path d="M0,4.699C0.448,4.529 0.803,4.277 1.067,3.942C1.33,3.608 1.491,3.226 1.551,2.797C1.61,2.367 1.553,1.924 1.38,1.466C1.209,1.018 0.957,0.656 0.624,0.382C0.291,0.107 -0.081,-0.066 -0.493,-0.138C-0.905,-0.21 -1.335,-0.161 -1.783,0.009C-2.212,0.172 -2.558,0.418 -2.823,0.748C-3.088,1.077 -3.252,1.454 -3.313,1.878C-3.374,2.303 -3.32,2.74 -3.15,3.187C-2.975,3.645 -2.724,4.015 -2.394,4.296C-2.064,4.578 -1.69,4.756 -1.271,4.831C-0.852,4.906 -0.429,4.862 0,4.699M0.483,5.97C-0.189,6.225 -0.859,6.296 -1.526,6.182C-2.194,6.068 -2.793,5.797 -3.324,5.369C-3.854,4.941 -4.249,4.386 -4.508,3.704C-4.764,3.032 -4.834,2.364 -4.718,1.702C-4.602,1.039 -4.333,0.443 -3.909,-0.086C-3.486,-0.614 -2.938,-1.006 -2.266,-1.262C-1.585,-1.521 -0.908,-1.597 -0.238,-1.49C0.433,-1.382 1.033,-1.117 1.562,-0.694C2.091,-0.27 2.483,0.277 2.738,0.949C2.997,1.631 3.071,2.308 2.958,2.981C2.846,3.653 2.576,4.255 2.148,4.786C1.72,5.316 1.165,5.711 0.483,5.97" style="fill-rule:nonzero;"/>
    </g>
    <g transform="matrix(5.392086,0,0,5.392086,230.495483,34.765685)">
        <path d="M0,1.596C0.465,1.531 0.853,1.378 1.167,1.135C1.48,0.892 1.708,0.578 1.849,0.196C1.991,-0.187 2.029,-0.616 1.962,-1.091C1.897,-1.565 1.744,-1.968 1.503,-2.297C1.263,-2.627 0.956,-2.868 0.582,-3.021C0.208,-3.175 -0.206,-3.22 -0.66,-3.156C-1.124,-3.092 -1.518,-2.935 -1.841,-2.685C-2.164,-2.435 -2.401,-2.118 -2.553,-1.734C-2.705,-1.35 -2.749,-0.926 -2.684,-0.462C-2.62,0.003 -2.462,0.402 -2.21,0.735C-1.959,1.068 -1.641,1.311 -1.257,1.462C-0.873,1.615 -0.455,1.659 0,1.596M0.386,6.308C-0.379,6.414 -1.069,6.368 -1.685,6.17C-2.302,5.971 -2.826,5.643 -3.258,5.188L-2.47,4.148C-2.118,4.488 -1.722,4.731 -1.281,4.874C-0.84,5.019 -0.336,5.051 0.232,4.972C0.975,4.869 1.54,4.588 1.929,4.129C2.318,3.67 2.466,3.105 2.372,2.435L2.119,0.608L2.137,-1.083L1.662,-2.69L1.393,-4.625L2.786,-4.818L3.766,2.241C3.863,2.943 3.786,3.582 3.535,4.159C3.284,4.735 2.887,5.211 2.345,5.586C1.802,5.962 1.149,6.202 0.386,6.308M-0.081,2.948C-0.751,3.042 -1.375,2.965 -1.951,2.719C-2.527,2.473 -3.009,2.09 -3.396,1.57C-3.784,1.051 -4.027,0.44 -4.124,-0.262C-4.221,-0.963 -4.156,-1.612 -3.928,-2.206C-3.7,-2.8 -3.34,-3.297 -2.849,-3.698C-2.358,-4.097 -1.781,-4.342 -1.121,-4.434C-0.543,-4.514 -0.013,-4.471 0.467,-4.307C0.948,-4.142 1.345,-3.874 1.659,-3.502C1.974,-3.13 2.185,-2.673 2.292,-2.13L2.562,-0.179C2.606,0.361 2.524,0.854 2.317,1.298C2.111,1.742 1.802,2.109 1.389,2.397C0.977,2.686 0.487,2.87 -0.081,2.948" style="fill-rule:nonzero;"/>
    </g>
    <g transform="matrix(5.392086,0,0,5.392086,289.173237,9.335531)">
        <path d="M0,7.703L0.174,5.71L0.596,3.927L0.488,2.113L0.645,0.307L2.062,0.431L1.417,7.826L0,7.703ZM-2.125,6.341C-1.429,6.401 -0.848,6.214 -0.381,5.779C0.085,5.344 0.351,4.758 0.416,4.021C0.459,3.523 0.398,3.073 0.235,2.672C0.071,2.271 -0.175,1.949 -0.504,1.705C-0.834,1.462 -1.232,1.32 -1.699,1.279C-2.166,1.238 -2.588,1.311 -2.965,1.498C-3.342,1.685 -3.649,1.959 -3.884,2.32C-4.12,2.682 -4.258,3.106 -4.301,3.594C-4.344,4.092 -4.282,4.539 -4.112,4.936C-3.943,5.333 -3.686,5.656 -3.342,5.905C-2.997,6.155 -2.592,6.3 -2.125,6.341M-2.473,7.644C-3.159,7.584 -3.759,7.362 -4.274,6.977C-4.79,6.593 -5.181,6.096 -5.447,5.486C-5.713,4.878 -5.814,4.21 -5.751,3.483C-5.687,2.757 -5.472,2.117 -5.104,1.562C-4.738,1.009 -4.266,0.584 -3.691,0.29C-3.116,-0.005 -2.486,-0.123 -1.802,-0.063C-1.241,-0.014 -0.75,0.146 -0.33,0.418C0.091,0.69 0.419,1.043 0.653,1.476C0.887,1.91 0.996,2.398 0.98,2.94L0.786,5.167C0.709,5.694 0.52,6.154 0.219,6.546C-0.082,6.938 -0.466,7.231 -0.933,7.425C-1.4,7.62 -1.913,7.693 -2.473,7.644" style="fill-rule:nonzero;"/>
    </g>
    <g transform="matrix(5.392086,0,0,5.392086,328.731734,24.06617)">
        <path d="M0,1.954C-0.288,1.862 -0.49,1.691 -0.607,1.441C-0.724,1.19 -0.74,0.931 -0.655,0.663C-0.567,0.385 -0.404,0.183 -0.167,0.056C0.07,-0.071 0.333,-0.089 0.621,0.003C0.899,0.092 1.101,0.257 1.226,0.499C1.351,0.741 1.369,1.001 1.281,1.279C1.196,1.547 1.03,1.749 0.785,1.884C0.539,2.019 0.278,2.043 0,1.954" style="fill-rule:nonzero;"/>
    </g>
    <g transform="matrix(5.392086,0,0,5.392086,360.730526,40.747126)">
        <path d="M0,6.728C-0.636,6.371 -1.126,5.898 -1.471,5.31C-1.816,4.722 -1.992,4.088 -2,3.41C-2.007,2.73 -1.834,2.077 -1.482,1.451C-1.125,0.814 -0.656,0.325 -0.075,-0.018C0.506,-0.361 1.136,-0.536 1.815,-0.543C2.494,-0.55 3.152,-0.375 3.788,-0.018C4.288,0.263 4.699,0.616 5.021,1.042C5.344,1.468 5.56,1.945 5.67,2.473L4.393,2.831C4.326,2.483 4.181,2.166 3.959,1.879C3.738,1.594 3.458,1.356 3.122,1.167C2.714,0.938 2.298,0.827 1.875,0.835C1.452,0.842 1.059,0.959 0.693,1.184C0.328,1.409 0.025,1.735 -0.214,2.162C-0.455,2.589 -0.575,3.017 -0.577,3.446C-0.579,3.875 -0.475,4.274 -0.264,4.644C-0.053,5.014 0.257,5.313 0.666,5.542C1.011,5.736 1.361,5.852 1.716,5.89C2.071,5.928 2.419,5.888 2.761,5.769L3.106,7.038C2.612,7.215 2.096,7.278 1.558,7.226C1.019,7.175 0.5,7.008 0,6.728" style="fill-rule:nonzero;"/>
    </g>
    <g transform="matrix(5.392086,0,0,5.392086,395.822219,72.845133)">
        <path d="M0,3.773C0.362,4.087 0.753,4.281 1.172,4.354C1.591,4.428 2.003,4.389 2.41,4.238C2.816,4.088 3.18,3.827 3.501,3.457C3.815,3.095 4.014,2.702 4.098,2.279C4.183,1.855 4.159,1.445 4.027,1.048C3.895,0.652 3.648,0.296 3.286,-0.018C2.94,-0.318 2.559,-0.507 2.143,-0.585C1.728,-0.662 1.319,-0.628 0.915,-0.481C0.512,-0.334 0.154,-0.079 -0.16,0.283C-0.481,0.653 -0.687,1.05 -0.779,1.474C-0.871,1.898 -0.85,2.312 -0.718,2.716C-0.586,3.12 -0.347,3.473 0,3.773M-0.89,4.801C-1.434,4.33 -1.814,3.773 -2.029,3.131C-2.245,2.489 -2.29,1.833 -2.164,1.163C-2.038,0.493 -1.736,-0.118 -1.258,-0.669C-0.788,-1.212 -0.233,-1.59 0.406,-1.801C1.045,-2.013 1.697,-2.058 2.363,-1.936C3.029,-1.813 3.634,-1.516 4.177,-1.045C4.728,-0.568 5.115,-0.008 5.338,0.634C5.561,1.275 5.611,1.929 5.489,2.595C5.367,3.261 5.07,3.866 4.599,4.409C4.121,4.96 3.56,5.345 2.915,5.565C2.269,5.785 1.611,5.831 0.941,5.706C0.271,5.58 -0.34,5.278 -0.89,4.801" style="fill-rule:nonzero;"/>
    </g>
    <g transform="matrix(5.392086,0,0,5.392086,433.368929,105.929353)">
        <path d="M0,0.48L-0.131,-0.093C0.615,-0.677 1.345,-0.971 2.057,-0.974C2.77,-0.977 3.38,-0.654 3.888,-0.007C4.12,0.289 4.278,0.595 4.362,0.914C4.445,1.232 4.449,1.587 4.372,1.978L3.052,1.84C3.087,1.615 3.075,1.405 3.017,1.213C2.959,1.021 2.853,0.826 2.698,0.628C2.377,0.218 1.982,-0.015 1.514,-0.071C1.046,-0.128 0.541,0.056 0,0.48M-4.189,1.977L1.654,-2.604L2.521,-1.497L-3.321,3.084L-4.189,1.977Z" style="fill-rule:nonzero;"/>
    </g>
    <g transform="matrix(5.392086,0,0,5.392086,444.790445,137.744814)">
        <path d="M0,3.385C0.215,3.802 0.5,4.118 0.857,4.333C1.213,4.547 1.607,4.658 2.039,4.665C2.47,4.672 2.908,4.561 3.352,4.331C3.788,4.108 4.128,3.818 4.373,3.464C4.618,3.109 4.757,2.724 4.79,2.309C4.822,1.894 4.731,1.478 4.517,1.061C4.306,0.653 4.023,0.342 3.667,0.127C3.31,-0.088 2.917,-0.197 2.489,-0.198C2.06,-0.2 1.624,-0.087 1.179,0.142C0.743,0.366 0.401,0.65 0.151,0.996C-0.1,1.342 -0.239,1.724 -0.27,2.144C-0.3,2.564 -0.21,2.977 0,3.385M-1.074,4.201C-1.332,3.701 -1.46,3.196 -1.459,2.685C-1.458,2.175 -1.334,1.704 -1.087,1.273C-0.841,0.841 -0.488,0.49 -0.03,0.219L1.957,-0.804C2.454,-1.024 2.948,-1.106 3.44,-1.049C3.932,-0.991 4.387,-0.815 4.803,-0.519C5.218,-0.223 5.553,0.17 5.805,0.661C6.115,1.264 6.243,1.886 6.187,2.53C6.132,3.174 5.916,3.768 5.54,4.313C5.164,4.858 4.652,5.298 4.004,5.631C3.355,5.965 2.7,6.127 2.038,6.115C1.376,6.105 0.769,5.933 0.218,5.602C-0.334,5.27 -0.764,4.804 -1.074,4.201M-5.488,2.079L3.879,-2.742L4.522,-1.491L2.785,-0.597L1.065,-0.011L-0.426,1.055L-4.845,3.329L-5.488,2.079Z" style="fill-rule:nonzero;"/>
    </g>
    <g transform="matrix(5.392086,0,0,5.392086,452.574999,184.992964)">
        <path d="M0,1.935C-0.114,1.534 -0.169,1.138 -0.167,0.748C-0.164,0.357 -0.107,-0.014 0.005,-0.365C0.116,-0.717 0.276,-1.041 0.484,-1.338L1.603,-0.714C1.357,-0.362 1.204,0.006 1.146,0.391C1.087,0.776 1.117,1.179 1.237,1.6C1.357,2.021 1.522,2.326 1.733,2.515C1.943,2.705 2.179,2.762 2.44,2.688C2.7,2.614 2.877,2.464 2.97,2.237C3.062,2.01 3.115,1.738 3.128,1.421C3.14,1.102 3.145,0.768 3.143,0.417C3.141,0.066 3.174,-0.277 3.241,-0.611C3.309,-0.944 3.449,-1.241 3.662,-1.502C3.875,-1.763 4.198,-1.954 4.629,-2.077C5.06,-2.199 5.462,-2.203 5.836,-2.087C6.21,-1.971 6.536,-1.747 6.815,-1.414C7.093,-1.082 7.309,-0.65 7.459,-0.119C7.619,0.443 7.663,0.969 7.591,1.461C7.52,1.952 7.328,2.394 7.017,2.785L5.897,2.161C6.098,1.877 6.227,1.569 6.285,1.239C6.342,0.908 6.319,0.557 6.214,0.186C6.103,-0.205 5.948,-0.483 5.749,-0.648C5.55,-0.814 5.336,-0.864 5.105,-0.799C4.865,-0.73 4.705,-0.588 4.626,-0.37C4.547,-0.152 4.504,0.117 4.498,0.438C4.492,0.759 4.486,1.094 4.482,1.442C4.478,1.79 4.437,2.132 4.359,2.468C4.281,2.804 4.133,3.103 3.916,3.366C3.698,3.628 3.368,3.822 2.927,3.947C2.256,4.138 1.657,4.05 1.131,3.685C0.605,3.32 0.228,2.737 0,1.935" style="fill-rule:nonzero;"/>
    </g>
    <g transform="matrix(5.392086,0,0,5.392086,485.196577,229.329388)">
        <path d="M0,0.177C-0.026,-0.124 0.054,-0.377 0.241,-0.581C0.427,-0.785 0.66,-0.899 0.941,-0.924C1.231,-0.948 1.481,-0.876 1.689,-0.705C1.897,-0.535 2.014,-0.3 2.04,0.002C2.065,0.292 1.99,0.542 1.814,0.751C1.638,0.959 1.405,1.076 1.115,1.101C0.834,1.125 0.585,1.05 0.366,0.875C0.147,0.7 0.025,0.468 0,0.177" style="fill-rule:nonzero;"/>
    </g>
    <g transform="matrix(5.392086,0,0,5.392086,458.395216,276.614744)">
        <path d="M0,-0.09C0.083,-0.815 0.329,-1.45 0.738,-1.996C1.147,-2.541 1.663,-2.949 2.286,-3.218C2.909,-3.487 3.579,-3.581 4.293,-3.499C5.017,-3.416 5.65,-3.173 6.191,-2.77C6.732,-2.367 7.138,-1.854 7.407,-1.23C7.677,-0.607 7.77,0.067 7.686,0.792C7.621,1.361 7.455,1.877 7.186,2.339C6.918,2.801 6.563,3.185 6.118,3.491L5.294,2.452C5.588,2.255 5.826,1.999 6.003,1.684C6.181,1.369 6.292,1.02 6.336,0.637C6.389,0.171 6.33,-0.256 6.16,-0.642C5.989,-1.029 5.729,-1.347 5.381,-1.597C5.031,-1.847 4.614,-1.999 4.127,-2.055C3.641,-2.111 3.199,-2.057 2.803,-1.893C2.406,-1.728 2.079,-1.478 1.82,-1.14C1.561,-0.802 1.404,-0.401 1.351,0.065C1.306,0.458 1.335,0.826 1.437,1.168C1.539,1.51 1.711,1.816 1.953,2.085L0.917,2.894C0.562,2.507 0.304,2.056 0.144,1.539C-0.018,1.023 -0.065,0.479 0,-0.09" style="fill-rule:nonzero;"/>
    </g>
    <g transform="matrix(5.392086,0,0,5.392086,457.060675,323.386773)">
        <path d="M0,-1.608C-0.15,-1.153 -0.178,-0.718 -0.084,-0.303C0.01,0.112 0.204,0.478 0.5,0.795C0.796,1.112 1.177,1.347 1.642,1.5C2.097,1.65 2.537,1.682 2.96,1.597C3.383,1.511 3.752,1.331 4.067,1.056C4.383,0.782 4.616,0.417 4.765,-0.039C4.909,-0.474 4.936,-0.898 4.848,-1.312C4.758,-1.725 4.569,-2.089 4.278,-2.404C3.987,-2.72 3.613,-2.952 3.158,-3.102C2.693,-3.255 2.247,-3.293 1.821,-3.214C1.394,-3.134 1.02,-2.956 0.698,-2.678C0.376,-2.4 0.144,-2.043 0,-1.608M-1.291,-2.033C-1.067,-2.716 -0.7,-3.281 -0.19,-3.728C0.319,-4.174 0.906,-4.469 1.573,-4.611C2.24,-4.754 2.92,-4.711 3.613,-4.483C4.295,-4.258 4.858,-3.891 5.299,-3.384C5.741,-2.877 6.034,-2.292 6.178,-1.63C6.322,-0.968 6.282,-0.296 6.057,0.387C5.829,1.08 5.462,1.653 4.956,2.106C4.45,2.559 3.866,2.858 3.205,3.002C2.542,3.146 1.87,3.105 1.187,2.881C0.495,2.653 -0.078,2.283 -0.529,1.772C-0.981,1.262 -1.278,0.673 -1.42,0.006C-1.563,-0.661 -1.52,-1.341 -1.291,-2.033" style="fill-rule:nonzero;"/>
    </g>
    <g transform="matrix(5.392086,0,0,5.392086,441.759553,383.260491)">
        <path d="M0,-8.514L6.379,-4.716L5.66,-3.508L-0.719,-7.305L0,-8.514ZM-2.679,-4.015L1.042,-1.8C1.525,-1.512 2.013,-1.425 2.505,-1.539C2.997,-1.652 3.387,-1.95 3.675,-2.434C3.866,-2.756 3.965,-3.086 3.972,-3.421C3.977,-3.758 3.897,-4.072 3.732,-4.364C3.567,-4.657 3.323,-4.899 3.001,-5.091L3.579,-5.42C4.062,-5.132 4.428,-4.769 4.676,-4.33C4.924,-3.891 5.043,-3.414 5.033,-2.898C5.023,-2.383 4.875,-1.883 4.587,-1.4C4.299,-0.916 3.924,-0.561 3.46,-0.333C2.998,-0.106 2.508,0 1.991,-0.017C1.473,-0.034 0.995,-0.173 0.556,-0.435L-3.406,-2.793L-2.679,-4.015Z" style="fill-rule:nonzero;"/>
    </g>
    <g transform="matrix(5.392086,0,0,5.392086,409.350423,410.250575)">
        <path d="M0,-5.063C0.277,-5.374 0.581,-5.634 0.912,-5.842C1.243,-6.049 1.587,-6.2 1.943,-6.295C2.299,-6.389 2.659,-6.429 3.021,-6.413L3.096,-5.132C2.667,-5.152 2.274,-5.083 1.918,-4.926C1.562,-4.769 1.238,-4.526 0.947,-4.199C0.656,-3.872 0.488,-3.57 0.441,-3.29C0.394,-3.01 0.472,-2.781 0.675,-2.6C0.877,-2.42 1.099,-2.352 1.34,-2.396C1.581,-2.439 1.839,-2.541 2.114,-2.701C2.389,-2.861 2.674,-3.036 2.969,-3.227C3.264,-3.417 3.57,-3.573 3.888,-3.695C4.206,-3.817 4.531,-3.859 4.866,-3.819C5.201,-3.78 5.535,-3.61 5.87,-3.313C6.204,-3.015 6.424,-2.677 6.527,-2.299C6.63,-1.921 6.616,-1.526 6.485,-1.112C6.354,-0.699 6.105,-0.285 5.738,0.127C5.35,0.563 4.929,0.883 4.476,1.086C4.023,1.29 3.548,1.366 3.05,1.313L2.976,0.033C3.324,0.05 3.652,-0.006 3.963,-0.135C4.272,-0.264 4.555,-0.472 4.812,-0.76C5.082,-1.064 5.234,-1.344 5.266,-1.6C5.299,-1.857 5.227,-2.065 5.047,-2.224C4.861,-2.39 4.654,-2.449 4.429,-2.398C4.202,-2.348 3.952,-2.24 3.678,-2.072C3.404,-1.905 3.119,-1.73 2.823,-1.546C2.527,-1.363 2.217,-1.214 1.892,-1.099C1.566,-0.985 1.234,-0.948 0.896,-0.991C0.558,-1.035 0.217,-1.208 -0.126,-1.513C-0.647,-1.977 -0.895,-2.529 -0.87,-3.169C-0.844,-3.809 -0.554,-4.44 0,-5.063" style="fill-rule:nonzero;"/>
    </g>
    <g transform="matrix(5.392086,0,0,5.392086,380.858643,441.985156)">
        <path d="M0,-6.064C0.574,-6.514 1.199,-6.786 1.874,-6.878C2.55,-6.971 3.203,-6.89 3.832,-6.636C4.462,-6.381 4.998,-5.971 5.442,-5.405C5.892,-4.831 6.164,-4.21 6.258,-3.542C6.351,-2.874 6.27,-2.225 6.016,-1.595C5.762,-0.966 5.348,-0.425 4.774,0.024C4.323,0.378 3.839,0.622 3.322,0.756C2.804,0.89 2.281,0.907 1.751,0.805L1.911,-0.511C2.258,-0.44 2.606,-0.451 2.956,-0.546C3.305,-0.641 3.631,-0.808 3.935,-1.046C4.304,-1.335 4.566,-1.676 4.721,-2.069C4.876,-2.463 4.92,-2.871 4.852,-3.295C4.785,-3.718 4.6,-4.123 4.298,-4.508C3.996,-4.894 3.647,-5.17 3.252,-5.337C2.856,-5.503 2.448,-5.56 2.025,-5.507C1.603,-5.454 1.208,-5.283 0.839,-4.994C0.528,-4.75 0.286,-4.471 0.114,-4.158C-0.057,-3.844 -0.154,-3.507 -0.175,-3.146L-1.479,-3.315C-1.453,-3.839 -1.313,-4.339 -1.058,-4.817C-0.804,-5.295 -0.451,-5.71 0,-6.064" style="fill-rule:nonzero;"/>
    </g>
    <g transform="matrix(5.392086,0,0,5.392086,384.851482,430.971821)">
        <path d="M0,6.349C0.225,6.218 0.453,6.185 0.684,6.25C0.914,6.315 1.095,6.461 1.225,6.686C1.351,6.902 1.385,7.127 1.327,7.359C1.269,7.591 1.127,7.773 0.902,7.904C0.677,8.034 0.449,8.067 0.218,8.002C-0.012,7.937 -0.19,7.796 -0.316,7.58C-0.447,7.355 -0.483,7.126 -0.425,6.894C-0.367,6.661 -0.225,6.479 0,6.349M-3.848,-1.718L-0.123,4.703L-1.353,5.418L-5.078,-1.005L-3.848,-1.718Z" style="fill-rule:nonzero;"/>
    </g>
    <g transform="matrix(5.392086,0,0,5.392086,332.128748,474.858006)">
        <path d="M0,-7.123C0.698,-7.399 1.383,-7.487 2.055,-7.388C2.727,-7.29 3.33,-7.032 3.864,-6.615C4.398,-6.198 4.801,-5.646 5.072,-4.958C5.34,-4.28 5.424,-3.607 5.323,-2.939C5.223,-2.273 4.965,-1.676 4.552,-1.148C4.138,-0.621 3.597,-0.225 2.928,0.039C2.298,0.288 1.679,0.364 1.069,0.269C0.46,0.173 -0.084,-0.078 -0.562,-0.482C-1.042,-0.887 -1.411,-1.418 -1.671,-2.077C-1.71,-2.174 -1.746,-2.281 -1.78,-2.396C-1.814,-2.511 -1.844,-2.642 -1.868,-2.789L3.961,-5.091L4.392,-4L-0.74,-1.974L-0.427,-2.585C-0.244,-2.12 -0.005,-1.758 0.288,-1.498C0.581,-1.239 0.913,-1.079 1.284,-1.018C1.656,-0.957 2.055,-1.011 2.481,-1.179C2.926,-1.355 3.281,-1.607 3.544,-1.935C3.806,-2.263 3.961,-2.638 4.007,-3.059C4.054,-3.48 3.983,-3.929 3.795,-4.404C3.604,-4.888 3.34,-5.274 3.003,-5.561C2.666,-5.848 2.279,-6.02 1.841,-6.077C1.404,-6.134 0.953,-6.071 0.488,-5.887C0.1,-5.734 -0.229,-5.526 -0.5,-5.262C-0.771,-4.998 -0.97,-4.685 -1.095,-4.321L-2.277,-4.846C-2.091,-5.368 -1.8,-5.824 -1.406,-6.215C-1.012,-6.606 -0.543,-6.909 0,-7.123" style="fill-rule:nonzero;"/>
    </g>
    <g transform="matrix(5.392086,0,0,5.392086,310.215851,489.245169)">
        <path d="M0,-8.181L1.202,-0.855L-0.186,-0.627L-1.388,-7.953L0,-8.181ZM-5.167,-7.333L-4.466,-3.061C-4.375,-2.506 -4.128,-2.076 -3.724,-1.773C-3.321,-1.47 -2.841,-1.363 -2.286,-1.454C-1.916,-1.515 -1.6,-1.652 -1.34,-1.863C-1.078,-2.075 -0.889,-2.338 -0.772,-2.653C-0.655,-2.968 -0.627,-3.31 -0.687,-3.681L-0.064,-3.45C0.028,-2.895 -0.015,-2.382 -0.191,-1.909C-0.367,-1.437 -0.655,-1.038 -1.056,-0.714C-1.457,-0.389 -1.935,-0.182 -2.49,-0.091C-3.045,0 -3.559,-0.058 -4.031,-0.266C-4.503,-0.473 -4.899,-0.78 -5.22,-1.187C-5.54,-1.594 -5.742,-2.049 -5.824,-2.553L-6.571,-7.103L-5.167,-7.333Z" style="fill-rule:nonzero;"/>
    </g>
    <g transform="matrix(5.392086,0,0,5.392086,249.034012,491.227299)">
        <path d="M0,-7.737C0.729,-7.709 1.381,-7.512 1.956,-7.145C2.531,-6.779 2.976,-6.295 3.292,-5.694C3.607,-5.092 3.751,-4.432 3.723,-3.714C3.695,-2.985 3.501,-2.336 3.139,-1.765C2.778,-1.195 2.297,-0.752 1.695,-0.437C1.094,-0.122 0.429,0.022 -0.3,-0.006C-0.872,-0.028 -1.399,-0.156 -1.881,-0.388C-2.361,-0.621 -2.771,-0.947 -3.11,-1.367L-2.136,-2.267C-1.917,-1.988 -1.645,-1.771 -1.317,-1.617C-0.989,-1.464 -0.632,-1.38 -0.247,-1.365C0.222,-1.347 0.642,-1.438 1.015,-1.636C1.388,-1.836 1.685,-2.119 1.908,-2.486C2.131,-2.853 2.252,-3.28 2.27,-3.77C2.29,-4.259 2.203,-4.695 2.009,-5.078C1.815,-5.461 1.54,-5.769 1.184,-6.002C0.828,-6.235 0.416,-6.36 -0.053,-6.378C-0.448,-6.394 -0.813,-6.337 -1.146,-6.209C-1.48,-6.082 -1.771,-5.887 -2.022,-5.626L-2.907,-6.599C-2.548,-6.981 -2.116,-7.272 -1.614,-7.471C-1.11,-7.671 -0.573,-7.759 0,-7.737" style="fill-rule:nonzero;"/>
    </g>
    <g transform="matrix(5.392086,0,0,5.392086,211.807053,484.635475)">
        <path d="M0,-7.554C0.73,-7.379 1.341,-7.058 1.834,-6.59C2.328,-6.124 2.673,-5.567 2.871,-4.919C3.069,-4.271 3.082,-3.588 2.909,-2.868C2.738,-2.16 2.421,-1.561 1.955,-1.072C1.489,-0.584 0.935,-0.243 0.294,-0.049C-0.347,0.146 -1.017,0.158 -1.717,-0.01C-2.375,-0.168 -2.926,-0.461 -3.37,-0.889C-3.814,-1.317 -4.115,-1.835 -4.275,-2.44C-4.435,-3.047 -4.431,-3.695 -4.266,-4.384C-4.242,-4.485 -4.21,-4.593 -4.172,-4.707C-4.134,-4.821 -4.083,-4.945 -4.019,-5.079L2.076,-3.615L1.802,-2.475L-3.563,-3.765L-2.956,-4.085C-3.072,-3.598 -3.086,-3.165 -2.995,-2.784C-2.904,-2.403 -2.724,-2.082 -2.455,-1.819C-2.186,-1.556 -1.829,-1.371 -1.383,-1.264C-0.917,-1.152 -0.482,-1.154 -0.079,-1.272C0.324,-1.389 0.666,-1.607 0.946,-1.926C1.226,-2.244 1.426,-2.651 1.545,-3.148C1.667,-3.654 1.672,-4.122 1.561,-4.551C1.45,-4.979 1.232,-5.342 0.906,-5.64C0.582,-5.938 0.176,-6.146 -0.31,-6.263C-0.716,-6.36 -1.105,-6.378 -1.478,-6.318C-1.852,-6.258 -2.194,-6.115 -2.505,-5.89L-3.172,-6.998C-2.72,-7.318 -2.22,-7.525 -1.672,-7.619C-1.125,-7.712 -0.567,-7.69 0,-7.554" style="fill-rule:nonzero;"/>
    </g>
    <g transform="matrix(5.392086,0,0,5.392086,268.239004,336.224789)">
        <path d="M0,-12.774C-0.373,-13.406 -0.915,-14.487 -1.59,-14.424C-1.977,-14.397 -2.296,-13.954 -2.511,-13.614C-3.413,-12.175 -4.19,-10.426 -4.743,-8.897C-5.492,-6.822 -5.414,-4.567 -4.588,-2.525C-4.058,-1.163 -2.94,0.577 -1.749,1.395C-1.02,1.713 -0.329,0.603 0.135,0.135C3.418,-3.863 2.517,-8.555 0.055,-12.677L0,-12.774Z" style="fill-rule:nonzero;"/>
    </g>
    <g transform="matrix(5.392086,0,0,5.392086,326.885483,325.422285)">
        <path d="M0,-7.036C-1.93,-7.965 -4.495,-8.089 -6.573,-8.787C-6.724,-8.819 -7.028,-8.953 -7.173,-8.766C-7.272,-8.604 -7.113,-8.153 -7.083,-8.04C-6.232,-5.472 -6.262,-2.429 -4.41,-0.311C-2.627,1.917 0.402,0.09 1.63,-1.81C3.207,-4.019 2.349,-5.864 0.089,-6.988L0,-7.036Z" style="fill-rule:nonzero;"/>
    </g>
    <g transform="matrix(5.392086,0,0,5.392086,189.247107,293.535647)">
        <path d="M0,5.124C3.043,8.234 5.835,6.332 6.744,2.628C7.137,0.89 7.424,-0.771 7.933,-2.45C8.124,-3.11 7.433,-2.837 7.138,-2.754C5.663,-2.295 4.196,-2.072 2.68,-1.712C-1.084,-0.868 -3.262,1.838 -0.081,5.041L0,5.124Z" style="fill-rule:nonzero;"/>
    </g>
    <g transform="matrix(5.392086,0,0,5.392086,251.936572,167.727506)">
        <path d="M0,12.008C0.482,12.91 1.383,14.419 2.259,13.208C3.591,11.145 4.734,8.793 5.183,6.361C5.635,3.276 4.308,-0.272 1.756,-2.168C1.292,-2.411 0.814,-1.901 0.471,-1.555C-0.003,-1.071 -0.421,-0.538 -0.777,0.035C-3.304,3.789 -2.213,8.259 -0.055,11.911L0,12.008Z" style="fill-rule:nonzero;"/>
    </g>
    <g transform="matrix(5.392086,0,0,5.392086,251.25663,245.626967)">
        <path d="M0,1.1C0.723,-0.185 -4.599,-2.056 -5.53,-2.446C-9.084,-3.742 -13.731,-2.425 -15.836,0.761C-15.857,1.167 -15.194,1.707 -14.877,2.03C-12.837,3.843 -10.13,4.842 -7.435,4.516C-5.069,4.151 -2.752,2.977 -0.686,1.729C-0.416,1.549 -0.183,1.366 -0.043,1.167L0,1.1Z" style="fill-rule:nonzero;"/>
    </g>
    <g transform="matrix(5.392086,0,0,5.392086,315.655926,227.903721)">
        <path d="M0,7.828C2.278,7.799 4.803,6.667 6.441,5.073C6.701,4.785 7.237,4.349 7.171,3.987C5.455,1.405 1.814,-0.002 -1.233,0.357C-3.598,0.722 -5.925,1.892 -7.987,3.142C-8.85,3.668 -9.041,4.358 -8.105,4.923C-5.761,6.342 -2.956,7.829 -0.11,7.83L0,7.828Z" style="fill-rule:nonzero;"/>
    </g>
    <g transform="matrix(5.392086,0,0,5.392086,230.35421,171.929559)">
        <path d="M0,7.795C-0.606,5.684 -0.748,3.069 -2.106,1.224C-3.875,-1.646 -7.238,0.175 -8.626,2.456C-11.676,7.724 -3.709,8.232 -0.447,9.207C-0.096,9.322 0.408,9.441 0.26,8.878C0.176,8.448 0.115,8.283 0.025,7.895L0,7.795Z" style="fill-rule:nonzero;"/>
    </g>
    <g transform="matrix(5.392086,0,0,5.392086,330.968371,210.808653)">
        <path d="M0,-5.978C-1.995,-8.08 -4.65,-8.191 -6.014,-5.381C-7.145,-3.205 -7.185,-0.611 -7.943,1.619C-8.092,2.213 -7.412,2.002 -7.153,1.918C-5.674,1.459 -4.205,1.235 -2.685,0.875C1.087,0.031 3.269,-2.693 0.081,-5.896L0,-5.978Z" style="fill-rule:nonzero;"/>
    </g>
</svg>
