<?xml version="1.0" encoding="UTF-8" standalone="no"?>
<!DOCTYPE svg PUBLIC "-//W3C//DTD SVG 1.1//EN" "http://www.w3.org/Graphics/SVG/1.1/DTD/svg11.dtd">
<svg width="100%" height="100%" viewBox="0 0 500 500" version="1.1" xmlns="http://www.w3.org/2000/svg" xmlns:xlink="http://www.w3.org/1999/xlink" xml:space="preserve" xmlns:serif="http://www.serif.com/" style="fill-rule:evenodd;clip-rule:evenodd;stroke-linejoin:round;stroke-miterlimit:2;">
    <g transform="matrix(4.234514,0,0,4.234514,136.22305,360.598523)">
        <path d="M0,1.281L0,0.669L1.9,0.669C2.17,0.669 2.41,0.616 2.62,0.509C2.831,0.403 2.994,0.25 3.114,0.053C3.233,-0.145 3.293,-0.381 3.293,-0.657C3.293,-0.933 3.233,-1.17 3.114,-1.368C2.994,-1.565 2.831,-1.717 2.62,-1.824C2.41,-1.931 2.17,-1.984 1.9,-1.984L0,-1.984L0,-2.596L1.957,-2.596C2.346,-2.596 2.694,-2.515 3.002,-2.355C3.308,-2.195 3.551,-1.969 3.73,-1.678C3.909,-1.386 3.998,-1.046 3.998,-0.657C3.998,-0.262 3.909,0.08 3.73,0.368C3.551,0.657 3.308,0.881 3.002,1.041C2.694,1.201 2.346,1.281 1.957,1.281L0,1.281ZM-0.451,-2.596L0.245,-2.596L0.245,3.877L-0.451,3.877L-0.451,-2.596Z" style="fill:rgb(169,114,223);fill-rule:nonzero;"/>
    </g>
    <g transform="matrix(4.234514,0,0,4.234514,-712.494696,-1566.176141)">
        <path d="M205.537,454.472L206.205,454.472L206.205,458.894L205.537,458.894L205.537,454.472ZM205.866,453.522C205.741,453.522 205.634,453.475 205.547,453.381C205.459,453.287 205.415,453.177 205.415,453.051C205.415,452.92 205.459,452.811 205.547,452.723C205.634,452.635 205.741,452.591 205.866,452.591C206.005,452.591 206.116,452.635 206.201,452.723C206.285,452.811 206.328,452.92 206.328,453.051C206.328,453.177 206.285,453.287 206.201,453.381C206.116,453.475 206.005,453.522 205.866,453.522" style="fill:rgb(169,114,223);fill-rule:nonzero;"/>
    </g>
    <g transform="matrix(4.234514,0,0,4.234514,-712.494696,-1567.683628)">
        <rect x="207.532" y="452.59" width="0.668" height="6.661" style="fill:rgb(169,114,223);"/>
    </g>
    <g transform="matrix(4.234514,0,0,4.234514,189.607571,358.292407)">
        <path d="M0,4.422L0,3.237L0.131,2.146L0,1.082L0,0L0.668,0L0.668,4.422L0,4.422ZM-1.486,3.886C-1.022,3.886 -0.653,3.732 -0.376,3.424C-0.101,3.118 0.038,2.713 0.038,2.211C0.038,1.879 -0.025,1.587 -0.15,1.336C-0.276,1.085 -0.455,0.889 -0.686,0.748C-0.919,0.607 -1.189,0.537 -1.496,0.537C-1.803,0.537 -2.078,0.609 -2.319,0.753C-2.561,0.897 -2.752,1.095 -2.893,1.346C-3.034,1.596 -3.105,1.885 -3.105,2.211C-3.105,2.537 -3.034,2.826 -2.893,3.077C-2.752,3.328 -2.559,3.525 -2.314,3.669C-2.069,3.814 -1.794,3.886 -1.486,3.886M-1.59,4.516C-2.004,4.516 -2.377,4.414 -2.709,4.21C-3.042,4.006 -3.306,3.732 -3.5,3.387C-3.694,3.042 -3.791,2.653 -3.791,2.22C-3.791,1.781 -3.694,1.388 -3.5,1.039C-3.306,0.692 -3.044,0.415 -2.714,0.212C-2.385,0.008 -2.013,-0.094 -1.599,-0.094C-1.261,-0.094 -0.958,-0.026 -0.691,0.108C-0.425,0.243 -0.207,0.432 -0.038,0.673C0.131,0.914 0.232,1.195 0.263,1.514L0.263,2.897C0.225,3.217 0.124,3.5 -0.042,3.744C-0.209,3.989 -0.423,4.179 -0.686,4.314C-0.95,4.449 -1.252,4.516 -1.59,4.516" style="fill:rgb(169,114,223);fill-rule:nonzero;"/>
    </g>
    <g transform="matrix(4.234514,0,0,4.234514,-712.494696,-1566.09145)">
        <path d="M215.669,452.59L216.337,452.59L216.337,458.875L215.669,458.875L215.669,452.59ZM214.56,454.452L217.448,454.452L217.448,455.054L214.56,455.054L214.56,454.452Z" style="fill:rgb(169,114,223);fill-rule:nonzero;"/>
    </g>
    <g transform="matrix(4.234514,0,0,4.234514,220.040177,357.894362)">
        <path d="M0,4.61C-0.439,4.61 -0.834,4.51 -1.185,4.309C-1.537,4.108 -1.814,3.832 -2.018,3.481C-2.222,3.13 -2.323,2.735 -2.323,2.296C-2.323,1.863 -2.225,1.472 -2.027,1.124C-1.829,0.777 -1.558,0.502 -1.214,0.301C-0.868,0.101 -0.482,0 -0.056,0C0.351,0 0.71,0.091 1.021,0.273C1.331,0.455 1.576,0.707 1.755,1.03C1.933,1.353 2.022,1.725 2.022,2.145C2.022,2.195 2.02,2.253 2.013,2.319C2.007,2.385 1.995,2.462 1.976,2.55L-1.853,2.55L-1.853,1.985L1.609,1.985L1.374,2.192C1.38,1.872 1.325,1.595 1.209,1.36C1.093,1.124 0.927,0.941 0.71,0.809C0.494,0.677 0.236,0.612 -0.065,0.612C-0.385,0.612 -0.665,0.682 -0.903,0.824C-1.141,0.964 -1.328,1.159 -1.463,1.407C-1.598,1.654 -1.665,1.944 -1.665,2.277C-1.665,2.615 -1.595,2.913 -1.453,3.171C-1.312,3.428 -1.115,3.629 -0.861,3.773C-0.606,3.917 -0.314,3.989 0.019,3.989C0.283,3.989 0.527,3.94 0.753,3.843C0.979,3.747 1.17,3.6 1.327,3.406L1.759,3.838C1.552,4.089 1.295,4.281 0.988,4.413C0.68,4.544 0.351,4.61 0,4.61" style="fill:rgb(169,114,223);fill-rule:nonzero;"/>
    </g>
    <g transform="matrix(4.234514,0,0,4.234514,238.605558,357.894362)">
        <path d="M0,4.61C-0.238,4.61 -0.467,4.577 -0.686,4.512C-0.907,4.445 -1.105,4.353 -1.284,4.234C-1.463,4.114 -1.621,3.974 -1.759,3.81L-1.327,3.378C-1.151,3.591 -0.952,3.749 -0.729,3.853C-0.506,3.956 -0.257,4.008 0.019,4.008C0.307,4.008 0.535,3.951 0.701,3.838C0.867,3.726 0.95,3.569 0.95,3.368C0.95,3.18 0.892,3.035 0.776,2.931C0.66,2.827 0.508,2.742 0.32,2.677C0.132,2.611 -0.066,2.548 -0.273,2.489C-0.48,2.429 -0.676,2.354 -0.861,2.263C-1.046,2.172 -1.198,2.046 -1.317,1.886C-1.436,1.726 -1.496,1.512 -1.496,1.242C-1.496,0.991 -1.433,0.773 -1.307,0.588C-1.182,0.404 -1.007,0.259 -0.781,0.156C-0.555,0.052 -0.283,0 0.038,0C0.37,0 0.671,0.06 0.94,0.179C1.21,0.298 1.427,0.473 1.59,0.706L1.157,1.138C1.032,0.969 0.871,0.837 0.673,0.744C0.475,0.649 0.254,0.602 0.009,0.602C-0.273,0.602 -0.488,0.657 -0.635,0.767C-0.783,0.877 -0.856,1.019 -0.856,1.195C-0.856,1.365 -0.796,1.498 -0.677,1.595C-0.558,1.693 -0.406,1.771 -0.221,1.83C-0.036,1.889 0.16,1.949 0.367,2.009C0.574,2.069 0.772,2.147 0.96,2.244C1.147,2.341 1.3,2.473 1.416,2.639C1.532,2.805 1.59,3.03 1.59,3.312C1.59,3.707 1.447,4.022 1.162,4.258C0.877,4.492 0.49,4.61 0,4.61" style="fill:rgb(169,114,223);fill-rule:nonzero;"/>
    </g>
    <g transform="matrix(4.234514,0,0,4.234514,250.118778,373.748807)">
        <path d="M0,1.741L0.536,0.696L0.781,0.64C0.756,0.696 0.721,0.745 0.677,0.786C0.633,0.826 0.577,0.847 0.508,0.847C0.388,0.847 0.28,0.798 0.183,0.701C0.086,0.604 0.038,0.483 0.038,0.339C0.038,0.189 0.091,0.059 0.197,-0.052C0.304,-0.161 0.435,-0.216 0.593,-0.216C0.737,-0.216 0.863,-0.161 0.974,-0.052C1.084,0.059 1.138,0.189 1.138,0.339C1.138,0.402 1.127,0.475 1.105,0.56C1.084,0.645 1.038,0.756 0.969,0.894L0.404,1.957L0,1.741Z" style="fill:rgb(169,114,223);fill-rule:nonzero;"/>
    </g>
    <g transform="matrix(4.234514,0,0,4.234514,-712.494696,-1566.891773)">
        <path d="M233.666,455.893L234.362,455.893L234.362,459.064L233.666,459.064L233.666,455.893ZM233.808,456.391L231.24,452.59L232.049,452.59L234.184,455.779L233.846,455.779L235.991,452.59L236.781,452.59L234.193,456.391L233.808,456.391Z" style="fill:rgb(169,114,223);fill-rule:nonzero;"/>
    </g>
    <g transform="matrix(4.234514,0,0,4.234514,296.966902,360.601064)">
        <path d="M0,3.331C0.307,3.331 0.583,3.259 0.828,3.115C1.073,2.97 1.264,2.77 1.401,2.512C1.539,2.256 1.609,1.967 1.609,1.647C1.609,1.333 1.538,1.053 1.397,0.805C1.256,0.557 1.064,0.362 0.823,0.217C0.581,0.073 0.307,0.001 0,0.001C-0.308,0.001 -0.583,0.073 -0.828,0.217C-1.073,0.362 -1.264,0.557 -1.402,0.805C-1.54,1.053 -1.609,1.333 -1.609,1.647C-1.609,1.973 -1.54,2.263 -1.402,2.517C-1.264,2.772 -1.073,2.97 -0.828,3.115C-0.583,3.259 -0.308,3.331 0,3.331M0,3.97C-0.433,3.97 -0.822,3.867 -1.167,3.66C-1.511,3.453 -1.786,3.174 -1.99,2.823C-2.193,2.472 -2.296,2.079 -2.296,1.647C-2.296,1.221 -2.193,0.835 -1.99,0.489C-1.786,0.145 -1.511,-0.13 -1.167,-0.333C-0.822,-0.537 -0.433,-0.639 0,-0.639C0.426,-0.639 0.814,-0.538 1.162,-0.338C1.51,-0.137 1.786,0.137 1.989,0.485C2.193,0.833 2.296,1.221 2.296,1.647C2.296,2.086 2.193,2.48 1.989,2.828C1.786,3.176 1.51,3.453 1.162,3.66C0.814,3.867 0.426,3.97 0,3.97" style="fill:rgb(169,114,223);fill-rule:nonzero;"/>
    </g>
    <g transform="matrix(4.234514,0,0,4.234514,319.555071,369.04892)">
        <path d="M0,1.204C0.301,1.204 0.568,1.139 0.8,1.007C1.032,0.875 1.21,0.689 1.336,0.447C1.461,0.206 1.524,-0.078 1.524,-0.404C1.524,-0.718 1.46,-0.995 1.331,-1.237C1.203,-1.478 1.023,-1.666 0.795,-1.801C0.566,-1.936 0.298,-2.003 -0.009,-2.003C-0.316,-2.003 -0.591,-1.936 -0.833,-1.801C-1.074,-1.666 -1.262,-1.478 -1.397,-1.237C-1.532,-0.995 -1.599,-0.718 -1.599,-0.404C-1.599,-0.09 -1.531,0.188 -1.392,0.433C-1.254,0.677 -1.067,0.867 -0.828,1.002C-0.589,1.137 -0.314,1.204 0,1.204M-0.169,3.838C-0.615,3.838 -1.011,3.755 -1.359,3.589C-1.708,3.423 -1.988,3.189 -2.202,2.888L-1.769,2.456C-1.593,2.694 -1.371,2.879 -1.1,3.011C-0.831,3.142 -0.517,3.208 -0.16,3.208C0.348,3.208 0.75,3.074 1.044,2.803C1.339,2.534 1.486,2.167 1.486,1.703L1.486,0.602L1.619,-0.404L1.486,-1.402L1.486,-2.54L2.155,-2.54L2.155,1.703C2.155,2.129 2.057,2.502 1.863,2.823C1.668,3.142 1.395,3.391 1.044,3.57C0.693,3.749 0.289,3.838 -0.169,3.838M-0.122,1.835C-0.536,1.835 -0.907,1.738 -1.232,1.543C-1.558,1.349 -1.816,1.082 -2.004,0.743C-2.192,0.404 -2.286,0.022 -2.286,-0.404C-2.286,-0.831 -2.192,-1.212 -2.004,-1.547C-1.816,-1.883 -1.558,-2.148 -1.232,-2.342C-0.907,-2.537 -0.54,-2.634 -0.132,-2.634C0.213,-2.634 0.521,-2.569 0.79,-2.436C1.06,-2.305 1.279,-2.118 1.449,-1.877C1.619,-1.635 1.718,-1.352 1.75,-1.025L1.75,0.226C1.712,0.546 1.609,0.826 1.439,1.068C1.27,1.31 1.052,1.497 0.786,1.632C0.518,1.768 0.216,1.835 -0.122,1.835" style="fill:rgb(169,114,223);fill-rule:nonzero;"/>
    </g>
    <g transform="matrix(4.234514,0,0,4.234514,349.114521,358.292407)">
        <path d="M0,4.422L0,3.237L0.131,2.146L0,1.082L0,0L0.668,0L0.668,4.422L0,4.422ZM-1.486,3.886C-1.022,3.886 -0.653,3.732 -0.376,3.424C-0.101,3.118 0.038,2.713 0.038,2.211C0.038,1.879 -0.025,1.587 -0.15,1.336C-0.276,1.085 -0.455,0.889 -0.686,0.748C-0.919,0.607 -1.189,0.537 -1.496,0.537C-1.803,0.537 -2.078,0.609 -2.319,0.753C-2.561,0.897 -2.752,1.095 -2.893,1.346C-3.034,1.596 -3.105,1.885 -3.105,2.211C-3.105,2.537 -3.034,2.826 -2.893,3.077C-2.752,3.328 -2.559,3.525 -2.314,3.669C-2.069,3.814 -1.794,3.886 -1.486,3.886M-1.59,4.516C-2.004,4.516 -2.377,4.414 -2.709,4.21C-3.042,4.006 -3.306,3.732 -3.5,3.387C-3.694,3.042 -3.791,2.653 -3.791,2.22C-3.791,1.781 -3.694,1.388 -3.5,1.039C-3.306,0.692 -3.044,0.415 -2.714,0.212C-2.385,0.008 -2.013,-0.094 -1.599,-0.094C-1.261,-0.094 -0.958,-0.026 -0.691,0.108C-0.425,0.243 -0.207,0.432 -0.038,0.673C0.131,0.914 0.232,1.195 0.263,1.514L0.263,2.897C0.225,3.217 0.124,3.5 -0.042,3.744C-0.209,3.989 -0.423,4.179 -0.686,4.314C-0.95,4.449 -1.252,4.516 -1.59,4.516" style="fill:rgb(169,114,223);fill-rule:nonzero;"/>
    </g>
    <g transform="matrix(4.234514,0,0,4.234514,357.918923,373.748807)">
        <path d="M0,1.741L0.536,0.696L0.781,0.64C0.756,0.696 0.721,0.745 0.677,0.786C0.633,0.826 0.577,0.847 0.508,0.847C0.388,0.847 0.28,0.798 0.183,0.701C0.086,0.604 0.038,0.483 0.038,0.339C0.038,0.189 0.091,0.059 0.197,-0.052C0.304,-0.161 0.435,-0.216 0.593,-0.216C0.737,-0.216 0.864,-0.161 0.974,-0.052C1.084,0.059 1.138,0.189 1.138,0.339C1.138,0.402 1.127,0.475 1.105,0.56C1.084,0.645 1.038,0.756 0.969,0.894L0.404,1.957L0,1.741Z" style="fill:rgb(169,114,223);fill-rule:nonzero;"/>
    </g>
    <g transform="matrix(4.234514,0,0,4.234514,94.533835,397.014075)">
        <path d="M0,6.661C-0.464,6.661 -0.893,6.576 -1.288,6.407C-1.684,6.238 -2.029,5.999 -2.323,5.692C-2.618,5.385 -2.847,5.029 -3.01,4.624C-3.174,4.22 -3.254,3.786 -3.254,3.321C-3.254,2.857 -3.175,2.423 -3.015,2.018C-2.855,1.614 -2.628,1.261 -2.333,0.96C-2.038,0.659 -1.694,0.423 -1.303,0.254C-0.911,0.085 -0.482,0 -0.018,0C0.477,0 0.921,0.088 1.313,0.263C1.705,0.439 2.048,0.681 2.343,0.988L1.864,1.468C1.643,1.217 1.374,1.021 1.054,0.88C0.734,0.739 0.376,0.668 -0.018,0.668C-0.382,0.668 -0.716,0.734 -1.02,0.866C-1.324,0.997 -1.591,1.182 -1.82,1.421C-2.049,1.66 -2.225,1.941 -2.347,2.268C-2.469,2.594 -2.53,2.945 -2.53,3.321C-2.53,3.704 -2.468,4.058 -2.343,4.385C-2.217,4.71 -2.041,4.994 -1.815,5.236C-1.59,5.478 -1.323,5.664 -1.016,5.795C-0.709,5.927 -0.373,5.993 -0.009,5.993C0.405,5.993 0.773,5.921 1.096,5.777C1.419,5.633 1.691,5.435 1.91,5.184L2.39,5.664C2.102,5.978 1.755,6.222 1.35,6.398C0.946,6.573 0.496,6.661 0,6.661" style="fill:rgb(169,114,223);fill-rule:nonzero;"/>
    </g>
    <g transform="matrix(4.234514,0,0,4.234514,116.84549,408.405765)">
        <path d="M0,3.331C0.307,3.331 0.583,3.259 0.828,3.115C1.073,2.97 1.264,2.77 1.401,2.512C1.539,2.256 1.609,1.967 1.609,1.647C1.609,1.333 1.538,1.053 1.397,0.805C1.256,0.557 1.064,0.362 0.823,0.217C0.581,0.073 0.307,0.001 0,0.001C-0.308,0.001 -0.583,0.073 -0.828,0.217C-1.073,0.362 -1.264,0.557 -1.402,0.805C-1.54,1.053 -1.609,1.333 -1.609,1.647C-1.609,1.974 -1.54,2.263 -1.402,2.517C-1.264,2.772 -1.073,2.97 -0.828,3.115C-0.583,3.259 -0.308,3.331 0,3.331M0,3.97C-0.433,3.97 -0.822,3.867 -1.167,3.66C-1.511,3.453 -1.786,3.174 -1.99,2.823C-2.193,2.472 -2.296,2.079 -2.296,1.647C-2.296,1.221 -2.193,0.835 -1.99,0.489C-1.786,0.145 -1.511,-0.13 -1.167,-0.333C-0.822,-0.537 -0.433,-0.639 0,-0.639C0.426,-0.639 0.814,-0.538 1.162,-0.338C1.51,-0.137 1.786,0.137 1.989,0.485C2.193,0.833 2.296,1.221 2.296,1.647C2.296,2.086 2.193,2.48 1.989,2.828C1.786,3.176 1.51,3.453 1.162,3.66C0.814,3.867 0.426,3.97 0,3.97" style="fill:rgb(169,114,223);fill-rule:nonzero;"/>
    </g>
    <g transform="matrix(4.234514,0,0,4.234514,133.773384,416.616064)">
        <path d="M0,-0.64L-0.273,-0.753C-0.273,-1.317 -0.136,-1.762 0.137,-2.089C0.409,-2.415 0.784,-2.578 1.261,-2.578C1.48,-2.578 1.681,-2.539 1.863,-2.46C2.045,-2.381 2.214,-2.257 2.371,-2.089L1.929,-1.627C1.828,-1.74 1.714,-1.822 1.585,-1.872C1.457,-1.922 1.311,-1.947 1.148,-1.947C0.809,-1.947 0.533,-1.838 0.32,-1.618C0.107,-1.399 0,-1.073 0,-0.64M-0.668,-2.484L0,-2.484L0,1.938L-0.668,1.938L-0.668,-2.484Z" style="fill:rgb(169,114,223);fill-rule:nonzero;"/>
    </g>
    <g transform="matrix(4.234514,0,0,4.234514,156.085463,415.856816)">
        <path d="M0,1.581C0.314,1.581 0.589,1.51 0.828,1.369C1.066,1.228 1.254,1.031 1.392,0.777C1.53,0.523 1.599,0.233 1.599,-0.094C1.599,-0.42 1.53,-0.71 1.392,-0.964C1.254,-1.218 1.068,-1.416 0.833,-1.557C0.597,-1.698 0.326,-1.768 0.018,-1.768C-0.289,-1.768 -0.56,-1.698 -0.795,-1.557C-1.031,-1.416 -1.214,-1.218 -1.345,-0.964C-1.477,-0.71 -1.543,-0.42 -1.543,-0.094C-1.543,0.233 -1.477,0.523 -1.345,0.777C-1.214,1.031 -1.032,1.228 -0.8,1.369C-0.568,1.51 -0.301,1.581 0,1.581M0.122,2.211C-0.216,2.211 -0.521,2.142 -0.79,2.004C-1.06,1.866 -1.282,1.676 -1.454,1.436C-1.626,1.194 -1.731,0.913 -1.769,0.593L-1.769,-0.79C-1.731,-1.116 -1.625,-1.4 -1.449,-1.641C-1.273,-1.882 -1.049,-2.069 -0.777,-2.201C-0.503,-2.333 -0.204,-2.399 0.122,-2.399C0.529,-2.399 0.897,-2.297 1.223,-2.093C1.549,-1.889 1.808,-1.613 1.999,-1.265C2.19,-0.917 2.286,-0.523 2.286,-0.085C2.286,0.349 2.192,0.737 2.004,1.082C1.816,1.427 1.557,1.702 1.227,1.906C0.898,2.109 0.529,2.211 0.122,2.211M-2.173,3.98L-2.173,-2.305L-1.505,-2.305L-1.505,-1.175L-1.637,-0.094L-1.505,0.988L-1.505,3.98L-2.173,3.98Z" style="fill:rgb(169,114,223);fill-rule:nonzero;"/>
    </g>
    <g transform="matrix(4.234514,0,0,4.234514,175.921621,405.699063)">
        <path d="M0,4.61C-0.238,4.61 -0.467,4.577 -0.686,4.512C-0.907,4.445 -1.105,4.353 -1.284,4.234C-1.463,4.114 -1.621,3.974 -1.759,3.81L-1.327,3.378C-1.151,3.591 -0.952,3.749 -0.729,3.853C-0.506,3.956 -0.257,4.008 0.019,4.008C0.307,4.008 0.535,3.951 0.701,3.838C0.867,3.726 0.95,3.569 0.95,3.368C0.95,3.18 0.892,3.035 0.776,2.931C0.66,2.827 0.508,2.742 0.32,2.677C0.132,2.611 -0.066,2.548 -0.273,2.489C-0.48,2.429 -0.676,2.354 -0.861,2.263C-1.046,2.172 -1.198,2.046 -1.317,1.886C-1.436,1.726 -1.496,1.512 -1.496,1.242C-1.496,0.991 -1.433,0.773 -1.307,0.588C-1.182,0.404 -1.007,0.259 -0.781,0.156C-0.555,0.052 -0.283,0 0.038,0C0.37,0 0.671,0.06 0.94,0.179C1.21,0.298 1.427,0.473 1.59,0.706L1.157,1.138C1.032,0.969 0.871,0.837 0.673,0.744C0.475,0.649 0.254,0.602 0.009,0.602C-0.273,0.602 -0.488,0.657 -0.635,0.767C-0.783,0.877 -0.856,1.019 -0.856,1.195C-0.856,1.364 -0.796,1.498 -0.677,1.595C-0.558,1.693 -0.406,1.771 -0.221,1.83C-0.036,1.889 0.16,1.949 0.367,2.009C0.574,2.069 0.772,2.147 0.96,2.243C1.147,2.341 1.3,2.473 1.416,2.639C1.532,2.805 1.59,3.03 1.59,3.312C1.59,3.707 1.447,4.022 1.162,4.258C0.877,4.492 0.49,4.61 0,4.61" style="fill:rgb(169,114,223);fill-rule:nonzero;"/>
    </g>
    <g transform="matrix(4.234514,0,0,4.234514,214.567491,397.374432)">
        <path d="M0,6.482L-3.124,3.198C-3.381,2.929 -3.57,2.67 -3.693,2.422C-3.815,2.174 -3.877,1.91 -3.877,1.627C-3.877,1.295 -3.8,1.001 -3.646,0.743C-3.492,0.486 -3.28,0.282 -3.011,0.132C-2.742,-0.019 -2.434,-0.094 -2.089,-0.094C-1.838,-0.094 -1.609,-0.055 -1.402,0.023C-1.195,0.102 -1.01,0.207 -0.847,0.338C-0.684,0.471 -0.546,0.624 -0.433,0.799L-0.922,1.242C-1.067,1.029 -1.232,0.861 -1.421,0.739C-1.609,0.616 -1.829,0.555 -2.079,0.555C-2.406,0.555 -2.674,0.654 -2.884,0.852C-3.094,1.049 -3.198,1.308 -3.198,1.627C-3.198,1.86 -3.149,2.065 -3.049,2.244C-2.948,2.422 -2.789,2.628 -2.568,2.86L0.837,6.482L0,6.482ZM-2.427,6.576C-2.842,6.576 -3.207,6.493 -3.523,6.327C-3.841,6.161 -4.087,5.932 -4.262,5.64C-4.438,5.348 -4.525,5.017 -4.525,4.647C-4.525,4.246 -4.419,3.882 -4.205,3.556C-3.992,3.23 -3.691,2.975 -3.302,2.794L-2.973,3.217C-3.243,3.349 -3.458,3.537 -3.618,3.781C-3.778,4.026 -3.857,4.309 -3.857,4.629C-3.857,4.892 -3.795,5.122 -3.67,5.32C-3.544,5.518 -3.372,5.672 -3.152,5.781C-2.932,5.891 -2.681,5.946 -2.399,5.946C-2.067,5.946 -1.773,5.87 -1.52,5.72C-1.266,5.569 -1.073,5.378 -0.942,5.146L-0.499,5.644C-0.625,5.826 -0.786,5.988 -0.984,6.129C-1.181,6.27 -1.402,6.38 -1.647,6.458C-1.891,6.536 -2.151,6.576 -2.427,6.576" style="fill:rgb(169,114,223);fill-rule:nonzero;"/>
    </g>
    <g transform="matrix(4.234514,0,0,4.234514,236.994748,405.699063)">
        <path d="M0,4.61C-0.433,4.61 -0.824,4.508 -1.171,4.305C-1.52,4.101 -1.794,3.823 -1.995,3.472C-2.196,3.12 -2.296,2.728 -2.296,2.295C-2.296,1.863 -2.196,1.472 -1.995,1.124C-1.794,0.776 -1.52,0.502 -1.171,0.301C-0.824,0.1 -0.433,0 0,0C0.338,0 0.652,0.063 0.94,0.188C1.229,0.313 1.474,0.489 1.674,0.715L1.232,1.167C1.081,0.998 0.901,0.868 0.691,0.776C0.481,0.686 0.251,0.64 0,0.64C-0.308,0.64 -0.583,0.712 -0.828,0.856C-1.073,1.001 -1.264,1.196 -1.402,1.444C-1.54,1.693 -1.609,1.976 -1.609,2.295C-1.609,2.615 -1.54,2.902 -1.402,3.156C-1.264,3.411 -1.073,3.609 -0.828,3.754C-0.583,3.898 -0.308,3.971 0,3.971C0.251,3.971 0.482,3.925 0.696,3.834C0.909,3.743 1.094,3.613 1.251,3.443L1.693,3.886C1.486,4.118 1.237,4.296 0.945,4.422C0.654,4.547 0.338,4.61 0,4.61" style="fill:rgb(169,114,223);fill-rule:nonzero;"/>
    </g>
    <g transform="matrix(4.234514,0,0,4.234514,256.196576,408.405765)">
        <path d="M0,3.331C0.307,3.331 0.583,3.259 0.828,3.115C1.073,2.97 1.264,2.77 1.401,2.512C1.539,2.256 1.609,1.967 1.609,1.647C1.609,1.333 1.538,1.053 1.397,0.805C1.256,0.557 1.064,0.362 0.823,0.217C0.581,0.073 0.307,0.001 0,0.001C-0.308,0.001 -0.583,0.073 -0.828,0.217C-1.073,0.362 -1.264,0.557 -1.402,0.805C-1.54,1.053 -1.609,1.333 -1.609,1.647C-1.609,1.974 -1.54,2.263 -1.402,2.517C-1.264,2.772 -1.073,2.97 -0.828,3.115C-0.583,3.259 -0.308,3.331 0,3.331M0,3.97C-0.433,3.97 -0.822,3.867 -1.167,3.66C-1.511,3.453 -1.786,3.174 -1.99,2.823C-2.193,2.472 -2.296,2.079 -2.296,1.647C-2.296,1.221 -2.193,0.835 -1.99,0.489C-1.786,0.145 -1.511,-0.13 -1.167,-0.333C-0.822,-0.537 -0.433,-0.639 0,-0.639C0.426,-0.639 0.814,-0.538 1.162,-0.338C1.51,-0.137 1.786,0.137 1.989,0.485C2.193,0.833 2.296,1.221 2.296,1.647C2.296,2.086 2.193,2.48 1.989,2.828C1.786,3.176 1.51,3.453 1.162,3.66C0.814,3.867 0.426,3.97 0,3.97" style="fill:rgb(169,114,223);fill-rule:nonzero;"/>
    </g>
    <g transform="matrix(4.234514,0,0,4.234514,283.960592,405.699487)">
        <path d="M0,4.516L0,1.919C0,1.537 -0.116,1.225 -0.348,0.983C-0.58,0.742 -0.884,0.621 -1.261,0.621C-1.511,0.621 -1.734,0.676 -1.929,0.786C-2.124,0.895 -2.276,1.048 -2.39,1.242C-2.503,1.436 -2.559,1.659 -2.559,1.91L-2.86,1.741C-2.86,1.408 -2.781,1.111 -2.625,0.847C-2.468,0.583 -2.255,0.376 -1.985,0.226C-1.716,0.075 -1.411,0 -1.073,0C-0.734,0 -0.433,0.081 -0.169,0.245C0.094,0.408 0.299,0.627 0.447,0.904C0.594,1.179 0.668,1.481 0.668,1.807L0.668,4.516L0,4.516ZM-3.227,0.094L-2.559,0.094L-2.559,4.516L-3.227,4.516L-3.227,0.094Z" style="fill:rgb(169,114,223);fill-rule:nonzero;"/>
    </g>
    <g transform="matrix(4.234514,0,0,4.234514,297.744782,405.699063)">
        <path d="M0,4.61C-0.238,4.61 -0.467,4.577 -0.686,4.512C-0.907,4.445 -1.105,4.353 -1.284,4.234C-1.463,4.114 -1.621,3.974 -1.759,3.81L-1.327,3.378C-1.151,3.591 -0.952,3.749 -0.729,3.853C-0.506,3.956 -0.257,4.008 0.019,4.008C0.307,4.008 0.535,3.951 0.701,3.838C0.867,3.726 0.95,3.569 0.95,3.368C0.95,3.18 0.892,3.035 0.776,2.931C0.66,2.827 0.508,2.742 0.32,2.677C0.132,2.611 -0.066,2.548 -0.273,2.489C-0.48,2.429 -0.676,2.354 -0.861,2.263C-1.046,2.172 -1.198,2.046 -1.317,1.886C-1.436,1.726 -1.496,1.512 -1.496,1.242C-1.496,0.991 -1.433,0.773 -1.307,0.588C-1.182,0.404 -1.007,0.259 -0.781,0.156C-0.555,0.052 -0.283,0 0.038,0C0.37,0 0.671,0.06 0.94,0.179C1.21,0.298 1.427,0.473 1.59,0.706L1.157,1.138C1.032,0.969 0.871,0.837 0.673,0.744C0.475,0.649 0.254,0.602 0.009,0.602C-0.273,0.602 -0.488,0.657 -0.635,0.767C-0.783,0.877 -0.856,1.019 -0.856,1.195C-0.856,1.364 -0.796,1.498 -0.677,1.595C-0.558,1.693 -0.406,1.771 -0.221,1.83C-0.036,1.889 0.16,1.949 0.367,2.009C0.574,2.069 0.772,2.147 0.96,2.243C1.147,2.341 1.3,2.473 1.416,2.639C1.532,2.805 1.59,3.03 1.59,3.312C1.59,3.707 1.447,4.022 1.162,4.258C0.877,4.492 0.49,4.61 0,4.61" style="fill:rgb(169,114,223);fill-rule:nonzero;"/>
    </g>
    <g transform="matrix(4.234514,0,0,4.234514,317.384883,405.699063)">
        <path d="M0,4.61C-0.433,4.61 -0.824,4.508 -1.171,4.305C-1.52,4.101 -1.794,3.823 -1.995,3.472C-2.196,3.12 -2.296,2.728 -2.296,2.295C-2.296,1.863 -2.196,1.472 -1.995,1.124C-1.794,0.776 -1.52,0.502 -1.171,0.301C-0.824,0.1 -0.433,0 0,0C0.338,0 0.652,0.063 0.94,0.188C1.229,0.313 1.474,0.489 1.674,0.715L1.232,1.167C1.081,0.998 0.901,0.868 0.691,0.776C0.481,0.686 0.251,0.64 0,0.64C-0.308,0.64 -0.583,0.712 -0.828,0.856C-1.073,1.001 -1.264,1.196 -1.402,1.444C-1.54,1.693 -1.609,1.976 -1.609,2.295C-1.609,2.615 -1.54,2.902 -1.402,3.156C-1.264,3.411 -1.073,3.609 -0.828,3.754C-0.583,3.898 -0.308,3.971 0,3.971C0.251,3.971 0.482,3.925 0.696,3.834C0.909,3.743 1.094,3.613 1.251,3.443L1.693,3.886C1.486,4.118 1.237,4.296 0.945,4.422C0.654,4.547 0.338,4.61 0,4.61" style="fill:rgb(169,114,223);fill-rule:nonzero;"/>
    </g>
    <g transform="matrix(4.234514,0,0,4.234514,-712.494696,-1470.565045)">
        <path d="M245.826,443.183L246.494,443.183L246.494,447.605L245.826,447.605L245.826,443.183ZM246.155,442.233C246.03,442.233 245.923,442.186 245.835,442.091C245.747,441.997 245.704,441.888 245.704,441.762C245.704,441.63 245.747,441.521 245.835,441.433C245.923,441.345 246.03,441.301 246.155,441.301C246.293,441.301 246.405,441.345 246.489,441.433C246.574,441.521 246.616,441.63 246.616,441.762C246.616,441.888 246.574,441.997 246.489,442.091C246.405,442.186 246.293,442.233 246.155,442.233" style="fill:rgb(169,114,223);fill-rule:nonzero;"/>
    </g>
    <g transform="matrix(4.234514,0,0,4.234514,345.549483,405.699063)">
        <path d="M0,4.61C-0.439,4.61 -0.834,4.51 -1.185,4.309C-1.537,4.108 -1.814,3.832 -2.018,3.481C-2.222,3.13 -2.323,2.735 -2.323,2.295C-2.323,1.863 -2.225,1.472 -2.027,1.124C-1.829,0.776 -1.558,0.502 -1.214,0.301C-0.868,0.1 -0.482,0 -0.056,0C0.351,0 0.71,0.091 1.021,0.273C1.331,0.455 1.576,0.707 1.755,1.03C1.933,1.353 2.022,1.725 2.022,2.145C2.022,2.195 2.02,2.253 2.013,2.319C2.007,2.385 1.995,2.462 1.976,2.55L-1.853,2.55L-1.853,1.985L1.609,1.985L1.374,2.192C1.38,1.872 1.325,1.595 1.209,1.36C1.093,1.124 0.927,0.941 0.71,0.809C0.494,0.677 0.236,0.612 -0.065,0.612C-0.385,0.612 -0.665,0.682 -0.903,0.824C-1.141,0.964 -1.328,1.159 -1.463,1.407C-1.598,1.654 -1.665,1.944 -1.665,2.277C-1.665,2.615 -1.595,2.913 -1.453,3.171C-1.312,3.428 -1.115,3.629 -0.861,3.773C-0.606,3.917 -0.314,3.989 0.019,3.989C0.283,3.989 0.527,3.94 0.753,3.843C0.979,3.746 1.17,3.6 1.327,3.406L1.759,3.838C1.552,4.089 1.295,4.281 0.988,4.412C0.68,4.544 0.351,4.61 0,4.61" style="fill:rgb(169,114,223);fill-rule:nonzero;"/>
    </g>
    <g transform="matrix(4.234514,0,0,4.234514,372.002917,405.699487)">
        <path d="M0,4.516L0,1.919C0,1.537 -0.116,1.225 -0.348,0.983C-0.58,0.742 -0.884,0.621 -1.261,0.621C-1.511,0.621 -1.734,0.676 -1.929,0.786C-2.124,0.895 -2.276,1.048 -2.39,1.242C-2.503,1.436 -2.559,1.659 -2.559,1.91L-2.86,1.741C-2.86,1.408 -2.781,1.111 -2.625,0.847C-2.468,0.583 -2.255,0.376 -1.985,0.226C-1.716,0.075 -1.411,0 -1.073,0C-0.734,0 -0.433,0.081 -0.169,0.245C0.094,0.408 0.299,0.627 0.447,0.904C0.594,1.179 0.668,1.481 0.668,1.807L0.668,4.516L0,4.516ZM-3.227,0.094L-2.559,0.094L-2.559,4.516L-3.227,4.516L-3.227,0.094Z" style="fill:rgb(169,114,223);fill-rule:nonzero;"/>
    </g>
    <g transform="matrix(4.234514,0,0,4.234514,388.536154,405.699063)">
        <path d="M0,4.61C-0.433,4.61 -0.824,4.508 -1.171,4.305C-1.52,4.101 -1.794,3.823 -1.995,3.472C-2.196,3.12 -2.296,2.728 -2.296,2.295C-2.296,1.863 -2.196,1.472 -1.995,1.124C-1.794,0.776 -1.52,0.502 -1.171,0.301C-0.824,0.1 -0.433,0 0,0C0.338,0 0.652,0.063 0.94,0.188C1.229,0.313 1.474,0.489 1.674,0.715L1.232,1.167C1.081,0.998 0.901,0.868 0.691,0.776C0.481,0.686 0.251,0.64 0,0.64C-0.308,0.64 -0.583,0.712 -0.828,0.856C-1.073,1.001 -1.264,1.196 -1.402,1.444C-1.54,1.693 -1.609,1.976 -1.609,2.295C-1.609,2.615 -1.54,2.902 -1.402,3.156C-1.264,3.411 -1.073,3.609 -0.828,3.754C-0.583,3.898 -0.308,3.971 0,3.971C0.251,3.971 0.482,3.925 0.696,3.834C0.909,3.743 1.094,3.613 1.251,3.443L1.693,3.886C1.486,4.118 1.237,4.296 0.945,4.422C0.654,4.547 0.338,4.61 0,4.61" style="fill:rgb(169,114,223);fill-rule:nonzero;"/>
    </g>
    <g transform="matrix(4.234514,0,0,4.234514,407.856125,405.699063)">
        <path d="M0,4.61C-0.439,4.61 -0.834,4.51 -1.185,4.309C-1.537,4.108 -1.814,3.832 -2.018,3.481C-2.222,3.13 -2.323,2.735 -2.323,2.295C-2.323,1.863 -2.225,1.472 -2.027,1.124C-1.829,0.776 -1.558,0.502 -1.214,0.301C-0.868,0.1 -0.482,0 -0.056,0C0.351,0 0.71,0.091 1.021,0.273C1.331,0.455 1.576,0.707 1.755,1.03C1.933,1.353 2.022,1.725 2.022,2.145C2.022,2.195 2.02,2.253 2.013,2.319C2.007,2.385 1.995,2.462 1.976,2.55L-1.853,2.55L-1.853,1.985L1.609,1.985L1.374,2.192C1.38,1.872 1.325,1.595 1.209,1.36C1.093,1.124 0.927,0.941 0.71,0.809C0.494,0.677 0.236,0.612 -0.065,0.612C-0.385,0.612 -0.665,0.682 -0.903,0.824C-1.141,0.964 -1.328,1.159 -1.463,1.407C-1.598,1.654 -1.664,1.944 -1.664,2.277C-1.664,2.615 -1.595,2.913 -1.453,3.171C-1.312,3.428 -1.115,3.629 -0.861,3.773C-0.606,3.917 -0.314,3.989 0.019,3.989C0.283,3.989 0.527,3.94 0.753,3.843C0.979,3.746 1.17,3.6 1.327,3.406L1.759,3.838C1.552,4.089 1.295,4.281 0.988,4.412C0.68,4.544 0.351,4.61 0,4.61" style="fill:rgb(169,114,223);fill-rule:nonzero;"/>
    </g>
    <g transform="matrix(4.234514,0,0,4.234514,56.069202,290.267901)">
        <path d="M0,-13.223C-0.849,-13.775 -1.826,-14.052 -2.93,-14.052C-4.035,-14.052 -5.027,-13.801 -5.906,-13.3C-6.786,-12.798 -7.471,-12.119 -7.962,-11.259C-7.986,-11.216 -8.003,-11.168 -8.027,-11.125C-8.265,-11.738 -8.62,-12.327 -9.177,-12.816C-10.152,-13.676 -11.513,-14.048 -13.241,-13.927L-13.241,-11.16C-12.453,-11.239 -11.52,-11.203 -11.005,-10.752C-10.433,-10.246 -10.366,-9.325 -10.338,-8.615C-10.308,-7.835 -10.325,-7.053 -10.325,-6.273L-10.325,0.829L-7.563,0.829L-7.563,-7.67C-7.563,-8.407 -7.4,-9.061 -7.072,-9.633C-6.745,-10.206 -6.295,-10.656 -5.722,-10.983C-5.15,-11.31 -4.495,-11.474 -3.759,-11.474C-2.654,-11.474 -1.76,-11.116 -1.074,-10.401C-0.389,-9.684 -0.046,-8.774 -0.046,-7.67L-0.046,0.829L2.745,0.829L2.745,-8.222C2.745,-9.224 2.5,-10.17 2.009,-11.061C1.518,-11.95 0.848,-12.671 0,-13.223" style="fill:rgb(169,114,223);fill-rule:nonzero;"/>
    </g>
    <g transform="matrix(4.234514,0,0,4.234514,129.27633,252.267371)">
        <path d="M0,5.032C-0.409,5.779 -0.971,6.367 -1.687,6.797C-2.404,7.225 -3.232,7.441 -4.173,7.441C-5.073,7.441 -5.88,7.225 -6.596,6.797C-7.312,6.367 -7.875,5.779 -8.284,5.032C-8.693,4.285 -8.897,3.432 -8.897,2.47C-8.897,1.53 -8.693,0.691 -8.284,-0.046C-7.875,-0.782 -7.312,-1.36 -6.596,-1.779C-5.88,-2.199 -5.073,-2.408 -4.173,-2.408C-3.232,-2.408 -2.408,-2.199 -1.703,-1.779C-0.997,-1.36 -0.435,-0.782 -0.015,-0.046C0.404,0.691 0.614,1.53 0.614,2.47C0.614,3.432 0.409,4.285 0,5.032M-0.291,-4.08C-1.447,-4.744 -2.742,-5.078 -4.173,-5.078C-5.584,-5.078 -6.862,-4.74 -8.008,-4.065C-9.153,-3.39 -10.063,-2.485 -10.738,-1.349C-11.414,-0.214 -11.751,1.059 -11.751,2.47C-11.751,3.902 -11.414,5.196 -10.738,6.351C-10.063,7.507 -9.153,8.422 -8.008,9.097C-6.862,9.772 -5.584,10.11 -4.173,10.11C-2.742,10.11 -1.447,9.772 -0.291,9.097C0.864,8.422 1.78,7.507 2.454,6.351C3.13,5.196 3.467,3.902 3.467,2.47C3.467,1.059 3.13,-0.219 2.454,-1.365C1.78,-2.511 0.864,-3.416 -0.291,-4.08" style="fill:rgb(169,114,223);fill-rule:nonzero;"/>
    </g>
    <g transform="matrix(4.234514,0,0,4.234514,240.489069,290.919169)">
        <path d="M0,-13.53C-0.839,-13.98 -1.79,-14.205 -2.853,-14.205C-3.877,-14.205 -4.817,-13.975 -5.676,-13.514C-6.535,-13.055 -7.236,-12.421 -7.778,-11.612C-7.789,-11.596 -7.796,-11.578 -7.806,-11.561C-7.819,-11.583 -7.827,-11.607 -7.839,-11.628C-8.32,-12.446 -8.974,-13.08 -9.802,-13.53C-10.631,-13.98 -11.557,-14.205 -12.579,-14.205C-13.623,-14.205 -14.563,-13.975 -15.402,-13.514C-16.022,-13.175 -16.542,-12.736 -16.966,-12.2L-16.966,-13.898L-19.728,-13.898L-19.728,0.675L-16.966,0.675L-16.966,-8.13C-16.966,-8.867 -16.803,-9.49 -16.476,-10.002C-16.149,-10.513 -15.719,-10.912 -15.187,-11.199C-14.655,-11.485 -14.052,-11.628 -13.376,-11.628C-12.375,-11.628 -11.541,-11.316 -10.877,-10.692C-10.212,-10.068 -9.879,-9.215 -9.879,-8.13L-9.879,0.675L-7.118,0.675L-7.118,-8.13C-7.118,-8.867 -6.955,-9.49 -6.627,-10.002C-6.3,-10.513 -5.866,-10.912 -5.323,-11.199C-4.782,-11.485 -4.173,-11.628 -3.498,-11.628C-2.516,-11.628 -1.693,-11.316 -1.028,-10.692C-0.363,-10.068 -0.031,-9.215 -0.031,-8.13L-0.031,0.675L2.761,0.675L2.761,-8.683C2.761,-9.828 2.51,-10.809 2.009,-11.628C1.508,-12.446 0.839,-13.08 0,-13.53" style="fill:rgb(169,114,223);fill-rule:nonzero;"/>
    </g>
    <g transform="matrix(4.234514,0,0,4.234514,310.255231,247.722043)">
        <path d="M0,7.179C-0.839,8.11 -1.943,8.575 -3.314,8.575C-4.234,8.575 -5.052,8.361 -5.769,7.931C-6.484,7.502 -7.041,6.913 -7.44,6.167C-7.839,5.42 -8.039,4.556 -8.039,3.574C-8.039,2.613 -7.839,1.759 -7.44,1.012C-7.041,0.266 -6.489,-0.322 -5.783,-0.752C-5.078,-1.182 -4.265,-1.396 -3.344,-1.396C-2.423,-1.396 -1.621,-1.186 -0.936,-0.767C-0.251,-0.348 0.286,0.24 0.675,0.997C1.063,1.753 1.258,2.623 1.258,3.605C1.258,5.058 0.839,6.249 0,7.179M1.074,-1.697C0.571,-2.367 -0.053,-2.911 -0.813,-3.314C-1.683,-3.774 -2.669,-4.004 -3.774,-4.004C-5.124,-4.004 -6.336,-3.667 -7.409,-2.992C-8.483,-2.317 -9.332,-1.406 -9.956,-0.261C-10.58,0.885 -10.892,2.173 -10.892,3.605C-10.892,5.037 -10.58,6.325 -9.956,7.471C-9.332,8.617 -8.483,9.522 -7.409,10.186C-6.336,10.85 -5.124,11.183 -3.774,11.183C-2.669,11.183 -1.678,10.953 -0.798,10.493C-0.038,10.095 0.581,9.555 1.074,8.889L1.074,10.876L3.866,10.876L3.866,-3.697L1.074,-3.697L1.074,-1.697Z" style="fill:rgb(169,114,223);fill-rule:nonzero;"/>
    </g>
    <g transform="matrix(4.234514,0,0,4.234514,381.838423,239.767932)">
        <path d="M0,9.809C-0.695,10.239 -1.504,10.453 -2.423,10.453C-3.323,10.453 -4.127,10.244 -4.832,9.825C-5.537,9.406 -6.089,8.817 -6.489,8.061C-6.888,7.304 -7.087,6.434 -7.087,5.452C-7.087,4.47 -6.888,3.607 -6.489,2.86C-6.089,2.113 -5.543,1.531 -4.847,1.111C-4.152,0.693 -3.344,0.482 -2.423,0.482C-1.504,0.482 -0.695,0.697 0,1.126C0.696,1.556 1.237,2.144 1.626,2.891C2.015,3.638 2.209,4.501 2.209,5.483C2.209,6.445 2.015,7.299 1.626,8.045C1.237,8.792 0.696,9.38 0,9.809M4.808,12.147C4.813,11.977 4.816,11.812 4.817,11.654C4.819,11.062 4.817,10.469 4.817,9.876L4.817,-9.152L2.025,-9.152L2.025,0.206C1.511,-0.475 0.871,-1.028 0.092,-1.435C-0.787,-1.896 -1.779,-2.126 -2.884,-2.126C-4.213,-2.126 -5.41,-1.788 -6.473,-1.113C-7.537,-0.439 -8.381,0.472 -9.005,1.617C-9.629,2.763 -9.94,4.052 -9.94,5.483C-9.94,6.915 -9.629,8.204 -9.005,9.349C-8.381,10.495 -7.537,11.4 -6.473,12.064C-5.41,12.729 -4.213,13.061 -2.884,13.061C-1.759,13.061 -0.757,12.831 0.123,12.371C0.893,11.968 1.521,11.419 2.025,10.742C2.025,12.521 1.886,14.426 2.637,16.091C2.899,16.671 3.268,17.199 3.739,17.629C4.707,18.517 6.04,18.961 7.717,18.961L7.846,18.961L7.846,16.159C6.828,16.188 6.083,15.987 5.624,15.565C4.72,14.746 4.777,13.327 4.808,12.147" style="fill:rgb(169,114,223);fill-rule:nonzero;"/>
    </g>
    <g transform="matrix(4.234514,0,0,4.234514,427.056259,269.653439)">
        <path d="M0,-3.338C0.207,-4.145 0.614,-4.828 1.216,-5.391C1.819,-5.955 2.577,-6.345 3.493,-6.561C4.368,-6.768 5.158,-6.761 5.864,-6.539C6.567,-6.316 7.167,-5.911 7.664,-5.326C8.001,-4.926 8.271,-4.434 8.484,-3.864L-0.131,-1.826C-0.16,-2.358 -0.123,-2.864 0,-3.338M13.448,1.158C12.01,0.746 10.586,1.086 9.249,1.66C8.157,2.13 7.216,2.868 6.042,3.146C5.088,3.372 4.193,3.368 3.36,3.134C2.527,2.901 1.823,2.458 1.248,1.805C0.898,1.408 0.619,0.939 0.395,0.415L11.491,-2.211C11.484,-2.504 11.464,-2.767 11.43,-3.001C11.395,-3.234 11.354,-3.45 11.307,-3.65C10.987,-5.003 10.419,-6.14 9.602,-7.061C8.785,-7.981 7.798,-8.62 6.642,-8.978C5.485,-9.334 4.26,-9.36 2.966,-9.053C1.593,-8.729 0.431,-8.111 -0.521,-7.204C-1.472,-6.295 -2.14,-5.207 -2.523,-3.939C-2.906,-2.671 -2.933,-1.34 -2.603,0.052C-2.269,1.466 -1.641,2.652 -0.72,3.611C0.2,4.57 1.299,5.24 2.577,5.621C3.854,6.001 5.21,6.022 6.643,5.683C7.299,5.528 7.943,5.31 8.534,4.983C9.152,4.642 9.754,4.274 10.4,3.985C11.051,3.694 11.784,3.473 12.502,3.599C12.579,3.613 12.656,3.63 12.731,3.652C13.545,3.886 14.284,4.629 14.928,5.861L17.226,4.659C16.241,2.774 14.97,1.596 13.448,1.158" style="fill:rgb(169,114,223);fill-rule:nonzero;"/>
    </g>
    <g transform="matrix(4.234514,0,0,4.234514,98.84203,165.868037)">
        <path d="M0,-16.261C0.798,-16.261 1.508,-16.097 2.132,-15.77C2.756,-15.443 3.247,-14.983 3.605,-14.39C3.962,-13.796 4.142,-13.091 4.142,-12.273C4.142,-11.454 3.962,-10.749 3.605,-10.156C3.247,-9.562 2.756,-9.102 2.132,-8.775C1.508,-8.448 0.798,-8.284 0,-8.284L-4.847,-8.284L-4.847,-16.261L0,-16.261ZM-4.847,-5.768L0.153,-5.768C1.462,-5.768 2.639,-6.034 3.681,-6.565C4.725,-7.098 5.548,-7.855 6.151,-8.836C6.754,-9.818 7.056,-10.964 7.056,-12.273C7.056,-13.602 6.754,-14.753 6.151,-15.724C5.548,-16.696 4.725,-17.447 3.681,-17.979C2.639,-18.511 1.462,-18.777 0.153,-18.777L-7.732,-18.777L-7.732,2.516L-4.847,2.516L-4.847,-5.768Z" style="fill:rgb(169,114,223);fill-rule:nonzero;"/>
    </g>
    <g transform="matrix(-4.234514,0,0,4.234514,1009.82619,-2002.187127)">
        <rect x="201.971" y="499.939" width="2.792" height="14.573" style="fill:rgb(169,114,223);"/>
    </g>
    <g transform="matrix(4.234514,0,0,4.234514,148.731382,87.526984)">
        <path d="M0,3.528C0.511,3.528 0.93,3.359 1.258,3.022C1.585,2.684 1.749,2.26 1.749,1.748C1.749,1.258 1.585,0.843 1.258,0.506C0.93,0.169 0.511,0 0,0C-0.512,0 -0.931,0.169 -1.258,0.506C-1.585,0.843 -1.749,1.258 -1.749,1.748C-1.749,2.26 -1.585,2.684 -1.258,3.022C-0.931,3.359 -0.512,3.528 0,3.528" style="fill:rgb(169,114,223);fill-rule:nonzero;"/>
    </g>
    <g transform="matrix(4.234514,0,0,4.234514,211.417436,134.749863)">
        <path d="M0,5.155C-0.399,4.408 -0.599,3.544 -0.599,2.562C-0.599,1.601 -0.399,0.747 0,0C0.399,-0.746 0.951,-1.334 1.657,-1.764C2.363,-2.193 3.175,-2.409 4.096,-2.409C5.016,-2.409 5.819,-2.198 6.504,-1.779C7.19,-1.359 7.726,-0.772 8.115,-0.015C8.503,0.742 8.698,1.611 8.698,2.593C8.698,4.046 8.278,5.237 7.44,6.167C6.601,7.098 5.497,7.564 4.127,7.564C3.206,7.564 2.388,7.348 1.672,6.919C0.956,6.49 0.399,5.902 0,5.155M6.643,9.481C7.403,9.083 8.021,8.543 8.514,7.878L8.514,9.864L11.306,9.864L11.306,-4.709L8.514,-4.709L8.514,-2.71C8.011,-3.379 7.388,-3.923 6.627,-4.325C5.757,-4.786 4.771,-5.016 3.666,-5.016C2.316,-5.016 1.104,-4.679 0.031,-4.003C-1.043,-3.329 -1.892,-2.419 -2.516,-1.273C-3.14,-0.127 -3.452,1.162 -3.452,2.593C-3.452,4.025 -3.14,5.313 -2.516,6.459C-1.892,7.604 -1.043,8.509 0.031,9.174C1.104,9.839 2.316,10.171 3.666,10.171C4.771,10.171 5.763,9.941 6.643,9.481" style="fill:rgb(169,114,223);fill-rule:nonzero;"/>
    </g>
    <g transform="matrix(4.234514,0,0,4.234514,285.535831,88.95571)">
        <path d="M0,20.679L2.761,20.679L2.761,8.621L6.351,8.621L6.351,6.106L2.761,6.106L2.761,0L0,0L0,6.106L-3.59,6.106L-3.59,8.621L0,8.621L0,20.679Z" style="fill:rgb(169,114,223);fill-rule:nonzero;"/>
    </g>
    <g transform="matrix(4.234514,0,0,4.234514,329.891097,152.898991)">
        <path d="M0,-3.56C0.227,-4.362 0.649,-5.035 1.265,-5.584C1.88,-6.133 2.649,-6.505 3.569,-6.7C4.449,-6.886 5.239,-6.86 5.937,-6.621C6.636,-6.382 7.226,-5.964 7.709,-5.366C8.037,-4.958 8.295,-4.461 8.495,-3.886L-0.167,-2.051C-0.183,-2.584 -0.134,-3.089 0,-3.56M6.428,5.615C7.549,5.378 8.555,4.945 9.447,4.318C10.338,3.689 11.049,2.902 11.58,1.952L9.464,0.55C9.102,1.212 8.616,1.754 8.005,2.176C7.394,2.599 6.688,2.894 5.888,3.064C4.928,3.268 4.034,3.243 3.207,2.989C2.379,2.737 1.686,2.277 1.127,1.611C0.786,1.206 0.518,0.73 0.306,0.201L11.461,-2.162C11.462,-2.455 11.447,-2.719 11.419,-2.953C11.39,-3.187 11.355,-3.405 11.312,-3.605C11.024,-4.966 10.482,-6.116 9.687,-7.055C8.892,-7.995 7.922,-8.657 6.773,-9.041C5.626,-9.425 4.401,-9.48 3.101,-9.204C1.72,-8.911 0.544,-8.322 -0.429,-7.437C-1.402,-6.551 -2.095,-5.479 -2.508,-4.22C-2.921,-2.962 -2.978,-1.633 -2.682,-0.233C-2.381,1.189 -1.782,2.389 -0.884,3.37C0.014,4.351 1.096,5.046 2.365,5.457C3.633,5.868 4.988,5.92 6.428,5.615" style="fill:rgb(169,114,223);fill-rule:nonzero;"/>
    </g>
    <g transform="matrix(4.234514,0,0,4.234514,427.72997,118.5791)">
        <path d="M0,12.793C0.971,11.996 1.458,10.912 1.458,9.541C1.458,8.641 1.268,7.915 0.89,7.362C0.512,6.81 0.026,6.371 -0.568,6.044C-1.161,5.717 -1.785,5.456 -2.439,5.261C-3.093,5.067 -3.723,4.878 -4.326,4.693C-4.929,4.509 -5.415,4.285 -5.783,4.018C-6.151,3.753 -6.335,3.374 -6.335,2.883C-6.335,2.413 -6.126,2.035 -5.706,1.748C-5.287,1.462 -4.679,1.318 -3.881,1.318C-3.124,1.318 -2.449,1.462 -1.856,1.748C-1.262,2.035 -0.752,2.444 -0.322,2.975L1.458,1.196C0.885,0.399 0.154,-0.2 -0.736,-0.599C-1.626,-0.998 -2.644,-1.197 -3.789,-1.197C-4.873,-1.197 -5.803,-1.023 -6.581,-0.676C-7.358,-0.327 -7.957,0.168 -8.375,0.813C-8.796,1.457 -9.005,2.218 -9.005,3.099C-9.005,3.978 -8.815,4.688 -8.437,5.23C-8.059,5.773 -7.574,6.197 -6.98,6.504C-6.386,6.81 -5.758,7.056 -5.093,7.24C-4.428,7.424 -3.8,7.613 -3.206,7.808C-2.613,8.002 -2.127,8.248 -1.748,8.544C-1.37,8.841 -1.18,9.255 -1.18,9.786C-1.18,10.319 -1.417,10.732 -1.887,11.029C-2.357,11.326 -3.022,11.474 -3.881,11.474C-4.74,11.474 -5.518,11.315 -6.213,10.999C-6.909,10.682 -7.522,10.196 -8.053,9.541L-9.833,11.32C-9.383,11.873 -8.856,12.349 -8.253,12.748C-7.649,13.146 -6.98,13.453 -6.244,13.668C-5.506,13.883 -4.73,13.99 -3.912,13.99C-2.275,13.99 -0.971,13.591 0,12.793" style="fill:rgb(169,114,223);fill-rule:nonzero;"/>
    </g>
    <g transform="matrix(4.234514,0,0,4.234514,171.871308,147.32637)">
        <path d="M0,-12.007C-0.001,-11.744 -0.003,-11.481 -0.003,-11.219L-0.003,6.894L2.758,6.894L2.758,3.957C2.758,3.694 2.758,3.432 2.757,3.169L2.757,-0.483C2.757,-0.811 2.756,-1.14 2.756,-1.468L2.756,-11.535C2.756,-12.002 2.764,-12.471 2.75,-12.938C2.737,-13.343 2.706,-13.749 2.645,-14.15C2.578,-14.586 2.474,-15.017 2.322,-15.432C2.16,-15.872 1.942,-16.292 1.665,-16.671C1.528,-16.859 1.377,-17.037 1.213,-17.203C0.11,-18.314 -1.546,-18.88 -3.717,-18.901L-3.717,-16.142C-2.313,-16.128 -1.309,-15.827 -0.751,-15.261C-0.44,-14.948 -0.258,-14.535 -0.153,-14.112C-0.042,-13.66 -0.012,-13.192 -0.003,-12.728C0.001,-12.488 0.001,-12.248 0,-12.007" style="fill:rgb(169,114,223);fill-rule:nonzero;"/>
    </g>
</svg>
