<?xml version="1.0" encoding="UTF-8" standalone="no"?>
<!DOCTYPE svg PUBLIC "-//W3C//DTD SVG 1.1//EN" "http://www.w3.org/Graphics/SVG/1.1/DTD/svg11.dtd">
<svg width="100%" height="100%" viewBox="0 0 500 500" version="1.1" xmlns="http://www.w3.org/2000/svg" xmlns:xlink="http://www.w3.org/1999/xlink" xml:space="preserve" xmlns:serif="http://www.serif.com/" style="fill-rule:evenodd;clip-rule:evenodd;stroke-linejoin:round;stroke-miterlimit:2;">
    <g transform="matrix(13.433758,0,0,13.433758,233.361767,388.427191)">
        <path d="M0,-6.958C0.182,-7.667 0.563,-8.812 0.043,-9.243C-0.25,-9.497 -0.786,-9.41 -1.179,-9.321C-2.83,-8.942 -4.611,-8.257 -6.08,-7.569C-8.071,-6.634 -9.606,-4.988 -10.464,-2.966C-11.051,-1.631 -11.489,0.384 -11.226,1.801C-10.936,2.539 -9.666,2.244 -9.009,2.241C-3.874,1.737 -1.2,-2.207 -0.03,-6.851L0,-6.958Z" style="fill:rgb(169,114,223);fill-rule:nonzero;"/>
    </g>
    <g transform="matrix(13.433758,0,0,13.433758,301.024918,419.949504)">
        <path d="M0,1C-0.706,-1.016 -2.427,-2.912 -3.401,-4.87C-3.484,-5 -3.604,-5.309 -3.839,-5.279C-4.023,-5.235 -4.228,-4.804 -4.287,-4.704C-5.498,-2.292 -7.665,-0.167 -7.854,2.633C-8.166,5.461 -4.742,6.309 -2.536,5.835C0.134,5.39 0.83,3.483 0.029,1.096L0,1Z" style="fill:rgb(169,114,223);fill-rule:nonzero;"/>
    </g>
    <g transform="matrix(13.433758,0,0,13.433758,0.006646,250.400702)">
        <path d="M0,0.024C-0.047,4.364 3.263,4.99 6.516,3.02C8.02,2.071 9.393,1.102 10.936,0.277C11.536,-0.054 10.856,-0.348 10.59,-0.498C9.226,-1.215 8.034,-2.092 6.711,-2.907C3.461,-4.966 0.017,-4.593 0.002,-0.092L0,0.024Z" style="fill:rgb(169,114,223);fill-rule:nonzero;"/>
    </g>
    <g transform="matrix(13.433758,0,0,13.433758,265.986991,116.619281)">
        <path d="M0,6.582C-0.297,7.558 -0.725,9.258 0.747,9.022C3.141,8.506 5.606,7.653 7.638,6.255C10.133,4.398 11.698,0.96 11.236,-2.177C11.08,-2.676 10.384,-2.653 9.897,-2.652C9.222,-2.644 8.551,-2.564 7.896,-2.409C3.466,-1.545 1.084,2.378 0.03,6.475L0,6.582Z" style="fill:rgb(169,114,223);fill-rule:nonzero;"/>
    </g>
    <g transform="matrix(13.433758,0,0,13.433758,231.263414,74.665655)">
        <path d="M0,12.112C1.416,11.716 -1.017,6.643 -1.399,5.711C-2.992,2.291 -7.198,-0.058 -10.929,0.704C-11.231,0.976 -11.144,1.825 -11.148,2.276C-10.988,4.993 -9.783,7.607 -7.653,9.278C-5.727,10.689 -3.265,11.495 -0.927,12.072C-0.609,12.135 -0.317,12.17 -0.077,12.129L0,12.112Z" style="fill:rgb(169,114,223);fill-rule:nonzero;"/>
    </g>
    <g transform="matrix(13.433758,0,0,13.433758,311.814913,295.47499)">
        <path d="M0,6.525C1.627,8.111 4.207,9.094 6.486,9.125C6.872,9.105 7.557,9.175 7.766,8.874C8.377,5.843 6.802,2.282 4.399,0.386C2.474,-1.025 0.007,-1.84 -2.328,-2.413C-3.307,-2.65 -3.93,-2.298 -3.667,-1.24C-3.015,1.414 -2.086,4.441 -0.079,6.449L0,6.525Z" style="fill:rgb(169,114,223);fill-rule:nonzero;"/>
    </g>
    <g transform="matrix(13.433758,0,0,13.433758,260.596024,13.281442)">
        <path d="M0,9.03C1.061,7.114 2.805,5.169 3.149,2.911C3.926,-0.362 0.269,-1.448 -2.318,-0.818C-8.185,0.746 -2.924,6.723 -1.311,9.71C-1.145,10.039 -0.873,10.478 -0.58,9.976C-0.337,9.614 -0.263,9.455 -0.053,9.119L0,9.03Z" style="fill:rgb(169,114,223);fill-rule:nonzero;"/>
    </g>
    <g transform="matrix(13.433758,0,0,13.433758,499.557053,251.38674)">
        <path d="M0,-0.163C0.075,-3.052 -1.719,-5.004 -4.662,-3.984C-6.994,-3.246 -8.852,-1.445 -10.96,-0.407C-11.483,-0.093 -10.855,0.238 -10.613,0.361C-9.247,1.08 -8.052,1.959 -6.727,2.776C-3.472,4.841 -0.011,4.46 -0.001,-0.048L0,-0.163Z" style="fill:rgb(169,114,223);fill-rule:nonzero;"/>
    </g>
</svg>
