<?xml version="1.0" encoding="UTF-8" standalone="no"?>
<!DOCTYPE svg PUBLIC "-//W3C//DTD SVG 1.1//EN" "http://www.w3.org/Graphics/SVG/1.1/DTD/svg11.dtd">
<svg width="100%" height="100%" viewBox="0 0 500 75" version="1.1" xmlns="http://www.w3.org/2000/svg" xmlns:xlink="http://www.w3.org/1999/xlink" xml:space="preserve" xmlns:serif="http://www.serif.com/" style="fill-rule:evenodd;clip-rule:evenodd;stroke-linejoin:round;stroke-miterlimit:2;">
    <g transform="matrix(1,0,0,1,0,-212.810809)">
        <g transform="matrix(4.223669,0,0,4.223669,258.649862,270.993534)">
            <path d="M0,-7.207C-0.463,-7.508 -0.995,-7.659 -1.597,-7.659C-2.199,-7.659 -2.74,-7.522 -3.219,-7.249C-3.699,-6.976 -4.072,-6.605 -4.34,-6.137C-4.353,-6.113 -4.362,-6.087 -4.375,-6.064C-4.505,-6.398 -4.698,-6.719 -5.002,-6.985C-5.533,-7.454 -6.275,-7.657 -7.217,-7.591L-7.217,-6.083C-6.787,-6.126 -6.279,-6.106 -5.998,-5.86C-5.686,-5.584 -5.65,-5.083 -5.635,-4.695C-5.618,-4.27 -5.628,-3.844 -5.628,-3.419L-5.628,0.452L-4.122,0.452L-4.122,-4.18C-4.122,-4.582 -4.033,-4.938 -3.855,-5.25C-3.677,-5.563 -3.431,-5.808 -3.119,-5.986C-2.807,-6.164 -2.45,-6.253 -2.049,-6.253C-1.447,-6.253 -0.959,-6.059 -0.586,-5.669C-0.212,-5.278 -0.025,-4.782 -0.025,-4.18L-0.025,0.452L1.496,0.452L1.496,-4.481C1.496,-5.027 1.363,-5.543 1.095,-6.028C0.828,-6.513 0.462,-6.906 0,-7.207" style="fill:rgb(169,114,223);fill-rule:nonzero;"/>
        </g>
        <g transform="matrix(4.223669,0,0,4.223669,298.449491,250.338527)">
            <path d="M0,2.742C-0.223,3.149 -0.529,3.469 -0.92,3.704C-1.31,3.938 -1.761,4.055 -2.274,4.055C-2.765,4.055 -3.205,3.938 -3.595,3.704C-3.986,3.469 -4.292,3.149 -4.515,2.742C-4.738,2.335 -4.85,1.869 -4.85,1.345C-4.85,0.833 -4.738,0.376 -4.515,-0.026C-4.292,-0.427 -3.986,-0.742 -3.595,-0.97C-3.205,-1.199 -2.765,-1.314 -2.274,-1.314C-1.761,-1.314 -1.313,-1.199 -0.928,-0.97C-0.544,-0.742 -0.237,-0.427 -0.008,-0.026C0.22,0.376 0.335,0.833 0.335,1.345C0.335,1.869 0.223,2.335 0,2.742M-0.159,-2.225C-0.789,-2.587 -1.494,-2.768 -2.274,-2.768C-3.043,-2.768 -3.74,-2.584 -4.365,-2.217C-4.989,-1.849 -5.485,-1.355 -5.853,-0.736C-6.221,-0.118 -6.405,0.577 -6.405,1.345C-6.405,2.126 -6.221,2.831 -5.853,3.461C-5.485,4.091 -4.989,4.59 -4.365,4.958C-3.74,5.326 -3.043,5.51 -2.274,5.51C-1.494,5.51 -0.789,5.326 -0.159,4.958C0.471,4.59 0.97,4.091 1.338,3.461C1.706,2.831 1.89,2.126 1.89,1.345C1.89,0.577 1.706,-0.12 1.338,-0.745C0.97,-1.369 0.471,-1.862 -0.159,-2.225" style="fill:rgb(169,114,223);fill-rule:nonzero;"/>
        </g>
        <g transform="matrix(4.223669,0,0,4.223669,358.910885,271.345788)">
            <path d="M0,-7.374C-0.457,-7.619 -0.976,-7.742 -1.555,-7.742C-2.113,-7.742 -2.626,-7.616 -3.094,-7.366C-3.562,-7.115 -3.944,-6.769 -4.239,-6.329C-4.245,-6.32 -4.249,-6.31 -4.255,-6.301C-4.261,-6.313 -4.266,-6.326 -4.273,-6.337C-4.535,-6.783 -4.891,-7.129 -5.343,-7.374C-5.794,-7.619 -6.299,-7.742 -6.856,-7.742C-7.425,-7.742 -7.938,-7.616 -8.395,-7.366C-8.733,-7.18 -9.017,-6.941 -9.247,-6.649L-9.247,-7.575L-10.753,-7.575L-10.753,0.368L-9.247,0.368L-9.247,-4.431C-9.247,-4.832 -9.159,-5.172 -8.98,-5.451C-8.802,-5.73 -8.568,-5.947 -8.278,-6.103C-7.988,-6.259 -7.659,-6.337 -7.291,-6.337C-6.745,-6.337 -6.291,-6.167 -5.928,-5.827C-5.566,-5.487 -5.385,-5.022 -5.385,-4.431L-5.385,0.368L-3.88,0.368L-3.88,-4.431C-3.88,-4.832 -3.79,-5.172 -3.612,-5.451C-3.434,-5.73 -3.197,-5.947 -2.902,-6.103C-2.606,-6.259 -2.274,-6.337 -1.907,-6.337C-1.371,-6.337 -0.923,-6.167 -0.56,-5.827C-0.198,-5.487 -0.017,-5.022 -0.017,-4.431L-0.017,0.368L1.505,0.368L1.505,-4.732C1.505,-5.356 1.368,-5.891 1.095,-6.337C0.822,-6.783 0.457,-7.129 0,-7.374" style="fill:rgb(169,114,223);fill-rule:nonzero;"/>
        </g>
        <g transform="matrix(4.223669,0,0,4.223669,396.839851,247.859656)">
            <path d="M0,3.914C-0.457,4.421 -1.06,4.675 -1.806,4.675C-2.308,4.675 -2.754,4.558 -3.144,4.324C-3.534,4.09 -3.838,3.769 -4.056,3.363C-4.273,2.955 -4.381,2.484 -4.381,1.949C-4.381,1.425 -4.273,0.96 -4.056,0.553C-3.838,0.146 -3.537,-0.174 -3.152,-0.409C-2.768,-0.643 -2.325,-0.76 -1.823,-0.76C-1.321,-0.76 -0.884,-0.645 -0.51,-0.417C-0.136,-0.188 0.156,0.132 0.368,0.544C0.579,0.957 0.685,1.43 0.685,1.966C0.685,2.758 0.457,3.407 0,3.914M0.585,-0.924C0.311,-1.289 -0.028,-1.585 -0.444,-1.805C-0.917,-2.056 -1.455,-2.182 -2.057,-2.182C-2.793,-2.182 -3.453,-1.998 -4.039,-1.629C-4.624,-1.262 -5.086,-0.765 -5.427,-0.142C-5.766,0.484 -5.937,1.186 -5.937,1.966C-5.937,2.746 -5.766,3.449 -5.427,4.073C-5.086,4.697 -4.624,5.191 -4.039,5.553C-3.453,5.915 -2.793,6.096 -2.057,6.096C-1.455,6.096 -0.914,5.971 -0.435,5.72C-0.021,5.503 0.317,5.209 0.585,4.846L0.585,5.93L2.107,5.93L2.107,-2.014L0.585,-2.014L0.585,-0.924Z" style="fill:rgb(169,114,223);fill-rule:nonzero;"/>
        </g>
        <g transform="matrix(4.223669,0,0,4.223669,435.756311,243.5418)">
            <path d="M0,5.346C-0.379,5.58 -0.82,5.697 -1.321,5.697C-1.812,5.697 -2.249,5.583 -2.634,5.354C-3.018,5.126 -3.319,4.806 -3.536,4.393C-3.754,3.981 -3.863,3.506 -3.863,2.971C-3.863,2.436 -3.754,1.965 -3.536,1.558C-3.319,1.152 -3.021,0.834 -2.642,0.605C-2.263,0.377 -1.823,0.262 -1.321,0.262C-0.82,0.262 -0.379,0.379 0,0.614C0.379,0.848 0.674,1.168 0.887,1.575C1.098,1.982 1.204,2.453 1.204,2.988C1.204,3.512 1.098,3.978 0.887,4.385C0.674,4.792 0.379,5.112 0,5.346M2.621,6.621C2.623,6.528 2.625,6.438 2.626,6.352L2.626,-4.988L1.104,-4.988L1.104,0.112C0.823,-0.259 0.475,-0.561 0.05,-0.782C-0.429,-1.034 -0.97,-1.159 -1.572,-1.159C-2.297,-1.159 -2.949,-0.975 -3.528,-0.607C-4.108,-0.24 -4.568,0.257 -4.908,0.881C-5.248,1.506 -5.418,2.208 -5.418,2.988C-5.418,3.769 -5.248,4.471 -4.908,5.095C-4.568,5.72 -4.108,6.213 -3.528,6.575C-2.949,6.937 -2.297,7.119 -1.572,7.119C-0.959,7.119 -0.412,6.993 0.067,6.743C0.487,6.523 0.829,6.224 1.104,5.855C1.104,6.824 1.028,7.862 1.437,8.77C1.58,9.086 1.781,9.374 2.038,9.608C2.566,10.092 3.292,10.334 4.206,10.334L4.276,10.334L4.276,8.807C3.722,8.823 3.316,8.714 3.065,8.483C2.573,8.036 2.604,7.264 2.621,6.621" style="fill:rgb(169,114,223);fill-rule:nonzero;"/>
        </g>
        <g transform="matrix(4.223669,0,0,4.223669,460.339752,259.78983)">
            <path d="M0,-1.82C0.113,-2.26 0.335,-2.632 0.663,-2.939C0.992,-3.246 1.405,-3.459 1.904,-3.577C2.381,-3.689 2.812,-3.686 3.196,-3.565C3.579,-3.443 3.907,-3.223 4.177,-2.903C4.361,-2.685 4.508,-2.417 4.624,-2.107L-0.071,-0.996C-0.087,-1.286 -0.067,-1.562 0,-1.82M7.33,0.631C6.546,0.406 5.77,0.591 5.041,0.904C4.446,1.16 3.933,1.563 3.293,1.714C2.773,1.837 2.285,1.835 1.831,1.707C1.377,1.58 0.993,1.339 0.68,0.983C0.489,0.767 0.337,0.511 0.215,0.225L6.263,-1.206C6.26,-1.365 6.248,-1.509 6.23,-1.636C6.211,-1.763 6.189,-1.881 6.163,-1.99C5.989,-2.728 5.679,-3.347 5.234,-3.849C4.788,-4.351 4.25,-4.699 3.62,-4.894C2.99,-5.088 2.322,-5.102 1.617,-4.935C0.868,-4.758 0.235,-4.422 -0.284,-3.927C-0.803,-3.432 -1.167,-2.839 -1.375,-2.148C-1.584,-1.457 -1.599,-0.731 -1.419,0.028C-1.237,0.799 -0.895,1.445 -0.392,1.968C0.109,2.491 0.708,2.856 1.404,3.063C2.101,3.271 2.84,3.282 3.621,3.097C3.978,3.012 4.329,2.894 4.651,2.716C4.988,2.53 5.317,2.329 5.669,2.171C6.023,2.013 6.423,1.892 6.814,1.961C6.856,1.969 6.898,1.978 6.939,1.99C7.383,2.118 7.785,2.522 8.137,3.194L9.39,2.539C8.852,1.511 8.159,0.869 7.33,0.631" style="fill:rgb(169,114,223);fill-rule:nonzero;"/>
        </g>
        <g transform="matrix(4.223669,0,0,4.223669,17.798539,266.40494)">
            <path d="M0,-8.863C0.435,-8.863 0.822,-8.774 1.162,-8.595C1.502,-8.417 1.77,-8.166 1.965,-7.843C2.16,-7.519 2.257,-7.135 2.257,-6.689C2.257,-6.243 2.16,-5.859 1.965,-5.535C1.77,-5.211 1.502,-4.961 1.162,-4.783C0.822,-4.604 0.435,-4.515 0,-4.515L-2.642,-4.515L-2.642,-8.863L0,-8.863ZM-2.642,-3.144L0.083,-3.144C0.797,-3.144 1.438,-3.288 2.007,-3.579C2.575,-3.868 3.024,-4.281 3.353,-4.816C3.682,-5.351 3.846,-5.975 3.846,-6.689C3.846,-7.414 3.682,-8.041 3.353,-8.57C3.024,-9.1 2.575,-9.509 2.007,-9.8C1.438,-10.089 0.797,-10.234 0.083,-10.234L-4.214,-10.234L-4.214,1.371L-2.642,1.371L-2.642,-3.144Z" style="fill:rgb(169,114,223);fill-rule:nonzero;"/>
        </g>
        <g transform="matrix(-4.223669,0,0,4.223669,767.909411,-69.696023)">
            <rect x="170.423" y="73.004" width="1.522" height="7.943" style="fill:rgb(169,114,223);"/>
        </g>
        <g transform="matrix(4.223669,0,0,4.223669,44.92125,223.814733)">
            <path d="M0,1.923C0.279,1.923 0.507,1.831 0.685,1.647C0.864,1.463 0.953,1.232 0.953,0.953C0.953,0.686 0.864,0.459 0.685,0.276C0.507,0.092 0.279,0 0,0C-0.279,0 -0.508,0.092 -0.686,0.276C-0.864,0.459 -0.954,0.686 -0.954,0.953C-0.954,1.232 -0.864,1.463 -0.686,1.647C-0.508,1.831 -0.279,1.923 0,1.923" style="fill:rgb(169,114,223);fill-rule:nonzero;"/>
        </g>
        <g transform="matrix(4.223669,0,0,4.223669,79.001187,249.487035)">
            <path d="M0,2.81C-0.217,2.403 -0.326,1.932 -0.326,1.397C-0.326,0.873 -0.217,0.407 0,0.001C0.217,-0.406 0.518,-0.727 0.903,-0.961C1.288,-1.195 1.731,-1.313 2.232,-1.313C2.734,-1.313 3.171,-1.198 3.545,-0.969C3.919,-0.741 4.211,-0.42 4.423,-0.008C4.635,0.405 4.741,0.878 4.741,1.413C4.741,2.205 4.512,2.855 4.055,3.361C3.598,3.869 2.996,4.123 2.249,4.123C1.747,4.123 1.302,4.006 0.911,3.771C0.521,3.537 0.217,3.217 0,2.81M3.62,5.168C4.035,4.951 4.372,4.657 4.64,4.294L4.64,5.377L6.162,5.377L6.162,-2.566L4.64,-2.566L4.64,-1.476C4.367,-1.841 4.027,-2.138 3.612,-2.357C3.138,-2.608 2.6,-2.734 1.998,-2.734C1.263,-2.734 0.602,-2.55 0.017,-2.182C-0.568,-1.814 -1.031,-1.318 -1.371,-0.694C-1.711,-0.069 -1.882,0.633 -1.882,1.413C-1.882,2.194 -1.711,2.896 -1.371,3.521C-1.031,4.145 -0.568,4.638 0.017,5.001C0.602,5.363 1.263,5.544 1.998,5.544C2.6,5.544 3.141,5.418 3.62,5.168" style="fill:rgb(169,114,223);fill-rule:nonzero;"/>
        </g>
        <g transform="matrix(4.223669,0,0,4.223669,119.296252,224.59231)">
            <path d="M0,11.271L1.505,11.271L1.505,4.699L3.462,4.699L3.462,3.328L1.505,3.328L1.505,0L0,0L0,3.328L-1.957,3.328L-1.957,4.699L0,4.699L0,11.271Z" style="fill:rgb(169,114,223);fill-rule:nonzero;"/>
        </g>
        <g transform="matrix(4.223669,0,0,4.223669,143.410021,259.357327)">
            <path d="M0,-1.941C0.124,-2.378 0.354,-2.745 0.689,-3.044C1.025,-3.343 1.443,-3.546 1.945,-3.652C2.425,-3.754 2.855,-3.74 3.236,-3.609C3.617,-3.479 3.939,-3.251 4.202,-2.925C4.381,-2.703 4.521,-2.432 4.63,-2.118L-0.091,-1.119C-0.1,-1.409 -0.073,-1.685 0,-1.941M3.504,3.06C4.114,2.931 4.663,2.695 5.149,2.353C5.635,2.01 6.022,1.581 6.312,1.063L5.159,0.299C4.961,0.66 4.696,0.956 4.363,1.186C4.031,1.416 3.646,1.577 3.21,1.67C2.686,1.781 2.199,1.767 1.748,1.629C1.297,1.491 0.919,1.241 0.614,0.878C0.429,0.657 0.283,0.397 0.167,0.109L6.247,-1.179C6.247,-1.338 6.239,-1.483 6.224,-1.61C6.208,-1.738 6.189,-1.856 6.166,-1.966C6.009,-2.707 5.713,-3.334 5.28,-3.846C4.847,-4.358 4.317,-4.719 3.692,-4.928C3.066,-5.138 2.399,-5.167 1.69,-5.018C0.938,-4.858 0.296,-4.536 -0.234,-4.054C-0.764,-3.571 -1.142,-2.987 -1.367,-2.301C-1.592,-1.615 -1.624,-0.891 -1.462,-0.127C-1.298,0.647 -0.971,1.301 -0.482,1.836C0.008,2.371 0.598,2.75 1.289,2.974C1.98,3.197 2.719,3.226 3.504,3.06" style="fill:rgb(169,114,223);fill-rule:nonzero;"/>
        </g>
        <g transform="matrix(4.223669,0,0,4.223669,196.600792,240.69209)">
            <path d="M0,6.974C0.529,6.54 0.794,5.949 0.794,5.202C0.794,4.711 0.691,4.315 0.485,4.014C0.279,3.713 0.014,3.474 -0.309,3.295C-0.633,3.117 -0.973,2.975 -1.33,2.869C-1.686,2.763 -2.029,2.66 -2.358,2.559C-2.687,2.459 -2.951,2.337 -3.152,2.191C-3.353,2.047 -3.453,1.84 -3.453,1.573C-3.453,1.317 -3.339,1.11 -3.11,0.954C-2.882,0.798 -2.55,0.72 -2.115,0.72C-1.703,0.72 -1.335,0.798 -1.012,0.954C-0.688,1.11 -0.41,1.333 -0.175,1.623L0.794,0.653C0.482,0.218 0.084,-0.108 -0.401,-0.325C-0.886,-0.543 -1.441,-0.652 -2.065,-0.652C-2.656,-0.652 -3.163,-0.556 -3.587,-0.367C-4.011,-0.177 -4.337,0.093 -4.565,0.444C-4.794,0.795 -4.908,1.21 -4.908,1.69C-4.908,2.169 -4.805,2.557 -4.598,2.852C-4.393,3.147 -4.128,3.379 -3.804,3.546C-3.481,3.713 -3.138,3.847 -2.776,3.948C-2.414,4.048 -2.071,4.151 -1.747,4.257C-1.424,4.363 -1.159,4.497 -0.953,4.658C-0.747,4.82 -0.644,5.046 -0.644,5.335C-0.644,5.626 -0.772,5.851 -1.028,6.013C-1.285,6.174 -1.647,6.255 -2.115,6.255C-2.583,6.255 -3.008,6.169 -3.386,5.996C-3.765,5.823 -4.099,5.558 -4.39,5.202L-5.36,6.171C-5.114,6.472 -4.827,6.732 -4.498,6.949C-4.169,7.167 -3.804,7.334 -3.403,7.451C-3.001,7.568 -2.578,7.626 -2.132,7.626C-1.24,7.626 -0.529,7.409 0,6.974" style="fill:rgb(169,114,223);fill-rule:nonzero;"/>
        </g>
        <g transform="matrix(4.223669,0,0,4.223669,57.501447,256.323043)">
            <path d="M0,-6.544C0,-6.401 -0.002,-6.258 -0.002,-6.114L-0.002,3.758L1.503,3.758L1.503,-3.441C1.502,-3.601 1.502,-3.761 1.502,-3.92L1.502,-4.784C1.502,-4.908 1.503,-5.032 1.503,-5.157L1.503,-5.971C1.503,-6.076 1.503,-6.181 1.502,-6.287C1.502,-6.542 1.506,-6.797 1.499,-7.052C1.492,-7.272 1.475,-7.493 1.441,-7.712C1.405,-7.95 1.348,-8.185 1.265,-8.411C1.177,-8.651 1.058,-8.88 0.907,-9.086C0.833,-9.189 0.751,-9.286 0.661,-9.376C0.06,-9.982 -0.843,-10.29 -2.026,-10.302L-2.026,-8.798C-1.261,-8.79 -0.714,-8.626 -0.409,-8.318C-0.24,-8.147 -0.14,-7.922 -0.084,-7.691C-0.023,-7.445 -0.006,-7.19 -0.002,-6.937C0,-6.806 0,-6.675 0,-6.544" style="fill:rgb(169,114,223);fill-rule:nonzero;"/>
        </g>
    </g>
</svg>
