<?xml version="1.0" encoding="UTF-8" standalone="no"?>
<!DOCTYPE svg PUBLIC "-//W3C//DTD SVG 1.1//EN" "http://www.w3.org/Graphics/SVG/1.1/DTD/svg11.dtd">
<svg width="100%" height="100%" viewBox="0 0 500 250" version="1.1" xmlns="http://www.w3.org/2000/svg" xmlns:xlink="http://www.w3.org/1999/xlink" xml:space="preserve" xmlns:serif="http://www.serif.com/" style="fill-rule:evenodd;clip-rule:evenodd;stroke-linejoin:round;stroke-miterlimit:2;">
    <g transform="matrix(1,0,0,1,0,-125)">
        <g transform="matrix(3.98508,0,0,3.98508,250,375)">
            <path d="M0,-62.734C-34.647,-62.734 -62.734,-34.647 -62.734,0L-27.858,0C-27.858,-15.386 -15.385,-27.858 0,-27.858C15.385,-27.858 27.858,-15.386 27.858,0L62.734,0C62.734,-34.647 34.647,-62.734 0,-62.734" style="fill:rgb(169,114,223);fill-rule:nonzero;"/>
        </g>
        <g transform="matrix(1.195356,-3.801577,3.801577,1.195356,-1022.644818,-571.758536)">
            <text x="-135.036px" y="334.416px" style="font-family:'Outfit-Thin', 'Outfit';font-weight:100;font-size:13.876px;fill:white;">P</text>
        </g>
        <g transform="matrix(1.685963,-3.610871,3.610871,1.685963,-1022.644818,-571.758536)">
            <text x="-81.74px" y="348.383px" style="font-family:'Outfit-Thin', 'Outfit';font-weight:100;font-size:13.876px;fill:white;">i</text>
        </g>
        <g transform="matrix(1.937971,-3.482116,3.482116,1.937971,-1022.644818,-571.758536)">
            <text x="-53.865px" y="353.091px" style="font-family:'Outfit-Thin', 'Outfit';font-weight:100;font-size:13.876px;fill:white;">l</text>
        </g>
        <g transform="matrix(2.363901,-3.208244,3.208244,2.363901,-1022.644818,-571.758536)">
            <text x="-5.898px" y="356.541px" style="font-family:'Outfit-Thin', 'Outfit';font-weight:100;font-size:13.876px;fill:white;">a</text>
        </g>
        <g transform="matrix(2.81473,-2.82102,2.82102,2.81473,-1022.644818,-571.758536)">
            <text x="54.832px" y="352.389px" style="font-family:'Outfit-Thin', 'Outfit';font-weight:100;font-size:13.876px;fill:white;">t</text>
        </g>
        <g transform="matrix(3.175198,-2.408107,2.408107,3.175198,-1022.644818,-571.758536)">
            <text x="107.201px" y="340.787px" style="font-family:'Outfit-Thin', 'Outfit';font-weight:100;font-size:13.876px;fill:white;">e</text>
        </g>
        <g transform="matrix(3.503923,-1.898258,1.898258,3.503923,-1022.644818,-571.758536)">
            <text x="164.701px" y="319.521px" style="font-family:'Outfit-Thin', 'Outfit';font-weight:100;font-size:13.876px;fill:white;">s</text>
        </g>
        <g transform="matrix(3.841005,-1.061859,1.061859,3.841005,-1022.644818,-571.758536)">
            <text x="240.441px" y="272.588px" style="font-family:'Outfit-Thin', 'Outfit';font-weight:100;font-size:13.876px;fill:white;">p</text>
        </g>
        <g transform="matrix(3.969869,-0.347848,0.347848,3.969869,-1022.644818,-571.758536)">
            <text x="293.429px" y="223.059px" style="font-family:'Outfit-Thin', 'Outfit';font-weight:100;font-size:13.876px;fill:white;">o</text>
        </g>
        <g transform="matrix(3.971736,0.325849,-0.325849,3.971736,-1022.644818,-571.758536)">
            <text x="334.175px" y="169.183px" style="font-family:'Outfit-Thin', 'Outfit';font-weight:100;font-size:13.876px;fill:white;">u</text>
        </g>
        <g transform="matrix(3.879963,0.909256,-0.909256,3.879963,-1022.644818,-571.758536)">
            <text x="362.264px" y="116.952px" style="font-family:'Outfit-Thin', 'Outfit';font-weight:100;font-size:13.876px;fill:white;">r</text>
        </g>
        <g transform="matrix(3.635873,1.631347,-1.631347,3.635873,-1022.644818,-571.758536)">
            <text x="386.045px" y="44.533px" style="font-family:'Outfit-Thin', 'Outfit';font-weight:100;font-size:13.876px;fill:white;">t</text>
        </g>
        <g transform="matrix(3.365321,2.134357,-2.134357,3.365321,-1022.644818,-571.758536)">
            <text x="392.97px" y="-11.901px" style="font-family:'Outfit-Thin', 'Outfit';font-weight:100;font-size:13.876px;fill:white;">o</text>
        </g>
        <g transform="matrix(2.954048,2.674783,-2.674783,2.954048,-1022.644818,-571.758536)">
            <text x="392.597px" y="-79.722px" style="font-family:'Outfit-Thin', 'Outfit';font-weight:100;font-size:13.876px;fill:white;">u</text>
        </g>
        <g transform="matrix(2.525623,3.082546,-3.082546,2.525623,-1022.644818,-571.758536)">
            <text x="383.227px" y="-137.941px" style="font-family:'Outfit-Thin', 'Outfit';font-weight:100;font-size:13.876px;fill:white;">s</text>
        </g>
        <g transform="matrix(2.245105,3.292471,-3.292471,2.245105,-1022.644818,-571.758536)">
            <text x="375.336px" y="-171.49px" style="font-family:'Outfit-Thin', 'Outfit';font-weight:100;font-size:13.876px;fill:white;">·</text>
        </g>
        <g transform="matrix(1.978727,3.459118,-3.459118,1.978727,-1022.644818,-571.758536)">
            <text x="362.275px" y="-200.728px" style="font-family:'Outfit-Thin', 'Outfit';font-weight:100;font-size:13.876px;fill:white;">t</text>
        </g>
        <g transform="matrix(1.480368,3.699915,-3.699915,1.480368,-1022.644818,-571.758536)">
            <text x="335.501px" y="-249.739px" style="font-family:'Outfit-Thin', 'Outfit';font-weight:100;font-size:13.876px;fill:white;">e</text>
        </g>
        <g transform="matrix(0.896364,3.882962,-3.882962,0.896364,-1022.644818,-571.758536)">
            <text x="300.32px" y="-299.222px" style="font-family:'Outfit-Thin', 'Outfit';font-weight:100;font-size:13.876px;fill:white;">s</text>
        </g>
    </g>
</svg>
