<?xml version="1.0" encoding="UTF-8" standalone="no"?>
<!DOCTYPE svg PUBLIC "-//W3C//DTD SVG 1.1//EN" "http://www.w3.org/Graphics/SVG/1.1/DTD/svg11.dtd">
<svg width="100%" height="100%" viewBox="0 0 500 500" version="1.1" xmlns="http://www.w3.org/2000/svg" xmlns:xlink="http://www.w3.org/1999/xlink" xml:space="preserve" xmlns:serif="http://www.serif.com/" style="fill-rule:evenodd;clip-rule:evenodd;stroke-linejoin:round;stroke-miterlimit:2;">
    <g transform="matrix(0,-6.095182,-6.095182,0,250,0)">
        <path d="M-41.016,-41.016C-63.669,-41.016 -82.032,-22.652 -82.032,0C-82.032,22.653 -63.669,41.016 -41.016,41.016C-18.363,41.016 0,22.653 0,0C0,-22.652 -18.363,-41.016 -41.016,-41.016" style="fill:rgb(255,161,135);fill-rule:nonzero;"/>
    </g>
    <g transform="matrix(6.095182,0,0,6.095182,400.927687,319.769724)">
        <path d="M0,0.68C-1.038,-1.035 -2.556,-2.368 -4.416,-2.873C-6.355,-3.648 -8.222,-2.783 -8.467,-0.74C-8.559,0.484 -7.612,1.468 -6.693,2.206C-4.746,3.865 -1.495,4.328 0.971,3.506C1.129,3.396 1.124,3.22 1.085,3.04C0.892,2.28 0.45,1.46 0.056,0.772L0,0.68Z" style="fill:rgb(248,231,255);fill-rule:nonzero;"/>
    </g>
    <g transform="matrix(6.095182,0,0,6.095182,422.408328,303.310294)">
        <path d="M0,-3.54C-2.018,-4.801 -4.776,-3.873 -6.718,-2.997C-6.759,-2.698 -6.22,-2.295 -5.84,-1.817C-4.743,-0.615 -3.425,0.649 -1.755,0.831C0.366,1.261 1.455,-2.258 0.07,-3.486L0,-3.54Z" style="fill:rgb(248,231,255);fill-rule:nonzero;"/>
    </g>
    <g transform="matrix(6.095182,0,0,6.095182,375.81005,382.071631)">
        <path d="M0,-4.416C-1.095,-5.264 -3.505,-5.814 -4.766,-5.961C-4.833,-5.945 -4.903,-5.931 -4.903,-5.839C-4.71,-3.76 -3.381,1.545 -0.316,-0.025C1.544,-1.203 2.016,-3.003 0.074,-4.359L0,-4.416Z" style="fill:rgb(248,231,255);fill-rule:nonzero;"/>
    </g>
    <g transform="matrix(6.095182,0,0,6.095182,263.770846,418.88897)">
        <path d="M0,-7.273C-1.084,-9.313 -4.322,-8.786 -4.761,-6.507C-5.561,-3.983 -4.972,-1.495 -3.483,0.682C-3.134,1.135 -2.703,1.901 -2.203,2.04C-1.719,1.892 -1.045,0.786 -0.691,0.248C0.672,-1.872 1.208,-4.792 0.048,-7.184L0,-7.273Z" style="fill:rgb(248,231,255);fill-rule:nonzero;"/>
    </g>
    <g transform="matrix(6.095182,0,0,6.095182,335.516018,387.421982)">
        <path d="M0,-4.068C-1.311,-6.025 -3.45,-7.419 -5.316,-5.114C-5.853,-4.354 -5.772,-3.386 -5.538,-2.531C-4.977,-0.126 -3.176,1.641 -0.996,2.683C-0.595,2.88 -0.222,3.033 0.195,3.163C0.528,3.259 0.835,3.351 0.979,2.989C1.101,2.662 1.154,2.29 1.192,2.009C1.457,0.055 1.19,-2.435 0.056,-3.989L0,-4.068Z" style="fill:rgb(248,231,255);fill-rule:nonzero;"/>
    </g>
    <g transform="matrix(6.095182,0,0,6.095182,304.35196,409.498732)">
        <path d="M0,-1.625C-0.714,-2.661 -2.035,-4.038 -3.091,-4.681C-3.134,-4.684 -3.171,-4.668 -3.204,-4.631C-3.91,-2.92 -4.668,-0.63 -4.073,1.215C-3.728,2.741 -2.225,3.059 -0.894,2.529C1.175,1.91 0.951,-0.052 0.053,-1.54L0,-1.625Z" style="fill:rgb(248,231,255);fill-rule:nonzero;"/>
    </g>
    <g transform="matrix(6.095182,0,0,6.095182,219.064511,415.238565)">
        <path d="M0,-3.89C-0.165,-4.432 -0.317,-4.891 -0.496,-5.349C-0.613,-5.635 -0.648,-5.676 -0.862,-5.523C-1.269,-5.212 -1.687,-4.848 -2.133,-4.432C-4.662,-2.349 -6.06,1.755 -1.381,1.786C1.105,1.442 0.644,-2.012 0.03,-3.79L0,-3.89Z" style="fill:rgb(248,231,255);fill-rule:nonzero;"/>
    </g>
    <g transform="matrix(6.095182,0,0,6.095182,149.167398,316.808075)">
        <path d="M0,1.215C1.193,-0.641 -0.888,-3.2 -2.993,-2.528C-5.555,-2.078 -7.523,-0.244 -8.624,2.048C-8.856,2.58 -9.259,3.274 -9.203,3.84C-9.081,4.142 -8.591,4.157 -8.299,4.231C-7.329,4.383 -6.293,4.415 -5.315,4.292C-3.218,4.06 -1.269,2.999 -0.053,1.3L0,1.215Z" style="fill:rgb(248,231,255);fill-rule:nonzero;"/>
    </g>
    <g transform="matrix(6.095182,0,0,6.095182,199.475814,389.817388)">
        <path d="M0,-4.111C0.12,-5.724 -1.781,-7.145 -3.285,-6.632C-6.3,-5.262 -7.361,-1.488 -6.914,1.597C-6.747,3.034 -6.511,3.025 -5.237,2.5C-2.547,1.426 -0.206,-1.046 -0.003,-4.012L0,-4.111Z" style="fill:rgb(248,231,255);fill-rule:nonzero;"/>
    </g>
    <g transform="matrix(6.095182,0,0,6.095182,142.607153,388.999415)">
        <path d="M0,-6.719C-1.721,-6.335 -4.627,-5.247 -4.239,-3.018C-4.087,-2.379 -3.459,-1.628 -2.829,-1.196C-0.629,0.334 1.131,-2.745 1.516,-4.599C1.693,-5.35 1.929,-6.12 1.953,-6.817C1.944,-7.053 1.789,-7.047 1.438,-7.008C1.038,-6.96 0.517,-6.843 0.104,-6.744L0,-6.719Z" style="fill:rgb(248,231,255);fill-rule:nonzero;"/>
    </g>
    <g transform="matrix(6.095182,0,0,6.095182,110.327067,290.70058)">
        <path d="M0,0.846C0.321,0.514 0.706,0.114 1.023,-0.25C1.338,-0.626 1.57,-0.86 1.338,-0.981C-0.575,-1.685 -2.761,-2.521 -4.791,-1.732C-7.077,-0.983 -5.89,3.367 -3.531,2.927C-2.177,2.763 -1.046,1.909 -0.067,0.915L0,0.846Z" style="fill:rgb(248,231,255);fill-rule:nonzero;"/>
    </g>
    <g transform="matrix(6.095182,0,0,6.095182,99.36732,180.385703)">
        <path d="M0,-0.686C1.038,1.028 2.556,2.36 4.416,2.866C6.355,3.64 8.222,2.776 8.467,0.733C8.563,-0.451 7.642,-1.441 6.778,-2.142C4.723,-3.916 1.509,-4.326 -1.001,-3.511C-1.159,-3.401 -1.154,-3.225 -1.114,-3.045C-0.914,-2.287 -0.448,-1.467 -0.056,-0.778L0,-0.686Z" style="fill:rgb(248,231,255);fill-rule:nonzero;"/>
    </g>
    <g transform="matrix(6.095182,0,0,6.095182,96.359957,233.955651)">
        <path d="M0,5.374C2.271,5.935 6.3,5.442 6.023,2.391C5.855,-0.304 1.875,-0.561 -0.163,-0.042C-1.715,0.361 -3.505,1.423 -4.504,2.462C-4.687,2.669 -4.512,2.8 -4.073,3.198C-2.982,4.102 -1.488,4.964 -0.101,5.348L0,5.374Z" style="fill:rgb(248,231,255);fill-rule:nonzero;"/>
    </g>
    <g transform="matrix(6.095182,0,0,6.095182,77.926297,189.513239)">
        <path d="M0,4.736C1.498,5.718 3.36,5.341 4.985,4.849C5.548,4.683 5.844,4.581 6.331,4.406C6.658,4.277 6.804,4.232 6.759,4.113C6.505,3.675 5.915,3.088 5.539,2.677C4.26,1.226 1.281,-0.982 -0.167,1.34C-0.711,2.294 -0.981,3.958 -0.07,4.682L0,4.736Z" style="fill:rgb(248,231,255);fill-rule:nonzero;"/>
    </g>
    <g transform="matrix(6.095182,0,0,6.095182,124.49349,118.060025)">
        <path d="M0,4.421C0.973,5.193 2.843,5.588 4.003,5.806C4.231,5.817 4.826,6.044 4.843,5.701C4.608,3.592 3.331,-1.623 0.255,-0.073C-1.706,1.168 -2.007,2.987 -0.072,4.365L0,4.421Z" style="fill:rgb(248,231,255);fill-rule:nonzero;"/>
    </g>
    <g transform="matrix(6.095182,0,0,6.095182,236.515628,76.193437)">
        <path d="M0,8.094C0.755,9.647 3.308,9.812 4.254,8.401C6.138,5.363 4.695,1.157 2.4,-1.142C1.995,-1.718 0.666,0.613 0.432,1.005C-0.776,3.074 -1.106,5.799 -0.048,8.005L0,8.094Z" style="fill:rgb(248,231,255);fill-rule:nonzero;"/>
    </g>
    <g transform="matrix(6.095182,0,0,6.095182,164.778379,112.695046)">
        <path d="M0,4.068C1.162,5.8 3.146,7.324 5.025,5.454C5.922,4.6 5.818,3.38 5.442,2.204C4.927,0.233 3.369,-1.414 1.52,-2.409C0.817,-2.753 0.014,-3.256 -0.755,-3.23C-0.944,-3.168 -1.009,-2.929 -1.061,-2.734C-1.228,-2.021 -1.272,-1.342 -1.284,-0.526C-1.316,0.985 -0.882,2.865 -0.056,3.989L0,4.068Z" style="fill:rgb(248,231,255);fill-rule:nonzero;"/>
    </g>
    <g transform="matrix(6.095182,0,0,6.095182,206.117125,70.41947)">
        <path d="M0,6.812C0.417,7.199 0.783,7.517 1.172,7.821C1.417,8.005 1.465,8.009 1.569,7.764C1.762,7.284 1.935,6.764 2.11,6.176C3.251,3.115 2.457,-1.197 -1.631,1.155C-3.605,2.75 -1.498,5.457 -0.077,6.739L0,6.812Z" style="fill:rgb(248,231,255);fill-rule:nonzero;"/>
    </g>
    <g transform="matrix(6.095182,0,0,6.095182,281.229276,84.712064)">
        <path d="M0,3.916C0.131,4.342 0.278,4.757 0.451,5.193C0.571,5.49 0.656,5.684 0.789,5.619C1.267,5.312 1.672,4.909 2.163,4.467C4.688,2.382 6.094,-1.736 1.41,-1.768C-1.089,-1.447 -0.58,2.152 -0.028,3.823L0,3.916Z" style="fill:rgb(248,231,255);fill-rule:nonzero;"/>
    </g>
    <g transform="matrix(6.095182,0,0,6.095182,351.107495,180.647186)">
        <path d="M0,-0.778C-1.092,0.871 0.58,3.371 2.553,3.028C5.842,2.684 8.626,-0.234 9.23,-3.466C9.17,-3.675 8.862,-3.74 8.645,-3.792C8.098,-3.91 7.58,-3.957 7.008,-3.981C4.35,-4.149 1.578,-3.062 0.053,-0.863L0,-0.778Z" style="fill:rgb(248,231,255);fill-rule:nonzero;"/>
    </g>
    <g transform="matrix(6.095182,0,0,6.095182,300.818583,110.294763)">
        <path d="M0,4.112C-0.12,5.725 1.781,7.145 3.285,6.633C6.3,5.263 7.361,1.489 6.914,-1.596C6.747,-3.033 6.511,-3.024 5.237,-2.499C2.546,-1.425 0.206,1.047 0.003,4.013L0,4.112Z" style="fill:rgb(248,231,255);fill-rule:nonzero;"/>
    </g>
    <g transform="matrix(6.095182,0,0,6.095182,417.558392,260.850644)">
        <path d="M0,-3.576C-1.728,-4.543 -3.905,-4.993 -5.835,-4.43C-7.66,-4.104 -8.799,-2.521 -8.113,-0.677C-7.191,1.239 -3.988,1.417 -2.102,0.944C-0.539,0.531 1.15,-0.471 2.202,-1.518C2.764,-1.978 0.521,-3.266 0.098,-3.523L0,-3.576Z" style="fill:rgb(248,231,255);fill-rule:nonzero;"/>
    </g>
    <g transform="matrix(6.095182,0,0,6.095182,357.688463,113.211308)">
        <path d="M0,6.376C1.719,5.992 4.626,4.904 4.239,2.674C4.087,2.036 3.458,1.285 2.828,0.853C1.287,-0.347 -0.387,1.283 -0.981,2.732C-1.45,3.897 -1.806,5.304 -1.944,6.49C-1.94,6.717 -1.791,6.723 -1.438,6.672C-1.038,6.618 -0.517,6.501 -0.104,6.402L0,6.376Z" style="fill:rgb(248,231,255);fill-rule:nonzero;"/>
    </g>
    <g transform="matrix(1.628817,5.873517,5.873517,-1.628817,401.806991,187.016219)">
        <path d="M2.433,-2.988C3.709,-4.933 3.357,-4.953 4.662,-2.979C6.588,-0.332 7.04,4.047 2.433,2.872C0.153,1.908 1.337,-1.304 2.38,-2.901L2.433,-2.988Z" style="fill:rgb(248,231,255);fill-rule:nonzero;"/>
    </g>
    <g transform="matrix(6.095182,0,0,6.095182,259.00807,343.912132)">
        <path d="M0,-12.285C-0.359,-12.893 -0.88,-13.933 -1.529,-13.872C-1.902,-13.846 -2.208,-13.42 -2.415,-13.093C-3.283,-11.709 -4.03,-10.026 -4.562,-8.556C-5.282,-6.561 -5.207,-4.392 -4.413,-2.428C-3.903,-1.118 -2.828,0.555 -1.682,1.342C-0.981,1.648 -0.316,0.58 0.129,0.13C3.287,-3.715 2.421,-8.228 0.053,-12.191L0,-12.285Z" style="fill:rgb(248,231,255);fill-rule:nonzero;"/>
    </g>
    <g transform="matrix(6.095182,0,0,6.095182,322.766725,332.165496)">
        <path d="M0,-6.766C-1.856,-7.659 -4.323,-7.779 -6.321,-8.45C-6.467,-8.481 -6.759,-8.61 -6.899,-8.43C-6.994,-8.274 -6.84,-7.84 -6.812,-7.732C-5.993,-5.261 -6.022,-2.335 -4.241,-0.297C-2.526,1.844 0.386,0.087 1.567,-1.74C3.084,-3.864 2.259,-5.639 0.086,-6.72L0,-6.766Z" style="fill:rgb(248,231,255);fill-rule:nonzero;"/>
    </g>
    <g transform="matrix(6.095182,0,0,6.095182,173.131217,297.504632)">
        <path d="M0,4.928C2.927,7.919 5.611,6.089 6.486,2.528C6.864,0.855 7.14,-0.742 7.629,-2.356C7.813,-2.991 7.149,-2.728 6.865,-2.649C5.446,-2.208 4.035,-1.993 2.577,-1.647C-1.043,-0.834 -3.137,1.768 -0.077,4.848L0,4.928Z" style="fill:rgb(248,231,255);fill-rule:nonzero;"/>
    </g>
    <g transform="matrix(6.095182,0,0,6.095182,241.284499,160.735445)">
        <path d="M0,11.548C0.463,12.416 1.33,13.867 2.173,12.702C3.454,10.718 4.553,8.456 4.985,6.117C5.42,3.15 4.143,-0.262 1.689,-2.086C1.243,-2.319 0.783,-1.829 0.452,-1.496C-0.003,-1.031 -0.405,-0.518 -0.747,0.033C-3.177,3.644 -2.128,7.942 -0.053,11.454L0,11.548Z" style="fill:rgb(248,231,255);fill-rule:nonzero;"/>
    </g>
    <g transform="matrix(6.095182,0,0,6.095182,240.545153,245.41947)">
        <path d="M0,1.058C0.696,-0.178 -4.423,-1.978 -5.318,-2.353C-8.736,-3.599 -13.206,-2.332 -15.231,0.732C-15.251,1.123 -14.613,1.642 -14.308,1.953C-12.346,3.696 -9.743,4.657 -7.151,4.343C-4.875,3.992 -2.647,2.863 -0.66,1.663C-0.399,1.49 -0.176,1.314 -0.041,1.122L0,1.058Z" style="fill:rgb(248,231,255);fill-rule:nonzero;"/>
    </g>
    <g transform="matrix(6.095182,0,0,6.095182,310.557465,226.150161)">
        <path d="M0,7.529C2.191,7.501 4.62,6.412 6.195,4.879C6.445,4.602 6.96,4.183 6.897,3.835C5.247,1.352 1.745,-0.002 -1.186,0.344C-3.461,0.695 -5.698,1.821 -7.682,3.022C-8.511,3.528 -8.695,4.192 -7.795,4.735C-5.541,6.1 -2.843,7.53 -0.106,7.531L0,7.529Z" style="fill:rgb(248,231,255);fill-rule:nonzero;"/>
    </g>
    <g transform="matrix(6.095182,0,0,6.095182,217.821094,165.292813)">
        <path d="M0,7.498C-0.583,5.468 -0.72,2.953 -2.025,1.179C-3.727,-1.583 -6.961,0.17 -8.296,2.363C-11.23,7.43 -3.567,7.919 -0.43,8.856C-0.093,8.966 0.392,9.081 0.25,8.539C0.169,8.126 0.111,7.967 0.024,7.595L0,7.498Z" style="fill:rgb(248,231,255);fill-rule:nonzero;"/>
    </g>
    <g transform="matrix(6.095182,0,0,6.095182,327.204627,207.558636)">
        <path d="M0,-5.748C-1.919,-7.769 -4.473,-7.877 -5.784,-5.174C-6.871,-3.081 -6.91,-0.587 -7.639,1.559C-7.782,2.129 -7.129,1.927 -6.879,1.846C-5.458,1.404 -4.044,1.189 -2.583,0.842C1.045,0.031 3.144,-2.588 0.078,-5.669L0,-5.748Z" style="fill:rgb(248,231,255);fill-rule:nonzero;"/>
    </g>
    <g transform="matrix(6.095182,0,0,6.095182,345.468232,271.181978)">
        <path d="M0,2.823C1.487,3.725 3.354,3.076 4.844,2.497C4.935,2.449 4.959,2.398 4.908,2.31C3.869,1.065 2.221,-0.902 0.456,-0.195C-0.326,0.24 -0.898,2.113 -0.067,2.772L0,2.823Z" style="fill:rgb(248,231,255);fill-rule:nonzero;"/>
    </g>
    <g transform="matrix(6.095182,0,0,6.095182,343.544592,209.076336)">
        <path d="M0,3.372C1.219,3.573 2.253,2.923 3.154,2.155C3.52,1.869 4.062,1.356 4.248,1.156C4.278,1.109 4.302,1.062 4.267,1.01C3.263,0.446 1.819,-0.201 0.652,-0.156C-0.337,-0.128 -1.222,0.305 -1.17,1.453C-1.175,2.182 -0.8,3.199 -0.083,3.352L0,3.372Z" style="fill:rgb(248,231,255);fill-rule:nonzero;"/>
    </g>
    <g transform="matrix(6.095182,0,0,6.095182,289.012824,131.20002)">
        <path d="M0,4.246C0.715,2.801 0.023,1.205 -0.593,-0.173C-0.747,-0.48 -0.838,-0.677 -0.965,-0.609C-1.108,-0.527 -1.458,-0.137 -1.637,0.052C-2.435,0.906 -3.227,1.905 -3.306,3.061C-3.444,4.07 -2.804,4.62 -1.818,4.795C-1.21,4.923 -0.349,4.808 -0.043,4.313L0,4.246Z" style="fill:rgb(248,231,255);fill-rule:nonzero;"/>
    </g>
    <g transform="matrix(6.095182,0,0,6.095182,227.901307,134.47618)">
        <path d="M0,3.223C0.214,1.68 -0.866,0.419 -1.858,-0.66C-2.126,-0.902 -2.223,-1.149 -2.393,-1.074C-3.28,0.315 -4.66,4.288 -1.919,4.363C-1.196,4.372 -0.179,4.02 -0.02,3.306L0,3.223Z" style="fill:rgb(248,231,255);fill-rule:nonzero;"/>
    </g>
    <g transform="matrix(6.095182,0,0,6.095182,159.016603,234.044641)">
        <path d="M0,-3.486C-1.389,-4.309 -3.033,-3.684 -4.504,-3.155C-4.679,-3.061 -4.988,-3.034 -4.87,-2.822C-4.672,-2.558 -4.278,-2.158 -4.017,-1.894C-2.95,-0.671 -0.396,0.823 0.351,-1.413C0.583,-2.052 0.646,-3.044 0.068,-3.438L0,-3.486Z" style="fill:rgb(248,231,255);fill-rule:nonzero;"/>
    </g>
    <g transform="matrix(6.095182,0,0,6.095182,155.502731,291.311318)">
        <path d="M0,-3.24C-1.541,-3.522 -2.853,-2.489 -3.952,-1.511C-4.236,-1.215 -4.5,-1.117 -4.32,-0.959C-3.357,-0.438 -1.901,0.282 -0.777,0.233C0.237,0.222 1.135,-0.198 1.094,-1.359C1.126,-2.076 0.771,-3.027 0.081,-3.216L0,-3.24Z" style="fill:rgb(248,231,255);fill-rule:nonzero;"/>
    </g>
    <g transform="matrix(6.095182,0,0,6.095182,210.407524,366.32107)">
        <path d="M0,-4.235C-0.635,-2.797 0.069,-1.322 0.737,0.012C1.098,0.75 1.099,0.679 1.549,0.16C2.376,-0.787 3.276,-1.863 3.358,-3.143C3.493,-4.179 2.829,-4.758 1.783,-4.881C1.163,-4.985 0.327,-4.829 0.041,-4.306L0,-4.235Z" style="fill:rgb(248,231,255);fill-rule:nonzero;"/>
    </g>
    <g transform="matrix(6.095182,0,0,6.095182,270.044617,360.611713)">
        <path d="M0,-3.534C-0.308,-1.93 0.703,-0.68 1.697,0.57C1.848,0.709 1.989,1.069 2.162,0.877C2.276,0.72 2.481,0.321 2.596,0.089C3.116,-0.955 3.645,-2.112 3.428,-3.238C3.284,-4.248 2.534,-4.603 1.529,-4.515C0.921,-4.493 0.201,-4.17 0.026,-3.615L0,-3.534Z" style="fill:rgb(248,231,255);fill-rule:nonzero;"/>
    </g>
</svg>
