<?xml version="1.0" encoding="UTF-8" standalone="no"?>
<!DOCTYPE svg PUBLIC "-//W3C//DTD SVG 1.1//EN" "http://www.w3.org/Graphics/SVG/1.1/DTD/svg11.dtd">
<svg width="100%" height="100%" viewBox="0 0 500 500" version="1.1" xmlns="http://www.w3.org/2000/svg" xmlns:xlink="http://www.w3.org/1999/xlink" xml:space="preserve" xmlns:serif="http://www.serif.com/" style="fill-rule:evenodd;clip-rule:evenodd;stroke-linejoin:round;stroke-miterlimit:2;">
    <g transform="matrix(0,-6.095182,-6.095182,0,250,0)">
        <path d="M-41.016,-41.016C-63.669,-41.016 -82.032,-22.652 -82.032,0C-82.032,22.653 -63.669,41.016 -41.016,41.016C-18.364,41.016 0,22.653 0,0C0,-22.652 -18.364,-41.016 -41.016,-41.016" style="fill:rgb(255,216,138);fill-rule:nonzero;"/>
    </g>
    <g transform="matrix(-2.720839,-5.454199,5.454199,-2.720839,-688.533743,-1024.118637)">
        <text x="-259.637px" y="19.058px" style="font-family:'Outfit-Thin', 'Outfit';font-weight:100;font-size:12.754px;fill:rgb(12,98,119);">P</text>
    </g>
    <g transform="matrix(-1.624258,-5.87478,5.87478,-1.624258,-688.533743,-1024.118637)">
        <text x="-243.955px" y="67.29px" style="font-family:'Outfit-Thin', 'Outfit';font-weight:100;font-size:12.754px;fill:rgb(12,98,119);">i</text>
    </g>
    <g transform="matrix(-1.005824,-6.011619,6.011619,-1.005824,-688.533743,-1024.118637)">
        <text x="-233.028px" y="91.959px" style="font-family:'Outfit-Thin', 'Outfit';font-weight:100;font-size:12.754px;fill:rgb(12,98,119);">l</text>
    </g>
    <g transform="matrix(0.110926,-6.094173,6.094173,0.110926,-688.533743,-1024.118637)">
        <text x="-209.902px" y="132.348px" style="font-family:'Outfit-Thin', 'Outfit';font-weight:100;font-size:12.754px;fill:rgb(12,98,119);">a</text>
    </g>
    <g transform="matrix(1.433467,-5.924223,5.924223,1.433467,-688.533743,-1024.118637)">
        <text x="-169.285px" y="173.406px" style="font-family:'Outfit-Thin', 'Outfit';font-weight:100;font-size:12.754px;fill:rgb(12,98,119);">t</text>
    </g>
    <g transform="matrix(2.603839,-5.511013,5.511013,2.603839,-688.533743,-1024.118637)">
        <text x="-126.655px" y="203.105px" style="font-family:'Outfit-Thin', 'Outfit';font-weight:100;font-size:12.754px;fill:rgb(12,98,119);">e</text>
    </g>
    <g transform="matrix(3.757143,-4.799492,4.799492,3.757143,-688.533743,-1024.118637)">
        <text x="-72.421px" y="224.688px" style="font-family:'Outfit-Thin', 'Outfit';font-weight:100;font-size:12.753px;fill:rgb(12,98,119);">s</text>
    </g>
    <g transform="matrix(4.728388,-3.846245,3.846245,4.728388,-688.533743,-1024.118637)">
        <text x="-13.265px" y="233.914px" style="font-family:'Outfit-Thin', 'Outfit';font-weight:100;font-size:12.754px;fill:rgb(12,98,119);">·</text>
    </g>
    <g transform="matrix(5.519895,-2.584958,2.584958,5.519895,-688.533743,-1024.118637)">
        <text x="47.54px" y="229.189px" style="font-family:'Outfit-Thin', 'Outfit';font-weight:100;font-size:12.754px;fill:rgb(12,98,119);">y</text>
    </g>
    <g transform="matrix(5.975234,-1.203257,1.203257,5.975234,-688.533743,-1024.118637)">
        <text x="106.061px" y="209.899px" style="font-family:'Outfit-Thin', 'Outfit';font-weight:100;font-size:12.754px;fill:rgb(12,98,119);">o</text>
    </g>
    <g transform="matrix(6.082822,0.387975,-0.387975,6.082822,-688.533743,-1024.118637)">
        <text x="163.32px" y="173.393px" style="font-family:'Outfit-Thin', 'Outfit';font-weight:100;font-size:12.754px;fill:rgb(12,98,119);">g</text>
    </g>
    <g transform="matrix(5.75982,1.993922,-1.993922,5.75982,-688.533743,-1024.118637)">
        <text x="210.187px" y="121.737px" style="font-family:'Outfit-Thin', 'Outfit';font-weight:100;font-size:12.754px;fill:rgb(12,98,119);">a</text>
    </g>
    <g transform="matrix(5.048085,3.415858,-3.415858,5.048085,-688.533743,-1024.118637)">
        <text x="243.83px" y="61.409px" style="font-family:'Outfit-Thin', 'Outfit';font-weight:100;font-size:12.754px;fill:rgb(12,98,119);">·</text>
    </g>
    <g transform="matrix(4.164703,4.450449,-4.450449,4.164703,-688.533743,-1024.118637)">
        <text x="255.128px" y="4.977px" style="font-family:'Outfit-Thin', 'Outfit';font-weight:100;font-size:12.754px;fill:rgb(12,98,119);">s</text>
    </g>
    <g transform="matrix(3.024207,5.292015,-5.292015,3.024207,-688.533743,-1024.118637)">
        <text x="254.206px" y="-55.402px" style="font-family:'Outfit-Thin', 'Outfit';font-weight:100;font-size:12.754px;fill:rgb(12,98,119);">a</text>
    </g>
    <g transform="matrix(1.546402,5.895752,-5.895752,1.546402,-688.533743,-1024.118637)">
        <text x="237.754px" y="-121.338px" style="font-family:'Outfit-Thin', 'Outfit';font-weight:100;font-size:12.754px;fill:rgb(12,98,119);">n</text>
    </g>
    <g transform="matrix(0.286896,6.088427,-6.088427,0.286896,-688.533743,-1024.118637)">
        <text x="213.687px" y="-169.396px" style="font-family:'Outfit-Thin', 'Outfit';font-weight:100;font-size:12.754px;fill:rgb(12,98,119);">t</text>
    </g>
    <g transform="matrix(-0.932512,6.023427,-6.023427,-0.932512,-688.533743,-1024.118637)">
        <text x="179.631px" y="-209.577px" style="font-family:'Outfit-Thin', 'Outfit';font-weight:100;font-size:12.754px;fill:rgb(12,98,119);">é</text>
    </g>
    <g transform="matrix(-3.307035,5.120036,-5.120036,-3.307035,-688.533743,-1024.118637)">
        <text x="86.57px" y="-268.189px" style="font-family:'Outfit-Thin', 'Outfit';font-weight:100;font-size:12.753px;fill:rgb(12,98,119);">m</text>
    </g>
    <g transform="matrix(-4.751311,3.817891,-3.817891,-4.751311,-688.533743,-1024.118637)">
        <text x="7.499px" y="-284.821px" style="font-family:'Outfit-Thin', 'Outfit';font-weight:100;font-size:12.754px;fill:rgb(12,98,119);">e</text>
    </g>
    <g transform="matrix(-5.55099,2.51749,-2.51749,-5.55099,-688.533743,-1024.118637)">
        <text x="-57.38px" y="-279.399px" style="font-family:'Outfit-Thin', 'Outfit';font-weight:100;font-size:12.754px;fill:rgb(12,98,119);">n</text>
    </g>
    <g transform="matrix(-5.954645,1.301328,-1.301328,-5.954645,-688.533743,-1024.118637)">
        <text x="-108.178px" y="-262.517px" style="font-family:'Outfit-Thin', 'Outfit';font-weight:100;font-size:12.754px;fill:rgb(12,98,119);">t</text>
    </g>
    <g transform="matrix(-6.09438,0.098882,-0.098882,-6.09438,-688.533743,-1024.118637)">
        <text x="-153.957px" y="-236.923px" style="font-family:'Outfit-Thin', 'Outfit';font-weight:100;font-size:12.754px;fill:rgb(12,98,119);">a</text>
    </g>
    <g transform="matrix(-5.994668,-1.102365,1.102365,-5.994668,-688.533743,-1024.118637)">
        <text x="-190.641px" y="-203.162px" style="font-family:'Outfit-Thin', 'Outfit';font-weight:100;font-size:12.754px;fill:rgb(12,98,119);">l</text>
    </g>
    <g transform="matrix(-5.707293,-2.139638,2.139638,-5.707293,-688.533743,-1024.118637)">
        <text x="-220.989px" y="-167.104px" style="font-family:'Outfit-Thin', 'Outfit';font-weight:100;font-size:12.754px;fill:rgb(12,98,119);">e</text>
    </g>
    <g transform="matrix(6.095182,0,0,6.095182,256.273771,316.634362)">
        <path d="M0,-8.72C-0.255,-9.151 -0.625,-9.89 -1.085,-9.847C-1.35,-9.828 -1.567,-9.526 -1.714,-9.293C-2.33,-8.311 -2.86,-7.117 -3.238,-6.073C-3.749,-4.657 -3.696,-3.117 -3.132,-1.723C-2.771,-0.793 -2.007,0.394 -1.194,0.953C-0.697,1.17 -0.225,0.412 0.092,0.093C2.333,-2.637 1.718,-5.84 0.037,-8.653L0,-8.72Z" style="fill:rgb(10,97,118);fill-rule:nonzero;"/>
    </g>
    <g transform="matrix(6.095182,0,0,6.095182,301.531719,308.29981)">
        <path d="M0,-4.803C-1.317,-5.437 -3.068,-5.522 -4.487,-5.998C-4.59,-6.021 -4.798,-6.112 -4.897,-5.984C-4.965,-5.873 -4.856,-5.566 -4.836,-5.488C-4.254,-3.735 -4.275,-1.658 -3.011,-0.211C-1.793,1.309 0.274,0.062 1.113,-1.235C2.189,-2.743 1.604,-4.003 0.061,-4.77L0,-4.803Z" style="fill:rgb(10,97,118);fill-rule:nonzero;"/>
    </g>
    <g transform="matrix(6.095182,0,0,6.095182,195.314633,283.695997)">
        <path d="M0,3.498C2.078,5.621 3.983,4.322 4.604,1.794C4.872,0.607 5.068,-0.527 5.415,-1.673C5.546,-2.123 5.074,-1.937 4.873,-1.88C3.866,-1.567 2.864,-1.415 1.83,-1.169C-0.74,-0.592 -2.227,1.255 -0.055,3.441L0,3.498Z" style="fill:rgb(10,97,118);fill-rule:nonzero;"/>
    </g>
    <g transform="matrix(6.095182,0,0,6.095182,243.692705,186.606446)">
        <path d="M0,8.198C0.329,8.814 0.944,9.844 1.543,9.017C2.452,7.609 3.232,6.003 3.539,4.343C3.847,2.237 2.941,-0.185 1.199,-1.48C0.882,-1.646 0.556,-1.298 0.321,-1.061C-0.002,-0.731 -0.288,-0.367 -0.53,0.024C-2.256,2.587 -1.51,5.638 -0.037,8.132L0,8.198Z" style="fill:rgb(10,97,118);fill-rule:nonzero;"/>
    </g>
    <g transform="matrix(6.095182,0,0,6.095182,243.16791,246.729325)">
        <path d="M0,0.75C0.494,-0.127 -3.139,-1.405 -3.775,-1.671C-6.201,-2.555 -9.374,-1.657 -10.811,0.519C-10.826,0.796 -10.373,1.165 -10.156,1.385C-8.764,2.623 -6.915,3.305 -5.076,3.082C-3.46,2.833 -1.879,2.031 -0.468,1.18C-0.284,1.056 -0.125,0.932 -0.029,0.796L0,0.75Z" style="fill:rgb(10,97,118);fill-rule:nonzero;"/>
    </g>
    <g transform="matrix(6.095182,0,0,6.095182,292.865589,233.041374)">
        <path d="M0,5.345C1.555,5.325 3.279,4.552 4.398,3.464C4.575,3.267 4.94,2.97 4.896,2.723C3.724,0.96 1.239,-0.001 -0.842,0.244C-2.457,0.494 -4.045,1.293 -5.453,2.146C-6.042,2.505 -6.172,2.976 -5.533,3.362C-3.933,4.331 -2.018,5.346 -0.075,5.346L0,5.345Z" style="fill:rgb(10,97,118);fill-rule:nonzero;"/>
    </g>
    <g transform="matrix(6.095182,0,0,6.095182,227.03701,189.848474)">
        <path d="M0,5.322C-0.414,3.881 -0.511,2.096 -1.438,0.836C-2.645,-1.124 -4.941,0.12 -5.889,1.677C-7.971,5.274 -2.532,5.62 -0.305,6.286C-0.066,6.364 0.278,6.446 0.177,6.061C0.12,5.768 0.079,5.655 0.017,5.391L0,5.322Z" style="fill:rgb(10,97,118);fill-rule:nonzero;"/>
    </g>
    <g transform="matrix(6.095182,0,0,6.095182,304.682319,219.853228)">
        <path d="M0,-4.081C-1.362,-5.516 -3.175,-5.592 -4.106,-3.673C-4.878,-2.188 -4.905,-0.417 -5.423,1.105C-5.524,1.511 -5.06,1.367 -4.883,1.31C-3.874,0.996 -2.87,0.843 -1.833,0.597C0.742,0.021 2.232,-1.838 0.055,-4.025L0,-4.081Z" style="fill:rgb(10,97,118);fill-rule:nonzero;"/>
    </g>
</svg>
