<?xml version="1.0" encoding="UTF-8" standalone="no"?>
<!DOCTYPE svg PUBLIC "-//W3C//DTD SVG 1.1//EN" "http://www.w3.org/Graphics/SVG/1.1/DTD/svg11.dtd">
<svg width="100%" height="100%" viewBox="0 0 500 250" version="1.1" xmlns="http://www.w3.org/2000/svg" xmlns:xlink="http://www.w3.org/1999/xlink" xml:space="preserve" xmlns:serif="http://www.serif.com/" style="fill-rule:evenodd;clip-rule:evenodd;stroke-linejoin:round;stroke-miterlimit:2;">
    <g transform="matrix(1,0,0,1,0,-125)">
        <g transform="matrix(6.095182,0,0,6.095182,500,125)">
            <path d="M0,41.016C0,18.363 -18.364,0 -41.016,0C-63.669,0 -82.032,18.363 -82.032,41.016L0,41.016Z" style="fill:rgb(248,231,255);fill-rule:nonzero;"/>
        </g>
        <g transform="matrix(6.083865,-0.371265,0.371261,6.083865,-1375.198093,-1527.873878)">
            <g transform="matrix(0.999991,0,0,1,0.002084,0)">
                <text x="224.744px" y="309.652px" style="font-family:'BreathingPersonalUseOnly-Reg', 'Breathing Personal Use Only';font-size:10.767px;fill:rgb(102,48,26);">y<tspan x="232.383px 237.105px 242.558px 244.394px 249.353px " y="309.652px 309.652px 309.652px 309.652px 309.652px ">ou’re</tspan></text>
            </g>
        </g>
        <g transform="matrix(6.083865,-0.371265,0.371261,6.083865,-1375.198093,-1527.873878)">
            <g transform="matrix(0.999991,0,0,1,0.002162,0)">
                <text x="233.196px" y="318.987px" style="font-family:'BreathingPersonalUseOnly-Reg', 'Breathing Personal Use Only';font-size:10.767px;fill:rgb(102,48,26);">a<tspan x="238.946px 249.035px 254.785px 262.236px 266.102px 272.304px " y="318.987px 318.987px 318.987px 318.987px 318.987px 318.987px ">mazing</tspan></text>
            </g>
        </g>
    </g>
</svg>
