<?xml version="1.0" encoding="UTF-8"?><svg id="Calque_1" xmlns="http://www.w3.org/2000/svg" viewBox="0 0 295.95 197.04"><path d="M102.74,157.35v-11.7h1.26v11.7h-1.26ZM103.56,152.66v-1.11h3.43c.49,0,.92-.1,1.3-.29s.68-.47.89-.82c.22-.36.32-.78.32-1.28s-.11-.93-.32-1.28c-.22-.36-.51-.63-.89-.82s-.81-.29-1.3-.29h-3.43v-1.11h3.54c.7,0,1.33.15,1.89.43.55.29.99.7,1.32,1.22.32.53.48,1.14.48,1.85s-.16,1.33-.48,1.85-.76.93-1.32,1.22c-.56.29-1.18.43-1.89.43h-3.54Z"/><path d="M113.39,147.64c-.23,0-.42-.08-.58-.26-.16-.17-.24-.37-.24-.6s.08-.44.24-.59.35-.24.58-.24c.25,0,.45.08.6.24s.23.36.23.59-.08.43-.23.6c-.15.17-.35.26-.6.26ZM112.79,157.35v-7.99h1.21v7.99h-1.21Z"/><path d="M116.4,157.35v-12.04h1.21v12.04h-1.21Z"/><path d="M123.47,157.52c-.75,0-1.42-.18-2.02-.55-.6-.37-1.08-.86-1.43-1.49-.35-.62-.53-1.33-.53-2.11s.18-1.5.53-2.13c.35-.63.83-1.13,1.42-1.5.6-.37,1.27-.55,2.02-.55.61,0,1.16.12,1.64.37.48.24.88.58,1.18,1.02.31.44.49.94.55,1.52v2.5c-.07.58-.25,1.09-.55,1.53-.3.44-.69.79-1.17,1.03s-1.02.37-1.63.37ZM123.66,156.38c.84,0,1.51-.28,2.01-.83.5-.55.75-1.29.75-2.19,0-.6-.11-1.13-.34-1.58-.23-.45-.55-.81-.97-1.06-.42-.26-.91-.38-1.46-.38s-1.05.13-1.49.39-.78.62-1.04,1.07c-.25.45-.38.97-.38,1.56s.13,1.11.38,1.56c.25.45.6.81,1.05,1.07.44.26.94.39,1.5.39ZM126.35,157.35v-2.14l.24-1.97-.24-1.92v-1.95h1.21v7.99h-1.21Z"/><path d="M129.1,150.45v-1.09h5.22v1.09h-5.22ZM131.11,157.35v-11.36h1.21v11.36h-1.21Z"/><path d="M139.34,157.52c-.79,0-1.51-.18-2.14-.54-.64-.36-1.14-.86-1.51-1.5-.37-.63-.55-1.35-.55-2.14s.18-1.49.54-2.12c.36-.63.85-1.12,1.47-1.49s1.32-.54,2.09-.54,1.39.16,1.95.49c.56.33,1,.79,1.33,1.37.32.58.48,1.26.48,2.02,0,.09,0,.2-.02.31-.01.12-.03.26-.07.42h-6.92v-1.02h6.26l-.43.37c.01-.58-.09-1.08-.3-1.5-.21-.43-.51-.76-.9-1-.39-.24-.86-.36-1.4-.36-.58,0-1.08.13-1.51.38s-.77.61-1.01,1.05c-.24.45-.37.97-.37,1.57s.13,1.15.38,1.62c.25.47.61.83,1.07,1.09.46.26.99.39,1.59.39.48,0,.92-.09,1.33-.26.41-.17.75-.44,1.04-.79l.78.78c-.37.45-.84.8-1.39,1.04-.56.24-1.15.36-1.79.36Z"/><path d="M147.26,157.52c-.43,0-.85-.06-1.24-.18-.4-.12-.76-.29-1.08-.5s-.61-.47-.86-.77l.78-.78c.32.39.68.67,1.08.86.4.19.85.28,1.35.28s.93-.1,1.23-.31c.3-.2.45-.49.45-.85,0-.34-.1-.6-.31-.79-.21-.19-.48-.34-.82-.46-.34-.12-.7-.23-1.07-.34s-.73-.24-1.06-.41c-.33-.16-.61-.39-.82-.68s-.32-.68-.32-1.17c0-.45.11-.85.34-1.18.23-.33.54-.6.95-.78.41-.19.9-.28,1.48-.28s1.15.11,1.63.32.88.53,1.17.95l-.78.78c-.23-.31-.52-.54-.88-.71-.36-.17-.76-.26-1.2-.26-.51,0-.9.1-1.17.3-.27.2-.4.46-.4.77s.11.55.32.72.49.32.82.42c.33.11.69.22,1.06.32s.73.25,1.07.42c.34.18.62.41.82.71.21.3.31.71.31,1.22,0,.71-.26,1.28-.77,1.71-.52.42-1.22.64-2.1.64Z"/><path d="M152.18,159.11l.97-1.89.44-.1c-.05.1-.11.19-.19.26-.08.07-.18.11-.31.11-.22,0-.41-.09-.59-.26s-.26-.39-.26-.65.1-.51.29-.71c.19-.2.43-.3.71-.3.26,0,.49.1.69.3.2.2.3.43.3.71,0,.11-.02.25-.06.4-.04.15-.12.35-.25.6l-1.02,1.92-.73-.39Z"/><path d="M163.9,152.52l-4.64-6.87h1.46l3.86,5.77h-.61l3.88-5.77h1.43l-4.68,6.87h-.7ZM163.64,157.35v-5.73h1.26v5.73h-1.26Z"/><path d="M172.18,157.52c-.78,0-1.49-.19-2.11-.56-.62-.37-1.12-.88-1.49-1.51-.37-.63-.55-1.34-.55-2.13s.18-1.47.55-2.09c.37-.62.86-1.12,1.49-1.49.62-.37,1.33-.55,2.11-.55s1.47.18,2.1.54,1.13.86,1.5,1.49c.37.63.55,1.33.55,2.1s-.18,1.5-.55,2.13c-.37.63-.87,1.13-1.5,1.51s-1.33.56-2.1.56ZM172.18,156.37c.55,0,1.05-.13,1.5-.39.44-.26.79-.62,1.04-1.09.25-.46.38-.99.38-1.56s-.13-1.07-.38-1.52c-.26-.45-.6-.8-1.04-1.06-.44-.26-.93-.39-1.49-.39s-1.05.13-1.5.39c-.44.26-.79.62-1.04,1.06-.25.45-.37.96-.37,1.52s.12,1.11.37,1.57c.25.46.6.82,1.04,1.08.44.26.94.39,1.5.39Z"/><path d="M181.6,157.27c-.75,0-1.42-.18-2.01-.53-.59-.35-1.05-.83-1.39-1.45-.34-.61-.51-1.3-.51-2.07s.17-1.46.51-2.07c.34-.61.8-1.09,1.39-1.44.59-.35,1.25-.53,1.99-.53.62,0,1.18.12,1.67.36.49.24.88.58,1.19,1.01.31.44.49.95.54,1.54v2.26c-.07.58-.25,1.09-.56,1.52s-.7.78-1.18,1.02c-.48.24-1.03.37-1.64.37ZM181.52,160.89c-.8,0-1.52-.15-2.15-.45-.63-.3-1.14-.72-1.52-1.27l.78-.78c.32.43.72.77,1.21,1,.49.24,1.05.36,1.7.36.92,0,1.64-.24,2.18-.73.53-.49.8-1.15.8-1.99v-1.99l.24-1.82-.24-1.8v-2.06h1.21v7.67c0,.77-.18,1.45-.53,2.02s-.85,1.03-1.48,1.35-1.37.48-2.19.48ZM181.82,156.13c.54,0,1.03-.12,1.45-.36.42-.24.74-.57.97-1.01.23-.44.34-.95.34-1.54s-.12-1.07-.35-1.51c-.23-.44-.56-.78-.97-1.02s-.9-.37-1.45-.37-1.05.12-1.49.37c-.44.24-.78.58-1.02,1.02-.24.44-.37.94-.37,1.51s.12,1.07.37,1.51.59.78,1.02,1.03c.43.24.93.37,1.5.37Z"/><path d="M191.57,157.52c-.75,0-1.42-.18-2.02-.55-.6-.37-1.08-.86-1.43-1.49-.35-.62-.53-1.33-.53-2.11s.18-1.5.53-2.13c.35-.63.83-1.13,1.42-1.5.6-.37,1.27-.55,2.02-.55.61,0,1.16.12,1.64.37.48.24.88.58,1.18,1.02.31.44.49.94.55,1.52v2.5c-.07.58-.25,1.09-.55,1.53-.3.44-.69.79-1.17,1.03s-1.02.37-1.63.37ZM191.75,156.38c.84,0,1.51-.28,2.01-.83.5-.55.75-1.29.75-2.19,0-.6-.11-1.13-.34-1.58-.23-.45-.55-.81-.97-1.06-.42-.26-.91-.38-1.46-.38s-1.05.13-1.49.39-.78.62-1.04,1.07c-.25.45-.38.97-.38,1.56s.13,1.11.38,1.56c.25.45.6.81,1.05,1.07.44.26.94.39,1.5.39ZM194.44,157.35v-2.14l.24-1.97-.24-1.92v-1.95h1.21v7.99h-1.21Z"/><path d="M198.2,159.11l.97-1.89.44-.1c-.05.1-.11.19-.19.26-.08.07-.18.11-.31.11-.22,0-.41-.09-.59-.26s-.26-.39-.26-.65.1-.51.29-.71c.19-.2.43-.3.71-.3.26,0,.49.1.69.3.2.2.3.43.3.71,0,.11-.02.25-.06.4-.04.15-.12.35-.25.6l-1.02,1.92-.73-.39Z"/><path d="M85.76,177.93c-.84,0-1.62-.15-2.33-.46-.71-.31-1.34-.74-1.87-1.29-.53-.55-.95-1.2-1.24-1.93-.3-.73-.44-1.52-.44-2.35s.14-1.62.43-2.36c.29-.73.7-1.37,1.23-1.91s1.15-.97,1.86-1.28,1.48-.46,2.32-.46c.9,0,1.7.16,2.41.48s1.33.75,1.86,1.31l-.87.87c-.4-.45-.88-.81-1.46-1.06-.58-.26-1.23-.38-1.94-.38-.66,0-1.26.12-1.81.36-.55.24-1.03.57-1.45,1-.41.43-.73.94-.95,1.53-.22.59-.33,1.22-.33,1.9s.11,1.33.34,1.92c.23.59.55,1.1.95,1.54.41.44.89.77,1.45,1.01.55.24,1.16.36,1.82.36.75,0,1.41-.13,2-.39.58-.26,1.07-.62,1.47-1.07l.87.87c-.52.57-1.15,1.01-1.88,1.33-.73.32-1.55.48-2.44.48Z"/><path d="M95.28,177.93c-.78,0-1.49-.19-2.11-.56-.62-.37-1.12-.88-1.49-1.51-.37-.63-.55-1.34-.55-2.13s.18-1.47.55-2.09c.37-.62.86-1.12,1.49-1.49.62-.37,1.33-.55,2.11-.55s1.47.18,2.1.54,1.13.86,1.5,1.49c.37.63.55,1.33.55,2.1s-.18,1.5-.55,2.13c-.37.63-.87,1.13-1.5,1.51s-1.33.56-2.1.56ZM95.28,176.78c.55,0,1.05-.13,1.5-.39.44-.26.79-.62,1.04-1.09.25-.46.38-.99.38-1.56s-.13-1.07-.38-1.52c-.26-.45-.6-.8-1.04-1.06-.44-.26-.93-.39-1.49-.39s-1.05.13-1.5.39c-.44.26-.79.62-1.04,1.06-.25.45-.37.96-.37,1.52s.12,1.11.37,1.57c.25.46.6.82,1.04,1.08.44.26.94.39,1.5.39Z"/><path d="M101.3,177.76v-7.99h1.21v7.99h-1.21ZM102.51,173.1l-.49-.2c0-1.02.25-1.82.74-2.42.49-.59,1.17-.88,2.03-.88.4,0,.76.07,1.09.21.33.14.63.37.92.67l-.8.83c-.18-.2-.39-.35-.62-.44-.23-.09-.5-.14-.79-.14-.61,0-1.11.2-1.5.6-.39.4-.58.99-.58,1.77Z"/><path d="M108.11,181.13v-11.36h1.21v2.04l-.24,1.95.24,1.96v5.41h-1.21ZM112.26,177.93c-.61,0-1.16-.13-1.65-.37-.49-.25-.89-.59-1.2-1.03-.31-.44-.5-.94-.57-1.52v-2.5c.07-.59.26-1.1.58-1.54.32-.44.72-.77,1.22-1.01.49-.24,1.03-.36,1.63-.36.74,0,1.4.18,1.99.55.59.37,1.06.87,1.4,1.5.35.63.52,1.34.52,2.13s-.17,1.48-.51,2.11c-.34.62-.81,1.12-1.4,1.49-.6.37-1.26.55-2,.55ZM112.04,176.79c.57,0,1.07-.13,1.5-.38.43-.26.77-.61,1.02-1.07.25-.46.37-.98.37-1.57s-.13-1.11-.37-1.57c-.25-.46-.59-.82-1.01-1.07-.42-.26-.92-.38-1.47-.38s-1.05.13-1.47.38c-.43.25-.76.61-1,1.07-.24.46-.36.98-.36,1.57s.12,1.11.36,1.57c.24.46.57.82.99,1.07.42.25.9.38,1.45.38Z"/><path d="M120.5,177.93c-.43,0-.85-.06-1.24-.18-.4-.12-.76-.29-1.08-.5s-.61-.47-.86-.77l.78-.78c.32.39.68.67,1.08.86.4.19.85.28,1.35.28s.93-.1,1.23-.31c.3-.2.45-.49.45-.85,0-.34-.1-.6-.31-.79-.21-.19-.48-.34-.82-.46-.34-.12-.7-.23-1.07-.34s-.73-.24-1.06-.41c-.33-.16-.61-.39-.82-.68s-.32-.68-.32-1.17c0-.45.11-.85.34-1.18.23-.33.54-.6.95-.78.41-.19.9-.28,1.48-.28s1.15.11,1.63.32.88.53,1.17.95l-.78.78c-.23-.31-.52-.54-.88-.71-.36-.17-.76-.26-1.2-.26-.51,0-.9.1-1.17.3-.27.2-.4.46-.4.77s.11.55.32.72.49.32.82.42c.33.11.69.22,1.06.32s.73.25,1.07.42c.34.18.62.41.82.71.21.3.31.71.31,1.22,0,.71-.26,1.28-.77,1.71-.52.42-1.22.64-2.1.64Z"/><path d="M132.61,177.93c-.75,0-1.41-.15-1.98-.45-.57-.3-1.02-.71-1.33-1.24-.32-.53-.48-1.13-.48-1.8,0-.72.19-1.38.58-1.97.39-.59.93-1.05,1.63-1.38l.59.77c-.49.24-.88.58-1.17,1.02-.29.44-.43.95-.43,1.53,0,.48.11.89.34,1.25.23.36.54.63.94.83.4.2.85.3,1.36.3.6,0,1.13-.14,1.59-.41s.81-.62,1.05-1.04l.8.9c-.23.33-.52.62-.88.88-.36.26-.76.45-1.2.6-.44.14-.91.21-1.41.21ZM137,177.76l-5.65-5.94c-.47-.49-.81-.95-1.03-1.4s-.33-.93-.33-1.44c0-.6.14-1.13.42-1.6s.66-.83,1.15-1.11,1.04-.41,1.67-.41c.45,0,.87.07,1.24.21s.71.33,1,.57c.3.24.55.52.75.83l-.88.8c-.26-.39-.56-.69-.9-.91-.34-.22-.74-.33-1.19-.33-.59,0-1.08.18-1.45.54-.38.36-.57.82-.57,1.4,0,.42.09.79.27,1.11.18.32.47.7.87,1.11l6.16,6.55h-1.51Z"/><path d="M146.58,177.93c-.78,0-1.49-.18-2.12-.55-.63-.37-1.13-.87-1.49-1.51-.36-.63-.54-1.34-.54-2.13s.18-1.49.54-2.12c.36-.63.86-1.12,1.49-1.49.63-.36,1.33-.54,2.12-.54.61,0,1.18.11,1.7.34s.96.54,1.33.95l-.8.82c-.27-.31-.6-.54-.98-.71-.38-.16-.8-.25-1.25-.25-.56,0-1.05.13-1.5.39-.44.26-.79.62-1.04,1.06-.25.45-.37.96-.37,1.54s.12,1.1.37,1.56c.25.46.6.82,1.04,1.08.44.26.94.39,1.5.39.45,0,.87-.08,1.26-.25.39-.16.72-.4,1-.71l.8.8c-.37.42-.82.74-1.35.97-.53.23-1.1.34-1.71.34Z"/><path d="M154.77,177.93c-.78,0-1.49-.19-2.11-.56-.62-.37-1.12-.88-1.49-1.51-.37-.63-.55-1.34-.55-2.13s.18-1.47.55-2.09c.37-.62.86-1.12,1.49-1.49.62-.37,1.33-.55,2.11-.55s1.47.18,2.1.54,1.13.86,1.5,1.49c.37.63.55,1.33.55,2.1s-.18,1.5-.55,2.13c-.37.63-.87,1.13-1.5,1.51s-1.33.56-2.1.56ZM154.77,176.78c.55,0,1.05-.13,1.5-.39.44-.26.79-.62,1.04-1.09.25-.46.38-.99.38-1.56s-.13-1.07-.38-1.52c-.26-.45-.6-.8-1.04-1.06-.44-.26-.93-.39-1.49-.39s-1.05.13-1.5.39c-.44.26-.79.62-1.04,1.06-.25.45-.37.96-.37,1.52s.12,1.11.37,1.57c.25.46.6.82,1.04,1.08.44.26.94.39,1.5.39Z"/><path d="M160.79,177.76v-7.99h1.21v7.99h-1.21ZM166.63,177.76v-4.69c0-.69-.21-1.26-.63-1.69-.42-.44-.97-.65-1.65-.65-.45,0-.86.1-1.21.3s-.63.47-.83.82c-.2.35-.31.75-.31,1.21l-.54-.31c0-.6.14-1.14.42-1.62.28-.48.67-.85,1.16-1.12s1.04-.41,1.65-.41,1.16.15,1.63.44.85.69,1.11,1.19c.27.5.4,1.04.4,1.63v4.9h-1.21Z"/><path d="M172.51,177.93c-.43,0-.85-.06-1.24-.18-.4-.12-.76-.29-1.08-.5s-.61-.47-.86-.77l.78-.78c.32.39.68.67,1.08.86.4.19.85.28,1.35.28s.93-.1,1.23-.31c.3-.2.45-.49.45-.85,0-.34-.1-.6-.31-.79-.21-.19-.48-.34-.82-.46-.34-.12-.7-.23-1.07-.34s-.73-.24-1.06-.41c-.33-.16-.61-.39-.82-.68s-.32-.68-.32-1.17c0-.45.11-.85.34-1.18.23-.33.54-.6.95-.78.41-.19.9-.28,1.48-.28s1.15.11,1.63.32.88.53,1.17.95l-.78.78c-.23-.31-.52-.54-.88-.71-.36-.17-.76-.26-1.2-.26-.51,0-.9.1-1.17.3-.27.2-.4.46-.4.77s.11.55.32.72.49.32.82.42c.33.11.69.22,1.06.32s.73.25,1.07.42c.34.18.62.41.82.71.21.3.31.71.31,1.22,0,.71-.26,1.28-.77,1.71-.52.42-1.22.64-2.1.64Z"/><path d="M180.9,177.93c-.78,0-1.49-.18-2.12-.55-.63-.37-1.13-.87-1.49-1.51-.36-.63-.54-1.34-.54-2.13s.18-1.49.54-2.12c.36-.63.86-1.12,1.49-1.49.63-.36,1.33-.54,2.12-.54.61,0,1.18.11,1.7.34s.96.54,1.33.95l-.8.82c-.27-.31-.6-.54-.98-.71-.38-.16-.8-.25-1.25-.25-.56,0-1.05.13-1.5.39-.44.26-.79.62-1.04,1.06-.25.45-.37.96-.37,1.54s.12,1.1.37,1.56c.25.46.6.82,1.04,1.08.44.26.94.39,1.5.39.45,0,.87-.08,1.26-.25.39-.16.72-.4,1-.71l.8.8c-.37.42-.82.74-1.35.97-.53.23-1.1.34-1.71.34Z"/><path d="M186.22,168.05c-.23,0-.42-.08-.58-.26-.16-.17-.24-.37-.24-.6s.08-.44.24-.59.35-.24.58-.24c.25,0,.45.08.6.24s.23.36.23.59-.08.43-.23.6c-.15.17-.35.26-.6.26ZM185.62,177.76v-7.99h1.21v7.99h-1.21Z"/><path d="M192.92,177.93c-.79,0-1.51-.18-2.14-.54-.64-.36-1.14-.86-1.51-1.5-.37-.63-.55-1.35-.55-2.14s.18-1.49.54-2.12c.36-.63.85-1.12,1.47-1.49s1.32-.54,2.09-.54,1.39.16,1.95.49c.56.33,1,.79,1.33,1.37.32.58.48,1.26.48,2.02,0,.09,0,.2-.02.31-.01.12-.03.26-.07.42h-6.92v-1.02h6.26l-.43.37c.01-.58-.09-1.08-.3-1.5-.21-.43-.51-.76-.9-1-.39-.24-.86-.36-1.4-.36-.58,0-1.08.13-1.51.38s-.77.61-1.01,1.05c-.24.45-.37.97-.37,1.57s.13,1.15.38,1.62c.25.47.61.83,1.07,1.09.46.26.99.39,1.59.39.48,0,.92-.09,1.33-.26.41-.17.75-.44,1.04-.79l.78.78c-.37.45-.84.8-1.39,1.04-.56.24-1.15.36-1.79.36Z"/><path d="M198.38,177.76v-7.99h1.21v7.99h-1.21ZM204.21,177.76v-4.69c0-.69-.21-1.26-.63-1.69-.42-.44-.97-.65-1.65-.65-.45,0-.86.1-1.21.3s-.63.47-.83.82c-.2.35-.31.75-.31,1.21l-.54-.31c0-.6.14-1.14.42-1.62.28-.48.67-.85,1.16-1.12s1.04-.41,1.65-.41,1.16.15,1.63.44.85.69,1.11,1.19c.27.5.4,1.04.4,1.63v4.9h-1.21Z"/><path d="M211.27,177.93c-.78,0-1.49-.18-2.12-.55-.63-.37-1.13-.87-1.49-1.51-.36-.63-.54-1.34-.54-2.13s.18-1.49.54-2.12c.36-.63.86-1.12,1.49-1.49.63-.36,1.33-.54,2.12-.54.61,0,1.18.11,1.7.34s.96.54,1.33.95l-.8.82c-.27-.31-.6-.54-.98-.71-.38-.16-.8-.25-1.25-.25-.56,0-1.05.13-1.5.39-.44.26-.79.62-1.04,1.06-.25.45-.37.96-.37,1.54s.12,1.1.37,1.56c.25.46.6.82,1.04,1.08.44.26.94.39,1.5.39.45,0,.87-.08,1.26-.25.39-.16.72-.4,1-.71l.8.8c-.37.42-.82.74-1.35.97-.53.23-1.1.34-1.71.34Z"/><path d="M219.52,177.93c-.79,0-1.51-.18-2.14-.54-.64-.36-1.14-.86-1.51-1.5-.37-.63-.55-1.35-.55-2.14s.18-1.49.54-2.12c.36-.63.85-1.12,1.47-1.49s1.32-.54,2.09-.54,1.39.16,1.95.49c.56.33,1,.79,1.33,1.37.32.58.48,1.26.48,2.02,0,.09,0,.2-.02.31-.01.12-.03.26-.07.42h-6.92v-1.02h6.26l-.43.37c.01-.58-.09-1.08-.3-1.5-.21-.43-.51-.76-.9-1-.39-.24-.86-.36-1.4-.36-.58,0-1.08.13-1.51.38s-.77.61-1.01,1.05c-.24.45-.37.97-.37,1.57s.13,1.15.38,1.62c.25.47.61.83,1.07,1.09.46.26.99.39,1.59.39.48,0,.92-.09,1.33-.26.41-.17.75-.44,1.04-.79l.78.78c-.37.45-.84.8-1.39,1.04-.56.24-1.15.36-1.79.36Z"/><path d="M69.34,96.42c-1.53-1-3.3-1.5-5.3-1.5s-3.79.45-5.38,1.36c-1.59.91-2.83,2.14-3.72,3.69-.04.08-.07.16-.12.24-.43-1.11-1.07-2.17-2.08-3.06-1.76-1.55-4.22-2.23-7.35-2.01v5c1.43-.14,3.11-.08,4.04.74,1.03.92,1.15,2.58,1.2,3.86.05,1.41.03,2.82.03,4.23v12.84h4.99v-15.36c0-1.33.29-2.52.89-3.55.59-1.03,1.4-1.85,2.44-2.44,1.03-.59,2.22-.89,3.55-.89,2,0,3.61.65,4.85,1.94,1.24,1.29,1.86,2.94,1.86,4.94v15.36h5.05v-16.36c0-1.81-.44-3.52-1.33-5.13-.89-1.61-2.1-2.91-3.63-3.91Z"/><path d="M100.06,96.72c-2.09-1.2-4.43-1.8-7.02-1.8s-4.86.61-6.93,1.83c-2.07,1.22-3.72,2.86-4.94,4.91-1.22,2.05-1.83,4.35-1.83,6.9s.61,4.93,1.83,7.02c1.22,2.09,2.86,3.74,4.94,4.96,2.07,1.22,4.38,1.83,6.93,1.83s4.93-.61,7.02-1.83c2.09-1.22,3.74-2.87,4.96-4.96,1.22-2.09,1.83-4.43,1.83-7.02s-.61-4.86-1.83-6.93c-1.22-2.07-2.88-3.71-4.96-4.91ZM100.59,113.19c-.74,1.35-1.76,2.41-3.05,3.19-1.29.78-2.79,1.16-4.49,1.16s-3.09-.39-4.38-1.16c-1.29-.78-2.31-1.84-3.05-3.19-.74-1.35-1.11-2.89-1.11-4.63s.37-3.22,1.11-4.55c.74-1.33,1.76-2.38,3.05-3.13s2.75-1.14,4.38-1.14,3.19.38,4.46,1.14,2.29,1.8,3.05,3.13,1.14,2.85,1.14,4.55-.37,3.28-1.11,4.63Z"/><path d="M148.07,96.14c-1.52-.81-3.24-1.22-5.16-1.22s-3.55.42-5.1,1.25c-1.55.83-2.82,1.98-3.8,3.44-.02.03-.03.06-.05.09-.02-.04-.04-.08-.06-.12-.87-1.48-2.05-2.63-3.55-3.44-1.5-.81-3.17-1.22-5.02-1.22s-3.59.42-5.1,1.25c-1.12.61-2.06,1.41-2.83,2.38v-3.07h-4.99v26.34h4.99v-15.92c0-1.33.29-2.46.89-3.38.59-.92,1.37-1.64,2.33-2.16.96-.52,2.05-.78,3.27-.78,1.81,0,3.32.56,4.52,1.69,1.2,1.13,1.8,2.67,1.8,4.63v15.92h4.99v-15.92c0-1.33.29-2.46.89-3.38.59-.92,1.38-1.64,2.36-2.16.98-.52,2.08-.78,3.3-.78,1.78,0,3.26.56,4.46,1.69,1.2,1.13,1.8,2.67,1.8,4.63v15.92h5.05v-16.92c0-2.07-.45-3.84-1.36-5.32-.91-1.48-2.12-2.63-3.63-3.44Z"/><path d="M179.79,99.09c-.91-1.21-2.04-2.19-3.41-2.92-1.57-.83-3.36-1.25-5.35-1.25-2.44,0-4.63.61-6.57,1.83-1.94,1.22-3.48,2.87-4.6,4.94-1.13,2.07-1.69,4.4-1.69,6.99s.56,4.92,1.69,6.99c1.13,2.07,2.66,3.71,4.6,4.91,1.94,1.2,4.13,1.8,6.57,1.8,2,0,3.79-.42,5.38-1.25,1.37-.72,2.49-1.7,3.38-2.9v3.59h5.05v-26.34h-5.05v3.61ZM177.85,115.13c-1.52,1.68-3.51,2.52-5.99,2.52-1.66,0-3.14-.39-4.44-1.17-1.29-.78-2.3-1.84-3.02-3.19-.72-1.35-1.08-2.91-1.08-4.69s.36-3.28,1.08-4.63c.72-1.35,1.72-2.41,2.99-3.19,1.28-.78,2.75-1.17,4.41-1.17s3.11.38,4.35,1.14c1.24.76,2.21,1.82,2.91,3.19s1.05,2.94,1.05,4.71c0,2.63-.76,4.78-2.27,6.46Z"/><path d="M217.1,120.72c0-.31.02-.61.02-.89,0-1.07,0-2.14,0-3.21v-32.76c0-.54,0-1.08,0-1.64h-5.05v16.92c-.93-1.23-2.09-2.23-3.49-2.97-1.59-.83-3.38-1.25-5.38-1.25-2.4,0-4.57.61-6.49,1.83-1.92,1.22-3.45,2.87-4.58,4.94-1.13,2.07-1.69,4.4-1.69,6.99s.56,4.92,1.69,6.99c1.13,2.07,2.65,3.71,4.58,4.91,1.92,1.2,4.09,1.8,6.49,1.8,2.03,0,3.84-.42,5.44-1.25,1.39-.73,2.53-1.72,3.44-2.94,0,3.22-.25,6.66,1.11,9.67.47,1.05,1.14,2,1.99,2.78,1.75,1.61,4.16,2.41,7.19,2.41h.23v-5.07c-1.84.05-3.19-.31-4.02-1.08-1.63-1.48-1.53-4.04-1.48-6.18ZM208.41,116.49c-1.26.78-2.72,1.17-4.38,1.17s-3.08-.38-4.35-1.14c-1.28-.76-2.27-1.82-2.99-3.19-.72-1.37-1.08-2.94-1.08-4.72s.36-3.34,1.08-4.69c.72-1.35,1.71-2.4,2.97-3.16,1.26-.76,2.72-1.14,4.38-1.14s3.13.39,4.38,1.17c1.26.78,2.24,1.84,2.94,3.19.7,1.35,1.05,2.91,1.05,4.69s-.35,3.28-1.05,4.63c-.7,1.35-1.68,2.41-2.94,3.19Z"/><path d="M252.03,113.61c-2.6-.75-5.17-.13-7.59.91-1.97.85-3.68,2.18-5.8,2.69-1.73.41-3.34.4-4.85-.02-1.51-.42-2.78-1.22-3.82-2.4-.63-.72-1.14-1.57-1.54-2.51l20.06-4.75c-.01-.53-.05-1.01-.11-1.43-.06-.42-.14-.81-.22-1.17-.58-2.45-1.61-4.5-3.08-6.17-1.48-1.66-3.26-2.82-5.35-3.46-2.09-.64-4.31-.69-6.64-.14-2.48.59-4.58,1.7-6.3,3.34-1.72,1.64-2.93,3.61-3.62,5.9-.69,2.29-.74,4.7-.15,7.21.6,2.56,1.74,4.7,3.4,6.43,1.66,1.73,3.65,2.95,5.96,3.63,2.31.69,4.76.73,7.35.11,1.19-.28,2.35-.67,3.42-1.26s2.21-1.28,3.37-1.8c1.18-.53,2.5-.93,3.8-.7.14.02.28.06.41.1,1.47.42,2.81,1.77,3.97,3.99l4.15-2.17c-1.78-3.41-4.08-5.54-6.83-6.33ZM227.72,105.49c.38-1.46,1.11-2.69,2.2-3.71,1.09-1.02,2.46-1.72,4.12-2.11,1.58-.37,3.01-.36,4.28.04,1.27.4,2.36,1.13,3.25,2.19.61.72,1.1,1.61,1.48,2.64l-15.57,3.69c-.05-.96.01-1.88.24-2.73Z"/><path d="M78.84,56.79h9.04c2.37,0,4.49-.48,6.38-1.44s3.37-2.33,4.46-4.1c1.09-1.78,1.64-3.85,1.64-6.21s-.55-4.48-1.64-6.24c-1.09-1.76-2.58-3.11-4.46-4.08s-4.01-1.44-6.38-1.44h-14.25v38.49h5.21v-14.98ZM87.6,37.82c1.44,0,2.73.3,3.85.89,1.13.59,2.02,1.42,2.66,2.5.65,1.07.97,2.35.97,3.83s-.32,2.75-.97,3.83c-.65,1.07-1.53,1.9-2.66,2.49-1.13.59-2.41.89-3.85.89h-8.76v-14.42h8.76Z"/><rect x="106.35" y="45.42" width="5.05" height="26.34"/><path d="M108.9,40.15c.92,0,1.68-.3,2.27-.91.59-.61.89-1.38.89-2.3s-.3-1.64-.89-2.25-1.35-.91-2.27-.91-1.68.3-2.27.91c-.59.61-.89,1.36-.89,2.25s.3,1.69.89,2.3c.59.61,1.35.91,2.27.91Z"/><path d="M147.67,71.07c1.37-.72,2.49-1.7,3.38-2.9v3.59h5.05v-26.34h-5.05v3.61c-.91-1.21-2.04-2.19-3.41-2.92-1.57-.83-3.36-1.25-5.35-1.25-2.44,0-4.63.61-6.57,1.83-1.94,1.22-3.48,2.87-4.6,4.94-1.13,2.07-1.69,4.4-1.69,6.99s.56,4.92,1.69,6.99,2.66,3.71,4.6,4.91c1.94,1.2,4.13,1.8,6.57,1.8,2,0,3.79-.42,5.38-1.25ZM135.66,63.25c-.72-1.35-1.08-2.91-1.08-4.69s.36-3.28,1.08-4.63,1.72-2.41,2.99-3.19c1.28-.78,2.75-1.17,4.41-1.17s3.11.38,4.35,1.14c1.24.76,2.21,1.82,2.91,3.19.7,1.37,1.05,2.94,1.05,4.71,0,2.63-.76,4.78-2.27,6.46-1.52,1.68-3.51,2.52-5.99,2.52-1.66,0-3.14-.39-4.44-1.17-1.29-.78-2.3-1.84-3.02-3.19Z"/><polygon points="167.3 71.76 172.29 71.76 172.29 49.96 178.78 49.96 178.78 45.42 172.29 45.42 172.29 34.38 167.3 34.38 167.3 45.42 160.81 45.42 160.81 49.96 167.3 49.96 167.3 71.76"/><path d="M197.86,71.83c2.02-.43,3.84-1.21,5.46-2.35,1.61-1.14,2.9-2.56,3.86-4.28l-3.82-2.53c-.65,1.2-1.53,2.18-2.64,2.94-1.1.76-2.38,1.3-3.83,1.6-1.74.37-3.35.32-4.85-.14-1.5-.46-2.75-1.29-3.76-2.49-.62-.73-1.1-1.59-1.48-2.55l20.16-4.27c0-.53-.02-1.01-.08-1.43-.05-.42-.12-.82-.19-1.18-.52-2.46-1.5-4.54-2.94-6.24-1.44-1.7-3.19-2.9-5.27-3.59-2.07-.69-4.29-.79-6.64-.29-2.5.53-4.62,1.6-6.38,3.19-1.76,1.6-3.01,3.54-3.76,5.81-.75,2.28-.85,4.68-.31,7.21.54,2.57,1.63,4.74,3.25,6.51,1.62,1.77,3.58,3.03,5.87,3.77,2.29.74,4.74.84,7.35.29ZM186.23,55.24c.41-1.45,1.17-2.67,2.29-3.66,1.11-.99,2.5-1.66,4.17-2.02,1.59-.34,3.02-.29,4.28.14,1.26.43,2.33,1.19,3.2,2.27.59.74,1.06,1.64,1.42,2.68l-15.66,3.32c-.03-.96.06-1.88.3-2.73Z"/><path d="M228,70.15c1.76-1.44,2.64-3.4,2.64-5.88,0-1.63-.34-2.94-1.03-3.94-.68-1-1.56-1.79-2.64-2.38-1.07-.59-2.2-1.06-3.38-1.41-1.18-.35-2.32-.69-3.41-1.03s-1.97-.74-2.63-1.22-1-1.17-1-2.05.38-1.53,1.14-2.05c.76-.52,1.86-.78,3.3-.78,1.37,0,2.59.26,3.66.78s2,1.26,2.77,2.22l3.22-3.22c-1.04-1.44-2.36-2.52-3.97-3.25-1.61-.72-3.45-1.08-5.52-1.08-1.96,0-3.64.32-5.05.94-1.41.63-2.49,1.53-3.24,2.69-.76,1.16-1.14,2.54-1.14,4.13s.34,2.87,1.03,3.85c.68.98,1.56,1.75,2.63,2.3,1.07.55,2.21,1,3.41,1.33s2.34.67,3.41,1.03,1.95.8,2.64,1.33c.68.54,1.03,1.29,1.03,2.25s-.43,1.71-1.28,2.25-2.05.8-3.6.8-2.96-.29-4.22-.86c-1.26-.57-2.37-1.45-3.33-2.63l-3.22,3.22c.81,1,1.77,1.86,2.86,2.58s2.3,1.28,3.63,1.66c1.33.39,2.74.58,4.22.58,2.96,0,5.32-.72,7.07-2.16Z"/><path d="M118.78,37.59c0,.47,0,.95,0,1.42,0,.15,0,.3,0,.45v32.29h4.99s0-.08,0-.13c0-.12,0-.25,0-.37,0-.2,0-.39,0-.59,0-.27,0-.53,0-.8,0-.33,0-.65,0-.98,0-.38,0-.77,0-1.15,0-.43,0-.86,0-1.3,0-.47,0-.95,0-1.42,0-.51,0-1.02,0-1.53,0-.54,0-1.08,0-1.62s0-1.13,0-1.7,0-1.17,0-1.75c0-.59,0-1.19,0-1.78s0-1.2,0-1.8,0-1.2,0-1.79c0-.59,0-1.18,0-1.77s0-1.15,0-1.73,0-1.11,0-1.67,0-1.06,0-1.59c0-.5,0-.99,0-1.49,0-.46,0-.92,0-1.37,0-.41,0-.82,0-1.24,0-.36,0-.72,0-1.08,0-.3,0-.6,0-.91,0-.24,0-.48,0-.71,0-.35,0-.7,0-1.04,0-.85.01-1.69-.01-2.54-.02-.73-.08-1.47-.19-2.19-.12-.79-.31-1.57-.58-2.32-.29-.8-.69-1.56-1.19-2.24-.25-.34-.52-.66-.82-.96-2-2.01-4.99-3.03-8.91-3.07v4.99c2.54.03,4.35.57,5.36,1.59.56.57.89,1.31,1.08,2.08.2.82.26,1.66.27,2.5,0,.43,0,.87,0,1.3Z"/></svg>