<?xml version="1.0" encoding="UTF-8"?><svg id="Calque_1" xmlns="http://www.w3.org/2000/svg" viewBox="0 0 295.95 197.04"><path d="M35.52,79.49h10.27c2.69,0,5.1-.54,7.25-1.64s3.83-2.65,5.07-4.66c1.24-2.02,1.86-4.37,1.86-7.06s-.62-5.09-1.86-7.09c-1.24-1.99-2.93-3.54-5.07-4.63s-4.56-1.64-7.25-1.64h-16.19v43.72h5.92v-17.01ZM45.47,57.95c1.64,0,3.1.34,4.38,1.01,1.28.67,2.29,1.62,3.02,2.84.73,1.22,1.1,2.67,1.1,4.35s-.37,3.13-1.1,4.35c-.74,1.22-1.74,2.16-3.02,2.83-1.28.67-2.74,1.01-4.38,1.01h-9.95v-16.38h9.95Z"/><rect x="66.77" y="66.58" width="5.73" height="29.92"/><path d="M69.66,60.59c1.05,0,1.91-.35,2.58-1.04.67-.69,1.01-1.56,1.01-2.62s-.34-1.86-1.01-2.55-1.53-1.04-2.58-1.04-1.91.35-2.58,1.04c-.67.69-1.01,1.54-1.01,2.55s.34,1.92,1.01,2.62c.67.69,1.53,1.04,2.58,1.04Z"/><path d="M113.7,95.72c1.56-.82,2.83-1.93,3.84-3.29v4.08h5.73v-29.92h-5.73v4.11c-1.03-1.37-2.31-2.49-3.87-3.32-1.79-.95-3.81-1.42-6.08-1.42-2.77,0-5.26.69-7.46,2.08-2.21,1.39-3.95,3.26-5.23,5.61-1.28,2.35-1.92,5-1.92,7.94s.64,5.59,1.92,7.94,3.02,4.21,5.23,5.57c2.2,1.37,4.69,2.05,7.46,2.05,2.27,0,4.3-.47,6.11-1.42ZM100.06,86.83c-.82-1.53-1.23-3.31-1.23-5.32s.41-3.73,1.23-5.26,1.95-2.74,3.4-3.62c1.45-.88,3.12-1.32,5.01-1.32s3.54.43,4.95,1.29c1.41.86,2.51,2.07,3.31,3.62.8,1.55,1.2,3.34,1.2,5.35,0,2.98-.86,5.43-2.58,7.34-1.72,1.91-3.99,2.87-6.8,2.87-1.89,0-3.57-.44-5.04-1.32-1.47-.88-2.61-2.09-3.43-3.62Z"/><polygon points="136 96.5 141.67 96.5 141.67 71.74 149.04 71.74 149.04 66.58 141.67 66.58 141.67 54.04 136 54.04 136 66.58 128.63 66.58 128.63 71.74 136 71.74 136 96.5"/><path d="M170.71,96.58c2.3-.49,4.37-1.38,6.2-2.66,1.83-1.29,3.29-2.91,4.38-4.86l-4.34-2.88c-.74,1.36-1.74,2.47-3,3.34-1.25.87-2.7,1.47-4.35,1.82-1.97.42-3.81.37-5.51-.15-1.7-.52-3.12-1.46-4.27-2.83-.7-.83-1.25-1.81-1.68-2.9l22.9-4.85c0-.6-.03-1.14-.09-1.62-.06-.48-.13-.93-.22-1.34-.59-2.79-1.7-5.15-3.34-7.08-1.63-1.93-3.63-3.29-5.98-4.08-2.36-.79-4.87-.9-7.54-.33-2.84.6-5.25,1.81-7.25,3.63-2,1.82-3.42,4.02-4.27,6.6-.85,2.58-.97,5.31-.36,8.19.62,2.92,1.85,5.38,3.69,7.4,1.84,2.01,4.07,3.44,6.67,4.28,2.6.84,5.39.95,8.34.33ZM157.51,77.74c.47-1.65,1.33-3.03,2.6-4.16,1.26-1.13,2.84-1.89,4.73-2.29,1.81-.38,3.43-.33,4.86.16,1.43.49,2.65,1.35,3.64,2.58.67.84,1.21,1.86,1.61,3.04l-17.78,3.77c-.03-1.09.07-2.13.34-3.1Z"/><path d="M204.95,94.68c1.99-1.64,2.99-3.86,2.99-6.68,0-1.85-.39-3.34-1.17-4.47-.78-1.13-1.77-2.04-2.99-2.71-1.22-.67-2.5-1.21-3.84-1.61-1.34-.4-2.64-.79-3.87-1.17s-2.24-.84-2.99-1.39-1.13-1.32-1.13-2.33.43-1.74,1.29-2.33c.86-.59,2.11-.88,3.75-.88,1.55,0,2.94.29,4.16.88s2.27,1.43,3.15,2.52l3.65-3.65c-1.18-1.64-2.68-2.87-4.51-3.69-1.83-.82-3.92-1.23-6.27-1.23-2.23,0-4.14.36-5.73,1.07-1.6.72-2.83,1.73-3.68,3.06-.86,1.32-1.29,2.89-1.29,4.69s.39,3.27,1.17,4.38c.78,1.11,1.77,1.98,2.99,2.62,1.22.63,2.51,1.13,3.87,1.51s2.66.77,3.87,1.17,2.22.9,2.99,1.51c.78.61,1.17,1.46,1.17,2.55s-.48,1.94-1.45,2.55-2.33.91-4.09.91-3.36-.32-4.79-.98c-1.43-.65-2.69-1.65-3.78-2.99l-3.65,3.65c.92,1.13,2.01,2.11,3.24,2.93s2.61,1.45,4.13,1.89c1.51.44,3.11.66,4.79.66,3.36,0,6.04-.82,8.03-2.46Z"/><path d="M56.78,113.26c-1.74-1.13-3.75-1.7-6.02-1.7s-4.31.51-6.11,1.54c-1.81,1.03-3.21,2.43-4.22,4.19-.05.09-.09.19-.13.28-.49-1.26-1.22-2.47-2.36-3.47-2-1.77-4.8-2.53-8.34-2.28v5.68c1.62-.16,3.53-.09,4.59.84,1.17,1.04,1.31,2.93,1.37,4.39.06,1.6.03,3.21.03,4.81v14.58h5.67v-17.45c0-1.51.33-2.86,1.01-4.03.67-1.18,1.6-2.1,2.77-2.77,1.18-.67,2.52-1.01,4.03-1.01,2.27,0,4.11.73,5.51,2.2s2.11,3.34,2.11,5.61v17.45h5.73v-18.59c0-2.06-.5-4-1.51-5.83-1.01-1.83-2.38-3.31-4.13-4.44Z"/><path d="M91.68,113.61c-2.37-1.36-5.03-2.05-7.97-2.05s-5.52.69-7.88,2.08c-2.35,1.39-4.22,3.24-5.61,5.58-1.39,2.33-2.08,4.95-2.08,7.84s.69,5.6,2.08,7.97c1.39,2.37,3.25,4.25,5.61,5.64,2.35,1.39,4.98,2.08,7.88,2.08s5.6-.69,7.97-2.08c2.37-1.39,4.25-3.27,5.64-5.64,1.39-2.37,2.08-5.03,2.08-7.97s-.69-5.52-2.08-7.87c-1.39-2.35-3.27-4.21-5.64-5.58ZM92.28,132.32c-.84,1.53-1.99,2.74-3.46,3.62-1.47.88-3.17,1.32-5.1,1.32s-3.51-.44-4.98-1.32c-1.47-.88-2.63-2.09-3.46-3.62-.84-1.53-1.26-3.29-1.26-5.26s.42-3.65,1.26-5.16c.84-1.51,1.99-2.7,3.46-3.56s3.13-1.29,4.98-1.29,3.62.43,5.07,1.29,2.6,2.05,3.46,3.56,1.29,3.23,1.29,5.16-.42,3.73-1.26,5.26Z"/><path d="M146.2,112.95c-1.72-.92-3.68-1.39-5.86-1.39s-4.03.47-5.8,1.42c-1.76.94-3.2,2.25-4.32,3.91-.02.03-.04.07-.06.1-.02-.04-.04-.09-.07-.14-.99-1.68-2.33-2.98-4.03-3.91-1.7-.92-3.6-1.39-5.7-1.39s-4.07.47-5.8,1.42c-1.27.7-2.34,1.6-3.21,2.7v-3.49h-5.67v29.92h5.67v-18.08c0-1.51.33-2.79,1.01-3.84.67-1.05,1.55-1.87,2.65-2.46,1.09-.59,2.33-.88,3.72-.88,2.06,0,3.77.64,5.13,1.92,1.37,1.28,2.05,3.03,2.05,5.26v18.08h5.67v-18.08c0-1.51.33-2.79,1.01-3.84.67-1.05,1.56-1.87,2.68-2.46,1.11-.59,2.36-.88,3.75-.88,2.02,0,3.71.64,5.07,1.92,1.37,1.28,2.05,3.03,2.05,5.26v18.08h5.73v-19.22c0-2.35-.51-4.37-1.54-6.05s-2.4-2.98-4.13-3.91Z"/><path d="M182.24,116.3c-1.03-1.37-2.31-2.49-3.87-3.32-1.78-.95-3.81-1.42-6.08-1.42-2.77,0-5.26.69-7.47,2.08-2.2,1.39-3.95,3.26-5.23,5.61-1.28,2.35-1.92,5-1.92,7.94s.64,5.59,1.92,7.94c1.28,2.35,3.03,4.21,5.23,5.57,2.2,1.37,4.69,2.05,7.47,2.05,2.27,0,4.3-.47,6.11-1.42,1.56-.82,2.83-1.93,3.84-3.29v4.08h5.73v-29.92h-5.73v4.11ZM180.04,134.52c-1.72,1.91-3.99,2.87-6.8,2.87-1.89,0-3.57-.44-5.04-1.32-1.47-.88-2.61-2.09-3.43-3.62s-1.23-3.31-1.23-5.32.41-3.73,1.23-5.26,1.95-2.74,3.4-3.62c1.45-.88,3.12-1.32,5.01-1.32s3.54.43,4.95,1.29c1.41.86,2.51,2.07,3.31,3.62s1.2,3.34,1.2,5.35c0,2.98-.86,5.43-2.58,7.34Z"/><path d="M224.62,140.87c0-.35.02-.69.02-1.01,0-1.22,0-2.43,0-3.65v-37.21c0-.61,0-1.23,0-1.86h-5.73v19.22c-1.06-1.4-2.37-2.53-3.97-3.37-1.81-.95-3.84-1.42-6.11-1.42-2.73,0-5.19.69-7.37,2.08-2.18,1.39-3.92,3.26-5.2,5.61-1.28,2.35-1.92,5-1.92,7.94s.64,5.59,1.92,7.94c1.28,2.35,3.01,4.21,5.2,5.57,2.18,1.37,4.64,2.05,7.37,2.05,2.31,0,4.37-.47,6.17-1.42,1.58-.83,2.87-1.95,3.91-3.35,0,3.65-.29,7.56,1.26,10.98.54,1.19,1.3,2.28,2.26,3.16,1.99,1.82,4.72,2.74,8.17,2.74h.26v-5.75c-2.09.06-3.62-.35-4.56-1.22-1.86-1.68-1.74-4.59-1.68-7.02ZM214.75,136.07c-1.43.88-3.09,1.32-4.98,1.32s-3.5-.43-4.95-1.29c-1.45-.86-2.58-2.07-3.4-3.62s-1.23-3.34-1.23-5.36.41-3.79,1.23-5.32,1.94-2.73,3.37-3.59c1.43-.86,3.09-1.29,4.98-1.29s3.55.44,4.98,1.32c1.43.88,2.54,2.09,3.34,3.62.8,1.53,1.2,3.31,1.2,5.32s-.4,3.73-1.2,5.26c-.8,1.53-1.91,2.74-3.34,3.62Z"/><path d="M264.29,132.8c-2.95-.85-5.88-.15-8.62,1.03-2.24.96-4.17,2.48-6.59,3.05-1.96.46-3.8.46-5.51-.02-1.71-.48-3.16-1.39-4.34-2.73-.72-.82-1.29-1.78-1.75-2.86l22.78-5.39c-.01-.6-.05-1.14-.13-1.62-.07-.48-.15-.92-.25-1.33-.66-2.78-1.82-5.11-3.5-7-1.68-1.89-3.7-3.2-6.08-3.94-2.38-.73-4.89-.78-7.55-.16-2.82.67-5.21,1.93-7.16,3.8-1.95,1.87-3.33,4.1-4.11,6.7-.79,2.6-.84,5.34-.16,8.2.69,2.9,1.98,5.34,3.87,7.31,1.89,1.97,4.15,3.35,6.77,4.13,2.62.78,5.41.82,8.35.13,1.35-.32,2.67-.77,3.88-1.44s2.51-1.46,3.83-2.05c1.34-.6,2.84-1.05,4.32-.79.16.03.32.06.47.11,1.67.48,3.19,2.01,4.51,4.54l4.72-2.47c-2.02-3.87-4.63-6.29-7.76-7.19ZM236.67,123.56c.43-1.66,1.26-3.06,2.5-4.22,1.24-1.16,2.79-1.96,4.68-2.4,1.8-.43,3.42-.41,4.87.05,1.44.46,2.68,1.29,3.7,2.49.69.82,1.25,1.83,1.68,3l-17.69,4.19c-.06-1.09.02-2.13.27-3.11Z"/><path d="M80.88,57.69c0,.54,0,1.08,0,1.62,0,.17,0,.34,0,.51v36.68h5.67s0-.1,0-.14c0-.14,0-.28,0-.42,0-.22,0-.45,0-.67,0-.3,0-.6,0-.9,0-.37,0-.74,0-1.12,0-.43,0-.87,0-1.3,0-.49,0-.98,0-1.47,0-.54,0-1.08,0-1.62,0-.58,0-1.16,0-1.74,0-.61,0-1.23,0-1.84s0-1.28,0-1.93,0-1.32,0-1.99,0-1.35,0-2.02,0-1.36,0-2.04,0-1.36,0-2.04,0-1.34,0-2.01,0-1.31,0-1.96,0-1.26,0-1.9,0-1.2,0-1.8c0-.56,0-1.13,0-1.69,0-.52,0-1.04,0-1.56,0-.47,0-.94,0-1.4,0-.41,0-.82,0-1.23,0-.34,0-.69,0-1.03,0-.27,0-.54,0-.81,0-.4,0-.79,0-1.19,0-.96.02-1.92-.01-2.88-.03-.83-.09-1.66-.22-2.49-.14-.9-.35-1.78-.66-2.63-.33-.9-.78-1.77-1.35-2.55-.28-.39-.59-.75-.93-1.09-2.27-2.28-5.67-3.44-10.12-3.49v5.67c2.88.03,4.94.65,6.09,1.81.64.64,1.01,1.49,1.23,2.36.23.93.29,1.89.31,2.84,0,.49,0,.99,0,1.48Z"/></svg>