<?xml version="1.0" encoding="UTF-8"?><svg id="Calque_1" xmlns="http://www.w3.org/2000/svg" viewBox="0 0 295.95 197.04"><path d="M99.22,175.77v-13.87h1.88v13.87h-1.88ZM100.5,175.77v-1.72h7.43v1.72h-7.43Z"/><path d="M110.25,175.77v-13.87h1.88v13.87h-1.88ZM111.53,163.62v-1.72h7.85v1.72h-7.85ZM111.53,169.52v-1.66h7.29v1.66h-7.29ZM111.53,175.77v-1.72h7.95v1.72h-7.95Z"/><path d="M130.01,175.97c-1.08,0-2-.2-2.78-.6s-1.46-.98-2.06-1.74l1.28-1.28c.44.61.95,1.08,1.52,1.39s1.28.47,2.12.47,1.49-.18,1.99-.54c.5-.36.75-.85.75-1.48,0-.52-.12-.94-.37-1.26-.25-.32-.57-.58-.97-.79-.4-.21-.84-.39-1.32-.55-.48-.16-.96-.34-1.44-.53-.48-.19-.92-.44-1.33-.73-.41-.29-.73-.67-.97-1.13-.24-.46-.36-1.05-.36-1.77,0-.79.19-1.45.57-2.01.38-.55.9-.98,1.56-1.28.66-.3,1.4-.45,2.23-.45.91,0,1.72.18,2.44.53.72.35,1.31.82,1.76,1.39l-1.28,1.28c-.41-.48-.86-.84-1.33-1.08s-1.02-.36-1.63-.36c-.75,0-1.34.16-1.78.49-.44.33-.66.78-.66,1.37,0,.47.12.84.37,1.13.25.29.57.53.97.73.4.2.84.38,1.33.55.49.17.97.35,1.45.55.48.2.92.45,1.32.76.4.31.72.7.97,1.19.25.49.37,1.1.37,1.83,0,1.23-.42,2.19-1.27,2.88-.85.69-1.99,1.04-3.45,1.04Z"/><path d="M135.58,163.62v-1.72h11.29v1.72h-11.29ZM140.28,175.77v-13.47h1.9v13.47h-1.9Z"/><path d="M154.13,175.97c-1.03,0-1.95-.23-2.76-.7-.81-.47-1.46-1.1-1.93-1.91-.47-.81-.71-1.71-.71-2.73v-8.73h1.9v8.69c0,.73.15,1.37.46,1.9.31.53.72.95,1.25,1.24.53.29,1.12.44,1.79.44s1.26-.15,1.77-.44c.51-.29.92-.71,1.22-1.24.3-.53.45-1.16.45-1.88v-8.71h1.9v8.75c0,1.01-.23,1.92-.7,2.72s-1.1,1.43-1.9,1.9c-.8.47-1.71.7-2.74.7Z"/><path d="M162.56,175.77v-13.87h1.88v13.87h-1.88ZM163.8,175.77v-1.72h3.86c1.01,0,1.91-.22,2.69-.67.78-.45,1.38-1.06,1.82-1.85.43-.79.65-1.69.65-2.72s-.22-1.91-.66-2.69c-.44-.78-1.05-1.39-1.82-1.84-.77-.45-1.67-.67-2.68-.67h-3.84v-1.72h3.88c1.01,0,1.95.17,2.81.52.86.35,1.6.83,2.24,1.46.63.63,1.12,1.36,1.48,2.2.35.84.53,1.76.53,2.76s-.18,1.9-.53,2.75c-.35.85-.84,1.58-1.47,2.21s-1.37,1.11-2.23,1.46c-.86.35-1.79.52-2.79.52h-3.94Z"/><path d="M177.34,175.77v-13.87h1.88v13.87h-1.88Z"/><path d="M188.81,175.97c-.99,0-1.91-.18-2.76-.55s-1.6-.88-2.24-1.54c-.64-.66-1.14-1.42-1.5-2.29-.36-.87-.54-1.79-.54-2.78s.18-1.93.54-2.79c.36-.86.86-1.62,1.49-2.27s1.37-1.16,2.22-1.52c.85-.36,1.76-.54,2.75-.54s1.9.18,2.75.54c.85.36,1.59.87,2.23,1.52s1.14,1.41,1.5,2.28c.36.87.54,1.8.54,2.8s-.18,1.91-.54,2.78c-.36.87-.86,1.62-1.49,2.28s-1.37,1.16-2.22,1.53c-.85.37-1.76.55-2.73.55ZM188.77,174.17c.99,0,1.86-.23,2.62-.69.76-.46,1.36-1.09,1.79-1.9.43-.81.65-1.73.65-2.77,0-.77-.12-1.48-.37-2.13-.25-.65-.6-1.21-1.05-1.69-.45-.48-.99-.85-1.6-1.11-.61-.26-1.29-.39-2.04-.39-.99,0-1.85.23-2.61.68s-1.35,1.08-1.78,1.88c-.43.8-.65,1.72-.65,2.76,0,.77.12,1.49.37,2.15.25.66.59,1.23,1.04,1.7.45.47.98.84,1.6,1.11.62.27,1.3.4,2.03.4Z"/><path d="M57.21,107.69c-1.68-1.09-3.62-1.64-5.81-1.64s-4.16.5-5.9,1.49c-1.74.99-3.1,2.34-4.07,4.04-.05.09-.08.18-.13.27-.47-1.22-1.17-2.38-2.28-3.35-1.93-1.7-4.63-2.44-8.05-2.2v5.48c1.56-.16,3.41-.09,4.43.81,1.13,1,1.27,2.83,1.32,4.23.06,1.55.03,3.1.03,4.64v12.91c0,.39,0,.77,0,1.16h5.47v-16.84c0-1.46.32-2.76.97-3.89.65-1.13,1.54-2.03,2.68-2.68,1.13-.65,2.43-.97,3.89-.97,2.19,0,3.96.71,5.32,2.13s2.04,3.22,2.04,5.41v16.84h5.53v-17.94c0-1.98-.49-3.86-1.46-5.62-.97-1.76-2.3-3.19-3.98-4.29Z"/><path d="M90.9,108.02c-2.29-1.32-4.86-1.98-7.69-1.98s-5.33.67-7.6,2.01c-2.27,1.34-4.07,3.13-5.41,5.38-1.34,2.25-2.01,4.77-2.01,7.57s.67,5.4,2.01,7.69c1.34,2.29,3.14,4.1,5.41,5.44,2.27,1.34,4.8,2.01,7.6,2.01s5.4-.67,7.69-2.01c2.29-1.34,4.1-3.15,5.44-5.44,1.34-2.29,2.01-4.85,2.01-7.69s-.67-5.33-2.01-7.6c-1.34-2.27-3.15-4.06-5.44-5.38ZM91.47,126.08c-.81,1.48-1.93,2.65-3.34,3.5-1.42.85-3.06,1.28-4.93,1.28s-3.38-.43-4.8-1.28c-1.42-.85-2.53-2.02-3.34-3.5-.81-1.48-1.22-3.17-1.22-5.08s.41-3.53,1.22-4.98c.81-1.46,1.93-2.6,3.34-3.44s3.02-1.25,4.8-1.25,3.5.42,4.89,1.25,2.51,1.98,3.34,3.44,1.25,3.12,1.25,4.98-.41,3.6-1.22,5.08Z"/><path d="M143.52,107.38c-1.66-.89-3.55-1.34-5.65-1.34s-3.89.46-5.59,1.37c-1.7.91-3.09,2.17-4.17,3.77-.02.03-.04.07-.06.1-.02-.04-.04-.09-.06-.13-.95-1.62-2.25-2.88-3.89-3.77-1.64-.89-3.48-1.34-5.5-1.34s-3.93.46-5.59,1.37c-1.23.67-2.26,1.54-3.1,2.6v-3.36h-5.47v28.88h5.47v-17.45c0-1.46.32-2.69.97-3.71.65-1.01,1.5-1.8,2.55-2.37,1.05-.57,2.25-.85,3.59-.85,1.98,0,3.64.62,4.95,1.85,1.32,1.24,1.98,2.93,1.98,5.08v17.45h5.47v-17.45c0-1.46.32-2.69.97-3.71.65-1.01,1.51-1.8,2.58-2.37,1.07-.57,2.28-.85,3.62-.85,1.95,0,3.58.62,4.89,1.85,1.32,1.24,1.98,2.93,1.98,5.08v17.45h5.53v-18.55c0-2.27-.5-4.22-1.49-5.84s-2.32-2.88-3.98-3.77Z"/><path d="M178.3,110.61c-1-1.33-2.23-2.4-3.74-3.2-1.72-.91-3.68-1.37-5.87-1.37-2.68,0-5.08.67-7.21,2.01-2.13,1.34-3.81,3.14-5.05,5.41-1.24,2.27-1.85,4.83-1.85,7.66s.62,5.39,1.85,7.66c1.24,2.27,2.92,4.06,5.05,5.38,2.13,1.32,4.53,1.98,7.21,1.98,2.19,0,4.15-.46,5.9-1.37,1.51-.79,2.73-1.86,3.71-3.18v3.94h5.53v-28.88h-5.53v3.96ZM176.17,128.21c-1.66,1.84-3.85,2.77-6.57,2.77-1.82,0-3.45-.43-4.86-1.28-1.42-.85-2.52-2.02-3.31-3.5s-1.19-3.19-1.19-5.14.4-3.6,1.19-5.08,1.88-2.65,3.28-3.5c1.4-.85,3.01-1.28,4.84-1.28s3.41.42,4.77,1.25c1.36.83,2.42,2,3.19,3.5s1.16,3.22,1.16,5.17c0,2.88-.83,5.24-2.49,7.08Z"/><path d="M219.21,134.33c0-.34.02-.66.02-.98,0-1.17,0-2.35,0-3.52v-35.91c0-.59,0-1.19,0-1.8h-5.53v18.55c-1.02-1.35-2.29-2.45-3.83-3.25-1.74-.91-3.71-1.37-5.9-1.37-2.64,0-5.01.67-7.11,2.01-2.11,1.34-3.78,3.14-5.02,5.41-1.24,2.27-1.85,4.83-1.85,7.66s.62,5.39,1.85,7.66c1.24,2.27,2.91,4.06,5.02,5.38,2.11,1.32,4.48,1.98,7.11,1.98,2.23,0,4.22-.46,5.96-1.37,1.53-.8,2.77-1.89,3.77-3.23,0,3.53-.28,7.3,1.21,10.6.52,1.15,1.25,2.2,2.19,3.05,1.92,1.76,4.56,2.64,7.88,2.64h.26v-5.55c-2.02.06-3.49-.34-4.4-1.18-1.79-1.62-1.68-4.43-1.62-6.77ZM209.68,129.7c-1.38.85-2.98,1.28-4.8,1.28s-3.37-.41-4.77-1.25c-1.4-.83-2.49-2-3.28-3.5s-1.19-3.22-1.19-5.17.4-3.66,1.19-5.14,1.87-2.63,3.25-3.47c1.38-.83,2.98-1.25,4.8-1.25s3.43.43,4.8,1.28c1.38.85,2.45,2.02,3.22,3.5.77,1.48,1.16,3.19,1.16,5.14s-.39,3.6-1.16,5.08c-.77,1.48-1.84,2.65-3.22,3.5Z"/><path d="M257.49,126.54c-2.85-.82-5.67-.14-8.32.99-2.16.93-4.03,2.39-6.36,2.94-1.89.45-3.67.44-5.32-.02-1.65-.46-3.05-1.34-4.18-2.63-.69-.79-1.25-1.72-1.69-2.76l21.99-5.2c-.01-.58-.05-1.1-.12-1.56-.07-.46-.15-.89-.24-1.29-.63-2.68-1.76-4.94-3.38-6.76-1.62-1.82-3.57-3.09-5.87-3.8-2.29-.71-4.72-.76-7.28-.15-2.72.64-5.02,1.87-6.91,3.67-1.89,1.8-3.21,3.96-3.97,6.47-.76,2.51-.81,5.15-.16,7.91.66,2.8,1.91,5.15,3.73,7.05,1.82,1.9,4,3.23,6.53,3.98,2.53.75,5.22.8,8.06.12,1.3-.31,2.58-.74,3.75-1.39s2.42-1.41,3.7-1.98c1.29-.58,2.74-1.02,4.17-.76.15.03.3.06.45.11,1.61.46,3.08,1.94,4.36,4.38l4.55-2.38c-1.95-3.74-4.47-6.07-7.49-6.94ZM230.84,117.63c.41-1.6,1.22-2.95,2.41-4.07,1.19-1.12,2.7-1.89,4.51-2.32,1.73-.41,3.3-.4,4.7.04,1.39.44,2.58,1.24,3.57,2.4.67.79,1.2,1.77,1.63,2.9l-17.07,4.04c-.06-1.05.02-2.06.26-3Z"/><path d="M67.62,64.24h9.91c2.59,0,4.93-.53,6.99-1.58s3.7-2.55,4.89-4.5c1.19-1.95,1.79-4.22,1.79-6.81s-.6-4.92-1.79-6.84c-1.2-1.93-2.83-3.41-4.89-4.47s-4.4-1.58-6.99-1.58h-15.63v42.2h5.72v-16.42ZM77.23,43.44c1.58,0,2.99.32,4.23.97,1.24.65,2.21,1.56,2.92,2.74.71,1.18,1.06,2.57,1.06,4.2s-.36,3.02-1.06,4.2c-.71,1.18-1.68,2.09-2.92,2.74-1.24.65-2.65.97-4.23.97h-9.61v-15.81h9.61Z"/><rect x="97.78" y="51.77" width="5.53" height="28.88"/><path d="M100.58,46c1.01,0,1.84-.33,2.49-1,.65-.67.97-1.51.97-2.52s-.32-1.79-.97-2.46-1.48-1-2.49-1-1.85.33-2.49,1c-.65.67-.97,1.49-.97,2.46s.32,1.85.97,2.52c.65.67,1.48,1,2.49,1Z"/><path d="M143.08,79.9c1.51-.79,2.73-1.86,3.71-3.18v3.94h5.53v-28.88h-5.53v3.96c-1-1.33-2.23-2.41-3.74-3.2-1.72-.91-3.68-1.37-5.87-1.37-2.68,0-5.08.67-7.2,2.01-2.13,1.34-3.81,3.14-5.05,5.41-1.24,2.27-1.85,4.83-1.85,7.66s.62,5.39,1.85,7.66,2.92,4.06,5.05,5.38c2.13,1.32,4.53,1.98,7.2,1.98,2.19,0,4.15-.46,5.9-1.37ZM129.92,71.32c-.79-1.48-1.19-3.19-1.19-5.14s.4-3.6,1.19-5.08,1.88-2.65,3.28-3.5c1.4-.85,3.01-1.28,4.83-1.28s3.41.42,4.77,1.25c1.36.83,2.42,2,3.19,3.5.77,1.5,1.16,3.22,1.16,5.17,0,2.88-.83,5.24-2.49,7.08-1.66,1.84-3.85,2.77-6.57,2.77-1.82,0-3.45-.43-4.86-1.28-1.42-.85-2.52-2.02-3.31-3.5Z"/><polygon points="164.61 80.66 170.08 80.66 170.08 56.76 177.19 56.76 177.19 51.77 170.08 51.77 170.08 39.67 164.61 39.67 164.61 51.77 157.49 51.77 157.49 56.76 164.61 56.76 164.61 80.66"/><path d="M198.1,80.73c2.22-.47,4.21-1.33,5.98-2.57,1.77-1.24,3.18-2.81,4.23-4.69l-4.19-2.78c-.72,1.31-1.68,2.39-2.89,3.22-1.21.84-2.61,1.42-4.2,1.76-1.9.4-3.67.35-5.31-.15-1.64-.5-3.01-1.41-4.12-2.73-.68-.8-1.21-1.74-1.63-2.79l22.11-4.68c0-.58-.03-1.1-.08-1.57-.06-.46-.13-.89-.21-1.29-.57-2.7-1.65-4.98-3.22-6.84-1.58-1.86-3.5-3.17-5.77-3.94-2.27-.76-4.7-.87-7.28-.32-2.74.58-5.07,1.75-7,3.5-1.93,1.76-3.3,3.88-4.12,6.37-.82,2.49-.93,5.13-.34,7.9.6,2.82,1.78,5.2,3.56,7.14,1.78,1.94,3.93,3.32,6.44,4.14,2.51.81,5.2.92,8.05.31ZM185.36,62.54c.45-1.59,1.29-2.92,2.51-4.01,1.22-1.09,2.74-1.82,4.57-2.21,1.74-.37,3.31-.32,4.69.16,1.38.47,2.55,1.3,3.51,2.49.65.81,1.16,1.79,1.56,2.93l-17.16,3.64c-.03-1.06.06-2.06.33-2.99Z"/><path d="M231.15,78.89c1.93-1.58,2.89-3.73,2.89-6.44,0-1.78-.38-3.22-1.12-4.32-.75-1.09-1.71-1.97-2.89-2.61-1.18-.65-2.41-1.17-3.71-1.55-1.3-.38-2.54-.76-3.74-1.12s-2.16-.81-2.89-1.34-1.09-1.28-1.09-2.25.41-1.68,1.25-2.25c.83-.57,2.04-.85,3.62-.85,1.5,0,2.84.28,4.01.85s2.19,1.38,3.04,2.43l3.53-3.53c-1.14-1.58-2.58-2.77-4.35-3.56-1.76-.79-3.78-1.19-6.05-1.19-2.15,0-3.99.35-5.53,1.03-1.54.69-2.73,1.67-3.56,2.95-.83,1.28-1.25,2.79-1.25,4.53s.37,3.15,1.12,4.22c.75,1.07,1.71,1.92,2.89,2.52,1.18.61,2.42,1.09,3.74,1.46s2.56.74,3.74,1.12,2.14.87,2.89,1.46c.75.59,1.12,1.41,1.12,2.46s-.47,1.88-1.4,2.46-2.25.88-3.95.88-3.24-.31-4.62-.94c-1.38-.63-2.59-1.59-3.65-2.89l-3.53,3.53c.89,1.09,1.94,2.04,3.13,2.83s2.52,1.4,3.98,1.82c1.46.43,3,.64,4.62.64,3.24,0,5.83-.79,7.75-2.37Z"/><path d="M111.41,43.2c0,.52,0,1.04,0,1.56,0,.16,0,.33,0,.49v35.4h5.47s0-.09,0-.14c0-.13,0-.27,0-.4,0-.22,0-.43,0-.65,0-.29,0-.58,0-.87,0-.36,0-.72,0-1.08,0-.42,0-.84,0-1.26,0-.47,0-.95,0-1.42,0-.52,0-1.04,0-1.56,0-.56,0-1.12,0-1.68,0-.59,0-1.19,0-1.78s0-1.24,0-1.86,0-1.28,0-1.92,0-1.3,0-1.95,0-1.31,0-1.97,0-1.31,0-1.97,0-1.29,0-1.94,0-1.26,0-1.9,0-1.22,0-1.83,0-1.16,0-1.74c0-.54,0-1.09,0-1.63,0-.5,0-1,0-1.51,0-.45,0-.9,0-1.36,0-.4,0-.79,0-1.19,0-.33,0-.66,0-.99,0-.26,0-.52,0-.78,0-.38,0-.76,0-1.15,0-.93.02-1.85-.01-2.78-.02-.8-.09-1.61-.21-2.4-.13-.86-.34-1.72-.64-2.54-.32-.87-.75-1.71-1.3-2.46-.27-.37-.57-.72-.9-1.05-2.19-2.2-5.47-3.32-9.77-3.37v5.47c2.78.03,4.77.62,5.88,1.75.61.62.98,1.44,1.18,2.28.22.9.28,1.82.3,2.74,0,.48,0,.95,0,1.43Z"/></svg>