<?xml version="1.0" encoding="UTF-8"?><svg id="Calque_1" xmlns="http://www.w3.org/2000/svg" viewBox="0 0 276.29 75.53"><path d="M107.92,61.46v-9.03h1.22v9.03h-1.22ZM108.76,61.46v-1.12h4.84v1.12h-4.84Z"/><path d="M115.11,61.46v-9.03h1.22v9.03h-1.22ZM115.94,53.55v-1.12h5.11v1.12h-5.11ZM115.94,57.39v-1.08h4.75v1.08h-4.75ZM115.94,61.46v-1.12h5.18v1.12h-5.18Z"/><path d="M127.97,61.59c-.7,0-1.31-.13-1.81-.39s-.95-.64-1.34-1.13l.83-.83c.29.4.62.7.99.9s.83.31,1.38.31.97-.12,1.29-.35c.33-.23.49-.56.49-.96,0-.34-.08-.61-.24-.82-.16-.21-.37-.38-.63-.51-.26-.13-.55-.25-.86-.36-.31-.1-.62-.22-.94-.34-.31-.13-.6-.28-.87-.48-.26-.19-.47-.44-.63-.74-.16-.3-.23-.68-.23-1.15,0-.51.12-.95.37-1.31.25-.36.59-.64,1.01-.83.43-.2.91-.29,1.45-.29.59,0,1.12.12,1.59.35.47.23.85.53,1.15.9l-.83.83c-.27-.31-.56-.55-.87-.7s-.66-.23-1.06-.23c-.49,0-.87.11-1.16.32-.29.21-.43.51-.43.89,0,.3.08.55.24.74.16.19.37.34.63.47.26.13.55.25.86.36.32.11.63.23.94.36.31.13.6.29.86.49.26.2.47.46.63.77.16.32.24.71.24,1.19,0,.8-.28,1.42-.83,1.87-.55.45-1.3.68-2.24.68Z"/><path d="M131.6,53.55v-1.12h7.35v1.12h-7.35ZM134.66,61.46v-8.77h1.24v8.77h-1.24Z"/><path d="M143.68,61.59c-.67,0-1.27-.15-1.8-.46-.53-.3-.95-.72-1.26-1.24-.31-.52-.46-1.12-.46-1.78v-5.69h1.24v5.66c0,.48.1.89.3,1.24.2.35.47.62.81.81.34.19.73.29,1.16.29s.82-.1,1.15-.29c.33-.19.6-.46.79-.81.2-.35.29-.75.29-1.22v-5.67h1.24v5.7c0,.66-.15,1.25-.46,1.77s-.72.93-1.24,1.24c-.52.3-1.11.46-1.78.46Z"/><path d="M149.17,61.46v-9.03h1.22v9.03h-1.22ZM149.98,61.46v-1.12h2.51c.66,0,1.24-.14,1.75-.44.51-.29.9-.69,1.18-1.2.28-.51.42-1.1.42-1.77s-.14-1.24-.43-1.75c-.29-.51-.68-.91-1.18-1.2-.5-.29-1.08-.44-1.74-.44h-2.5v-1.12h2.52c.66,0,1.27.11,1.83.34.56.23,1.05.54,1.46.95.41.41.73.88.96,1.43.23.55.34,1.14.34,1.8s-.12,1.24-.34,1.79c-.23.55-.55,1.03-.96,1.44s-.89.72-1.45.95c-.56.23-1.16.34-1.82.34h-2.56Z"/><path d="M158.8,61.46v-9.03h1.22v9.03h-1.22Z"/><path d="M166.27,61.59c-.64,0-1.24-.12-1.8-.36s-1.04-.57-1.46-1c-.42-.43-.74-.93-.98-1.49-.23-.56-.35-1.17-.35-1.81s.12-1.26.35-1.81c.23-.56.56-1.05.97-1.48s.89-.75,1.44-.99c.55-.23,1.15-.35,1.79-.35s1.24.12,1.79.35c.55.23,1.03.56,1.45.99s.74.92.98,1.48c.23.56.35,1.17.35,1.82s-.12,1.24-.35,1.81c-.23.56-.56,1.06-.97,1.48s-.89.76-1.44,1c-.55.24-1.14.36-1.78.36ZM166.24,60.42c.64,0,1.21-.15,1.7-.45.49-.3.88-.71,1.16-1.24.28-.52.42-1.13.42-1.8,0-.5-.08-.96-.24-1.39-.16-.42-.39-.79-.68-1.1-.29-.31-.64-.55-1.04-.72-.4-.17-.84-.25-1.33-.25-.64,0-1.21.15-1.7.44s-.88.7-1.16,1.22c-.28.52-.42,1.12-.42,1.8,0,.5.08.97.24,1.4.16.43.39.8.68,1.11.29.31.64.55,1.04.72.4.17.84.26,1.32.26Z"/><path d="M143.62,25.26c-.96-.62-2.06-.94-3.31-.94s-2.37.28-3.36.85c-.99.57-1.77,1.34-2.32,2.31-.03.05-.05.1-.07.15-.27-.69-.67-1.36-1.3-1.91-1.1-.97-2.64-1.39-4.59-1.26v3.13c.89-.09,1.94-.05,2.53.46.65.57.72,1.61.75,2.42.03.88.02,1.77.02,2.65v8.03h3.12v-9.61c0-.83.18-1.57.55-2.22.37-.65.88-1.16,1.53-1.53.65-.37,1.39-.55,2.22-.55,1.25,0,2.26.4,3.04,1.21s1.16,1.84,1.16,3.09v9.61h3.16v-10.23c0-1.13-.28-2.2-.83-3.21-.55-1.01-1.31-1.82-2.27-2.45Z"/><path d="M162.83,25.45c-1.31-.75-2.77-1.13-4.39-1.13s-3.04.38-4.34,1.15c-1.3.76-2.32,1.79-3.09,3.07-.76,1.28-1.15,2.72-1.15,4.32s.38,3.08,1.15,4.39c.76,1.31,1.79,2.34,3.09,3.1,1.3.76,2.74,1.15,4.34,1.15s3.08-.38,4.39-1.15c1.31-.76,2.34-1.8,3.1-3.1.76-1.31,1.15-2.77,1.15-4.39s-.38-3.04-1.15-4.34c-.76-1.3-1.8-2.32-3.1-3.07ZM163.16,35.75c-.46.84-1.1,1.51-1.91,1.99-.81.49-1.75.73-2.81.73s-1.93-.24-2.74-.73c-.81-.49-1.45-1.15-1.91-1.99-.46-.84-.69-1.81-.69-2.9s.23-2.01.69-2.84c.46-.83,1.1-1.49,1.91-1.96s1.72-.71,2.74-.71,1.99.24,2.79.71,1.43,1.13,1.91,1.96.71,1.78.71,2.84-.23,2.05-.69,2.9Z"/><path d="M192.86,25.08c-.95-.51-2.02-.76-3.23-.76s-2.22.26-3.19.78c-.97.52-1.76,1.24-2.38,2.15-.01.02-.02.04-.03.06-.01-.02-.02-.05-.04-.08-.54-.93-1.28-1.64-2.22-2.15-.94-.51-1.98-.76-3.14-.76s-2.24.26-3.19.78c-.7.38-1.29.88-1.77,1.49v-1.92h-3.12v16.48h3.12v-9.96c0-.83.18-1.54.55-2.12.37-.58.86-1.03,1.46-1.35.6-.32,1.28-.49,2.05-.49,1.13,0,2.07.35,2.83,1.06.75.71,1.13,1.67,1.13,2.9v9.96h3.12v-9.96c0-.83.18-1.54.55-2.12.37-.58.86-1.03,1.47-1.35.61-.32,1.3-.49,2.06-.49,1.11,0,2.04.35,2.79,1.06.75.71,1.13,1.67,1.13,2.9v9.96h3.16v-10.58c0-1.29-.28-2.4-.85-3.33s-1.32-1.64-2.27-2.15Z"/><path d="M212.7,26.93c-.57-.76-1.27-1.37-2.13-1.83-.98-.52-2.1-.78-3.35-.78-1.53,0-2.9.38-4.11,1.15-1.21.76-2.17,1.79-2.88,3.09-.71,1.3-1.06,2.75-1.06,4.37s.35,3.08,1.06,4.37c.71,1.3,1.67,2.32,2.88,3.07,1.21.75,2.58,1.13,4.11,1.13,1.25,0,2.37-.26,3.36-.78.86-.45,1.56-1.06,2.12-1.81v2.25h3.16v-16.48h-3.16v2.26ZM211.49,36.96c-.95,1.05-2.2,1.58-3.75,1.58-1.04,0-1.97-.24-2.78-.73-.81-.49-1.44-1.15-1.89-1.99s-.68-1.82-.68-2.93.23-2.05.68-2.9,1.08-1.51,1.87-1.99c.8-.49,1.72-.73,2.76-.73s1.95.24,2.72.71c.77.47,1.38,1.14,1.82,1.99s.66,1.84.66,2.95c0,1.64-.47,2.99-1.42,4.04Z"/><path d="M236.04,40.46c0-.19,0-.38,0-.56,0-.67,0-1.34,0-2.01v-20.49c0-.34,0-.68,0-1.03h-3.16v10.58c-.58-.77-1.3-1.4-2.19-1.86-.99-.52-2.12-.78-3.36-.78-1.5,0-2.86.38-4.06,1.15-1.2.76-2.16,1.79-2.86,3.09-.71,1.3-1.06,2.75-1.06,4.37s.35,3.08,1.06,4.37c.71,1.3,1.66,2.32,2.86,3.07,1.2.75,2.56,1.13,4.06,1.13,1.27,0,2.4-.26,3.4-.78.87-.46,1.58-1.08,2.15-1.84,0,2.01-.16,4.17.69,6.05.3.66.71,1.25,1.25,1.74,1.09,1,2.6,1.51,4.5,1.51h.15v-3.17c-1.15.03-1.99-.19-2.51-.67-1.02-.93-.96-2.53-.92-3.86ZM230.6,37.81c-.79.49-1.7.73-2.74.73s-1.93-.24-2.72-.71c-.8-.47-1.42-1.14-1.87-1.99s-.68-1.84-.68-2.95.23-2.09.68-2.93,1.07-1.5,1.86-1.98c.79-.47,1.7-.71,2.74-.71s1.95.24,2.74.73c.79.49,1.4,1.15,1.84,1.99.44.84.66,1.82.66,2.93s-.22,2.05-.66,2.9c-.44.84-1.05,1.51-1.84,1.99Z"/><path d="M257.88,36.01c-1.63-.47-3.24-.08-4.75.57-1.23.53-2.3,1.37-3.63,1.68-1.08.26-2.09.25-3.03-.01-.94-.26-1.74-.76-2.39-1.5-.4-.45-.71-.98-.96-1.57l12.55-2.97c0-.33-.03-.63-.07-.89-.04-.26-.08-.51-.14-.73-.36-1.53-1-2.82-1.93-3.86-.92-1.04-2.04-1.76-3.35-2.17-1.31-.4-2.69-.43-4.16-.09-1.55.37-2.87,1.07-3.94,2.09-1.08,1.03-1.83,2.26-2.26,3.69-.43,1.43-.46,2.94-.09,4.51.38,1.6,1.09,2.94,2.13,4.02,1.04,1.08,2.28,1.84,3.73,2.27,1.44.43,2.98.45,4.6.07.74-.18,1.47-.42,2.14-.79s1.38-.8,2.11-1.13c.74-.33,1.56-.58,2.38-.44.09.02.17.04.26.06.92.26,1.76,1.1,2.48,2.5l2.6-1.36c-1.11-2.13-2.55-3.46-4.27-3.96ZM242.67,30.93c.23-.91.69-1.68,1.38-2.32.68-.64,1.54-1.08,2.57-1.32.99-.23,1.88-.23,2.68.03.8.25,1.47.71,2.04,1.37.38.45.69,1.01.93,1.65l-9.74,2.31c-.03-.6,0-1.17.15-1.71Z"/><path d="M19.84,31.43h5.65c1.48,0,2.81-.3,3.99-.9s2.11-1.46,2.79-2.57c.68-1.11,1.02-2.41,1.02-3.89s-.34-2.8-1.02-3.9c-.68-1.1-1.61-1.95-2.79-2.55s-2.51-.9-3.99-.9h-8.92v24.08h3.26v-9.37ZM25.32,19.57c.9,0,1.71.19,2.41.55.71.37,1.26.89,1.67,1.56.4.67.61,1.47.61,2.39s-.2,1.72-.61,2.39c-.4.67-.96,1.19-1.67,1.56-.71.37-1.51.56-2.41.56h-5.48v-9.02h5.48Z"/><rect x="37.05" y="24.32" width="3.16" height="16.48"/><path d="M38.64,21.02c.58,0,1.05-.19,1.42-.57.37-.38.56-.86.56-1.44s-.19-1.02-.56-1.4-.84-.57-1.42-.57-1.05.19-1.42.57c-.37.38-.56.85-.56,1.4s.18,1.06.56,1.44c.37.38.84.57,1.42.57Z"/><path d="M62.89,40.36c.86-.45,1.56-1.06,2.12-1.81v2.25h3.16v-16.48h-3.16v2.26c-.57-.76-1.27-1.37-2.13-1.83-.98-.52-2.1-.78-3.35-.78-1.53,0-2.9.38-4.11,1.15-1.21.76-2.17,1.79-2.88,3.09-.71,1.3-1.06,2.75-1.06,4.37s.35,3.08,1.06,4.37,1.67,2.32,2.88,3.07c1.21.75,2.58,1.13,4.11,1.13,1.25,0,2.37-.26,3.37-.78ZM55.38,35.47c-.45-.84-.68-1.82-.68-2.93s.23-2.05.68-2.9,1.08-1.51,1.87-1.99c.8-.49,1.72-.73,2.76-.73s1.95.24,2.72.71c.77.47,1.38,1.14,1.82,1.99.44.86.66,1.84.66,2.95,0,1.64-.47,2.99-1.42,4.04-.95,1.05-2.2,1.58-3.75,1.58-1.04,0-1.97-.24-2.78-.73-.81-.49-1.44-1.15-1.89-1.99Z"/><polygon points="75.17 40.8 78.29 40.8 78.29 27.16 82.35 27.16 82.35 24.32 78.29 24.32 78.29 17.42 75.17 17.42 75.17 24.32 71.11 24.32 71.11 27.16 75.17 27.16 75.17 40.8"/><path d="M94.28,40.84c1.27-.27,2.4-.76,3.41-1.47,1.01-.71,1.81-1.6,2.41-2.67l-2.39-1.59c-.41.75-.96,1.36-1.65,1.84-.69.48-1.49.81-2.39,1-1.09.23-2.1.2-3.03-.08-.94-.29-1.72-.81-2.35-1.56-.39-.46-.69-1-.93-1.59l12.61-2.67c0-.33-.02-.63-.05-.89-.03-.26-.07-.51-.12-.74-.33-1.54-.94-2.84-1.84-3.9-.9-1.06-2-1.81-3.29-2.25-1.3-.43-2.68-.5-4.15-.18-1.56.33-2.89,1-3.99,2-1.1,1-1.88,2.21-2.35,3.64-.47,1.42-.53,2.93-.2,4.51.34,1.61,1.02,2.96,2.03,4.07,1.02,1.11,2.24,1.9,3.67,2.36,1.43.46,2.97.52,4.59.18ZM87.02,30.47c.26-.91.73-1.67,1.43-2.29.7-.62,1.56-1.04,2.61-1.26,1-.21,1.89-.18,2.68.09.79.27,1.46.74,2,1.42.37.46.66,1.02.89,1.67l-9.79,2.07c-.02-.6.04-1.17.19-1.71Z"/><path d="M113.14,39.79c1.1-.9,1.65-2.13,1.65-3.68,0-1.02-.21-1.84-.64-2.46-.43-.62-.98-1.12-1.65-1.49-.67-.37-1.38-.66-2.12-.88-.74-.22-1.45-.43-2.13-.64s-1.23-.46-1.65-.76-.62-.73-.62-1.28.24-.96.71-1.28c.47-.32,1.16-.49,2.06-.49.86,0,1.62.16,2.29.49s1.25.79,1.73,1.39l2.01-2.01c-.65-.9-1.47-1.58-2.48-2.03-1.01-.45-2.16-.68-3.45-.68-1.23,0-2.28.2-3.16.59-.88.39-1.56.95-2.03,1.68-.47.73-.71,1.59-.71,2.58s.21,1.8.64,2.41c.43.61.98,1.09,1.65,1.44.67.35,1.38.62,2.13.83s1.46.42,2.13.64,1.22.5,1.65.83c.43.34.64.8.64,1.4s-.27,1.07-.8,1.41-1.28.5-2.25.5-1.85-.18-2.64-.54c-.79-.36-1.48-.91-2.08-1.65l-2.01,2.01c.51.62,1.1,1.16,1.79,1.61s1.44.8,2.27,1.04c.83.24,1.71.36,2.64.36,1.85,0,3.32-.45,4.42-1.35Z"/><path d="M44.82,19.43c0,.3,0,.59,0,.89,0,.09,0,.19,0,.28v20.2h3.12s0-.05,0-.08c0-.08,0-.15,0-.23,0-.12,0-.25,0-.37,0-.17,0-.33,0-.5,0-.2,0-.41,0-.61,0-.24,0-.48,0-.72,0-.27,0-.54,0-.81,0-.3,0-.59,0-.89,0-.32,0-.64,0-.96,0-.34,0-.68,0-1.02s0-.71,0-1.06,0-.73,0-1.09,0-.74,0-1.11,0-.75,0-1.12,0-.75,0-1.12,0-.74,0-1.11,0-.72,0-1.08,0-.7,0-1.04,0-.66,0-.99c0-.31,0-.62,0-.93,0-.29,0-.57,0-.86,0-.26,0-.52,0-.77,0-.23,0-.45,0-.68,0-.19,0-.38,0-.57,0-.15,0-.3,0-.45,0-.22,0-.44,0-.65,0-.53,0-1.06,0-1.59-.01-.46-.05-.92-.12-1.37-.08-.49-.19-.98-.37-1.45-.18-.5-.43-.97-.74-1.4-.16-.21-.33-.41-.51-.6-1.25-1.26-3.12-1.9-5.57-1.92v3.12c1.59.02,2.72.36,3.35,1,.35.35.56.82.67,1.3.13.51.16,1.04.17,1.56,0,.27,0,.54,0,.82Z"/></svg>