<?xml version="1.0" encoding="UTF-8"?><svg id="Calque_1" xmlns="http://www.w3.org/2000/svg" viewBox="0 0 191.48 197.04"><path d="M94.14,110.63c.66-2.57,2.04-6.71.15-8.27-1.06-.92-3-.6-4.42-.28-5.97,1.37-12.42,3.85-17.74,6.34-7.2,3.38-12.76,9.34-15.87,16.66-2.12,4.83-3.71,12.12-2.76,17.25,1.05,2.67,5.65,1.6,8.02,1.59,18.58-1.83,28.26-16.1,32.49-32.9l.11-.39Z"/><path d="M112.37,147.92c-2.55-7.29-8.78-14.16-12.31-21.24-.3-.47-.74-1.59-1.59-1.48-.67.16-1.41,1.72-1.62,2.08-4.38,8.73-12.22,16.42-12.91,26.55-1.13,10.24,11.26,13.3,19.24,11.59,9.66-1.61,12.18-8.51,9.29-17.15l-.11-.35Z"/><path d="M31.28,98.72c-.17,15.7,11.81,17.97,23.58,10.84,5.44-3.43,10.41-6.94,15.99-9.93,2.17-1.2-.29-2.26-1.25-2.8-4.93-2.59-9.25-5.77-14.03-8.72-11.76-7.45-24.23-6.1-24.28,10.19v.42Z"/><path d="M102.93,86.41c-1.07,3.53-2.62,9.68,2.7,8.83,8.66-1.87,17.58-4.95,24.94-10.01,9.03-6.72,14.69-19.16,13.02-30.51-.57-1.8-3.09-1.72-4.85-1.72-2.44.03-4.87.32-7.24.88-16.03,3.13-24.65,17.32-28.47,32.15l-.11.39Z"/><path d="M93.57,95.12c5.13-1.43-3.68-19.79-5.06-23.16-5.77-12.38-20.99-20.88-34.49-18.12-1.09.98-.77,4.05-.79,5.69.58,9.83,4.94,19.29,12.65,25.34,6.97,5.11,15.88,8.02,24.34,10.11,1.15.23,2.21.35,3.08.21l.28-.06Z"/><path d="M115.27,134.39c5.89,5.74,15.22,9.3,23.47,9.41,1.4-.07,3.88.18,4.63-.91,2.21-10.97-3.49-23.85-12.18-30.71-6.97-5.1-15.89-8.05-24.35-10.13-3.54-.86-5.79.41-4.85,4.25,2.36,9.6,5.72,20.56,12.99,27.82l.29.28Z"/><path d="M101.47,67.43c3.84-6.93,10.15-13.97,11.39-22.14,2.81-11.84-10.42-15.78-19.78-13.5-21.23,5.66-2.19,27.29,3.64,38.1.6,1.19,1.58,2.78,2.64.96.88-1.31,1.15-1.89,1.91-3.1l.19-.32Z"/><path d="M165.85,98.31c.27-10.46-6.22-17.52-16.87-13.83-8.44,2.67-15.16,9.18-22.79,12.94-1.89,1.14.38,2.33,1.25,2.78,4.94,2.6,9.27,5.78,14.06,8.74,11.78,7.48,24.3,6.09,24.34-10.22v-.42Z"/></svg>