<?xml version="1.0" encoding="UTF-8"?><svg id="Calque_1" xmlns="http://www.w3.org/2000/svg" viewBox="0 0 295.95 197.04"><path d="M54.13,121.62c-1.74-1.13-3.74-1.7-6-1.7s-4.3.51-6.1,1.54c-1.8,1.03-3.21,2.42-4.21,4.18-.05.09-.08.19-.13.28-.49-1.26-1.21-2.46-2.36-3.47-2-1.76-4.79-2.53-8.33-2.28v5.67c1.62-.16,3.52-.09,4.58.84,1.17,1.04,1.31,2.92,1.37,4.38.06,1.6.03,3.2.03,4.8v13.35c0,.4,0,.8,0,1.2h5.66v-17.41c0-1.51.33-2.85,1.01-4.02.67-1.17,1.59-2.1,2.77-2.77,1.17-.67,2.51-1.01,4.02-1.01,2.26,0,4.1.73,5.5,2.2s2.11,3.33,2.11,5.6v17.41h5.72v-18.55c0-2.05-.5-3.99-1.51-5.82-1.01-1.82-2.38-3.3-4.12-4.43Z"/><path d="M88.96,121.97c-2.37-1.36-5.02-2.04-7.95-2.04s-5.51.69-7.86,2.08c-2.35,1.38-4.21,3.24-5.59,5.56-1.38,2.33-2.08,4.93-2.08,7.83s.69,5.59,2.08,7.95c1.38,2.37,3.25,4.24,5.59,5.63,2.35,1.38,4.97,2.08,7.86,2.08s5.58-.69,7.95-2.08c2.37-1.38,4.24-3.26,5.63-5.63,1.38-2.37,2.08-5.02,2.08-7.95s-.69-5.51-2.08-7.86c-1.38-2.35-3.26-4.2-5.63-5.56ZM89.55,140.64c-.84,1.53-1.99,2.73-3.46,3.62-1.47.88-3.17,1.32-5.09,1.32s-3.5-.44-4.97-1.32c-1.47-.88-2.62-2.09-3.46-3.62-.84-1.53-1.26-3.28-1.26-5.25s.42-3.65,1.26-5.15c.84-1.51,1.99-2.69,3.46-3.55s3.12-1.29,4.97-1.29,3.62.43,5.06,1.29,2.6,2.04,3.46,3.55,1.29,3.23,1.29,5.15-.42,3.72-1.26,5.25Z"/><path d="M143.37,121.31c-1.72-.92-3.67-1.38-5.85-1.38s-4.02.47-5.78,1.42c-1.76.94-3.2,2.24-4.31,3.9-.02.03-.04.07-.06.1-.02-.04-.04-.09-.07-.14-.99-1.68-2.33-2.98-4.02-3.9-1.7-.92-3.6-1.38-5.69-1.38s-4.07.47-5.78,1.42c-1.27.7-2.34,1.6-3.21,2.69v-3.48h-5.66v29.86h5.66v-18.04c0-1.51.33-2.79,1.01-3.83.67-1.05,1.55-1.86,2.64-2.45,1.09-.59,2.33-.88,3.71-.88,2.05,0,3.76.64,5.12,1.92,1.36,1.28,2.04,3.03,2.04,5.25v18.04h5.66v-18.04c0-1.51.33-2.79,1.01-3.83.67-1.05,1.56-1.86,2.67-2.45,1.11-.59,2.36-.88,3.74-.88,2.01,0,3.7.64,5.06,1.92,1.36,1.28,2.04,3.03,2.04,5.25v18.04h5.72v-19.18c0-2.35-.51-4.36-1.54-6.03s-2.4-2.98-4.12-3.9Z"/><path d="M179.33,124.65c-1.03-1.37-2.31-2.49-3.87-3.31-1.78-.94-3.8-1.42-6.07-1.42-2.77,0-5.25.69-7.45,2.08-2.2,1.38-3.94,3.25-5.22,5.59-1.28,2.35-1.92,4.99-1.92,7.92s.64,5.57,1.92,7.92c1.28,2.35,3.02,4.2,5.22,5.56,2.2,1.36,4.68,2.04,7.45,2.04,2.26,0,4.3-.47,6.1-1.41,1.56-.82,2.82-1.92,3.83-3.29v4.07h5.72v-29.86h-5.72v4.1ZM177.13,142.84c-1.72,1.91-3.98,2.86-6.79,2.86-1.89,0-3.56-.44-5.03-1.32-1.47-.88-2.61-2.08-3.43-3.61s-1.23-3.3-1.23-5.31.41-3.72,1.23-5.25,1.95-2.73,3.39-3.62c1.45-.88,3.11-1.32,5-1.32s3.53.43,4.93,1.29c1.4.86,2.5,2.07,3.3,3.62s1.19,3.33,1.19,5.34c0,2.98-.86,5.42-2.58,7.32Z"/><path d="M221.63,149.17c0-.35.02-.69.02-1.01,0-1.21,0-2.43,0-3.64v-37.13c0-.61,0-1.23,0-1.86h-5.72v19.18c-1.05-1.4-2.36-2.53-3.96-3.36-1.8-.94-3.83-1.42-6.1-1.42-2.72,0-5.18.69-7.36,2.08-2.18,1.38-3.91,3.25-5.19,5.59-1.28,2.35-1.92,4.99-1.92,7.92s.64,5.57,1.92,7.92c1.28,2.35,3.01,4.2,5.19,5.56,2.18,1.36,4.63,2.04,7.36,2.04,2.3,0,4.36-.47,6.16-1.41,1.58-.83,2.87-1.95,3.9-3.34,0,3.65-.29,7.55,1.25,10.96.54,1.19,1.29,2.27,2.26,3.15,1.98,1.82,4.71,2.73,8.15,2.73h.26v-5.74c-2.09.06-3.61-.35-4.55-1.22-1.85-1.68-1.74-4.58-1.67-7ZM211.77,144.38c-1.42.88-3.08,1.32-4.97,1.32s-3.49-.43-4.93-1.29c-1.45-.86-2.58-2.06-3.39-3.61s-1.23-3.33-1.23-5.35.41-3.78,1.23-5.31,1.94-2.72,3.36-3.58c1.42-.86,3.08-1.29,4.97-1.29s3.54.44,4.97,1.32c1.43.88,2.54,2.09,3.33,3.62.8,1.53,1.19,3.3,1.19,5.31s-.4,3.72-1.19,5.25c-.8,1.53-1.91,2.73-3.33,3.61Z"/><path d="M261.21,141.12c-2.95-.85-5.87-.15-8.6,1.03-2.24.96-4.17,2.47-6.57,3.04-1.96.46-3.79.46-5.5-.02-1.71-.48-3.15-1.39-4.33-2.72-.72-.81-1.29-1.77-1.75-2.85l22.74-5.38c-.01-.6-.05-1.14-.12-1.62-.07-.48-.15-.92-.25-1.33-.66-2.77-1.82-5.1-3.49-6.99-1.67-1.89-3.7-3.2-6.07-3.93-2.37-.73-4.88-.78-7.53-.16-2.81.67-5.19,1.93-7.15,3.79-1.95,1.86-3.32,4.09-4.1,6.69-.79,2.6-.84,5.32-.16,8.18.69,2.9,1.97,5.33,3.86,7.29,1.89,1.97,4.14,3.34,6.76,4.12,2.62.78,5.4.82,8.33.13,1.34-.32,2.66-.76,3.88-1.43s2.5-1.45,3.82-2.05c1.33-.6,2.84-1.05,4.31-.79.16.03.32.06.47.11,1.67.48,3.18,2,4.5,4.53l4.71-2.46c-2.02-3.86-4.63-6.28-7.74-7.17ZM233.65,131.9c.43-1.65,1.26-3.05,2.49-4.21,1.23-1.15,2.79-1.95,4.67-2.4,1.79-.42,3.41-.41,4.86.05,1.44.46,2.67,1.28,3.69,2.49.69.82,1.24,1.83,1.68,2.99l-17.65,4.18c-.06-1.09.02-2.13.27-3.1Z"/><path d="M64.89,76.7h10.25c2.68,0,5.09-.54,7.23-1.63s3.82-2.64,5.06-4.65c1.24-2.01,1.85-4.36,1.85-7.04s-.62-5.08-1.85-7.07c-1.24-1.99-2.92-3.53-5.06-4.62s-4.55-1.63-7.23-1.63h-16.16v43.63h5.91v-16.98ZM74.83,55.2c1.63,0,3.09.34,4.37,1.01,1.28.67,2.28,1.61,3.02,2.83.73,1.22,1.1,2.66,1.1,4.34s-.37,3.12-1.1,4.34c-.73,1.22-1.74,2.16-3.02,2.83-1.28.67-2.73,1.01-4.37,1.01h-9.93v-16.35h9.93Z"/><rect x="96.08" y="63.81" width="5.72" height="29.86"/><path d="M98.97,57.84c1.05,0,1.91-.35,2.58-1.04.67-.69,1.01-1.56,1.01-2.61s-.34-1.85-1.01-2.55-1.53-1.04-2.58-1.04-1.91.35-2.58,1.04c-.67.69-1.01,1.54-1.01,2.55s.33,1.92,1.01,2.61c.67.69,1.53,1.04,2.58,1.04Z"/><path d="M142.92,92.89c1.56-.82,2.82-1.92,3.83-3.29v4.07h5.72v-29.86h-5.72v4.1c-1.03-1.37-2.31-2.49-3.87-3.31-1.78-.94-3.8-1.42-6.07-1.42-2.77,0-5.25.69-7.45,2.08-2.2,1.38-3.94,3.25-5.22,5.59-1.28,2.35-1.92,4.99-1.92,7.92s.64,5.57,1.92,7.92,3.02,4.2,5.22,5.56c2.2,1.36,4.68,2.04,7.45,2.04,2.26,0,4.3-.47,6.1-1.41ZM129.3,84.03c-.82-1.53-1.23-3.3-1.23-5.31s.41-3.72,1.23-5.25,1.95-2.73,3.39-3.62c1.45-.88,3.11-1.32,5-1.32s3.53.43,4.93,1.29c1.4.86,2.5,2.07,3.3,3.62.8,1.55,1.19,3.33,1.19,5.34,0,2.98-.86,5.42-2.58,7.32-1.72,1.91-3.98,2.86-6.79,2.86-1.89,0-3.56-.44-5.03-1.32-1.47-.88-2.61-2.08-3.43-3.61Z"/><polygon points="165.17 93.68 170.83 93.68 170.83 68.97 178.18 68.97 178.18 63.81 170.83 63.81 170.83 51.3 165.17 51.3 165.17 63.81 157.82 63.81 157.82 68.97 165.17 68.97 165.17 93.68"/><path d="M199.81,93.75c2.3-.49,4.36-1.37,6.18-2.66,1.83-1.29,3.28-2.9,4.37-4.85l-4.34-2.87c-.74,1.36-1.74,2.47-2.99,3.33-1.25.87-2.7,1.47-4.34,1.82-1.97.42-3.8.37-5.49-.15-1.7-.52-3.12-1.46-4.26-2.82-.7-.83-1.25-1.8-1.68-2.89l22.86-4.84c0-.6-.03-1.14-.09-1.62-.06-.48-.13-.93-.22-1.34-.59-2.79-1.7-5.14-3.33-7.07-1.63-1.93-3.62-3.28-5.97-4.07-2.35-.79-4.86-.9-7.53-.33-2.83.6-5.24,1.81-7.23,3.62-1.99,1.81-3.41,4.01-4.26,6.59-.85,2.58-.96,5.3-.36,8.17.62,2.91,1.84,5.37,3.68,7.38,1.84,2.01,4.06,3.44,6.66,4.28,2.6.84,5.37.95,8.33.33ZM186.63,74.95c.47-1.64,1.33-3.02,2.59-4.15,1.26-1.12,2.84-1.89,4.72-2.29,1.8-.38,3.42-.33,4.85.16,1.43.49,2.64,1.35,3.63,2.57.67.84,1.2,1.86,1.61,3.03l-17.75,3.76c-.03-1.09.07-2.13.34-3.09Z"/><path d="M233.98,91.85c1.99-1.63,2.99-3.85,2.99-6.66,0-1.84-.39-3.33-1.16-4.46-.78-1.13-1.77-2.03-2.99-2.7-1.22-.67-2.49-1.2-3.83-1.6-1.34-.4-2.63-.79-3.87-1.16s-2.23-.84-2.99-1.38-1.13-1.32-1.13-2.33.43-1.74,1.29-2.33c.86-.59,2.11-.88,3.74-.88,1.55,0,2.93.29,4.15.88s2.26,1.43,3.14,2.51l3.65-3.65c-1.17-1.63-2.67-2.86-4.5-3.68-1.82-.82-3.91-1.23-6.26-1.23-2.22,0-4.13.36-5.72,1.07-1.59.71-2.82,1.73-3.68,3.05-.86,1.32-1.29,2.88-1.29,4.68s.39,3.26,1.16,4.37c.77,1.11,1.77,1.98,2.99,2.61,1.22.63,2.5,1.13,3.87,1.51s2.65.76,3.87,1.16,2.21.9,2.99,1.51c.77.61,1.16,1.46,1.16,2.55s-.48,1.94-1.45,2.55-2.33.91-4.09.91-3.35-.32-4.78-.97c-1.43-.65-2.68-1.64-3.77-2.99l-3.65,3.65c.92,1.13,2,2.11,3.24,2.92s2.61,1.45,4.12,1.89c1.51.44,3.1.66,4.78.66,3.35,0,6.02-.82,8.02-2.45Z"/><path d="M110.17,54.94c0,.54,0,1.08,0,1.61,0,.17,0,.34,0,.51v36.61h5.66s0-.1,0-.14c0-.14,0-.28,0-.42,0-.22,0-.45,0-.67,0-.3,0-.6,0-.9,0-.37,0-.74,0-1.11,0-.43,0-.87,0-1.3,0-.49,0-.98,0-1.47,0-.54,0-1.08,0-1.61,0-.58,0-1.16,0-1.74,0-.61,0-1.23,0-1.84s0-1.28,0-1.92,0-1.32,0-1.98,0-1.35,0-2.02,0-1.36,0-2.04,0-1.36,0-2.03,0-1.34,0-2.01,0-1.31,0-1.96,0-1.26,0-1.89,0-1.2,0-1.8c0-.56,0-1.13,0-1.69,0-.52,0-1.04,0-1.56,0-.47,0-.93,0-1.4,0-.41,0-.82,0-1.23,0-.34,0-.69,0-1.03,0-.27,0-.54,0-.81,0-.39,0-.79,0-1.18,0-.96.02-1.92-.01-2.88-.03-.83-.09-1.66-.22-2.48-.14-.89-.35-1.78-.66-2.63-.33-.9-.78-1.76-1.35-2.54-.28-.39-.59-.75-.93-1.09-2.26-2.28-5.65-3.44-10.1-3.48v5.65c2.88.03,4.93.65,6.08,1.81.64.64,1.01,1.49,1.22,2.35.23.93.29,1.89.31,2.84,0,.49,0,.99,0,1.48Z"/></svg>