<?xml version="1.0" encoding="UTF-8"?><svg id="Calque_1" xmlns="http://www.w3.org/2000/svg" viewBox="0 0 197.01 196.56"><path d="M28.19,131.46l-2.26.81-1.86-5.21c-.26-.72-.63-1.3-1.12-1.76-.49-.46-1.06-.75-1.71-.88-.65-.13-1.34-.07-2.07.2s-1.31.65-1.73,1.16c-.42.51-.67,1.1-.77,1.77-.09.67-.01,1.36.24,2.07l1.86,5.21-2.26.81-1.91-5.35c-.42-1.18-.56-2.32-.42-3.42.14-1.11.56-2.09,1.23-2.94.68-.85,1.62-1.49,2.81-1.92,1.18-.42,2.3-.52,3.38-.29,1.08.23,2.02.72,2.83,1.49.81.77,1.43,1.74,1.85,2.91l1.91,5.35ZM36.26,130.54l-19.13,6.83-.92-2.59,19.13-6.83.92,2.59Z"/><path d="M14.75,116.48c.09.48,0,.9-.26,1.27-.26.36-.63.59-1.11.68-.46.08-.88,0-1.25-.25-.37-.25-.6-.61-.69-1.09-.09-.48,0-.9.26-1.27.26-.36.62-.59,1.08-.67.48-.09.91,0,1.28.24.37.25.6.61.69,1.09ZM31.4,114.83l-13.68,2.48-.47-2.62,13.68-2.48.47,2.62Z"/><path d="M30.46,108.81l-20.81,1.92-.24-2.62,20.81-1.92.24,2.62Z"/><path d="M30.43,97.22c-.08,1.29-.47,2.42-1.17,3.4-.7.98-1.61,1.74-2.74,2.26-1.13.52-2.37.74-3.74.66-1.36-.09-2.57-.46-3.62-1.12-1.05-.66-1.87-1.53-2.45-2.59-.58-1.06-.83-2.24-.74-3.52.07-1.05.35-1.98.84-2.78.49-.8,1.14-1.43,1.94-1.89.8-.46,1.71-.68,2.73-.68l4.18.26c.99.12,1.86.45,2.6,1s1.31,1.25,1.7,2.12c.39.87.54,1.82.48,2.87ZM30.43,92.58l-3.74-.24-3.36-.71-3.39.28-3.39-.21.17-2.66,13.87.88-.17,2.66ZM27.98,96.62c.08-1.3-.29-2.38-1.13-3.24-.83-.85-1.94-1.33-3.33-1.41-.93-.06-1.77.07-2.52.4-.74.32-1.34.8-1.78,1.43-.44.63-.69,1.38-.74,2.25-.06.88.1,1.66.47,2.36.37.7.89,1.26,1.58,1.68s1.49.67,2.4.72c.93.06,1.77-.08,2.5-.41.73-.33,1.33-.83,1.78-1.49.45-.66.71-1.42.76-2.3Z"/><path d="M31.87,85.04l-19.12-4.86.65-2.55,19.11,4.86-.65,2.55ZM19.88,85.53l-2.33-.59,2.34-9.19,2.33.59-2.34,9.19Z"/><path d="M36.58,72.17c-.57,1.28-1.38,2.3-2.41,3.04-1.03.75-2.17,1.19-3.43,1.33-1.26.14-2.52-.07-3.79-.64-1.25-.56-2.24-1.35-2.98-2.38-.74-1.02-1.17-2.16-1.31-3.41-.14-1.25.07-2.49.62-3.71.52-1.16,1.25-2.07,2.19-2.74.94-.67,2-1.05,3.17-1.13,1.17-.08,2.36.14,3.57.69.18.08.37.17.56.28s.41.25.63.41l-4.8,10.71-2-.9,4.22-9.43.38,1.23c-.85-.38-1.65-.56-2.38-.52-.73.04-1.39.26-1.96.66-.58.4-1.04,1-1.39,1.78-.37.82-.51,1.62-.43,2.4s.36,1.49.85,2.11c.49.63,1.17,1.13,2.04,1.52.89.4,1.75.57,2.58.51.83-.06,1.57-.33,2.23-.83.66-.5,1.18-1.17,1.56-2.02.32-.71.49-1.42.51-2.13.02-.71-.13-1.39-.43-2.04l2.27-.84c.43.94.64,1.93.62,2.97-.02,1.04-.25,2.06-.7,3.06Z"/><path d="M42.88,61.18c-.45.64-.96,1.19-1.53,1.65s-1.18.81-1.82,1.07c-.64.25-1.3.41-1.98.46l-.42-2.36c.8-.06,1.52-.27,2.15-.64s1.18-.89,1.65-1.56c.47-.67.72-1.27.74-1.8.03-.53-.17-.94-.59-1.23-.42-.29-.84-.37-1.28-.24-.44.13-.9.38-1.37.74-.48.36-.97.75-1.48,1.16-.51.42-1.04.78-1.61,1.07s-1.16.44-1.79.44c-.63,0-1.29-.24-1.98-.72-.69-.48-1.17-1.06-1.44-1.74-.27-.68-.33-1.42-.18-2.22.15-.8.53-1.62,1.12-2.47.63-.9,1.34-1.58,2.14-2.06.8-.48,1.67-.72,2.6-.73l.42,2.36c-.65.05-1.25.22-1.8.53-.55.31-1.03.76-1.44,1.35-.44.62-.66,1.18-.66,1.66,0,.48.18.85.54,1.11.38.27.78.33,1.19.19.41-.14.85-.4,1.32-.77.47-.37.97-.76,1.48-1.16.51-.41,1.05-.75,1.63-1.04.58-.28,1.19-.42,1.83-.42.64,0,1.31.26,2.01.75,1.07.75,1.65,1.72,1.75,2.92.09,1.2-.31,2.43-1.2,3.71Z"/><path d="M45.09,44.76c-.41.39-.87.58-1.38.55-.52-.03-.96-.23-1.33-.61-.38-.39-.57-.84-.57-1.34,0-.5.2-.95.61-1.35.39-.38.84-.57,1.35-.56.51,0,.96.21,1.34.6.37.38.55.83.56,1.35,0,.52-.19.98-.58,1.36Z"/><path d="M61.69,42.73l-12.6-8.61,2.47-1.57,9.66,6.87-.79.5-1.89-11.79,2.47-1.57,2.02,15.32-1.33.85ZM61.38,49.68l-1.06-9.27,2.7,1.48.83,6.23-2.47,1.57Z"/><path d="M75.07,36.1c-1.26.48-2.51.61-3.76.4s-2.37-.72-3.37-1.52c-.99-.8-1.73-1.84-2.22-3.12-.48-1.26-.61-2.51-.39-3.75.22-1.24.72-2.36,1.51-3.35.79-.99,1.82-1.72,3.08-2.2,1.28-.49,2.54-.63,3.8-.43,1.26.2,2.38.7,3.37,1.49.99.79,1.72,1.82,2.2,3.08.49,1.28.62,2.54.41,3.8-.21,1.26-.72,2.39-1.52,3.38-.8.99-1.84,1.73-3.12,2.22ZM74.17,33.72c.84-.32,1.5-.79,2-1.42.49-.63.79-1.34.91-2.14.11-.8,0-1.63-.32-2.49-.32-.84-.79-1.52-1.41-2.03-.62-.51-1.32-.84-2.09-.97-.77-.13-1.58-.04-2.42.28-.8.31-1.45.77-1.95,1.38-.5.62-.8,1.32-.92,2.12-.12.79-.01,1.61.31,2.45.33.86.8,1.55,1.42,2.08.62.53,1.32.86,2.1,1,.78.14,1.58.06,2.38-.25Z"/><path d="M89.3,31.83c-1.26.17-2.42.03-3.5-.43-1.08-.46-1.98-1.18-2.71-2.15-.73-.97-1.18-2.12-1.36-3.43-.18-1.31-.06-2.53.37-3.64.43-1.11,1.1-2.04,2.02-2.79.92-.75,2-1.21,3.24-1.38,1.08-.15,2.07-.07,2.97.24.9.31,1.64.81,2.23,1.51.59.7.98,1.55,1.18,2.57l.51,3.65c.08,1.01-.07,1.94-.46,2.77-.39.83-.97,1.52-1.74,2.06-.77.54-1.69.88-2.75,1.03ZM90.17,38.12c-1.43.2-2.72.11-3.88-.26-1.15-.37-2.14-.98-2.94-1.84l1.47-1.95c.66.64,1.4,1.09,2.23,1.36s1.77.33,2.83.18c1.39-.19,2.45-.72,3.18-1.58.73-.86,1-1.92.83-3.17l-.47-3.42.03-3.17-.89-3.01-.5-3.62,2.61-.36,1.83,13.22c.18,1.31.04,2.51-.43,3.59-.47,1.08-1.21,1.97-2.23,2.67-1.02.7-2.24,1.15-3.67,1.35ZM89.45,29.3c.87-.12,1.6-.41,2.18-.86.59-.46,1.01-1.04,1.28-1.76s.34-1.52.21-2.41c-.12-.89-.41-1.64-.86-2.26-.45-.62-1.02-1.07-1.72-1.36-.7-.29-1.48-.37-2.33-.25-.87.12-1.61.42-2.21.88s-1.05,1.06-1.33,1.78c-.28.72-.37,1.51-.25,2.38s.42,1.62.89,2.24,1.07,1.08,1.78,1.36c.72.28,1.5.37,2.35.25Z"/><path d="M105.19,31.8c-1.28-.11-2.41-.53-3.37-1.25-.97-.72-1.7-1.65-2.19-2.79-.5-1.14-.69-2.39-.57-3.75.12-1.36.52-2.56,1.21-3.6.69-1.04,1.57-1.83,2.65-2.38s2.26-.77,3.54-.66c1.05.09,1.97.39,2.76.9.79.51,1.4,1.17,1.84,1.98.44.81.64,1.73.61,2.74l-.36,4.17c-.14.99-.5,1.85-1.06,2.58-.56.73-1.28,1.28-2.16,1.65-.87.36-1.84.5-2.88.41ZM105.84,29.36c1.3.11,2.39-.24,3.26-1.05s1.37-1.91,1.49-3.29c.08-.93-.03-1.77-.34-2.53-.31-.75-.77-1.35-1.38-1.81-.62-.45-1.36-.72-2.24-.8-.87-.08-1.67.06-2.37.41s-1.28.86-1.72,1.54c-.44.68-.7,1.47-.78,2.38-.08.93.04,1.77.35,2.51.32.74.8,1.35,1.44,1.81.64.47,1.4.74,2.28.82ZM109.82,31.91l.33-3.73.79-3.34-.2-3.4.29-3.38,2.65.23-1.21,13.85-2.65-.23Z"/><path d="M123.56,26.26c-.54-.17-.92-.49-1.14-.96-.22-.47-.25-.95-.09-1.46.17-.52.47-.9.91-1.14.44-.24.94-.27,1.48-.1.52.17.9.48,1.13.93.23.45.27.94.1,1.46-.16.5-.47.88-.93,1.13-.46.25-.95.3-1.47.13Z"/><path d="M134.67,40.99c-1.19-.67-2.11-1.55-2.75-2.65-.65-1.1-.98-2.29-.99-3.56s.31-2.49.97-3.67c.67-1.19,1.55-2.11,2.63-2.75,1.09-.64,2.27-.97,3.54-.98,1.27-.01,2.5.31,3.69.98.94.53,1.71,1.19,2.31,1.98.6.8,1.01,1.69,1.21,2.68l-2.39.67c-.13-.65-.4-1.25-.81-1.78-.42-.54-.94-.98-1.57-1.33-.77-.43-1.54-.64-2.33-.62-.79.01-1.53.23-2.21.65s-1.25,1.03-1.7,1.83c-.45.8-.68,1.6-.68,2.4,0,.8.19,1.55.59,2.24.39.69.97,1.25,1.74,1.68.65.36,1.3.58,1.97.65.67.07,1.32,0,1.96-.23l.65,2.38c-.92.33-1.89.45-2.9.35-1.01-.1-1.98-.41-2.92-.93Z"/><path d="M145.19,48.52c-1.02-.88-1.73-1.92-2.13-3.13-.4-1.2-.49-2.43-.25-3.69.24-1.25.8-2.4,1.69-3.43.88-1.02,1.92-1.72,3.12-2.12s2.42-.48,3.66-.25c1.25.23,2.38.78,3.4,1.67,1.03.89,1.76,1.94,2.17,3.14.42,1.2.51,2.43.28,3.67-.23,1.25-.78,2.38-1.67,3.4-.9,1.03-1.95,1.75-3.15,2.16s-2.44.5-3.69.26c-1.25-.24-2.4-.8-3.43-1.7ZM146.85,46.6c.68.59,1.41.95,2.19,1.09.78.14,1.56.07,2.32-.22.76-.28,1.44-.77,2.04-1.46.59-.68.96-1.41,1.12-2.21.16-.79.11-1.56-.13-2.3-.25-.74-.71-1.41-1.39-2-.65-.56-1.36-.92-2.14-1.06-.78-.15-1.54-.08-2.3.19s-1.43.75-2.01,1.43c-.6.69-.99,1.44-1.16,2.23-.17.79-.13,1.57.11,2.33.25.76.7,1.42,1.34,1.98Z"/><path d="M152.05,54.73l10.94-8.58,1.62,2.07-10.94,8.58-1.62-2.07ZM159.89,51.92l-.25-1.07c1.4-1.1,2.76-1.65,4.1-1.65,1.33,0,2.48.6,3.43,1.81.43.55.73,1.13.89,1.72.16.6.16,1.26.02,1.99l-2.47-.26c.06-.42.04-.81-.07-1.18-.11-.36-.31-.73-.6-1.09-.6-.77-1.34-1.2-2.22-1.31-.88-.11-1.82.24-2.83,1.03Z"/><path d="M153.58,65.96l17.54-9.02,1.21,2.34-3.25,1.67-3.22,1.1-2.79,2-8.27,4.26-1.21-2.34ZM161.85,69.94c-.48-.94-.72-1.88-.72-2.84s.23-1.84.7-2.65c.46-.81,1.12-1.47,1.98-1.97l3.72-1.92c.93-.41,1.85-.56,2.78-.46.92.11,1.77.44,2.55.99.78.55,1.4,1.29,1.88,2.21.58,1.13.82,2.29.71,3.5-.1,1.21-.51,2.32-1.21,3.34-.7,1.02-1.66,1.84-2.88,2.47-1.21.62-2.44.93-3.68.91s-2.38-.34-3.41-.96c-1.03-.62-1.84-1.49-2.42-2.62ZM163.86,68.41c.4.78.94,1.37,1.6,1.77.67.4,1.41.61,2.21.62.81.01,1.63-.2,2.46-.62.82-.42,1.45-.96,1.91-1.63s.72-1.39.78-2.16c.06-.78-.11-1.56-.51-2.34-.39-.76-.92-1.35-1.59-1.75-.67-.4-1.4-.61-2.21-.61-.8,0-1.62.21-2.45.64-.82.42-1.46.95-1.92,1.6-.47.65-.73,1.36-.79,2.15-.06.79.11,1.56.5,2.32Z"/><path d="M166.56,82.1c-.21-.75-.32-1.49-.31-2.22,0-.73.11-1.43.32-2.08.21-.66.51-1.26.9-1.82l2.1,1.17c-.46.66-.75,1.35-.86,2.07-.11.72-.05,1.48.17,2.26.22.79.53,1.36.93,1.71.39.35.84.46,1.32.32.49-.14.82-.42.99-.84.17-.42.27-.93.3-1.53.02-.6.03-1.22.03-1.88,0-.66.06-1.3.18-1.92.13-.62.39-1.18.79-1.67.4-.49,1-.85,1.81-1.08.81-.23,1.56-.24,2.26-.02.7.22,1.31.64,1.83,1.26.52.62.92,1.43,1.21,2.43.3,1.05.38,2.04.25,2.96-.13.92-.49,1.75-1.08,2.48l-2.1-1.17c.38-.53.62-1.11.73-1.73.11-.62.06-1.28-.13-1.97-.21-.73-.5-1.25-.87-1.56-.37-.31-.77-.4-1.21-.28-.45.13-.75.4-.9.8-.15.41-.23.91-.24,1.51-.01.6-.02,1.23-.03,1.88,0,.65-.08,1.29-.23,1.92-.15.63-.42,1.19-.83,1.68-.41.49-1.03.85-1.85,1.09-1.26.36-2.38.19-3.36-.49-.99-.68-1.69-1.78-2.12-3.28Z"/><path d="M177.89,94.2c-.05-.56.1-1.04.45-1.42.35-.38.79-.6,1.31-.64.54-.05,1.01.09,1.4.41.39.32.61.76.66,1.32.05.54-.09,1.01-.42,1.4-.33.39-.77.61-1.31.66-.52.04-.99-.1-1.4-.42-.41-.33-.64-.76-.69-1.31Z"/><path d="M168.58,110.12c.16-1.36.62-2.55,1.38-3.57.77-1.02,1.73-1.78,2.9-2.29,1.17-.5,2.42-.68,3.76-.53,1.36.16,2.54.61,3.55,1.36,1.01.75,1.77,1.72,2.28,2.88.5,1.17.68,2.43.52,3.79-.12,1.07-.43,2.03-.94,2.9-.5.87-1.17,1.58-2,2.16l-1.54-1.94c.55-.37,1-.85,1.33-1.44.33-.59.54-1.24.62-1.96.1-.87,0-1.67-.33-2.39s-.81-1.32-1.46-1.79c-.65-.47-1.44-.75-2.35-.86s-1.74,0-2.48.3c-.74.31-1.36.78-1.84,1.41s-.78,1.38-.88,2.26c-.08.74-.03,1.43.16,2.07.19.64.51,1.21.97,1.72l-1.94,1.52c-.66-.72-1.15-1.57-1.45-2.54-.3-.97-.39-1.98-.27-3.05Z"/><path d="M165.7,122.72c.42-1.28,1.11-2.34,2.06-3.17s2.05-1.39,3.3-1.65c1.25-.27,2.52-.19,3.82.24,1.28.42,2.33,1.11,3.16,2.06.83.95,1.38,2.04,1.65,3.28s.19,2.5-.23,3.78c-.43,1.3-1.11,2.37-2.06,3.22-.95.85-2.04,1.41-3.28,1.68-1.24.27-2.5.19-3.78-.23-1.3-.43-2.37-1.12-3.21-2.08-.85-.96-1.4-2.06-1.67-3.31-.27-1.25-.19-2.52.24-3.82ZM168.12,123.52c-.28.85-.33,1.67-.16,2.44.18.78.54,1.46,1.09,2.05.55.59,1.27,1.03,2.14,1.32.85.28,1.67.34,2.47.18.79-.16,1.48-.5,2.07-1.01s1.03-1.2,1.31-2.05c.27-.82.32-1.61.15-2.38-.17-.77-.52-1.46-1.07-2.05-.54-.59-1.24-1.03-2.1-1.31-.87-.29-1.71-.36-2.5-.21-.8.15-1.5.48-2.1,1-.6.52-1.04,1.19-1.31,2Z"/><path d="M157.79,139.8l6.97,4.15c.91.54,1.82.7,2.74.49.92-.21,1.65-.77,2.19-1.68.36-.6.54-1.22.56-1.85.01-.63-.14-1.22-.45-1.77-.31-.55-.77-1-1.37-1.36l1.08-.62c.91.54,1.59,1.22,2.05,2.04.46.82.69,1.71.67,2.68-.02.97-.3,1.9-.84,2.81-.54.91-1.24,1.57-2.11,2s-1.78.62-2.75.59c-.97-.03-1.86-.29-2.69-.78l-7.42-4.42,1.36-2.29ZM162.81,131.38l11.94,7.11-1.35,2.26-11.94-7.11,1.35-2.26Z"/><path d="M151.55,147.21c.52-.58,1.09-1.07,1.71-1.46.62-.39,1.26-.67,1.93-.85.67-.18,1.34-.25,2.02-.22l.14,2.4c-.8-.04-1.54.09-2.21.39-.67.29-1.27.75-1.82,1.36-.54.61-.86,1.18-.95,1.7-.09.52.06.95.44,1.29.38.34.79.46,1.25.38.45-.08.93-.27,1.45-.57.51-.3,1.05-.63,1.6-.98s1.13-.65,1.72-.88c.6-.23,1.21-.31,1.83-.23.63.07,1.25.39,1.88.95s1.04,1.19,1.23,1.9c.19.71.17,1.45-.08,2.22-.25.77-.71,1.55-1.4,2.32-.73.82-1.51,1.41-2.36,1.8-.85.38-1.74.52-2.67.42l-.14-2.4c.65.03,1.27-.07,1.85-.31.58-.24,1.11-.63,1.59-1.17.51-.57.79-1.09.85-1.57.06-.48-.07-.87-.41-1.17-.35-.31-.74-.42-1.16-.33-.42.09-.89.3-1.41.61-.51.31-1.05.64-1.6.98-.55.34-1.14.62-1.74.84-.61.21-1.23.28-1.86.2-.63-.08-1.27-.41-1.91-.98-.98-.87-1.44-1.9-1.39-3.1.05-1.2.59-2.38,1.63-3.55Z"/><path d="M141.66,156.36c1.07-.84,2.24-1.35,3.51-1.52,1.27-.17,2.49-.02,3.67.45,1.18.48,2.18,1.24,3.01,2.3.84,1.07,1.35,2.24,1.53,3.49s.02,2.47-.45,3.65c-.48,1.18-1.25,2.19-2.33,3.03-.84.66-1.75,1.12-2.72,1.37-.97.25-1.95.28-2.94.09l.3-2.46c.65.13,1.3.11,1.96-.07.65-.18,1.27-.49,1.83-.94.69-.54,1.18-1.18,1.47-1.92.29-.74.37-1.5.25-2.29-.13-.79-.47-1.55-1.04-2.27s-1.22-1.24-1.96-1.55-1.51-.42-2.3-.32c-.79.1-1.53.42-2.22.96-.58.46-1.04.98-1.36,1.57-.32.59-.5,1.22-.54,1.89l-2.44-.32c.05-.98.31-1.92.79-2.81.48-.89,1.14-1.67,1.98-2.33Z"/><path d="M135.84,160.67l6.97,12.02-2.3,1.34-6.97-12.02,2.3-1.34ZM143.04,175.77c.42-.25.85-.31,1.28-.18.43.12.77.39,1.01.82.23.41.3.83.19,1.26s-.37.77-.8,1.02c-.42.24-.85.31-1.28.18-.43-.12-.77-.39-1-.79-.24-.42-.31-.85-.2-1.29s.37-.78.8-1.02Z"/><path d="M124.74,165.79c1.31-.52,2.59-.68,3.85-.5,1.26.18,2.39.67,3.39,1.45s1.75,1.81,2.26,3.1c.5,1.27.66,2.53.47,3.78-.19,1.25-.67,2.37-1.44,3.35-.77.99-1.79,1.73-3.04,2.22-1.18.47-2.34.61-3.48.43-1.14-.18-2.16-.65-3.06-1.41-.9-.76-1.59-1.75-2.08-2.99-.07-.18-.14-.38-.2-.6-.06-.22-.12-.46-.17-.74l10.91-4.31.81,2.04-9.61,3.79.59-1.14c.34.87.79,1.55,1.34,2.04.55.49,1.17.79,1.87.9.7.11,1.44.01,2.24-.3.83-.33,1.5-.8,1.99-1.41.49-.61.78-1.32.87-2.1.09-.79-.05-1.63-.4-2.52-.36-.91-.85-1.63-1.48-2.17-.63-.54-1.36-.86-2.17-.97-.82-.11-1.66.01-2.53.36-.73.29-1.34.68-1.85,1.17-.51.49-.88,1.08-1.11,1.76l-2.21-.98c.35-.98.89-1.83,1.63-2.56.74-.73,1.62-1.3,2.63-1.7Z"/><path d="M107.46,170.39l1.31,8c.17,1.04.63,1.84,1.39,2.41.76.57,1.65.77,2.69.6.69-.11,1.28-.37,1.77-.77.49-.4.84-.89,1.06-1.48.22-.59.27-1.23.16-1.92l1.17.43c.17,1.04.09,2-.24,2.89-.33.88-.87,1.63-1.62,2.24-.75.61-1.65,1-2.69,1.17-1.04.17-2,.06-2.89-.33-.88-.39-1.63-.96-2.23-1.73s-.98-1.61-1.13-2.56l-1.4-8.52,2.63-.43ZM117.13,168.8l2.25,13.72-2.6.43-2.25-13.72,2.6-.43Z"/><path d="M95.89,170.32c1.36.05,2.59.42,3.66,1.11,1.08.69,1.91,1.59,2.5,2.72.59,1.13.86,2.36.81,3.71-.05,1.36-.42,2.58-1.09,3.65-.68,1.07-1.58,1.9-2.7,2.49-1.13.59-2.37.86-3.74.81-1.07-.04-2.06-.28-2.96-.71-.9-.44-1.67-1.05-2.3-1.83l1.82-1.69c.41.52.92.93,1.53,1.22.61.29,1.28.44,2,.47.88.03,1.67-.14,2.36-.51.7-.37,1.26-.9,1.67-1.59.42-.69.64-1.49.68-2.4.04-.92-.13-1.73-.49-2.45-.36-.72-.88-1.29-1.54-1.73-.67-.44-1.44-.67-2.32-.7-.74-.03-1.42.08-2.05.32-.62.24-1.17.6-1.64,1.09l-1.66-1.82c.67-.72,1.48-1.26,2.42-1.63.94-.37,1.95-.54,3.02-.5Z"/><path d="M82.96,168.38c1.37.33,2.51.93,3.43,1.8.92.87,1.57,1.92,1.94,3.13.37,1.21.39,2.49.07,3.84-.32,1.33-.91,2.45-1.79,3.36-.87.91-1.91,1.55-3.11,1.92-1.2.36-2.46.39-3.76.07-1.23-.3-2.27-.85-3.1-1.65-.83-.8-1.4-1.77-1.69-2.9-.3-1.14-.29-2.35.02-3.64.05-.19.1-.39.18-.6.07-.21.17-.45.29-.7l11.41,2.74-.51,2.13-10.04-2.41,1.14-.6c-.22.91-.24,1.72-.07,2.44.17.71.51,1.32,1.01,1.81.5.49,1.17.84,2.01,1.04.87.21,1.69.2,2.44-.02.76-.22,1.4-.63,1.92-1.22.52-.6.9-1.36,1.12-2.29.23-.95.24-1.82.03-2.63-.21-.8-.62-1.48-1.23-2.04-.61-.56-1.37-.95-2.28-1.16-.76-.18-1.49-.22-2.19-.1-.7.11-1.34.38-1.92.8l-1.25-2.08c.85-.6,1.78-.99,2.81-1.16,1.03-.17,2.07-.13,3.13.12Z"/><path d="M102.55,107.07c-.7-1.18-1.71-3.21-2.98-3.09-.73.05-1.32.88-1.73,1.52-1.69,2.69-3.14,5.97-4.18,8.83-1.4,3.88-1.26,8.11.29,11.93.99,2.55,3.09,5.81,5.32,7.34,1.36.6,2.66-1.48,3.53-2.36,6.15-7.49,4.46-16.27-.15-23.99l-.1-.18Z"/><path d="M122.92,114.06c-3.61-1.74-8.41-1.97-12.31-3.28-.28-.06-.85-.31-1.12.04-.19.3.11,1.15.17,1.36,1.59,4.81,1.54,10.51,5,14.47,3.34,4.17,9.01.75,11.31-2.81,2.95-4.14,1.35-7.59-2.88-9.7l-.17-.09Z"/><path d="M75.13,125.76c5.7,5.82,10.92,2.26,12.63-4.67.74-3.26,1.27-6.37,2.23-9.51.36-1.24-.94-.72-1.49-.57-2.76.86-5.51,1.28-8.35,1.95-7.05,1.58-11.12,6.65-5.17,12.64l.15.16Z"/><path d="M96.89,94.96c.9,1.69,2.59,4.51,4.23,2.25,2.49-3.86,4.63-8.27,5.47-12.82.85-5.78-1.64-12.42-6.42-15.97-.87-.45-1.76.5-2.41,1.15-.89.9-1.67,1.9-2.33,2.98-4.73,7.03-2.69,15.4,1.35,22.23l.1.18Z"/><path d="M96.66,101.59c1.35-2.41-8.61-5.91-10.35-6.64-6.65-2.42-15.36.04-19.3,6.01-.04.76,1.2,1.77,1.8,2.38,3.82,3.39,8.89,5.26,13.93,4.65,4.43-.68,8.77-2.88,12.64-5.22.51-.34.94-.68,1.2-1.05l.08-.13Z"/><path d="M119.02,108.03c4.27-.05,8.99-2.17,12.06-5.16.49-.54,1.49-1.35,1.37-2.03-3.21-4.83-10.03-7.47-15.73-6.8-4.43.68-8.78,2.88-12.65,5.21-1.62.98-1.97,2.28-.22,3.33,4.39,2.66,9.64,5.44,14.97,5.44h.21Z"/><path d="M89.4,88.54c-1.14-3.95-1.4-8.85-3.94-12.3-3.31-5.38-9.61-1.96-12.21,2.31-5.71,9.86,9.2,10.81,15.31,12.64.66.22,1.6.44,1.32-.62-.16-.8-.27-1.11-.44-1.84l-.05-.19Z"/><path d="M124.34,76.25c-3.74-3.94-8.71-4.14-11.26,1.12-2.12,4.07-2.19,8.93-3.61,13.11-.28,1.11.99.72,1.48.56,2.77-.86,5.52-1.28,8.36-1.95,7.06-1.58,11.15-6.68,5.18-12.68l-.15-.15Z"/></svg>